%TF.GenerationSoftware,KiCad,Pcbnew,(5.1.6)-1*%
%TF.CreationDate,2020-07-21T23:35:01+09:00*%
%TF.ProjectId,PWM-PCA9685,50574d2d-5043-4413-9936-38352e6b6963,rev?*%
%TF.SameCoordinates,Original*%
%TF.FileFunction,Soldermask,Top*%
%TF.FilePolarity,Negative*%
%FSLAX46Y46*%
G04 Gerber Fmt 4.6, Leading zero omitted, Abs format (unit mm)*
G04 Created by KiCad (PCBNEW (5.1.6)-1) date 2020-07-21 23:35:01*
%MOMM*%
%LPD*%
G01*
G04 APERTURE LIST*
%ADD10O,1.800000X1.800000*%
%ADD11R,1.800000X1.800000*%
%ADD12C,1.700000*%
%ADD13R,1.700000X1.700000*%
%ADD14R,1.100000X1.600000*%
%ADD15R,0.610000X0.685000*%
%ADD16R,0.510000X0.570000*%
%ADD17R,4.090000X1.830000*%
%ADD18R,0.820000X0.510000*%
%ADD19C,3.100000*%
%ADD20O,3.400000X2.800000*%
G04 APERTURE END LIST*
%TO.C,R20*%
G36*
G01*
X150718750Y-47300000D02*
X151281250Y-47300000D01*
G75*
G02*
X151525000Y-47543750I0J-243750D01*
G01*
X151525000Y-48031250D01*
G75*
G02*
X151281250Y-48275000I-243750J0D01*
G01*
X150718750Y-48275000D01*
G75*
G02*
X150475000Y-48031250I0J243750D01*
G01*
X150475000Y-47543750D01*
G75*
G02*
X150718750Y-47300000I243750J0D01*
G01*
G37*
G36*
G01*
X150718750Y-45725000D02*
X151281250Y-45725000D01*
G75*
G02*
X151525000Y-45968750I0J-243750D01*
G01*
X151525000Y-46456250D01*
G75*
G02*
X151281250Y-46700000I-243750J0D01*
G01*
X150718750Y-46700000D01*
G75*
G02*
X150475000Y-46456250I0J243750D01*
G01*
X150475000Y-45968750D01*
G75*
G02*
X150718750Y-45725000I243750J0D01*
G01*
G37*
%TD*%
D10*
%TO.C,J6*%
X162500000Y-33460000D03*
D11*
X162500000Y-36000000D03*
%TD*%
%TO.C,R19*%
G36*
G01*
X146718750Y-47300000D02*
X147281250Y-47300000D01*
G75*
G02*
X147525000Y-47543750I0J-243750D01*
G01*
X147525000Y-48031250D01*
G75*
G02*
X147281250Y-48275000I-243750J0D01*
G01*
X146718750Y-48275000D01*
G75*
G02*
X146475000Y-48031250I0J243750D01*
G01*
X146475000Y-47543750D01*
G75*
G02*
X146718750Y-47300000I243750J0D01*
G01*
G37*
G36*
G01*
X146718750Y-45725000D02*
X147281250Y-45725000D01*
G75*
G02*
X147525000Y-45968750I0J-243750D01*
G01*
X147525000Y-46456250D01*
G75*
G02*
X147281250Y-46700000I-243750J0D01*
G01*
X146718750Y-46700000D01*
G75*
G02*
X146475000Y-46456250I0J243750D01*
G01*
X146475000Y-45968750D01*
G75*
G02*
X146718750Y-45725000I243750J0D01*
G01*
G37*
%TD*%
%TO.C,D50*%
G36*
G01*
X150718750Y-43300000D02*
X151281250Y-43300000D01*
G75*
G02*
X151525000Y-43543750I0J-243750D01*
G01*
X151525000Y-44031250D01*
G75*
G02*
X151281250Y-44275000I-243750J0D01*
G01*
X150718750Y-44275000D01*
G75*
G02*
X150475000Y-44031250I0J243750D01*
G01*
X150475000Y-43543750D01*
G75*
G02*
X150718750Y-43300000I243750J0D01*
G01*
G37*
G36*
G01*
X150718750Y-41725000D02*
X151281250Y-41725000D01*
G75*
G02*
X151525000Y-41968750I0J-243750D01*
G01*
X151525000Y-42456250D01*
G75*
G02*
X151281250Y-42700000I-243750J0D01*
G01*
X150718750Y-42700000D01*
G75*
G02*
X150475000Y-42456250I0J243750D01*
G01*
X150475000Y-41968750D01*
G75*
G02*
X150718750Y-41725000I243750J0D01*
G01*
G37*
%TD*%
%TO.C,D49*%
G36*
G01*
X146718750Y-43300000D02*
X147281250Y-43300000D01*
G75*
G02*
X147525000Y-43543750I0J-243750D01*
G01*
X147525000Y-44031250D01*
G75*
G02*
X147281250Y-44275000I-243750J0D01*
G01*
X146718750Y-44275000D01*
G75*
G02*
X146475000Y-44031250I0J243750D01*
G01*
X146475000Y-43543750D01*
G75*
G02*
X146718750Y-43300000I243750J0D01*
G01*
G37*
G36*
G01*
X146718750Y-41725000D02*
X147281250Y-41725000D01*
G75*
G02*
X147525000Y-41968750I0J-243750D01*
G01*
X147525000Y-42456250D01*
G75*
G02*
X147281250Y-42700000I-243750J0D01*
G01*
X146718750Y-42700000D01*
G75*
G02*
X146475000Y-42456250I0J243750D01*
G01*
X146475000Y-41968750D01*
G75*
G02*
X146718750Y-41725000I243750J0D01*
G01*
G37*
%TD*%
D12*
%TO.C,C4*%
X46000000Y-37000000D03*
D13*
X46000000Y-39500000D03*
%TD*%
D12*
%TO.C,C3*%
X36000000Y-37000000D03*
D13*
X36000000Y-39500000D03*
%TD*%
D10*
%TO.C,J4*%
X73130000Y-29620000D03*
X73130000Y-27080000D03*
X70590000Y-29620000D03*
X70590000Y-27080000D03*
X68050000Y-29620000D03*
X68050000Y-27080000D03*
X65510000Y-29620000D03*
X65510000Y-27080000D03*
X62970000Y-29620000D03*
X62970000Y-27080000D03*
X60430000Y-29620000D03*
X60430000Y-27080000D03*
X57890000Y-29620000D03*
X57890000Y-27080000D03*
X55350000Y-29620000D03*
X55350000Y-27080000D03*
X52810000Y-29620000D03*
X52810000Y-27080000D03*
X50270000Y-29620000D03*
X50270000Y-27080000D03*
X47730000Y-29620000D03*
X47730000Y-27080000D03*
X45190000Y-29620000D03*
X45190000Y-27080000D03*
X42650000Y-29620000D03*
X42650000Y-27080000D03*
X40110000Y-29620000D03*
X40110000Y-27080000D03*
X37570000Y-29620000D03*
X37570000Y-27080000D03*
X35030000Y-29620000D03*
X35030000Y-27080000D03*
X32490000Y-29620000D03*
X32490000Y-27080000D03*
X29950000Y-29620000D03*
X29950000Y-27080000D03*
X27410000Y-29620000D03*
X27410000Y-27080000D03*
X24870000Y-29620000D03*
D11*
X24870000Y-27080000D03*
%TD*%
D10*
%TO.C,J1*%
X31460000Y-90550000D03*
X34000000Y-90550000D03*
X31460000Y-88010000D03*
X34000000Y-88010000D03*
X31460000Y-85470000D03*
X34000000Y-85470000D03*
X31460000Y-82930000D03*
X34000000Y-82930000D03*
X31460000Y-80390000D03*
X34000000Y-80390000D03*
X31460000Y-77850000D03*
X34000000Y-77850000D03*
X31460000Y-75310000D03*
X34000000Y-75310000D03*
X31460000Y-72770000D03*
X34000000Y-72770000D03*
X31460000Y-70230000D03*
X34000000Y-70230000D03*
X31460000Y-67690000D03*
X34000000Y-67690000D03*
X31460000Y-65150000D03*
X34000000Y-65150000D03*
X31460000Y-62610000D03*
X34000000Y-62610000D03*
X31460000Y-60070000D03*
X34000000Y-60070000D03*
X31460000Y-57530000D03*
X34000000Y-57530000D03*
X31460000Y-54990000D03*
X34000000Y-54990000D03*
X31460000Y-52450000D03*
D11*
X34000000Y-52450000D03*
%TD*%
D10*
%TO.C,J2*%
X71460000Y-90550000D03*
X74000000Y-90550000D03*
X71460000Y-88010000D03*
X74000000Y-88010000D03*
X71460000Y-85470000D03*
X74000000Y-85470000D03*
X71460000Y-82930000D03*
X74000000Y-82930000D03*
X71460000Y-80390000D03*
X74000000Y-80390000D03*
X71460000Y-77850000D03*
X74000000Y-77850000D03*
X71460000Y-75310000D03*
X74000000Y-75310000D03*
X71460000Y-72770000D03*
X74000000Y-72770000D03*
X71460000Y-70230000D03*
X74000000Y-70230000D03*
X71460000Y-67690000D03*
X74000000Y-67690000D03*
X71460000Y-65150000D03*
X74000000Y-65150000D03*
X71460000Y-62610000D03*
X74000000Y-62610000D03*
X71460000Y-60070000D03*
X74000000Y-60070000D03*
X71460000Y-57530000D03*
X74000000Y-57530000D03*
X71460000Y-54990000D03*
X74000000Y-54990000D03*
X71460000Y-52450000D03*
D11*
X74000000Y-52450000D03*
%TD*%
D10*
%TO.C,J3*%
X111460000Y-90550000D03*
X114000000Y-90550000D03*
X111460000Y-88010000D03*
X114000000Y-88010000D03*
X111460000Y-85470000D03*
X114000000Y-85470000D03*
X111460000Y-82930000D03*
X114000000Y-82930000D03*
X111460000Y-80390000D03*
X114000000Y-80390000D03*
X111460000Y-77850000D03*
X114000000Y-77850000D03*
X111460000Y-75310000D03*
X114000000Y-75310000D03*
X111460000Y-72770000D03*
X114000000Y-72770000D03*
X111460000Y-70230000D03*
X114000000Y-70230000D03*
X111460000Y-67690000D03*
X114000000Y-67690000D03*
X111460000Y-65150000D03*
X114000000Y-65150000D03*
X111460000Y-62610000D03*
X114000000Y-62610000D03*
X111460000Y-60070000D03*
X114000000Y-60070000D03*
X111460000Y-57530000D03*
X114000000Y-57530000D03*
X111460000Y-54990000D03*
X114000000Y-54990000D03*
X111460000Y-52450000D03*
D11*
X114000000Y-52450000D03*
%TD*%
D14*
%TO.C,JP18*%
X148100000Y-84800000D03*
X146800000Y-84800000D03*
%TD*%
%TO.C,JP17*%
X148100000Y-87300000D03*
X146800000Y-87300000D03*
%TD*%
%TO.C,JP16*%
X148100000Y-89800000D03*
X146800000Y-89800000D03*
%TD*%
%TO.C,JP15*%
X148100000Y-92300000D03*
X146800000Y-92300000D03*
%TD*%
%TO.C,JP14*%
X148100000Y-94800000D03*
X146800000Y-94800000D03*
%TD*%
%TO.C,JP13*%
X148100000Y-97300000D03*
X146800000Y-97300000D03*
%TD*%
%TO.C,JP12*%
X108100000Y-84800000D03*
X106800000Y-84800000D03*
%TD*%
%TO.C,JP11*%
X108100000Y-87300000D03*
X106800000Y-87300000D03*
%TD*%
%TO.C,JP10*%
X108100000Y-89800000D03*
X106800000Y-89800000D03*
%TD*%
%TO.C,JP9*%
X108100000Y-92300000D03*
X106800000Y-92300000D03*
%TD*%
%TO.C,JP8*%
X108100000Y-94800000D03*
X106800000Y-94800000D03*
%TD*%
%TO.C,JP7*%
X108100000Y-97300000D03*
X106800000Y-97300000D03*
%TD*%
%TO.C,JP6*%
X68100000Y-84800000D03*
X66800000Y-84800000D03*
%TD*%
%TO.C,JP5*%
X68100000Y-87300000D03*
X66800000Y-87300000D03*
%TD*%
%TO.C,JP4*%
X68100000Y-89800000D03*
X66800000Y-89800000D03*
%TD*%
%TO.C,JP3*%
X68100000Y-92300000D03*
X66800000Y-92300000D03*
%TD*%
%TO.C,JP2*%
X68100000Y-94800000D03*
X66800000Y-94800000D03*
%TD*%
%TO.C,JP1*%
X68100000Y-97300000D03*
X66800000Y-97300000D03*
%TD*%
%TO.C,U1*%
G36*
G01*
X57900000Y-69425000D02*
X57650000Y-69425000D01*
G75*
G02*
X57525000Y-69300000I0J125000D01*
G01*
X57525000Y-67975000D01*
G75*
G02*
X57650000Y-67850000I125000J0D01*
G01*
X57900000Y-67850000D01*
G75*
G02*
X58025000Y-67975000I0J-125000D01*
G01*
X58025000Y-69300000D01*
G75*
G02*
X57900000Y-69425000I-125000J0D01*
G01*
G37*
G36*
G01*
X58550000Y-69425000D02*
X58300000Y-69425000D01*
G75*
G02*
X58175000Y-69300000I0J125000D01*
G01*
X58175000Y-67975000D01*
G75*
G02*
X58300000Y-67850000I125000J0D01*
G01*
X58550000Y-67850000D01*
G75*
G02*
X58675000Y-67975000I0J-125000D01*
G01*
X58675000Y-69300000D01*
G75*
G02*
X58550000Y-69425000I-125000J0D01*
G01*
G37*
G36*
G01*
X59200000Y-69425000D02*
X58950000Y-69425000D01*
G75*
G02*
X58825000Y-69300000I0J125000D01*
G01*
X58825000Y-67975000D01*
G75*
G02*
X58950000Y-67850000I125000J0D01*
G01*
X59200000Y-67850000D01*
G75*
G02*
X59325000Y-67975000I0J-125000D01*
G01*
X59325000Y-69300000D01*
G75*
G02*
X59200000Y-69425000I-125000J0D01*
G01*
G37*
G36*
G01*
X59850000Y-69425000D02*
X59600000Y-69425000D01*
G75*
G02*
X59475000Y-69300000I0J125000D01*
G01*
X59475000Y-67975000D01*
G75*
G02*
X59600000Y-67850000I125000J0D01*
G01*
X59850000Y-67850000D01*
G75*
G02*
X59975000Y-67975000I0J-125000D01*
G01*
X59975000Y-69300000D01*
G75*
G02*
X59850000Y-69425000I-125000J0D01*
G01*
G37*
G36*
G01*
X60500000Y-69425000D02*
X60250000Y-69425000D01*
G75*
G02*
X60125000Y-69300000I0J125000D01*
G01*
X60125000Y-67975000D01*
G75*
G02*
X60250000Y-67850000I125000J0D01*
G01*
X60500000Y-67850000D01*
G75*
G02*
X60625000Y-67975000I0J-125000D01*
G01*
X60625000Y-69300000D01*
G75*
G02*
X60500000Y-69425000I-125000J0D01*
G01*
G37*
G36*
G01*
X61150000Y-69425000D02*
X60900000Y-69425000D01*
G75*
G02*
X60775000Y-69300000I0J125000D01*
G01*
X60775000Y-67975000D01*
G75*
G02*
X60900000Y-67850000I125000J0D01*
G01*
X61150000Y-67850000D01*
G75*
G02*
X61275000Y-67975000I0J-125000D01*
G01*
X61275000Y-69300000D01*
G75*
G02*
X61150000Y-69425000I-125000J0D01*
G01*
G37*
G36*
G01*
X61800000Y-69425000D02*
X61550000Y-69425000D01*
G75*
G02*
X61425000Y-69300000I0J125000D01*
G01*
X61425000Y-67975000D01*
G75*
G02*
X61550000Y-67850000I125000J0D01*
G01*
X61800000Y-67850000D01*
G75*
G02*
X61925000Y-67975000I0J-125000D01*
G01*
X61925000Y-69300000D01*
G75*
G02*
X61800000Y-69425000I-125000J0D01*
G01*
G37*
G36*
G01*
X62450000Y-69425000D02*
X62200000Y-69425000D01*
G75*
G02*
X62075000Y-69300000I0J125000D01*
G01*
X62075000Y-67975000D01*
G75*
G02*
X62200000Y-67850000I125000J0D01*
G01*
X62450000Y-67850000D01*
G75*
G02*
X62575000Y-67975000I0J-125000D01*
G01*
X62575000Y-69300000D01*
G75*
G02*
X62450000Y-69425000I-125000J0D01*
G01*
G37*
G36*
G01*
X63100000Y-69425000D02*
X62850000Y-69425000D01*
G75*
G02*
X62725000Y-69300000I0J125000D01*
G01*
X62725000Y-67975000D01*
G75*
G02*
X62850000Y-67850000I125000J0D01*
G01*
X63100000Y-67850000D01*
G75*
G02*
X63225000Y-67975000I0J-125000D01*
G01*
X63225000Y-69300000D01*
G75*
G02*
X63100000Y-69425000I-125000J0D01*
G01*
G37*
G36*
G01*
X63750000Y-69425000D02*
X63500000Y-69425000D01*
G75*
G02*
X63375000Y-69300000I0J125000D01*
G01*
X63375000Y-67975000D01*
G75*
G02*
X63500000Y-67850000I125000J0D01*
G01*
X63750000Y-67850000D01*
G75*
G02*
X63875000Y-67975000I0J-125000D01*
G01*
X63875000Y-69300000D01*
G75*
G02*
X63750000Y-69425000I-125000J0D01*
G01*
G37*
G36*
G01*
X64400000Y-69425000D02*
X64150000Y-69425000D01*
G75*
G02*
X64025000Y-69300000I0J125000D01*
G01*
X64025000Y-67975000D01*
G75*
G02*
X64150000Y-67850000I125000J0D01*
G01*
X64400000Y-67850000D01*
G75*
G02*
X64525000Y-67975000I0J-125000D01*
G01*
X64525000Y-69300000D01*
G75*
G02*
X64400000Y-69425000I-125000J0D01*
G01*
G37*
G36*
G01*
X65050000Y-69425000D02*
X64800000Y-69425000D01*
G75*
G02*
X64675000Y-69300000I0J125000D01*
G01*
X64675000Y-67975000D01*
G75*
G02*
X64800000Y-67850000I125000J0D01*
G01*
X65050000Y-67850000D01*
G75*
G02*
X65175000Y-67975000I0J-125000D01*
G01*
X65175000Y-69300000D01*
G75*
G02*
X65050000Y-69425000I-125000J0D01*
G01*
G37*
G36*
G01*
X65700000Y-69425000D02*
X65450000Y-69425000D01*
G75*
G02*
X65325000Y-69300000I0J125000D01*
G01*
X65325000Y-67975000D01*
G75*
G02*
X65450000Y-67850000I125000J0D01*
G01*
X65700000Y-67850000D01*
G75*
G02*
X65825000Y-67975000I0J-125000D01*
G01*
X65825000Y-69300000D01*
G75*
G02*
X65700000Y-69425000I-125000J0D01*
G01*
G37*
G36*
G01*
X66350000Y-69425000D02*
X66100000Y-69425000D01*
G75*
G02*
X65975000Y-69300000I0J125000D01*
G01*
X65975000Y-67975000D01*
G75*
G02*
X66100000Y-67850000I125000J0D01*
G01*
X66350000Y-67850000D01*
G75*
G02*
X66475000Y-67975000I0J-125000D01*
G01*
X66475000Y-69300000D01*
G75*
G02*
X66350000Y-69425000I-125000J0D01*
G01*
G37*
G36*
G01*
X66350000Y-75150000D02*
X66100000Y-75150000D01*
G75*
G02*
X65975000Y-75025000I0J125000D01*
G01*
X65975000Y-73700000D01*
G75*
G02*
X66100000Y-73575000I125000J0D01*
G01*
X66350000Y-73575000D01*
G75*
G02*
X66475000Y-73700000I0J-125000D01*
G01*
X66475000Y-75025000D01*
G75*
G02*
X66350000Y-75150000I-125000J0D01*
G01*
G37*
G36*
G01*
X65700000Y-75150000D02*
X65450000Y-75150000D01*
G75*
G02*
X65325000Y-75025000I0J125000D01*
G01*
X65325000Y-73700000D01*
G75*
G02*
X65450000Y-73575000I125000J0D01*
G01*
X65700000Y-73575000D01*
G75*
G02*
X65825000Y-73700000I0J-125000D01*
G01*
X65825000Y-75025000D01*
G75*
G02*
X65700000Y-75150000I-125000J0D01*
G01*
G37*
G36*
G01*
X65050000Y-75150000D02*
X64800000Y-75150000D01*
G75*
G02*
X64675000Y-75025000I0J125000D01*
G01*
X64675000Y-73700000D01*
G75*
G02*
X64800000Y-73575000I125000J0D01*
G01*
X65050000Y-73575000D01*
G75*
G02*
X65175000Y-73700000I0J-125000D01*
G01*
X65175000Y-75025000D01*
G75*
G02*
X65050000Y-75150000I-125000J0D01*
G01*
G37*
G36*
G01*
X64400000Y-75150000D02*
X64150000Y-75150000D01*
G75*
G02*
X64025000Y-75025000I0J125000D01*
G01*
X64025000Y-73700000D01*
G75*
G02*
X64150000Y-73575000I125000J0D01*
G01*
X64400000Y-73575000D01*
G75*
G02*
X64525000Y-73700000I0J-125000D01*
G01*
X64525000Y-75025000D01*
G75*
G02*
X64400000Y-75150000I-125000J0D01*
G01*
G37*
G36*
G01*
X63750000Y-75150000D02*
X63500000Y-75150000D01*
G75*
G02*
X63375000Y-75025000I0J125000D01*
G01*
X63375000Y-73700000D01*
G75*
G02*
X63500000Y-73575000I125000J0D01*
G01*
X63750000Y-73575000D01*
G75*
G02*
X63875000Y-73700000I0J-125000D01*
G01*
X63875000Y-75025000D01*
G75*
G02*
X63750000Y-75150000I-125000J0D01*
G01*
G37*
G36*
G01*
X63100000Y-75150000D02*
X62850000Y-75150000D01*
G75*
G02*
X62725000Y-75025000I0J125000D01*
G01*
X62725000Y-73700000D01*
G75*
G02*
X62850000Y-73575000I125000J0D01*
G01*
X63100000Y-73575000D01*
G75*
G02*
X63225000Y-73700000I0J-125000D01*
G01*
X63225000Y-75025000D01*
G75*
G02*
X63100000Y-75150000I-125000J0D01*
G01*
G37*
G36*
G01*
X62450000Y-75150000D02*
X62200000Y-75150000D01*
G75*
G02*
X62075000Y-75025000I0J125000D01*
G01*
X62075000Y-73700000D01*
G75*
G02*
X62200000Y-73575000I125000J0D01*
G01*
X62450000Y-73575000D01*
G75*
G02*
X62575000Y-73700000I0J-125000D01*
G01*
X62575000Y-75025000D01*
G75*
G02*
X62450000Y-75150000I-125000J0D01*
G01*
G37*
G36*
G01*
X61800000Y-75150000D02*
X61550000Y-75150000D01*
G75*
G02*
X61425000Y-75025000I0J125000D01*
G01*
X61425000Y-73700000D01*
G75*
G02*
X61550000Y-73575000I125000J0D01*
G01*
X61800000Y-73575000D01*
G75*
G02*
X61925000Y-73700000I0J-125000D01*
G01*
X61925000Y-75025000D01*
G75*
G02*
X61800000Y-75150000I-125000J0D01*
G01*
G37*
G36*
G01*
X61150000Y-75150000D02*
X60900000Y-75150000D01*
G75*
G02*
X60775000Y-75025000I0J125000D01*
G01*
X60775000Y-73700000D01*
G75*
G02*
X60900000Y-73575000I125000J0D01*
G01*
X61150000Y-73575000D01*
G75*
G02*
X61275000Y-73700000I0J-125000D01*
G01*
X61275000Y-75025000D01*
G75*
G02*
X61150000Y-75150000I-125000J0D01*
G01*
G37*
G36*
G01*
X60500000Y-75150000D02*
X60250000Y-75150000D01*
G75*
G02*
X60125000Y-75025000I0J125000D01*
G01*
X60125000Y-73700000D01*
G75*
G02*
X60250000Y-73575000I125000J0D01*
G01*
X60500000Y-73575000D01*
G75*
G02*
X60625000Y-73700000I0J-125000D01*
G01*
X60625000Y-75025000D01*
G75*
G02*
X60500000Y-75150000I-125000J0D01*
G01*
G37*
G36*
G01*
X59850000Y-75150000D02*
X59600000Y-75150000D01*
G75*
G02*
X59475000Y-75025000I0J125000D01*
G01*
X59475000Y-73700000D01*
G75*
G02*
X59600000Y-73575000I125000J0D01*
G01*
X59850000Y-73575000D01*
G75*
G02*
X59975000Y-73700000I0J-125000D01*
G01*
X59975000Y-75025000D01*
G75*
G02*
X59850000Y-75150000I-125000J0D01*
G01*
G37*
G36*
G01*
X59200000Y-75150000D02*
X58950000Y-75150000D01*
G75*
G02*
X58825000Y-75025000I0J125000D01*
G01*
X58825000Y-73700000D01*
G75*
G02*
X58950000Y-73575000I125000J0D01*
G01*
X59200000Y-73575000D01*
G75*
G02*
X59325000Y-73700000I0J-125000D01*
G01*
X59325000Y-75025000D01*
G75*
G02*
X59200000Y-75150000I-125000J0D01*
G01*
G37*
G36*
G01*
X58550000Y-75150000D02*
X58300000Y-75150000D01*
G75*
G02*
X58175000Y-75025000I0J125000D01*
G01*
X58175000Y-73700000D01*
G75*
G02*
X58300000Y-73575000I125000J0D01*
G01*
X58550000Y-73575000D01*
G75*
G02*
X58675000Y-73700000I0J-125000D01*
G01*
X58675000Y-75025000D01*
G75*
G02*
X58550000Y-75150000I-125000J0D01*
G01*
G37*
G36*
G01*
X57900000Y-75150000D02*
X57650000Y-75150000D01*
G75*
G02*
X57525000Y-75025000I0J125000D01*
G01*
X57525000Y-73700000D01*
G75*
G02*
X57650000Y-73575000I125000J0D01*
G01*
X57900000Y-73575000D01*
G75*
G02*
X58025000Y-73700000I0J-125000D01*
G01*
X58025000Y-75025000D01*
G75*
G02*
X57900000Y-75150000I-125000J0D01*
G01*
G37*
%TD*%
%TO.C,U3*%
G36*
G01*
X137900000Y-69425000D02*
X137650000Y-69425000D01*
G75*
G02*
X137525000Y-69300000I0J125000D01*
G01*
X137525000Y-67975000D01*
G75*
G02*
X137650000Y-67850000I125000J0D01*
G01*
X137900000Y-67850000D01*
G75*
G02*
X138025000Y-67975000I0J-125000D01*
G01*
X138025000Y-69300000D01*
G75*
G02*
X137900000Y-69425000I-125000J0D01*
G01*
G37*
G36*
G01*
X138550000Y-69425000D02*
X138300000Y-69425000D01*
G75*
G02*
X138175000Y-69300000I0J125000D01*
G01*
X138175000Y-67975000D01*
G75*
G02*
X138300000Y-67850000I125000J0D01*
G01*
X138550000Y-67850000D01*
G75*
G02*
X138675000Y-67975000I0J-125000D01*
G01*
X138675000Y-69300000D01*
G75*
G02*
X138550000Y-69425000I-125000J0D01*
G01*
G37*
G36*
G01*
X139200000Y-69425000D02*
X138950000Y-69425000D01*
G75*
G02*
X138825000Y-69300000I0J125000D01*
G01*
X138825000Y-67975000D01*
G75*
G02*
X138950000Y-67850000I125000J0D01*
G01*
X139200000Y-67850000D01*
G75*
G02*
X139325000Y-67975000I0J-125000D01*
G01*
X139325000Y-69300000D01*
G75*
G02*
X139200000Y-69425000I-125000J0D01*
G01*
G37*
G36*
G01*
X139850000Y-69425000D02*
X139600000Y-69425000D01*
G75*
G02*
X139475000Y-69300000I0J125000D01*
G01*
X139475000Y-67975000D01*
G75*
G02*
X139600000Y-67850000I125000J0D01*
G01*
X139850000Y-67850000D01*
G75*
G02*
X139975000Y-67975000I0J-125000D01*
G01*
X139975000Y-69300000D01*
G75*
G02*
X139850000Y-69425000I-125000J0D01*
G01*
G37*
G36*
G01*
X140500000Y-69425000D02*
X140250000Y-69425000D01*
G75*
G02*
X140125000Y-69300000I0J125000D01*
G01*
X140125000Y-67975000D01*
G75*
G02*
X140250000Y-67850000I125000J0D01*
G01*
X140500000Y-67850000D01*
G75*
G02*
X140625000Y-67975000I0J-125000D01*
G01*
X140625000Y-69300000D01*
G75*
G02*
X140500000Y-69425000I-125000J0D01*
G01*
G37*
G36*
G01*
X141150000Y-69425000D02*
X140900000Y-69425000D01*
G75*
G02*
X140775000Y-69300000I0J125000D01*
G01*
X140775000Y-67975000D01*
G75*
G02*
X140900000Y-67850000I125000J0D01*
G01*
X141150000Y-67850000D01*
G75*
G02*
X141275000Y-67975000I0J-125000D01*
G01*
X141275000Y-69300000D01*
G75*
G02*
X141150000Y-69425000I-125000J0D01*
G01*
G37*
G36*
G01*
X141800000Y-69425000D02*
X141550000Y-69425000D01*
G75*
G02*
X141425000Y-69300000I0J125000D01*
G01*
X141425000Y-67975000D01*
G75*
G02*
X141550000Y-67850000I125000J0D01*
G01*
X141800000Y-67850000D01*
G75*
G02*
X141925000Y-67975000I0J-125000D01*
G01*
X141925000Y-69300000D01*
G75*
G02*
X141800000Y-69425000I-125000J0D01*
G01*
G37*
G36*
G01*
X142450000Y-69425000D02*
X142200000Y-69425000D01*
G75*
G02*
X142075000Y-69300000I0J125000D01*
G01*
X142075000Y-67975000D01*
G75*
G02*
X142200000Y-67850000I125000J0D01*
G01*
X142450000Y-67850000D01*
G75*
G02*
X142575000Y-67975000I0J-125000D01*
G01*
X142575000Y-69300000D01*
G75*
G02*
X142450000Y-69425000I-125000J0D01*
G01*
G37*
G36*
G01*
X143100000Y-69425000D02*
X142850000Y-69425000D01*
G75*
G02*
X142725000Y-69300000I0J125000D01*
G01*
X142725000Y-67975000D01*
G75*
G02*
X142850000Y-67850000I125000J0D01*
G01*
X143100000Y-67850000D01*
G75*
G02*
X143225000Y-67975000I0J-125000D01*
G01*
X143225000Y-69300000D01*
G75*
G02*
X143100000Y-69425000I-125000J0D01*
G01*
G37*
G36*
G01*
X143750000Y-69425000D02*
X143500000Y-69425000D01*
G75*
G02*
X143375000Y-69300000I0J125000D01*
G01*
X143375000Y-67975000D01*
G75*
G02*
X143500000Y-67850000I125000J0D01*
G01*
X143750000Y-67850000D01*
G75*
G02*
X143875000Y-67975000I0J-125000D01*
G01*
X143875000Y-69300000D01*
G75*
G02*
X143750000Y-69425000I-125000J0D01*
G01*
G37*
G36*
G01*
X144400000Y-69425000D02*
X144150000Y-69425000D01*
G75*
G02*
X144025000Y-69300000I0J125000D01*
G01*
X144025000Y-67975000D01*
G75*
G02*
X144150000Y-67850000I125000J0D01*
G01*
X144400000Y-67850000D01*
G75*
G02*
X144525000Y-67975000I0J-125000D01*
G01*
X144525000Y-69300000D01*
G75*
G02*
X144400000Y-69425000I-125000J0D01*
G01*
G37*
G36*
G01*
X145050000Y-69425000D02*
X144800000Y-69425000D01*
G75*
G02*
X144675000Y-69300000I0J125000D01*
G01*
X144675000Y-67975000D01*
G75*
G02*
X144800000Y-67850000I125000J0D01*
G01*
X145050000Y-67850000D01*
G75*
G02*
X145175000Y-67975000I0J-125000D01*
G01*
X145175000Y-69300000D01*
G75*
G02*
X145050000Y-69425000I-125000J0D01*
G01*
G37*
G36*
G01*
X145700000Y-69425000D02*
X145450000Y-69425000D01*
G75*
G02*
X145325000Y-69300000I0J125000D01*
G01*
X145325000Y-67975000D01*
G75*
G02*
X145450000Y-67850000I125000J0D01*
G01*
X145700000Y-67850000D01*
G75*
G02*
X145825000Y-67975000I0J-125000D01*
G01*
X145825000Y-69300000D01*
G75*
G02*
X145700000Y-69425000I-125000J0D01*
G01*
G37*
G36*
G01*
X146350000Y-69425000D02*
X146100000Y-69425000D01*
G75*
G02*
X145975000Y-69300000I0J125000D01*
G01*
X145975000Y-67975000D01*
G75*
G02*
X146100000Y-67850000I125000J0D01*
G01*
X146350000Y-67850000D01*
G75*
G02*
X146475000Y-67975000I0J-125000D01*
G01*
X146475000Y-69300000D01*
G75*
G02*
X146350000Y-69425000I-125000J0D01*
G01*
G37*
G36*
G01*
X146350000Y-75150000D02*
X146100000Y-75150000D01*
G75*
G02*
X145975000Y-75025000I0J125000D01*
G01*
X145975000Y-73700000D01*
G75*
G02*
X146100000Y-73575000I125000J0D01*
G01*
X146350000Y-73575000D01*
G75*
G02*
X146475000Y-73700000I0J-125000D01*
G01*
X146475000Y-75025000D01*
G75*
G02*
X146350000Y-75150000I-125000J0D01*
G01*
G37*
G36*
G01*
X145700000Y-75150000D02*
X145450000Y-75150000D01*
G75*
G02*
X145325000Y-75025000I0J125000D01*
G01*
X145325000Y-73700000D01*
G75*
G02*
X145450000Y-73575000I125000J0D01*
G01*
X145700000Y-73575000D01*
G75*
G02*
X145825000Y-73700000I0J-125000D01*
G01*
X145825000Y-75025000D01*
G75*
G02*
X145700000Y-75150000I-125000J0D01*
G01*
G37*
G36*
G01*
X145050000Y-75150000D02*
X144800000Y-75150000D01*
G75*
G02*
X144675000Y-75025000I0J125000D01*
G01*
X144675000Y-73700000D01*
G75*
G02*
X144800000Y-73575000I125000J0D01*
G01*
X145050000Y-73575000D01*
G75*
G02*
X145175000Y-73700000I0J-125000D01*
G01*
X145175000Y-75025000D01*
G75*
G02*
X145050000Y-75150000I-125000J0D01*
G01*
G37*
G36*
G01*
X144400000Y-75150000D02*
X144150000Y-75150000D01*
G75*
G02*
X144025000Y-75025000I0J125000D01*
G01*
X144025000Y-73700000D01*
G75*
G02*
X144150000Y-73575000I125000J0D01*
G01*
X144400000Y-73575000D01*
G75*
G02*
X144525000Y-73700000I0J-125000D01*
G01*
X144525000Y-75025000D01*
G75*
G02*
X144400000Y-75150000I-125000J0D01*
G01*
G37*
G36*
G01*
X143750000Y-75150000D02*
X143500000Y-75150000D01*
G75*
G02*
X143375000Y-75025000I0J125000D01*
G01*
X143375000Y-73700000D01*
G75*
G02*
X143500000Y-73575000I125000J0D01*
G01*
X143750000Y-73575000D01*
G75*
G02*
X143875000Y-73700000I0J-125000D01*
G01*
X143875000Y-75025000D01*
G75*
G02*
X143750000Y-75150000I-125000J0D01*
G01*
G37*
G36*
G01*
X143100000Y-75150000D02*
X142850000Y-75150000D01*
G75*
G02*
X142725000Y-75025000I0J125000D01*
G01*
X142725000Y-73700000D01*
G75*
G02*
X142850000Y-73575000I125000J0D01*
G01*
X143100000Y-73575000D01*
G75*
G02*
X143225000Y-73700000I0J-125000D01*
G01*
X143225000Y-75025000D01*
G75*
G02*
X143100000Y-75150000I-125000J0D01*
G01*
G37*
G36*
G01*
X142450000Y-75150000D02*
X142200000Y-75150000D01*
G75*
G02*
X142075000Y-75025000I0J125000D01*
G01*
X142075000Y-73700000D01*
G75*
G02*
X142200000Y-73575000I125000J0D01*
G01*
X142450000Y-73575000D01*
G75*
G02*
X142575000Y-73700000I0J-125000D01*
G01*
X142575000Y-75025000D01*
G75*
G02*
X142450000Y-75150000I-125000J0D01*
G01*
G37*
G36*
G01*
X141800000Y-75150000D02*
X141550000Y-75150000D01*
G75*
G02*
X141425000Y-75025000I0J125000D01*
G01*
X141425000Y-73700000D01*
G75*
G02*
X141550000Y-73575000I125000J0D01*
G01*
X141800000Y-73575000D01*
G75*
G02*
X141925000Y-73700000I0J-125000D01*
G01*
X141925000Y-75025000D01*
G75*
G02*
X141800000Y-75150000I-125000J0D01*
G01*
G37*
G36*
G01*
X141150000Y-75150000D02*
X140900000Y-75150000D01*
G75*
G02*
X140775000Y-75025000I0J125000D01*
G01*
X140775000Y-73700000D01*
G75*
G02*
X140900000Y-73575000I125000J0D01*
G01*
X141150000Y-73575000D01*
G75*
G02*
X141275000Y-73700000I0J-125000D01*
G01*
X141275000Y-75025000D01*
G75*
G02*
X141150000Y-75150000I-125000J0D01*
G01*
G37*
G36*
G01*
X140500000Y-75150000D02*
X140250000Y-75150000D01*
G75*
G02*
X140125000Y-75025000I0J125000D01*
G01*
X140125000Y-73700000D01*
G75*
G02*
X140250000Y-73575000I125000J0D01*
G01*
X140500000Y-73575000D01*
G75*
G02*
X140625000Y-73700000I0J-125000D01*
G01*
X140625000Y-75025000D01*
G75*
G02*
X140500000Y-75150000I-125000J0D01*
G01*
G37*
G36*
G01*
X139850000Y-75150000D02*
X139600000Y-75150000D01*
G75*
G02*
X139475000Y-75025000I0J125000D01*
G01*
X139475000Y-73700000D01*
G75*
G02*
X139600000Y-73575000I125000J0D01*
G01*
X139850000Y-73575000D01*
G75*
G02*
X139975000Y-73700000I0J-125000D01*
G01*
X139975000Y-75025000D01*
G75*
G02*
X139850000Y-75150000I-125000J0D01*
G01*
G37*
G36*
G01*
X139200000Y-75150000D02*
X138950000Y-75150000D01*
G75*
G02*
X138825000Y-75025000I0J125000D01*
G01*
X138825000Y-73700000D01*
G75*
G02*
X138950000Y-73575000I125000J0D01*
G01*
X139200000Y-73575000D01*
G75*
G02*
X139325000Y-73700000I0J-125000D01*
G01*
X139325000Y-75025000D01*
G75*
G02*
X139200000Y-75150000I-125000J0D01*
G01*
G37*
G36*
G01*
X138550000Y-75150000D02*
X138300000Y-75150000D01*
G75*
G02*
X138175000Y-75025000I0J125000D01*
G01*
X138175000Y-73700000D01*
G75*
G02*
X138300000Y-73575000I125000J0D01*
G01*
X138550000Y-73575000D01*
G75*
G02*
X138675000Y-73700000I0J-125000D01*
G01*
X138675000Y-75025000D01*
G75*
G02*
X138550000Y-75150000I-125000J0D01*
G01*
G37*
G36*
G01*
X137900000Y-75150000D02*
X137650000Y-75150000D01*
G75*
G02*
X137525000Y-75025000I0J125000D01*
G01*
X137525000Y-73700000D01*
G75*
G02*
X137650000Y-73575000I125000J0D01*
G01*
X137900000Y-73575000D01*
G75*
G02*
X138025000Y-73700000I0J-125000D01*
G01*
X138025000Y-75025000D01*
G75*
G02*
X137900000Y-75150000I-125000J0D01*
G01*
G37*
%TD*%
%TO.C,U2*%
G36*
G01*
X97900000Y-69425000D02*
X97650000Y-69425000D01*
G75*
G02*
X97525000Y-69300000I0J125000D01*
G01*
X97525000Y-67975000D01*
G75*
G02*
X97650000Y-67850000I125000J0D01*
G01*
X97900000Y-67850000D01*
G75*
G02*
X98025000Y-67975000I0J-125000D01*
G01*
X98025000Y-69300000D01*
G75*
G02*
X97900000Y-69425000I-125000J0D01*
G01*
G37*
G36*
G01*
X98550000Y-69425000D02*
X98300000Y-69425000D01*
G75*
G02*
X98175000Y-69300000I0J125000D01*
G01*
X98175000Y-67975000D01*
G75*
G02*
X98300000Y-67850000I125000J0D01*
G01*
X98550000Y-67850000D01*
G75*
G02*
X98675000Y-67975000I0J-125000D01*
G01*
X98675000Y-69300000D01*
G75*
G02*
X98550000Y-69425000I-125000J0D01*
G01*
G37*
G36*
G01*
X99200000Y-69425000D02*
X98950000Y-69425000D01*
G75*
G02*
X98825000Y-69300000I0J125000D01*
G01*
X98825000Y-67975000D01*
G75*
G02*
X98950000Y-67850000I125000J0D01*
G01*
X99200000Y-67850000D01*
G75*
G02*
X99325000Y-67975000I0J-125000D01*
G01*
X99325000Y-69300000D01*
G75*
G02*
X99200000Y-69425000I-125000J0D01*
G01*
G37*
G36*
G01*
X99850000Y-69425000D02*
X99600000Y-69425000D01*
G75*
G02*
X99475000Y-69300000I0J125000D01*
G01*
X99475000Y-67975000D01*
G75*
G02*
X99600000Y-67850000I125000J0D01*
G01*
X99850000Y-67850000D01*
G75*
G02*
X99975000Y-67975000I0J-125000D01*
G01*
X99975000Y-69300000D01*
G75*
G02*
X99850000Y-69425000I-125000J0D01*
G01*
G37*
G36*
G01*
X100500000Y-69425000D02*
X100250000Y-69425000D01*
G75*
G02*
X100125000Y-69300000I0J125000D01*
G01*
X100125000Y-67975000D01*
G75*
G02*
X100250000Y-67850000I125000J0D01*
G01*
X100500000Y-67850000D01*
G75*
G02*
X100625000Y-67975000I0J-125000D01*
G01*
X100625000Y-69300000D01*
G75*
G02*
X100500000Y-69425000I-125000J0D01*
G01*
G37*
G36*
G01*
X101150000Y-69425000D02*
X100900000Y-69425000D01*
G75*
G02*
X100775000Y-69300000I0J125000D01*
G01*
X100775000Y-67975000D01*
G75*
G02*
X100900000Y-67850000I125000J0D01*
G01*
X101150000Y-67850000D01*
G75*
G02*
X101275000Y-67975000I0J-125000D01*
G01*
X101275000Y-69300000D01*
G75*
G02*
X101150000Y-69425000I-125000J0D01*
G01*
G37*
G36*
G01*
X101800000Y-69425000D02*
X101550000Y-69425000D01*
G75*
G02*
X101425000Y-69300000I0J125000D01*
G01*
X101425000Y-67975000D01*
G75*
G02*
X101550000Y-67850000I125000J0D01*
G01*
X101800000Y-67850000D01*
G75*
G02*
X101925000Y-67975000I0J-125000D01*
G01*
X101925000Y-69300000D01*
G75*
G02*
X101800000Y-69425000I-125000J0D01*
G01*
G37*
G36*
G01*
X102450000Y-69425000D02*
X102200000Y-69425000D01*
G75*
G02*
X102075000Y-69300000I0J125000D01*
G01*
X102075000Y-67975000D01*
G75*
G02*
X102200000Y-67850000I125000J0D01*
G01*
X102450000Y-67850000D01*
G75*
G02*
X102575000Y-67975000I0J-125000D01*
G01*
X102575000Y-69300000D01*
G75*
G02*
X102450000Y-69425000I-125000J0D01*
G01*
G37*
G36*
G01*
X103100000Y-69425000D02*
X102850000Y-69425000D01*
G75*
G02*
X102725000Y-69300000I0J125000D01*
G01*
X102725000Y-67975000D01*
G75*
G02*
X102850000Y-67850000I125000J0D01*
G01*
X103100000Y-67850000D01*
G75*
G02*
X103225000Y-67975000I0J-125000D01*
G01*
X103225000Y-69300000D01*
G75*
G02*
X103100000Y-69425000I-125000J0D01*
G01*
G37*
G36*
G01*
X103750000Y-69425000D02*
X103500000Y-69425000D01*
G75*
G02*
X103375000Y-69300000I0J125000D01*
G01*
X103375000Y-67975000D01*
G75*
G02*
X103500000Y-67850000I125000J0D01*
G01*
X103750000Y-67850000D01*
G75*
G02*
X103875000Y-67975000I0J-125000D01*
G01*
X103875000Y-69300000D01*
G75*
G02*
X103750000Y-69425000I-125000J0D01*
G01*
G37*
G36*
G01*
X104400000Y-69425000D02*
X104150000Y-69425000D01*
G75*
G02*
X104025000Y-69300000I0J125000D01*
G01*
X104025000Y-67975000D01*
G75*
G02*
X104150000Y-67850000I125000J0D01*
G01*
X104400000Y-67850000D01*
G75*
G02*
X104525000Y-67975000I0J-125000D01*
G01*
X104525000Y-69300000D01*
G75*
G02*
X104400000Y-69425000I-125000J0D01*
G01*
G37*
G36*
G01*
X105050000Y-69425000D02*
X104800000Y-69425000D01*
G75*
G02*
X104675000Y-69300000I0J125000D01*
G01*
X104675000Y-67975000D01*
G75*
G02*
X104800000Y-67850000I125000J0D01*
G01*
X105050000Y-67850000D01*
G75*
G02*
X105175000Y-67975000I0J-125000D01*
G01*
X105175000Y-69300000D01*
G75*
G02*
X105050000Y-69425000I-125000J0D01*
G01*
G37*
G36*
G01*
X105700000Y-69425000D02*
X105450000Y-69425000D01*
G75*
G02*
X105325000Y-69300000I0J125000D01*
G01*
X105325000Y-67975000D01*
G75*
G02*
X105450000Y-67850000I125000J0D01*
G01*
X105700000Y-67850000D01*
G75*
G02*
X105825000Y-67975000I0J-125000D01*
G01*
X105825000Y-69300000D01*
G75*
G02*
X105700000Y-69425000I-125000J0D01*
G01*
G37*
G36*
G01*
X106350000Y-69425000D02*
X106100000Y-69425000D01*
G75*
G02*
X105975000Y-69300000I0J125000D01*
G01*
X105975000Y-67975000D01*
G75*
G02*
X106100000Y-67850000I125000J0D01*
G01*
X106350000Y-67850000D01*
G75*
G02*
X106475000Y-67975000I0J-125000D01*
G01*
X106475000Y-69300000D01*
G75*
G02*
X106350000Y-69425000I-125000J0D01*
G01*
G37*
G36*
G01*
X106350000Y-75150000D02*
X106100000Y-75150000D01*
G75*
G02*
X105975000Y-75025000I0J125000D01*
G01*
X105975000Y-73700000D01*
G75*
G02*
X106100000Y-73575000I125000J0D01*
G01*
X106350000Y-73575000D01*
G75*
G02*
X106475000Y-73700000I0J-125000D01*
G01*
X106475000Y-75025000D01*
G75*
G02*
X106350000Y-75150000I-125000J0D01*
G01*
G37*
G36*
G01*
X105700000Y-75150000D02*
X105450000Y-75150000D01*
G75*
G02*
X105325000Y-75025000I0J125000D01*
G01*
X105325000Y-73700000D01*
G75*
G02*
X105450000Y-73575000I125000J0D01*
G01*
X105700000Y-73575000D01*
G75*
G02*
X105825000Y-73700000I0J-125000D01*
G01*
X105825000Y-75025000D01*
G75*
G02*
X105700000Y-75150000I-125000J0D01*
G01*
G37*
G36*
G01*
X105050000Y-75150000D02*
X104800000Y-75150000D01*
G75*
G02*
X104675000Y-75025000I0J125000D01*
G01*
X104675000Y-73700000D01*
G75*
G02*
X104800000Y-73575000I125000J0D01*
G01*
X105050000Y-73575000D01*
G75*
G02*
X105175000Y-73700000I0J-125000D01*
G01*
X105175000Y-75025000D01*
G75*
G02*
X105050000Y-75150000I-125000J0D01*
G01*
G37*
G36*
G01*
X104400000Y-75150000D02*
X104150000Y-75150000D01*
G75*
G02*
X104025000Y-75025000I0J125000D01*
G01*
X104025000Y-73700000D01*
G75*
G02*
X104150000Y-73575000I125000J0D01*
G01*
X104400000Y-73575000D01*
G75*
G02*
X104525000Y-73700000I0J-125000D01*
G01*
X104525000Y-75025000D01*
G75*
G02*
X104400000Y-75150000I-125000J0D01*
G01*
G37*
G36*
G01*
X103750000Y-75150000D02*
X103500000Y-75150000D01*
G75*
G02*
X103375000Y-75025000I0J125000D01*
G01*
X103375000Y-73700000D01*
G75*
G02*
X103500000Y-73575000I125000J0D01*
G01*
X103750000Y-73575000D01*
G75*
G02*
X103875000Y-73700000I0J-125000D01*
G01*
X103875000Y-75025000D01*
G75*
G02*
X103750000Y-75150000I-125000J0D01*
G01*
G37*
G36*
G01*
X103100000Y-75150000D02*
X102850000Y-75150000D01*
G75*
G02*
X102725000Y-75025000I0J125000D01*
G01*
X102725000Y-73700000D01*
G75*
G02*
X102850000Y-73575000I125000J0D01*
G01*
X103100000Y-73575000D01*
G75*
G02*
X103225000Y-73700000I0J-125000D01*
G01*
X103225000Y-75025000D01*
G75*
G02*
X103100000Y-75150000I-125000J0D01*
G01*
G37*
G36*
G01*
X102450000Y-75150000D02*
X102200000Y-75150000D01*
G75*
G02*
X102075000Y-75025000I0J125000D01*
G01*
X102075000Y-73700000D01*
G75*
G02*
X102200000Y-73575000I125000J0D01*
G01*
X102450000Y-73575000D01*
G75*
G02*
X102575000Y-73700000I0J-125000D01*
G01*
X102575000Y-75025000D01*
G75*
G02*
X102450000Y-75150000I-125000J0D01*
G01*
G37*
G36*
G01*
X101800000Y-75150000D02*
X101550000Y-75150000D01*
G75*
G02*
X101425000Y-75025000I0J125000D01*
G01*
X101425000Y-73700000D01*
G75*
G02*
X101550000Y-73575000I125000J0D01*
G01*
X101800000Y-73575000D01*
G75*
G02*
X101925000Y-73700000I0J-125000D01*
G01*
X101925000Y-75025000D01*
G75*
G02*
X101800000Y-75150000I-125000J0D01*
G01*
G37*
G36*
G01*
X101150000Y-75150000D02*
X100900000Y-75150000D01*
G75*
G02*
X100775000Y-75025000I0J125000D01*
G01*
X100775000Y-73700000D01*
G75*
G02*
X100900000Y-73575000I125000J0D01*
G01*
X101150000Y-73575000D01*
G75*
G02*
X101275000Y-73700000I0J-125000D01*
G01*
X101275000Y-75025000D01*
G75*
G02*
X101150000Y-75150000I-125000J0D01*
G01*
G37*
G36*
G01*
X100500000Y-75150000D02*
X100250000Y-75150000D01*
G75*
G02*
X100125000Y-75025000I0J125000D01*
G01*
X100125000Y-73700000D01*
G75*
G02*
X100250000Y-73575000I125000J0D01*
G01*
X100500000Y-73575000D01*
G75*
G02*
X100625000Y-73700000I0J-125000D01*
G01*
X100625000Y-75025000D01*
G75*
G02*
X100500000Y-75150000I-125000J0D01*
G01*
G37*
G36*
G01*
X99850000Y-75150000D02*
X99600000Y-75150000D01*
G75*
G02*
X99475000Y-75025000I0J125000D01*
G01*
X99475000Y-73700000D01*
G75*
G02*
X99600000Y-73575000I125000J0D01*
G01*
X99850000Y-73575000D01*
G75*
G02*
X99975000Y-73700000I0J-125000D01*
G01*
X99975000Y-75025000D01*
G75*
G02*
X99850000Y-75150000I-125000J0D01*
G01*
G37*
G36*
G01*
X99200000Y-75150000D02*
X98950000Y-75150000D01*
G75*
G02*
X98825000Y-75025000I0J125000D01*
G01*
X98825000Y-73700000D01*
G75*
G02*
X98950000Y-73575000I125000J0D01*
G01*
X99200000Y-73575000D01*
G75*
G02*
X99325000Y-73700000I0J-125000D01*
G01*
X99325000Y-75025000D01*
G75*
G02*
X99200000Y-75150000I-125000J0D01*
G01*
G37*
G36*
G01*
X98550000Y-75150000D02*
X98300000Y-75150000D01*
G75*
G02*
X98175000Y-75025000I0J125000D01*
G01*
X98175000Y-73700000D01*
G75*
G02*
X98300000Y-73575000I125000J0D01*
G01*
X98550000Y-73575000D01*
G75*
G02*
X98675000Y-73700000I0J-125000D01*
G01*
X98675000Y-75025000D01*
G75*
G02*
X98550000Y-75150000I-125000J0D01*
G01*
G37*
G36*
G01*
X97900000Y-75150000D02*
X97650000Y-75150000D01*
G75*
G02*
X97525000Y-75025000I0J125000D01*
G01*
X97525000Y-73700000D01*
G75*
G02*
X97650000Y-73575000I125000J0D01*
G01*
X97900000Y-73575000D01*
G75*
G02*
X98025000Y-73700000I0J-125000D01*
G01*
X98025000Y-75025000D01*
G75*
G02*
X97900000Y-75150000I-125000J0D01*
G01*
G37*
%TD*%
%TO.C,R18*%
G36*
G01*
X141700000Y-85081250D02*
X141700000Y-84518750D01*
G75*
G02*
X141943750Y-84275000I243750J0D01*
G01*
X142431250Y-84275000D01*
G75*
G02*
X142675000Y-84518750I0J-243750D01*
G01*
X142675000Y-85081250D01*
G75*
G02*
X142431250Y-85325000I-243750J0D01*
G01*
X141943750Y-85325000D01*
G75*
G02*
X141700000Y-85081250I0J243750D01*
G01*
G37*
G36*
G01*
X140125000Y-85081250D02*
X140125000Y-84518750D01*
G75*
G02*
X140368750Y-84275000I243750J0D01*
G01*
X140856250Y-84275000D01*
G75*
G02*
X141100000Y-84518750I0J-243750D01*
G01*
X141100000Y-85081250D01*
G75*
G02*
X140856250Y-85325000I-243750J0D01*
G01*
X140368750Y-85325000D01*
G75*
G02*
X140125000Y-85081250I0J243750D01*
G01*
G37*
%TD*%
%TO.C,R17*%
G36*
G01*
X141700000Y-87581250D02*
X141700000Y-87018750D01*
G75*
G02*
X141943750Y-86775000I243750J0D01*
G01*
X142431250Y-86775000D01*
G75*
G02*
X142675000Y-87018750I0J-243750D01*
G01*
X142675000Y-87581250D01*
G75*
G02*
X142431250Y-87825000I-243750J0D01*
G01*
X141943750Y-87825000D01*
G75*
G02*
X141700000Y-87581250I0J243750D01*
G01*
G37*
G36*
G01*
X140125000Y-87581250D02*
X140125000Y-87018750D01*
G75*
G02*
X140368750Y-86775000I243750J0D01*
G01*
X140856250Y-86775000D01*
G75*
G02*
X141100000Y-87018750I0J-243750D01*
G01*
X141100000Y-87581250D01*
G75*
G02*
X140856250Y-87825000I-243750J0D01*
G01*
X140368750Y-87825000D01*
G75*
G02*
X140125000Y-87581250I0J243750D01*
G01*
G37*
%TD*%
%TO.C,R16*%
G36*
G01*
X141700000Y-90081250D02*
X141700000Y-89518750D01*
G75*
G02*
X141943750Y-89275000I243750J0D01*
G01*
X142431250Y-89275000D01*
G75*
G02*
X142675000Y-89518750I0J-243750D01*
G01*
X142675000Y-90081250D01*
G75*
G02*
X142431250Y-90325000I-243750J0D01*
G01*
X141943750Y-90325000D01*
G75*
G02*
X141700000Y-90081250I0J243750D01*
G01*
G37*
G36*
G01*
X140125000Y-90081250D02*
X140125000Y-89518750D01*
G75*
G02*
X140368750Y-89275000I243750J0D01*
G01*
X140856250Y-89275000D01*
G75*
G02*
X141100000Y-89518750I0J-243750D01*
G01*
X141100000Y-90081250D01*
G75*
G02*
X140856250Y-90325000I-243750J0D01*
G01*
X140368750Y-90325000D01*
G75*
G02*
X140125000Y-90081250I0J243750D01*
G01*
G37*
%TD*%
%TO.C,R15*%
G36*
G01*
X141700000Y-92581250D02*
X141700000Y-92018750D01*
G75*
G02*
X141943750Y-91775000I243750J0D01*
G01*
X142431250Y-91775000D01*
G75*
G02*
X142675000Y-92018750I0J-243750D01*
G01*
X142675000Y-92581250D01*
G75*
G02*
X142431250Y-92825000I-243750J0D01*
G01*
X141943750Y-92825000D01*
G75*
G02*
X141700000Y-92581250I0J243750D01*
G01*
G37*
G36*
G01*
X140125000Y-92581250D02*
X140125000Y-92018750D01*
G75*
G02*
X140368750Y-91775000I243750J0D01*
G01*
X140856250Y-91775000D01*
G75*
G02*
X141100000Y-92018750I0J-243750D01*
G01*
X141100000Y-92581250D01*
G75*
G02*
X140856250Y-92825000I-243750J0D01*
G01*
X140368750Y-92825000D01*
G75*
G02*
X140125000Y-92581250I0J243750D01*
G01*
G37*
%TD*%
%TO.C,R14*%
G36*
G01*
X141700000Y-95081250D02*
X141700000Y-94518750D01*
G75*
G02*
X141943750Y-94275000I243750J0D01*
G01*
X142431250Y-94275000D01*
G75*
G02*
X142675000Y-94518750I0J-243750D01*
G01*
X142675000Y-95081250D01*
G75*
G02*
X142431250Y-95325000I-243750J0D01*
G01*
X141943750Y-95325000D01*
G75*
G02*
X141700000Y-95081250I0J243750D01*
G01*
G37*
G36*
G01*
X140125000Y-95081250D02*
X140125000Y-94518750D01*
G75*
G02*
X140368750Y-94275000I243750J0D01*
G01*
X140856250Y-94275000D01*
G75*
G02*
X141100000Y-94518750I0J-243750D01*
G01*
X141100000Y-95081250D01*
G75*
G02*
X140856250Y-95325000I-243750J0D01*
G01*
X140368750Y-95325000D01*
G75*
G02*
X140125000Y-95081250I0J243750D01*
G01*
G37*
%TD*%
%TO.C,R13*%
G36*
G01*
X141700000Y-97581250D02*
X141700000Y-97018750D01*
G75*
G02*
X141943750Y-96775000I243750J0D01*
G01*
X142431250Y-96775000D01*
G75*
G02*
X142675000Y-97018750I0J-243750D01*
G01*
X142675000Y-97581250D01*
G75*
G02*
X142431250Y-97825000I-243750J0D01*
G01*
X141943750Y-97825000D01*
G75*
G02*
X141700000Y-97581250I0J243750D01*
G01*
G37*
G36*
G01*
X140125000Y-97581250D02*
X140125000Y-97018750D01*
G75*
G02*
X140368750Y-96775000I243750J0D01*
G01*
X140856250Y-96775000D01*
G75*
G02*
X141100000Y-97018750I0J-243750D01*
G01*
X141100000Y-97581250D01*
G75*
G02*
X140856250Y-97825000I-243750J0D01*
G01*
X140368750Y-97825000D01*
G75*
G02*
X140125000Y-97581250I0J243750D01*
G01*
G37*
%TD*%
%TO.C,R12*%
G36*
G01*
X101700000Y-85081250D02*
X101700000Y-84518750D01*
G75*
G02*
X101943750Y-84275000I243750J0D01*
G01*
X102431250Y-84275000D01*
G75*
G02*
X102675000Y-84518750I0J-243750D01*
G01*
X102675000Y-85081250D01*
G75*
G02*
X102431250Y-85325000I-243750J0D01*
G01*
X101943750Y-85325000D01*
G75*
G02*
X101700000Y-85081250I0J243750D01*
G01*
G37*
G36*
G01*
X100125000Y-85081250D02*
X100125000Y-84518750D01*
G75*
G02*
X100368750Y-84275000I243750J0D01*
G01*
X100856250Y-84275000D01*
G75*
G02*
X101100000Y-84518750I0J-243750D01*
G01*
X101100000Y-85081250D01*
G75*
G02*
X100856250Y-85325000I-243750J0D01*
G01*
X100368750Y-85325000D01*
G75*
G02*
X100125000Y-85081250I0J243750D01*
G01*
G37*
%TD*%
%TO.C,R11*%
G36*
G01*
X101700000Y-87581250D02*
X101700000Y-87018750D01*
G75*
G02*
X101943750Y-86775000I243750J0D01*
G01*
X102431250Y-86775000D01*
G75*
G02*
X102675000Y-87018750I0J-243750D01*
G01*
X102675000Y-87581250D01*
G75*
G02*
X102431250Y-87825000I-243750J0D01*
G01*
X101943750Y-87825000D01*
G75*
G02*
X101700000Y-87581250I0J243750D01*
G01*
G37*
G36*
G01*
X100125000Y-87581250D02*
X100125000Y-87018750D01*
G75*
G02*
X100368750Y-86775000I243750J0D01*
G01*
X100856250Y-86775000D01*
G75*
G02*
X101100000Y-87018750I0J-243750D01*
G01*
X101100000Y-87581250D01*
G75*
G02*
X100856250Y-87825000I-243750J0D01*
G01*
X100368750Y-87825000D01*
G75*
G02*
X100125000Y-87581250I0J243750D01*
G01*
G37*
%TD*%
%TO.C,R10*%
G36*
G01*
X101700000Y-90081250D02*
X101700000Y-89518750D01*
G75*
G02*
X101943750Y-89275000I243750J0D01*
G01*
X102431250Y-89275000D01*
G75*
G02*
X102675000Y-89518750I0J-243750D01*
G01*
X102675000Y-90081250D01*
G75*
G02*
X102431250Y-90325000I-243750J0D01*
G01*
X101943750Y-90325000D01*
G75*
G02*
X101700000Y-90081250I0J243750D01*
G01*
G37*
G36*
G01*
X100125000Y-90081250D02*
X100125000Y-89518750D01*
G75*
G02*
X100368750Y-89275000I243750J0D01*
G01*
X100856250Y-89275000D01*
G75*
G02*
X101100000Y-89518750I0J-243750D01*
G01*
X101100000Y-90081250D01*
G75*
G02*
X100856250Y-90325000I-243750J0D01*
G01*
X100368750Y-90325000D01*
G75*
G02*
X100125000Y-90081250I0J243750D01*
G01*
G37*
%TD*%
%TO.C,R9*%
G36*
G01*
X101700000Y-92581250D02*
X101700000Y-92018750D01*
G75*
G02*
X101943750Y-91775000I243750J0D01*
G01*
X102431250Y-91775000D01*
G75*
G02*
X102675000Y-92018750I0J-243750D01*
G01*
X102675000Y-92581250D01*
G75*
G02*
X102431250Y-92825000I-243750J0D01*
G01*
X101943750Y-92825000D01*
G75*
G02*
X101700000Y-92581250I0J243750D01*
G01*
G37*
G36*
G01*
X100125000Y-92581250D02*
X100125000Y-92018750D01*
G75*
G02*
X100368750Y-91775000I243750J0D01*
G01*
X100856250Y-91775000D01*
G75*
G02*
X101100000Y-92018750I0J-243750D01*
G01*
X101100000Y-92581250D01*
G75*
G02*
X100856250Y-92825000I-243750J0D01*
G01*
X100368750Y-92825000D01*
G75*
G02*
X100125000Y-92581250I0J243750D01*
G01*
G37*
%TD*%
%TO.C,R8*%
G36*
G01*
X101700000Y-95081250D02*
X101700000Y-94518750D01*
G75*
G02*
X101943750Y-94275000I243750J0D01*
G01*
X102431250Y-94275000D01*
G75*
G02*
X102675000Y-94518750I0J-243750D01*
G01*
X102675000Y-95081250D01*
G75*
G02*
X102431250Y-95325000I-243750J0D01*
G01*
X101943750Y-95325000D01*
G75*
G02*
X101700000Y-95081250I0J243750D01*
G01*
G37*
G36*
G01*
X100125000Y-95081250D02*
X100125000Y-94518750D01*
G75*
G02*
X100368750Y-94275000I243750J0D01*
G01*
X100856250Y-94275000D01*
G75*
G02*
X101100000Y-94518750I0J-243750D01*
G01*
X101100000Y-95081250D01*
G75*
G02*
X100856250Y-95325000I-243750J0D01*
G01*
X100368750Y-95325000D01*
G75*
G02*
X100125000Y-95081250I0J243750D01*
G01*
G37*
%TD*%
%TO.C,R7*%
G36*
G01*
X101700000Y-97581250D02*
X101700000Y-97018750D01*
G75*
G02*
X101943750Y-96775000I243750J0D01*
G01*
X102431250Y-96775000D01*
G75*
G02*
X102675000Y-97018750I0J-243750D01*
G01*
X102675000Y-97581250D01*
G75*
G02*
X102431250Y-97825000I-243750J0D01*
G01*
X101943750Y-97825000D01*
G75*
G02*
X101700000Y-97581250I0J243750D01*
G01*
G37*
G36*
G01*
X100125000Y-97581250D02*
X100125000Y-97018750D01*
G75*
G02*
X100368750Y-96775000I243750J0D01*
G01*
X100856250Y-96775000D01*
G75*
G02*
X101100000Y-97018750I0J-243750D01*
G01*
X101100000Y-97581250D01*
G75*
G02*
X100856250Y-97825000I-243750J0D01*
G01*
X100368750Y-97825000D01*
G75*
G02*
X100125000Y-97581250I0J243750D01*
G01*
G37*
%TD*%
%TO.C,R6*%
G36*
G01*
X61700000Y-85081250D02*
X61700000Y-84518750D01*
G75*
G02*
X61943750Y-84275000I243750J0D01*
G01*
X62431250Y-84275000D01*
G75*
G02*
X62675000Y-84518750I0J-243750D01*
G01*
X62675000Y-85081250D01*
G75*
G02*
X62431250Y-85325000I-243750J0D01*
G01*
X61943750Y-85325000D01*
G75*
G02*
X61700000Y-85081250I0J243750D01*
G01*
G37*
G36*
G01*
X60125000Y-85081250D02*
X60125000Y-84518750D01*
G75*
G02*
X60368750Y-84275000I243750J0D01*
G01*
X60856250Y-84275000D01*
G75*
G02*
X61100000Y-84518750I0J-243750D01*
G01*
X61100000Y-85081250D01*
G75*
G02*
X60856250Y-85325000I-243750J0D01*
G01*
X60368750Y-85325000D01*
G75*
G02*
X60125000Y-85081250I0J243750D01*
G01*
G37*
%TD*%
%TO.C,R5*%
G36*
G01*
X61700000Y-87581250D02*
X61700000Y-87018750D01*
G75*
G02*
X61943750Y-86775000I243750J0D01*
G01*
X62431250Y-86775000D01*
G75*
G02*
X62675000Y-87018750I0J-243750D01*
G01*
X62675000Y-87581250D01*
G75*
G02*
X62431250Y-87825000I-243750J0D01*
G01*
X61943750Y-87825000D01*
G75*
G02*
X61700000Y-87581250I0J243750D01*
G01*
G37*
G36*
G01*
X60125000Y-87581250D02*
X60125000Y-87018750D01*
G75*
G02*
X60368750Y-86775000I243750J0D01*
G01*
X60856250Y-86775000D01*
G75*
G02*
X61100000Y-87018750I0J-243750D01*
G01*
X61100000Y-87581250D01*
G75*
G02*
X60856250Y-87825000I-243750J0D01*
G01*
X60368750Y-87825000D01*
G75*
G02*
X60125000Y-87581250I0J243750D01*
G01*
G37*
%TD*%
%TO.C,R4*%
G36*
G01*
X61700000Y-90081250D02*
X61700000Y-89518750D01*
G75*
G02*
X61943750Y-89275000I243750J0D01*
G01*
X62431250Y-89275000D01*
G75*
G02*
X62675000Y-89518750I0J-243750D01*
G01*
X62675000Y-90081250D01*
G75*
G02*
X62431250Y-90325000I-243750J0D01*
G01*
X61943750Y-90325000D01*
G75*
G02*
X61700000Y-90081250I0J243750D01*
G01*
G37*
G36*
G01*
X60125000Y-90081250D02*
X60125000Y-89518750D01*
G75*
G02*
X60368750Y-89275000I243750J0D01*
G01*
X60856250Y-89275000D01*
G75*
G02*
X61100000Y-89518750I0J-243750D01*
G01*
X61100000Y-90081250D01*
G75*
G02*
X60856250Y-90325000I-243750J0D01*
G01*
X60368750Y-90325000D01*
G75*
G02*
X60125000Y-90081250I0J243750D01*
G01*
G37*
%TD*%
%TO.C,R3*%
G36*
G01*
X61700000Y-92581250D02*
X61700000Y-92018750D01*
G75*
G02*
X61943750Y-91775000I243750J0D01*
G01*
X62431250Y-91775000D01*
G75*
G02*
X62675000Y-92018750I0J-243750D01*
G01*
X62675000Y-92581250D01*
G75*
G02*
X62431250Y-92825000I-243750J0D01*
G01*
X61943750Y-92825000D01*
G75*
G02*
X61700000Y-92581250I0J243750D01*
G01*
G37*
G36*
G01*
X60125000Y-92581250D02*
X60125000Y-92018750D01*
G75*
G02*
X60368750Y-91775000I243750J0D01*
G01*
X60856250Y-91775000D01*
G75*
G02*
X61100000Y-92018750I0J-243750D01*
G01*
X61100000Y-92581250D01*
G75*
G02*
X60856250Y-92825000I-243750J0D01*
G01*
X60368750Y-92825000D01*
G75*
G02*
X60125000Y-92581250I0J243750D01*
G01*
G37*
%TD*%
%TO.C,R2*%
G36*
G01*
X61700000Y-95081250D02*
X61700000Y-94518750D01*
G75*
G02*
X61943750Y-94275000I243750J0D01*
G01*
X62431250Y-94275000D01*
G75*
G02*
X62675000Y-94518750I0J-243750D01*
G01*
X62675000Y-95081250D01*
G75*
G02*
X62431250Y-95325000I-243750J0D01*
G01*
X61943750Y-95325000D01*
G75*
G02*
X61700000Y-95081250I0J243750D01*
G01*
G37*
G36*
G01*
X60125000Y-95081250D02*
X60125000Y-94518750D01*
G75*
G02*
X60368750Y-94275000I243750J0D01*
G01*
X60856250Y-94275000D01*
G75*
G02*
X61100000Y-94518750I0J-243750D01*
G01*
X61100000Y-95081250D01*
G75*
G02*
X60856250Y-95325000I-243750J0D01*
G01*
X60368750Y-95325000D01*
G75*
G02*
X60125000Y-95081250I0J243750D01*
G01*
G37*
%TD*%
%TO.C,R1*%
G36*
G01*
X61745000Y-97581250D02*
X61745000Y-97018750D01*
G75*
G02*
X61988750Y-96775000I243750J0D01*
G01*
X62476250Y-96775000D01*
G75*
G02*
X62720000Y-97018750I0J-243750D01*
G01*
X62720000Y-97581250D01*
G75*
G02*
X62476250Y-97825000I-243750J0D01*
G01*
X61988750Y-97825000D01*
G75*
G02*
X61745000Y-97581250I0J243750D01*
G01*
G37*
G36*
G01*
X60125000Y-97581250D02*
X60125000Y-97018750D01*
G75*
G02*
X60368750Y-96775000I243750J0D01*
G01*
X60856250Y-96775000D01*
G75*
G02*
X61100000Y-97018750I0J-243750D01*
G01*
X61100000Y-97581250D01*
G75*
G02*
X60856250Y-97825000I-243750J0D01*
G01*
X60368750Y-97825000D01*
G75*
G02*
X60125000Y-97581250I0J243750D01*
G01*
G37*
%TD*%
D15*
%TO.C,Q24*%
X122185000Y-51505000D03*
X122185000Y-55935000D03*
D16*
X119209000Y-55935000D03*
X119209000Y-51505000D03*
D17*
X121000000Y-52605000D03*
X121000000Y-54835000D03*
D18*
X124795000Y-51815000D03*
X124795000Y-53085000D03*
X124795000Y-54355000D03*
X124795000Y-55625000D03*
%TD*%
D15*
%TO.C,Q23*%
X132050000Y-51505000D03*
X132050000Y-55935000D03*
D16*
X129074000Y-55935000D03*
X129074000Y-51505000D03*
D17*
X130865000Y-52605000D03*
X130865000Y-54835000D03*
D18*
X134660000Y-51815000D03*
X134660000Y-53085000D03*
X134660000Y-54355000D03*
X134660000Y-55625000D03*
%TD*%
D15*
%TO.C,Q22*%
X132050000Y-65465000D03*
X132050000Y-69895000D03*
D16*
X129074000Y-69895000D03*
X129074000Y-65465000D03*
D17*
X130865000Y-66565000D03*
X130865000Y-68795000D03*
D18*
X134660000Y-65775000D03*
X134660000Y-67045000D03*
X134660000Y-68315000D03*
X134660000Y-69585000D03*
%TD*%
D15*
%TO.C,Q21*%
X122185000Y-65465000D03*
X122185000Y-69895000D03*
D16*
X119209000Y-69895000D03*
X119209000Y-65465000D03*
D17*
X121000000Y-66565000D03*
X121000000Y-68795000D03*
D18*
X124795000Y-65775000D03*
X124795000Y-67045000D03*
X124795000Y-68315000D03*
X124795000Y-69585000D03*
%TD*%
D15*
%TO.C,Q20*%
X122185000Y-73105000D03*
X122185000Y-77535000D03*
D16*
X119209000Y-77535000D03*
X119209000Y-73105000D03*
D17*
X121000000Y-74205000D03*
X121000000Y-76435000D03*
D18*
X124795000Y-73415000D03*
X124795000Y-74685000D03*
X124795000Y-75955000D03*
X124795000Y-77225000D03*
%TD*%
D15*
%TO.C,Q19*%
X132050000Y-73105000D03*
X132050000Y-77535000D03*
D16*
X129074000Y-77535000D03*
X129074000Y-73105000D03*
D17*
X130865000Y-74205000D03*
X130865000Y-76435000D03*
D18*
X134660000Y-73415000D03*
X134660000Y-74685000D03*
X134660000Y-75955000D03*
X134660000Y-77225000D03*
%TD*%
D15*
%TO.C,Q18*%
X132050000Y-87065000D03*
X132050000Y-91495000D03*
D16*
X129074000Y-91495000D03*
X129074000Y-87065000D03*
D17*
X130865000Y-88165000D03*
X130865000Y-90395000D03*
D18*
X134660000Y-87375000D03*
X134660000Y-88645000D03*
X134660000Y-89915000D03*
X134660000Y-91185000D03*
%TD*%
D15*
%TO.C,Q17*%
X122185000Y-87065000D03*
X122185000Y-91495000D03*
D16*
X119209000Y-91495000D03*
X119209000Y-87065000D03*
D17*
X121000000Y-88165000D03*
X121000000Y-90395000D03*
D18*
X124795000Y-87375000D03*
X124795000Y-88645000D03*
X124795000Y-89915000D03*
X124795000Y-91185000D03*
%TD*%
D15*
%TO.C,Q16*%
X82185000Y-51505000D03*
X82185000Y-55935000D03*
D16*
X79209000Y-55935000D03*
X79209000Y-51505000D03*
D17*
X81000000Y-52605000D03*
X81000000Y-54835000D03*
D18*
X84795000Y-51815000D03*
X84795000Y-53085000D03*
X84795000Y-54355000D03*
X84795000Y-55625000D03*
%TD*%
D15*
%TO.C,Q15*%
X92050000Y-51505000D03*
X92050000Y-55935000D03*
D16*
X89074000Y-55935000D03*
X89074000Y-51505000D03*
D17*
X90865000Y-52605000D03*
X90865000Y-54835000D03*
D18*
X94660000Y-51815000D03*
X94660000Y-53085000D03*
X94660000Y-54355000D03*
X94660000Y-55625000D03*
%TD*%
D15*
%TO.C,Q14*%
X92050000Y-65465000D03*
X92050000Y-69895000D03*
D16*
X89074000Y-69895000D03*
X89074000Y-65465000D03*
D17*
X90865000Y-66565000D03*
X90865000Y-68795000D03*
D18*
X94660000Y-65775000D03*
X94660000Y-67045000D03*
X94660000Y-68315000D03*
X94660000Y-69585000D03*
%TD*%
D15*
%TO.C,Q13*%
X82185000Y-65465000D03*
X82185000Y-69895000D03*
D16*
X79209000Y-69895000D03*
X79209000Y-65465000D03*
D17*
X81000000Y-66565000D03*
X81000000Y-68795000D03*
D18*
X84795000Y-65775000D03*
X84795000Y-67045000D03*
X84795000Y-68315000D03*
X84795000Y-69585000D03*
%TD*%
D15*
%TO.C,Q12*%
X82185000Y-73105000D03*
X82185000Y-77535000D03*
D16*
X79209000Y-77535000D03*
X79209000Y-73105000D03*
D17*
X81000000Y-74205000D03*
X81000000Y-76435000D03*
D18*
X84795000Y-73415000D03*
X84795000Y-74685000D03*
X84795000Y-75955000D03*
X84795000Y-77225000D03*
%TD*%
D15*
%TO.C,Q11*%
X92050000Y-73105000D03*
X92050000Y-77535000D03*
D16*
X89074000Y-77535000D03*
X89074000Y-73105000D03*
D17*
X90865000Y-74205000D03*
X90865000Y-76435000D03*
D18*
X94660000Y-73415000D03*
X94660000Y-74685000D03*
X94660000Y-75955000D03*
X94660000Y-77225000D03*
%TD*%
D15*
%TO.C,Q10*%
X92050000Y-87065000D03*
X92050000Y-91495000D03*
D16*
X89074000Y-91495000D03*
X89074000Y-87065000D03*
D17*
X90865000Y-88165000D03*
X90865000Y-90395000D03*
D18*
X94660000Y-87375000D03*
X94660000Y-88645000D03*
X94660000Y-89915000D03*
X94660000Y-91185000D03*
%TD*%
D15*
%TO.C,Q9*%
X82185000Y-87065000D03*
X82185000Y-91495000D03*
D16*
X79209000Y-91495000D03*
X79209000Y-87065000D03*
D17*
X81000000Y-88165000D03*
X81000000Y-90395000D03*
D18*
X84795000Y-87375000D03*
X84795000Y-88645000D03*
X84795000Y-89915000D03*
X84795000Y-91185000D03*
%TD*%
D15*
%TO.C,Q8*%
X42185000Y-51505000D03*
X42185000Y-55935000D03*
D16*
X39209000Y-55935000D03*
X39209000Y-51505000D03*
D17*
X41000000Y-52605000D03*
X41000000Y-54835000D03*
D18*
X44795000Y-51815000D03*
X44795000Y-53085000D03*
X44795000Y-54355000D03*
X44795000Y-55625000D03*
%TD*%
D15*
%TO.C,Q7*%
X52050000Y-51505000D03*
X52050000Y-55935000D03*
D16*
X49074000Y-55935000D03*
X49074000Y-51505000D03*
D17*
X50865000Y-52605000D03*
X50865000Y-54835000D03*
D18*
X54660000Y-51815000D03*
X54660000Y-53085000D03*
X54660000Y-54355000D03*
X54660000Y-55625000D03*
%TD*%
D15*
%TO.C,Q6*%
X52050000Y-65465000D03*
X52050000Y-69895000D03*
D16*
X49074000Y-69895000D03*
X49074000Y-65465000D03*
D17*
X50865000Y-66565000D03*
X50865000Y-68795000D03*
D18*
X54660000Y-65775000D03*
X54660000Y-67045000D03*
X54660000Y-68315000D03*
X54660000Y-69585000D03*
%TD*%
D15*
%TO.C,Q5*%
X42185000Y-65465000D03*
X42185000Y-69895000D03*
D16*
X39209000Y-69895000D03*
X39209000Y-65465000D03*
D17*
X41000000Y-66565000D03*
X41000000Y-68795000D03*
D18*
X44795000Y-65775000D03*
X44795000Y-67045000D03*
X44795000Y-68315000D03*
X44795000Y-69585000D03*
%TD*%
D15*
%TO.C,Q4*%
X42185000Y-73105000D03*
X42185000Y-77535000D03*
D16*
X39209000Y-77535000D03*
X39209000Y-73105000D03*
D17*
X41000000Y-74205000D03*
X41000000Y-76435000D03*
D18*
X44795000Y-73415000D03*
X44795000Y-74685000D03*
X44795000Y-75955000D03*
X44795000Y-77225000D03*
%TD*%
D15*
%TO.C,Q3*%
X52050000Y-73105000D03*
X52050000Y-77535000D03*
D16*
X49074000Y-77535000D03*
X49074000Y-73105000D03*
D17*
X50865000Y-74205000D03*
X50865000Y-76435000D03*
D18*
X54660000Y-73415000D03*
X54660000Y-74685000D03*
X54660000Y-75955000D03*
X54660000Y-77225000D03*
%TD*%
D15*
%TO.C,Q2*%
X52050000Y-87065000D03*
X52050000Y-91495000D03*
D16*
X49074000Y-91495000D03*
X49074000Y-87065000D03*
D17*
X50865000Y-88165000D03*
X50865000Y-90395000D03*
D18*
X54660000Y-87375000D03*
X54660000Y-88645000D03*
X54660000Y-89915000D03*
X54660000Y-91185000D03*
%TD*%
D15*
%TO.C,Q1*%
X42185000Y-87065000D03*
X42185000Y-91495000D03*
D16*
X39209000Y-91495000D03*
X39209000Y-87065000D03*
D17*
X41000000Y-88165000D03*
X41000000Y-90395000D03*
D18*
X44795000Y-87375000D03*
X44795000Y-88645000D03*
X44795000Y-89915000D03*
X44795000Y-91185000D03*
%TD*%
D19*
%TO.C,J5*%
X162040000Y-43100000D03*
X162040000Y-98700000D03*
D20*
X162500000Y-47800000D03*
X162500000Y-52000000D03*
X162500000Y-56200000D03*
X162500000Y-60400000D03*
X162500000Y-64600000D03*
X162500000Y-68800000D03*
X162500000Y-73000000D03*
X162500000Y-77200000D03*
X162500000Y-81400000D03*
X162500000Y-85600000D03*
X162500000Y-89800000D03*
X162500000Y-94000000D03*
X157000000Y-47800000D03*
X157000000Y-52000000D03*
X157000000Y-56200000D03*
X157000000Y-60400000D03*
X157000000Y-64600000D03*
X157000000Y-68800000D03*
X157000000Y-73000000D03*
X157000000Y-77200000D03*
X157000000Y-81400000D03*
X157000000Y-85600000D03*
X157000000Y-89800000D03*
G36*
G01*
X158440740Y-95400000D02*
X155559260Y-95400000D01*
G75*
G02*
X155300000Y-95140740I0J259260D01*
G01*
X155300000Y-92859260D01*
G75*
G02*
X155559260Y-92600000I259260J0D01*
G01*
X158440740Y-92600000D01*
G75*
G02*
X158700000Y-92859260I0J-259260D01*
G01*
X158700000Y-95140740D01*
G75*
G02*
X158440740Y-95400000I-259260J0D01*
G01*
G37*
%TD*%
M02*
