M48
; DRILL file {KiCad (5.1.6)-1} date 07/03/20 16:53:37
; FORMAT={3:3/ absolute / metric / suppress leading zeros}
; #@! TF.CreationDate,2020-07-03T16:53:37+09:00
; #@! TF.GenerationSoftware,Kicad,Pcbnew,(5.1.6)-1
FMAT,2
METRIC,TZ
T1C0.400
T2C0.800
T3C1.000
T4C1.400
T5C3.000
%
G90
G05
T1
X43700Y-51815
X43700Y-53085
X43700Y-54355
X43700Y-55625
X43700Y-65775
X43700Y-67045
X43700Y-68315
X43700Y-69585
X43700Y-73415
X43700Y-74685
X43700Y-75955
X43700Y-77225
X43700Y-87375
X43700Y-88645
X43700Y-89915
X43700Y-91185
X53550Y-51815
X53550Y-53085
X53550Y-54355
X53550Y-55625
X53550Y-65775
X53550Y-67045
X53550Y-68315
X53550Y-69585
X53550Y-73415
X53550Y-74685
X53550Y-75955
X53550Y-77225
X53550Y-87375
X53550Y-88645
X53550Y-89915
X53550Y-91185
X57500Y-35000
X60500Y-53000
X62000Y-34000
X62000Y-54000
X62000Y-56000
X62188Y-86050
X62188Y-88550
X62188Y-91050
X62188Y-93550
X62188Y-96050
X66225Y-76000
X67140Y-35000
X74040Y-35000
X78000Y-47500
X80490Y-35780
X83700Y-51815
X83700Y-53085
X83700Y-54355
X83700Y-55625
X83700Y-65775
X83700Y-67045
X83700Y-68315
X83700Y-69585
X83700Y-73415
X83700Y-74685
X83700Y-75955
X83700Y-77225
X83700Y-87375
X83700Y-88645
X83700Y-89915
X83700Y-91185
X93550Y-51815
X93550Y-53085
X93550Y-54355
X93550Y-55625
X93550Y-65775
X93550Y-67045
X93550Y-68315
X93550Y-69585
X93550Y-73415
X93550Y-74685
X93550Y-75955
X93550Y-77225
X93550Y-87375
X93550Y-88645
X93550Y-89915
X93550Y-91185
X100500Y-53000
X102000Y-47500
X102000Y-54000
X102000Y-56000
X102188Y-86050
X102188Y-88550
X102188Y-91050
X102188Y-93550
X102188Y-96050
X106225Y-76000
X123700Y-51815
X123700Y-53085
X123700Y-54355
X123700Y-55625
X123700Y-65775
X123700Y-67045
X123700Y-68315
X123700Y-69585
X123700Y-73415
X123700Y-74685
X123700Y-75955
X123700Y-77225
X123700Y-87375
X123700Y-88645
X123700Y-89915
X123700Y-91185
X133550Y-51815
X133550Y-53085
X133550Y-54355
X133550Y-55625
X133550Y-65775
X133550Y-67045
X133550Y-68315
X133550Y-69585
X133550Y-73415
X133550Y-74685
X133550Y-75955
X133550Y-77225
X133550Y-87375
X133550Y-88645
X133550Y-89915
X133550Y-91185
X139390Y-61900
X142000Y-54000
X142000Y-56000
X142188Y-86050
X142188Y-88550
X142188Y-91050
X142188Y-93550
X142188Y-96050
X146225Y-76000
T2
X37700Y-51310
X37700Y-56170
X37700Y-66400
X37700Y-68900
X37700Y-74205
X37700Y-76435
X37700Y-86500
X37700Y-92000
X47700Y-51120
X47700Y-56460
X47700Y-65341
X47700Y-69000
X47700Y-74205
X47700Y-80390
X47700Y-83518
X47700Y-92000
X48000Y-61000
X48000Y-82000
X49000Y-48500
X49000Y-50000
X49000Y-93000
X49000Y-95000
X50000Y-59000
X50000Y-61000
X50000Y-63000
X50000Y-80000
X50000Y-82000
X50000Y-84000
X52000Y-59000
X52000Y-61000
X52000Y-63000
X52000Y-80000
X52000Y-82000
X52000Y-84000
X54000Y-59000
X54000Y-61000
X54000Y-63000
X54000Y-80000
X54000Y-82000
X54000Y-84000
X56000Y-61000
X56000Y-82000
X56200Y-51815
X56200Y-54355
X56200Y-65775
X56200Y-68315
X56200Y-69585
X56200Y-87375
X56200Y-89915
X60500Y-48500
X63625Y-77000
X63625Y-78500
X63625Y-80000
X63625Y-81500
X64275Y-59500
X64275Y-61000
X64275Y-62500
X64275Y-64000
X65000Y-83000
X66225Y-65500
X66225Y-67000
X68000Y-78500
X77700Y-51310
X77700Y-56170
X77700Y-66400
X77700Y-68900
X77700Y-74205
X77700Y-76435
X77700Y-86500
X77700Y-92000
X87700Y-51120
X87700Y-56460
X87700Y-65341
X87700Y-69000
X87700Y-74205
X87700Y-80390
X87700Y-83518
X87700Y-92000
X88000Y-61000
X88000Y-82000
X89000Y-48500
X89000Y-50000
X89000Y-93000
X89000Y-95000
X90000Y-59000
X90000Y-61000
X90000Y-63000
X90000Y-80000
X90000Y-82000
X90000Y-84000
X92000Y-59000
X92000Y-61000
X92000Y-63000
X92000Y-80000
X92000Y-82000
X92000Y-84000
X94000Y-59000
X94000Y-61000
X94000Y-63000
X94000Y-80000
X94000Y-82000
X94000Y-84000
X96000Y-61000
X96000Y-82000
X96200Y-51815
X96200Y-54355
X96200Y-65775
X96200Y-68315
X96200Y-69585
X96200Y-87375
X96200Y-89915
X103625Y-77000
X103625Y-78500
X103625Y-80000
X103625Y-81500
X104275Y-59500
X104275Y-61000
X104275Y-62500
X104275Y-64000
X105000Y-83000
X106225Y-65500
X106225Y-67000
X108000Y-78500
X117700Y-51310
X117700Y-56170
X117700Y-66400
X117700Y-68900
X117700Y-74205
X117700Y-76435
X117700Y-86500
X117700Y-92000
X127700Y-51120
X127700Y-56460
X127700Y-65341
X127700Y-69000
X127700Y-74205
X127700Y-80390
X127700Y-83518
X127700Y-92000
X128000Y-61000
X128000Y-82000
X129000Y-48500
X129000Y-50000
X129000Y-93000
X129000Y-95000
X130000Y-59000
X130000Y-61000
X130000Y-63000
X130000Y-80000
X130000Y-82000
X130000Y-84000
X132000Y-59000
X132000Y-61000
X132000Y-63000
X132000Y-80000
X132000Y-82000
X132000Y-84000
X134000Y-59000
X134000Y-61000
X134000Y-63000
X134000Y-80000
X134000Y-82000
X134000Y-84000
X136000Y-61000
X136000Y-82000
X136200Y-51815
X136200Y-54355
X136200Y-65775
X136200Y-68315
X136200Y-69585
X136200Y-87375
X136200Y-89915
X143510Y-39450
X143625Y-77000
X143625Y-78500
X143625Y-80000
X143625Y-81500
X144275Y-59500
X144275Y-61000
X144275Y-62500
X144275Y-64000
X145000Y-83000
X146225Y-65500
X146225Y-67000
X148000Y-78500
X36000Y-37000
X36000Y-39500
X125000Y-97500
X125000Y-100000
X46000Y-37000
X46000Y-39500
X115000Y-97500
X115000Y-100000
T3
X111460Y-52450
X111460Y-54990
X111460Y-57530
X111460Y-60070
X111460Y-62610
X111460Y-65150
X111460Y-67690
X111460Y-70230
X111460Y-72770
X111460Y-75310
X111460Y-77850
X111460Y-80390
X111460Y-82930
X111460Y-85470
X111460Y-88010
X111460Y-90550
X114000Y-52450
X114000Y-54990
X114000Y-57530
X114000Y-60070
X114000Y-62610
X114000Y-65150
X114000Y-67690
X114000Y-70230
X114000Y-72770
X114000Y-75310
X114000Y-77850
X114000Y-80390
X114000Y-82930
X114000Y-85470
X114000Y-88010
X114000Y-90550
X24870Y-27080
X24870Y-29620
X27410Y-27080
X27410Y-29620
X29950Y-27080
X29950Y-29620
X32490Y-27080
X32490Y-29620
X35030Y-27080
X35030Y-29620
X37570Y-27080
X37570Y-29620
X40110Y-27080
X40110Y-29620
X42650Y-27080
X42650Y-29620
X45190Y-27080
X45190Y-29620
X47730Y-27080
X47730Y-29620
X50270Y-27080
X50270Y-29620
X52810Y-27080
X52810Y-29620
X55350Y-27080
X55350Y-29620
X57890Y-27080
X57890Y-29620
X60430Y-27080
X60430Y-29620
X62970Y-27080
X62970Y-29620
X65510Y-27080
X65510Y-29620
X68050Y-27080
X68050Y-29620
X70590Y-27080
X70590Y-29620
X73130Y-27080
X73130Y-29620
X71460Y-52450
X71460Y-54990
X71460Y-57530
X71460Y-60070
X71460Y-62610
X71460Y-65150
X71460Y-67690
X71460Y-70230
X71460Y-72770
X71460Y-75310
X71460Y-77850
X71460Y-80390
X71460Y-82930
X71460Y-85470
X71460Y-88010
X71460Y-90550
X74000Y-52450
X74000Y-54990
X74000Y-57530
X74000Y-60070
X74000Y-62610
X74000Y-65150
X74000Y-67690
X74000Y-70230
X74000Y-72770
X74000Y-75310
X74000Y-77850
X74000Y-80390
X74000Y-82930
X74000Y-85470
X74000Y-88010
X74000Y-90550
X31460Y-52450
X31460Y-54990
X31460Y-57530
X31460Y-60070
X31460Y-62610
X31460Y-65150
X31460Y-67690
X31460Y-70230
X31460Y-72770
X31460Y-75310
X31460Y-77850
X31460Y-80390
X31460Y-82930
X31460Y-85470
X31460Y-88010
X31460Y-90550
X34000Y-52450
X34000Y-54990
X34000Y-57530
X34000Y-60070
X34000Y-62610
X34000Y-65150
X34000Y-67690
X34000Y-70230
X34000Y-72770
X34000Y-75310
X34000Y-77850
X34000Y-80390
X34000Y-82930
X34000Y-85470
X34000Y-88010
X34000Y-90550
T4
X157000Y-47800
X157000Y-52000
X157000Y-56200
X157000Y-60400
X157000Y-64600
X157000Y-68800
X157000Y-73000
X157000Y-77200
X157000Y-81400
X157000Y-85600
X157000Y-89800
X157000Y-94000
X162500Y-47800
X162500Y-52000
X162500Y-56200
X162500Y-60400
X162500Y-64600
X162500Y-68800
X162500Y-73000
X162500Y-77200
X162500Y-81400
X162500Y-85600
X162500Y-89800
X162500Y-94000
T5
X162040Y-43100
X162040Y-98700
T0
M30
