%TF.GenerationSoftware,KiCad,Pcbnew,(5.1.6)-1*%
%TF.CreationDate,2020-07-21T23:35:01+09:00*%
%TF.ProjectId,PWM-PCA9685,50574d2d-5043-4413-9936-38352e6b6963,rev?*%
%TF.SameCoordinates,Original*%
%TF.FileFunction,Legend,Bot*%
%TF.FilePolarity,Positive*%
%FSLAX46Y46*%
G04 Gerber Fmt 4.6, Leading zero omitted, Abs format (unit mm)*
G04 Created by KiCad (PCBNEW (5.1.6)-1) date 2020-07-21 23:35:01*
%MOMM*%
%LPD*%
G01*
G04 APERTURE LIST*
%ADD10C,0.120000*%
G04 APERTURE END LIST*
D10*
%TO.C,C7*%
X138572936Y-70090000D02*
X139777064Y-70090000D01*
X138572936Y-71910000D02*
X139777064Y-71910000D01*
%TO.C,C6*%
X98572936Y-70090000D02*
X99777064Y-70090000D01*
X98572936Y-71910000D02*
X99777064Y-71910000D01*
%TO.C,C5*%
X58572936Y-70090000D02*
X59777064Y-70090000D01*
X58572936Y-71910000D02*
X59777064Y-71910000D01*
%TO.C,D38*%
X125850000Y-73370000D02*
X125850000Y-72170000D01*
X127700000Y-73370000D02*
X125850000Y-73370000D01*
X127700000Y-72170000D02*
X125850000Y-72170000D01*
%TO.C,D48*%
X115850000Y-53050000D02*
X115850000Y-51850000D01*
X117700000Y-53050000D02*
X115850000Y-53050000D01*
X117700000Y-51850000D02*
X115850000Y-51850000D01*
%TO.C,D47*%
X115850000Y-55590000D02*
X115850000Y-54390000D01*
X117700000Y-55590000D02*
X115850000Y-55590000D01*
X117700000Y-54390000D02*
X115850000Y-54390000D01*
%TO.C,D46*%
X125850000Y-53050000D02*
X125850000Y-51850000D01*
X127700000Y-53050000D02*
X125850000Y-53050000D01*
X127700000Y-51850000D02*
X125850000Y-51850000D01*
%TO.C,D45*%
X125850000Y-55590000D02*
X125850000Y-54390000D01*
X127700000Y-55590000D02*
X125850000Y-55590000D01*
X127700000Y-54390000D02*
X125850000Y-54390000D01*
%TO.C,D44*%
X125850000Y-68290000D02*
X125850000Y-67090000D01*
X127700000Y-68290000D02*
X125850000Y-68290000D01*
X127700000Y-67090000D02*
X125850000Y-67090000D01*
%TO.C,D43*%
X125850000Y-70830000D02*
X125850000Y-69630000D01*
X127700000Y-70830000D02*
X125850000Y-70830000D01*
X127700000Y-69630000D02*
X125850000Y-69630000D01*
%TO.C,D42*%
X115850000Y-68290000D02*
X115850000Y-67090000D01*
X117700000Y-68290000D02*
X115850000Y-68290000D01*
X117700000Y-67090000D02*
X115850000Y-67090000D01*
%TO.C,D41*%
X115850000Y-70830000D02*
X115850000Y-69630000D01*
X117700000Y-70830000D02*
X115850000Y-70830000D01*
X117700000Y-69630000D02*
X115850000Y-69630000D01*
%TO.C,D40*%
X115850000Y-73370000D02*
X115850000Y-72170000D01*
X117700000Y-73370000D02*
X115850000Y-73370000D01*
X117700000Y-72170000D02*
X115850000Y-72170000D01*
%TO.C,D39*%
X115850000Y-75910000D02*
X115850000Y-74710000D01*
X117700000Y-75910000D02*
X115850000Y-75910000D01*
X117700000Y-74710000D02*
X115850000Y-74710000D01*
%TO.C,D37*%
X125850000Y-75910000D02*
X125850000Y-74710000D01*
X127700000Y-75910000D02*
X125850000Y-75910000D01*
X127700000Y-74710000D02*
X125850000Y-74710000D01*
%TO.C,D36*%
X125850000Y-88610000D02*
X125850000Y-87410000D01*
X127700000Y-88610000D02*
X125850000Y-88610000D01*
X127700000Y-87410000D02*
X125850000Y-87410000D01*
%TO.C,D35*%
X125850000Y-91150000D02*
X125850000Y-89950000D01*
X127700000Y-91150000D02*
X125850000Y-91150000D01*
X127700000Y-89950000D02*
X125850000Y-89950000D01*
%TO.C,D34*%
X115850000Y-88610000D02*
X115850000Y-87410000D01*
X117700000Y-88610000D02*
X115850000Y-88610000D01*
X117700000Y-87410000D02*
X115850000Y-87410000D01*
%TO.C,D33*%
X115850000Y-91150000D02*
X115850000Y-89950000D01*
X117700000Y-91150000D02*
X115850000Y-91150000D01*
X117700000Y-89950000D02*
X115850000Y-89950000D01*
%TO.C,D32*%
X75850000Y-53050000D02*
X75850000Y-51850000D01*
X77700000Y-53050000D02*
X75850000Y-53050000D01*
X77700000Y-51850000D02*
X75850000Y-51850000D01*
%TO.C,D31*%
X75850000Y-55590000D02*
X75850000Y-54390000D01*
X77700000Y-55590000D02*
X75850000Y-55590000D01*
X77700000Y-54390000D02*
X75850000Y-54390000D01*
%TO.C,D30*%
X85850000Y-53050000D02*
X85850000Y-51850000D01*
X87700000Y-53050000D02*
X85850000Y-53050000D01*
X87700000Y-51850000D02*
X85850000Y-51850000D01*
%TO.C,D29*%
X85850000Y-55590000D02*
X85850000Y-54390000D01*
X87700000Y-55590000D02*
X85850000Y-55590000D01*
X87700000Y-54390000D02*
X85850000Y-54390000D01*
%TO.C,D28*%
X85850000Y-68290000D02*
X85850000Y-67090000D01*
X87700000Y-68290000D02*
X85850000Y-68290000D01*
X87700000Y-67090000D02*
X85850000Y-67090000D01*
%TO.C,D27*%
X85850000Y-70830000D02*
X85850000Y-69630000D01*
X87700000Y-70830000D02*
X85850000Y-70830000D01*
X87700000Y-69630000D02*
X85850000Y-69630000D01*
%TO.C,D26*%
X75850000Y-68290000D02*
X75850000Y-67090000D01*
X77700000Y-68290000D02*
X75850000Y-68290000D01*
X77700000Y-67090000D02*
X75850000Y-67090000D01*
%TO.C,D25*%
X75850000Y-70830000D02*
X75850000Y-69630000D01*
X77700000Y-70830000D02*
X75850000Y-70830000D01*
X77700000Y-69630000D02*
X75850000Y-69630000D01*
%TO.C,D24*%
X75850000Y-73370000D02*
X75850000Y-72170000D01*
X77700000Y-73370000D02*
X75850000Y-73370000D01*
X77700000Y-72170000D02*
X75850000Y-72170000D01*
%TO.C,D23*%
X75850000Y-75910000D02*
X75850000Y-74710000D01*
X77700000Y-75910000D02*
X75850000Y-75910000D01*
X77700000Y-74710000D02*
X75850000Y-74710000D01*
%TO.C,D22*%
X85850000Y-73370000D02*
X85850000Y-72170000D01*
X87700000Y-73370000D02*
X85850000Y-73370000D01*
X87700000Y-72170000D02*
X85850000Y-72170000D01*
%TO.C,D21*%
X85850000Y-75910000D02*
X85850000Y-74710000D01*
X87700000Y-75910000D02*
X85850000Y-75910000D01*
X87700000Y-74710000D02*
X85850000Y-74710000D01*
%TO.C,D20*%
X85850000Y-88610000D02*
X85850000Y-87410000D01*
X87700000Y-88610000D02*
X85850000Y-88610000D01*
X87700000Y-87410000D02*
X85850000Y-87410000D01*
%TO.C,D19*%
X85850000Y-91150000D02*
X85850000Y-89950000D01*
X87700000Y-91150000D02*
X85850000Y-91150000D01*
X87700000Y-89950000D02*
X85850000Y-89950000D01*
%TO.C,D18*%
X75850000Y-88610000D02*
X75850000Y-87410000D01*
X77700000Y-88610000D02*
X75850000Y-88610000D01*
X77700000Y-87410000D02*
X75850000Y-87410000D01*
%TO.C,D17*%
X75850000Y-91150000D02*
X75850000Y-89950000D01*
X77700000Y-91150000D02*
X75850000Y-91150000D01*
X77700000Y-89950000D02*
X75850000Y-89950000D01*
%TO.C,D16*%
X35850000Y-53190000D02*
X35850000Y-51990000D01*
X37700000Y-53190000D02*
X35850000Y-53190000D01*
X37700000Y-51990000D02*
X35850000Y-51990000D01*
%TO.C,D15*%
X35850000Y-55450000D02*
X35850000Y-54250000D01*
X37700000Y-55450000D02*
X35850000Y-55450000D01*
X37700000Y-54250000D02*
X35850000Y-54250000D01*
%TO.C,D14*%
X45850000Y-53100000D02*
X45850000Y-51900000D01*
X47700000Y-53100000D02*
X45850000Y-53100000D01*
X47700000Y-51900000D02*
X45850000Y-51900000D01*
%TO.C,D13*%
X45850000Y-55580000D02*
X45850000Y-54380000D01*
X47700000Y-55580000D02*
X45850000Y-55580000D01*
X47700000Y-54380000D02*
X45850000Y-54380000D01*
%TO.C,D12*%
X45850000Y-68290000D02*
X45850000Y-67090000D01*
X47700000Y-68290000D02*
X45850000Y-68290000D01*
X47700000Y-67090000D02*
X45850000Y-67090000D01*
%TO.C,D11*%
X45850000Y-70830000D02*
X45850000Y-69630000D01*
X47700000Y-70830000D02*
X45850000Y-70830000D01*
X47700000Y-69630000D02*
X45850000Y-69630000D01*
%TO.C,D10*%
X35850000Y-68290000D02*
X35850000Y-67090000D01*
X37700000Y-68290000D02*
X35850000Y-68290000D01*
X37700000Y-67090000D02*
X35850000Y-67090000D01*
%TO.C,D9*%
X35850000Y-70830000D02*
X35850000Y-69630000D01*
X37700000Y-70830000D02*
X35850000Y-70830000D01*
X37700000Y-69630000D02*
X35850000Y-69630000D01*
%TO.C,D8*%
X35850000Y-73370000D02*
X35850000Y-72170000D01*
X37700000Y-73370000D02*
X35850000Y-73370000D01*
X37700000Y-72170000D02*
X35850000Y-72170000D01*
%TO.C,D7*%
X35850000Y-75910000D02*
X35850000Y-74710000D01*
X37700000Y-75910000D02*
X35850000Y-75910000D01*
X37700000Y-74710000D02*
X35850000Y-74710000D01*
%TO.C,D6*%
X45850000Y-73370000D02*
X45850000Y-72170000D01*
X47700000Y-73370000D02*
X45850000Y-73370000D01*
X47700000Y-72170000D02*
X45850000Y-72170000D01*
%TO.C,D5*%
X45850000Y-75910000D02*
X45850000Y-74710000D01*
X47700000Y-75910000D02*
X45850000Y-75910000D01*
X47700000Y-74710000D02*
X45850000Y-74710000D01*
%TO.C,D4*%
X45850000Y-88610000D02*
X45850000Y-87410000D01*
X47700000Y-88610000D02*
X45850000Y-88610000D01*
X47700000Y-87410000D02*
X45850000Y-87410000D01*
%TO.C,D3*%
X45850000Y-91150000D02*
X45850000Y-89950000D01*
X47700000Y-91150000D02*
X45850000Y-91150000D01*
X47700000Y-89950000D02*
X45850000Y-89950000D01*
%TO.C,D2*%
X35850000Y-88610000D02*
X35850000Y-87410000D01*
X37700000Y-88610000D02*
X35850000Y-88610000D01*
X37700000Y-87410000D02*
X35850000Y-87410000D01*
%TO.C,D1*%
X35850000Y-91150000D02*
X35850000Y-89950000D01*
X37700000Y-91150000D02*
X35850000Y-91150000D01*
X37700000Y-89950000D02*
X35850000Y-89950000D01*
%TD*%
M02*
