%TF.GenerationSoftware,KiCad,Pcbnew,(5.1.6)-1*%
%TF.CreationDate,2020-07-03T16:53:40+09:00*%
%TF.ProjectId,PWM-PCA9685,50574d2d-5043-4413-9936-38352e6b6963,rev?*%
%TF.SameCoordinates,Original*%
%TF.FileFunction,Paste,Top*%
%TF.FilePolarity,Positive*%
%FSLAX46Y46*%
G04 Gerber Fmt 4.6, Leading zero omitted, Abs format (unit mm)*
G04 Created by KiCad (PCBNEW (5.1.6)-1) date 2020-07-03 16:53:40*
%MOMM*%
%LPD*%
G01*
G04 APERTURE LIST*
%ADD10R,0.510000X0.585000*%
%ADD11R,0.410000X0.470000*%
%ADD12R,3.990000X1.730000*%
%ADD13R,0.720000X0.410000*%
G04 APERTURE END LIST*
%TO.C,R22*%
G36*
G01*
X149743750Y-47350000D02*
X150256250Y-47350000D01*
G75*
G02*
X150475000Y-47568750I0J-218750D01*
G01*
X150475000Y-48006250D01*
G75*
G02*
X150256250Y-48225000I-218750J0D01*
G01*
X149743750Y-48225000D01*
G75*
G02*
X149525000Y-48006250I0J218750D01*
G01*
X149525000Y-47568750D01*
G75*
G02*
X149743750Y-47350000I218750J0D01*
G01*
G37*
G36*
G01*
X149743750Y-45775000D02*
X150256250Y-45775000D01*
G75*
G02*
X150475000Y-45993750I0J-218750D01*
G01*
X150475000Y-46431250D01*
G75*
G02*
X150256250Y-46650000I-218750J0D01*
G01*
X149743750Y-46650000D01*
G75*
G02*
X149525000Y-46431250I0J218750D01*
G01*
X149525000Y-45993750D01*
G75*
G02*
X149743750Y-45775000I218750J0D01*
G01*
G37*
%TD*%
%TO.C,R21*%
G36*
G01*
X145743750Y-47350000D02*
X146256250Y-47350000D01*
G75*
G02*
X146475000Y-47568750I0J-218750D01*
G01*
X146475000Y-48006250D01*
G75*
G02*
X146256250Y-48225000I-218750J0D01*
G01*
X145743750Y-48225000D01*
G75*
G02*
X145525000Y-48006250I0J218750D01*
G01*
X145525000Y-47568750D01*
G75*
G02*
X145743750Y-47350000I218750J0D01*
G01*
G37*
G36*
G01*
X145743750Y-45775000D02*
X146256250Y-45775000D01*
G75*
G02*
X146475000Y-45993750I0J-218750D01*
G01*
X146475000Y-46431250D01*
G75*
G02*
X146256250Y-46650000I-218750J0D01*
G01*
X145743750Y-46650000D01*
G75*
G02*
X145525000Y-46431250I0J218750D01*
G01*
X145525000Y-45993750D01*
G75*
G02*
X145743750Y-45775000I218750J0D01*
G01*
G37*
%TD*%
%TO.C,D50*%
G36*
G01*
X149743750Y-43350000D02*
X150256250Y-43350000D01*
G75*
G02*
X150475000Y-43568750I0J-218750D01*
G01*
X150475000Y-44006250D01*
G75*
G02*
X150256250Y-44225000I-218750J0D01*
G01*
X149743750Y-44225000D01*
G75*
G02*
X149525000Y-44006250I0J218750D01*
G01*
X149525000Y-43568750D01*
G75*
G02*
X149743750Y-43350000I218750J0D01*
G01*
G37*
G36*
G01*
X149743750Y-41775000D02*
X150256250Y-41775000D01*
G75*
G02*
X150475000Y-41993750I0J-218750D01*
G01*
X150475000Y-42431250D01*
G75*
G02*
X150256250Y-42650000I-218750J0D01*
G01*
X149743750Y-42650000D01*
G75*
G02*
X149525000Y-42431250I0J218750D01*
G01*
X149525000Y-41993750D01*
G75*
G02*
X149743750Y-41775000I218750J0D01*
G01*
G37*
%TD*%
%TO.C,D49*%
G36*
G01*
X145743750Y-43350000D02*
X146256250Y-43350000D01*
G75*
G02*
X146475000Y-43568750I0J-218750D01*
G01*
X146475000Y-44006250D01*
G75*
G02*
X146256250Y-44225000I-218750J0D01*
G01*
X145743750Y-44225000D01*
G75*
G02*
X145525000Y-44006250I0J218750D01*
G01*
X145525000Y-43568750D01*
G75*
G02*
X145743750Y-43350000I218750J0D01*
G01*
G37*
G36*
G01*
X145743750Y-41775000D02*
X146256250Y-41775000D01*
G75*
G02*
X146475000Y-41993750I0J-218750D01*
G01*
X146475000Y-42431250D01*
G75*
G02*
X146256250Y-42650000I-218750J0D01*
G01*
X145743750Y-42650000D01*
G75*
G02*
X145525000Y-42431250I0J218750D01*
G01*
X145525000Y-41993750D01*
G75*
G02*
X145743750Y-41775000I218750J0D01*
G01*
G37*
%TD*%
%TO.C,U1*%
G36*
G01*
X57875000Y-69375000D02*
X57675000Y-69375000D01*
G75*
G02*
X57575000Y-69275000I0J100000D01*
G01*
X57575000Y-68000000D01*
G75*
G02*
X57675000Y-67900000I100000J0D01*
G01*
X57875000Y-67900000D01*
G75*
G02*
X57975000Y-68000000I0J-100000D01*
G01*
X57975000Y-69275000D01*
G75*
G02*
X57875000Y-69375000I-100000J0D01*
G01*
G37*
G36*
G01*
X58525000Y-69375000D02*
X58325000Y-69375000D01*
G75*
G02*
X58225000Y-69275000I0J100000D01*
G01*
X58225000Y-68000000D01*
G75*
G02*
X58325000Y-67900000I100000J0D01*
G01*
X58525000Y-67900000D01*
G75*
G02*
X58625000Y-68000000I0J-100000D01*
G01*
X58625000Y-69275000D01*
G75*
G02*
X58525000Y-69375000I-100000J0D01*
G01*
G37*
G36*
G01*
X59175000Y-69375000D02*
X58975000Y-69375000D01*
G75*
G02*
X58875000Y-69275000I0J100000D01*
G01*
X58875000Y-68000000D01*
G75*
G02*
X58975000Y-67900000I100000J0D01*
G01*
X59175000Y-67900000D01*
G75*
G02*
X59275000Y-68000000I0J-100000D01*
G01*
X59275000Y-69275000D01*
G75*
G02*
X59175000Y-69375000I-100000J0D01*
G01*
G37*
G36*
G01*
X59825000Y-69375000D02*
X59625000Y-69375000D01*
G75*
G02*
X59525000Y-69275000I0J100000D01*
G01*
X59525000Y-68000000D01*
G75*
G02*
X59625000Y-67900000I100000J0D01*
G01*
X59825000Y-67900000D01*
G75*
G02*
X59925000Y-68000000I0J-100000D01*
G01*
X59925000Y-69275000D01*
G75*
G02*
X59825000Y-69375000I-100000J0D01*
G01*
G37*
G36*
G01*
X60475000Y-69375000D02*
X60275000Y-69375000D01*
G75*
G02*
X60175000Y-69275000I0J100000D01*
G01*
X60175000Y-68000000D01*
G75*
G02*
X60275000Y-67900000I100000J0D01*
G01*
X60475000Y-67900000D01*
G75*
G02*
X60575000Y-68000000I0J-100000D01*
G01*
X60575000Y-69275000D01*
G75*
G02*
X60475000Y-69375000I-100000J0D01*
G01*
G37*
G36*
G01*
X61125000Y-69375000D02*
X60925000Y-69375000D01*
G75*
G02*
X60825000Y-69275000I0J100000D01*
G01*
X60825000Y-68000000D01*
G75*
G02*
X60925000Y-67900000I100000J0D01*
G01*
X61125000Y-67900000D01*
G75*
G02*
X61225000Y-68000000I0J-100000D01*
G01*
X61225000Y-69275000D01*
G75*
G02*
X61125000Y-69375000I-100000J0D01*
G01*
G37*
G36*
G01*
X61775000Y-69375000D02*
X61575000Y-69375000D01*
G75*
G02*
X61475000Y-69275000I0J100000D01*
G01*
X61475000Y-68000000D01*
G75*
G02*
X61575000Y-67900000I100000J0D01*
G01*
X61775000Y-67900000D01*
G75*
G02*
X61875000Y-68000000I0J-100000D01*
G01*
X61875000Y-69275000D01*
G75*
G02*
X61775000Y-69375000I-100000J0D01*
G01*
G37*
G36*
G01*
X62425000Y-69375000D02*
X62225000Y-69375000D01*
G75*
G02*
X62125000Y-69275000I0J100000D01*
G01*
X62125000Y-68000000D01*
G75*
G02*
X62225000Y-67900000I100000J0D01*
G01*
X62425000Y-67900000D01*
G75*
G02*
X62525000Y-68000000I0J-100000D01*
G01*
X62525000Y-69275000D01*
G75*
G02*
X62425000Y-69375000I-100000J0D01*
G01*
G37*
G36*
G01*
X63075000Y-69375000D02*
X62875000Y-69375000D01*
G75*
G02*
X62775000Y-69275000I0J100000D01*
G01*
X62775000Y-68000000D01*
G75*
G02*
X62875000Y-67900000I100000J0D01*
G01*
X63075000Y-67900000D01*
G75*
G02*
X63175000Y-68000000I0J-100000D01*
G01*
X63175000Y-69275000D01*
G75*
G02*
X63075000Y-69375000I-100000J0D01*
G01*
G37*
G36*
G01*
X63725000Y-69375000D02*
X63525000Y-69375000D01*
G75*
G02*
X63425000Y-69275000I0J100000D01*
G01*
X63425000Y-68000000D01*
G75*
G02*
X63525000Y-67900000I100000J0D01*
G01*
X63725000Y-67900000D01*
G75*
G02*
X63825000Y-68000000I0J-100000D01*
G01*
X63825000Y-69275000D01*
G75*
G02*
X63725000Y-69375000I-100000J0D01*
G01*
G37*
G36*
G01*
X64375000Y-69375000D02*
X64175000Y-69375000D01*
G75*
G02*
X64075000Y-69275000I0J100000D01*
G01*
X64075000Y-68000000D01*
G75*
G02*
X64175000Y-67900000I100000J0D01*
G01*
X64375000Y-67900000D01*
G75*
G02*
X64475000Y-68000000I0J-100000D01*
G01*
X64475000Y-69275000D01*
G75*
G02*
X64375000Y-69375000I-100000J0D01*
G01*
G37*
G36*
G01*
X65025000Y-69375000D02*
X64825000Y-69375000D01*
G75*
G02*
X64725000Y-69275000I0J100000D01*
G01*
X64725000Y-68000000D01*
G75*
G02*
X64825000Y-67900000I100000J0D01*
G01*
X65025000Y-67900000D01*
G75*
G02*
X65125000Y-68000000I0J-100000D01*
G01*
X65125000Y-69275000D01*
G75*
G02*
X65025000Y-69375000I-100000J0D01*
G01*
G37*
G36*
G01*
X65675000Y-69375000D02*
X65475000Y-69375000D01*
G75*
G02*
X65375000Y-69275000I0J100000D01*
G01*
X65375000Y-68000000D01*
G75*
G02*
X65475000Y-67900000I100000J0D01*
G01*
X65675000Y-67900000D01*
G75*
G02*
X65775000Y-68000000I0J-100000D01*
G01*
X65775000Y-69275000D01*
G75*
G02*
X65675000Y-69375000I-100000J0D01*
G01*
G37*
G36*
G01*
X66325000Y-69375000D02*
X66125000Y-69375000D01*
G75*
G02*
X66025000Y-69275000I0J100000D01*
G01*
X66025000Y-68000000D01*
G75*
G02*
X66125000Y-67900000I100000J0D01*
G01*
X66325000Y-67900000D01*
G75*
G02*
X66425000Y-68000000I0J-100000D01*
G01*
X66425000Y-69275000D01*
G75*
G02*
X66325000Y-69375000I-100000J0D01*
G01*
G37*
G36*
G01*
X66325000Y-75100000D02*
X66125000Y-75100000D01*
G75*
G02*
X66025000Y-75000000I0J100000D01*
G01*
X66025000Y-73725000D01*
G75*
G02*
X66125000Y-73625000I100000J0D01*
G01*
X66325000Y-73625000D01*
G75*
G02*
X66425000Y-73725000I0J-100000D01*
G01*
X66425000Y-75000000D01*
G75*
G02*
X66325000Y-75100000I-100000J0D01*
G01*
G37*
G36*
G01*
X65675000Y-75100000D02*
X65475000Y-75100000D01*
G75*
G02*
X65375000Y-75000000I0J100000D01*
G01*
X65375000Y-73725000D01*
G75*
G02*
X65475000Y-73625000I100000J0D01*
G01*
X65675000Y-73625000D01*
G75*
G02*
X65775000Y-73725000I0J-100000D01*
G01*
X65775000Y-75000000D01*
G75*
G02*
X65675000Y-75100000I-100000J0D01*
G01*
G37*
G36*
G01*
X65025000Y-75100000D02*
X64825000Y-75100000D01*
G75*
G02*
X64725000Y-75000000I0J100000D01*
G01*
X64725000Y-73725000D01*
G75*
G02*
X64825000Y-73625000I100000J0D01*
G01*
X65025000Y-73625000D01*
G75*
G02*
X65125000Y-73725000I0J-100000D01*
G01*
X65125000Y-75000000D01*
G75*
G02*
X65025000Y-75100000I-100000J0D01*
G01*
G37*
G36*
G01*
X64375000Y-75100000D02*
X64175000Y-75100000D01*
G75*
G02*
X64075000Y-75000000I0J100000D01*
G01*
X64075000Y-73725000D01*
G75*
G02*
X64175000Y-73625000I100000J0D01*
G01*
X64375000Y-73625000D01*
G75*
G02*
X64475000Y-73725000I0J-100000D01*
G01*
X64475000Y-75000000D01*
G75*
G02*
X64375000Y-75100000I-100000J0D01*
G01*
G37*
G36*
G01*
X63725000Y-75100000D02*
X63525000Y-75100000D01*
G75*
G02*
X63425000Y-75000000I0J100000D01*
G01*
X63425000Y-73725000D01*
G75*
G02*
X63525000Y-73625000I100000J0D01*
G01*
X63725000Y-73625000D01*
G75*
G02*
X63825000Y-73725000I0J-100000D01*
G01*
X63825000Y-75000000D01*
G75*
G02*
X63725000Y-75100000I-100000J0D01*
G01*
G37*
G36*
G01*
X63075000Y-75100000D02*
X62875000Y-75100000D01*
G75*
G02*
X62775000Y-75000000I0J100000D01*
G01*
X62775000Y-73725000D01*
G75*
G02*
X62875000Y-73625000I100000J0D01*
G01*
X63075000Y-73625000D01*
G75*
G02*
X63175000Y-73725000I0J-100000D01*
G01*
X63175000Y-75000000D01*
G75*
G02*
X63075000Y-75100000I-100000J0D01*
G01*
G37*
G36*
G01*
X62425000Y-75100000D02*
X62225000Y-75100000D01*
G75*
G02*
X62125000Y-75000000I0J100000D01*
G01*
X62125000Y-73725000D01*
G75*
G02*
X62225000Y-73625000I100000J0D01*
G01*
X62425000Y-73625000D01*
G75*
G02*
X62525000Y-73725000I0J-100000D01*
G01*
X62525000Y-75000000D01*
G75*
G02*
X62425000Y-75100000I-100000J0D01*
G01*
G37*
G36*
G01*
X61775000Y-75100000D02*
X61575000Y-75100000D01*
G75*
G02*
X61475000Y-75000000I0J100000D01*
G01*
X61475000Y-73725000D01*
G75*
G02*
X61575000Y-73625000I100000J0D01*
G01*
X61775000Y-73625000D01*
G75*
G02*
X61875000Y-73725000I0J-100000D01*
G01*
X61875000Y-75000000D01*
G75*
G02*
X61775000Y-75100000I-100000J0D01*
G01*
G37*
G36*
G01*
X61125000Y-75100000D02*
X60925000Y-75100000D01*
G75*
G02*
X60825000Y-75000000I0J100000D01*
G01*
X60825000Y-73725000D01*
G75*
G02*
X60925000Y-73625000I100000J0D01*
G01*
X61125000Y-73625000D01*
G75*
G02*
X61225000Y-73725000I0J-100000D01*
G01*
X61225000Y-75000000D01*
G75*
G02*
X61125000Y-75100000I-100000J0D01*
G01*
G37*
G36*
G01*
X60475000Y-75100000D02*
X60275000Y-75100000D01*
G75*
G02*
X60175000Y-75000000I0J100000D01*
G01*
X60175000Y-73725000D01*
G75*
G02*
X60275000Y-73625000I100000J0D01*
G01*
X60475000Y-73625000D01*
G75*
G02*
X60575000Y-73725000I0J-100000D01*
G01*
X60575000Y-75000000D01*
G75*
G02*
X60475000Y-75100000I-100000J0D01*
G01*
G37*
G36*
G01*
X59825000Y-75100000D02*
X59625000Y-75100000D01*
G75*
G02*
X59525000Y-75000000I0J100000D01*
G01*
X59525000Y-73725000D01*
G75*
G02*
X59625000Y-73625000I100000J0D01*
G01*
X59825000Y-73625000D01*
G75*
G02*
X59925000Y-73725000I0J-100000D01*
G01*
X59925000Y-75000000D01*
G75*
G02*
X59825000Y-75100000I-100000J0D01*
G01*
G37*
G36*
G01*
X59175000Y-75100000D02*
X58975000Y-75100000D01*
G75*
G02*
X58875000Y-75000000I0J100000D01*
G01*
X58875000Y-73725000D01*
G75*
G02*
X58975000Y-73625000I100000J0D01*
G01*
X59175000Y-73625000D01*
G75*
G02*
X59275000Y-73725000I0J-100000D01*
G01*
X59275000Y-75000000D01*
G75*
G02*
X59175000Y-75100000I-100000J0D01*
G01*
G37*
G36*
G01*
X58525000Y-75100000D02*
X58325000Y-75100000D01*
G75*
G02*
X58225000Y-75000000I0J100000D01*
G01*
X58225000Y-73725000D01*
G75*
G02*
X58325000Y-73625000I100000J0D01*
G01*
X58525000Y-73625000D01*
G75*
G02*
X58625000Y-73725000I0J-100000D01*
G01*
X58625000Y-75000000D01*
G75*
G02*
X58525000Y-75100000I-100000J0D01*
G01*
G37*
G36*
G01*
X57875000Y-75100000D02*
X57675000Y-75100000D01*
G75*
G02*
X57575000Y-75000000I0J100000D01*
G01*
X57575000Y-73725000D01*
G75*
G02*
X57675000Y-73625000I100000J0D01*
G01*
X57875000Y-73625000D01*
G75*
G02*
X57975000Y-73725000I0J-100000D01*
G01*
X57975000Y-75000000D01*
G75*
G02*
X57875000Y-75100000I-100000J0D01*
G01*
G37*
%TD*%
%TO.C,U3*%
G36*
G01*
X137875000Y-69375000D02*
X137675000Y-69375000D01*
G75*
G02*
X137575000Y-69275000I0J100000D01*
G01*
X137575000Y-68000000D01*
G75*
G02*
X137675000Y-67900000I100000J0D01*
G01*
X137875000Y-67900000D01*
G75*
G02*
X137975000Y-68000000I0J-100000D01*
G01*
X137975000Y-69275000D01*
G75*
G02*
X137875000Y-69375000I-100000J0D01*
G01*
G37*
G36*
G01*
X138525000Y-69375000D02*
X138325000Y-69375000D01*
G75*
G02*
X138225000Y-69275000I0J100000D01*
G01*
X138225000Y-68000000D01*
G75*
G02*
X138325000Y-67900000I100000J0D01*
G01*
X138525000Y-67900000D01*
G75*
G02*
X138625000Y-68000000I0J-100000D01*
G01*
X138625000Y-69275000D01*
G75*
G02*
X138525000Y-69375000I-100000J0D01*
G01*
G37*
G36*
G01*
X139175000Y-69375000D02*
X138975000Y-69375000D01*
G75*
G02*
X138875000Y-69275000I0J100000D01*
G01*
X138875000Y-68000000D01*
G75*
G02*
X138975000Y-67900000I100000J0D01*
G01*
X139175000Y-67900000D01*
G75*
G02*
X139275000Y-68000000I0J-100000D01*
G01*
X139275000Y-69275000D01*
G75*
G02*
X139175000Y-69375000I-100000J0D01*
G01*
G37*
G36*
G01*
X139825000Y-69375000D02*
X139625000Y-69375000D01*
G75*
G02*
X139525000Y-69275000I0J100000D01*
G01*
X139525000Y-68000000D01*
G75*
G02*
X139625000Y-67900000I100000J0D01*
G01*
X139825000Y-67900000D01*
G75*
G02*
X139925000Y-68000000I0J-100000D01*
G01*
X139925000Y-69275000D01*
G75*
G02*
X139825000Y-69375000I-100000J0D01*
G01*
G37*
G36*
G01*
X140475000Y-69375000D02*
X140275000Y-69375000D01*
G75*
G02*
X140175000Y-69275000I0J100000D01*
G01*
X140175000Y-68000000D01*
G75*
G02*
X140275000Y-67900000I100000J0D01*
G01*
X140475000Y-67900000D01*
G75*
G02*
X140575000Y-68000000I0J-100000D01*
G01*
X140575000Y-69275000D01*
G75*
G02*
X140475000Y-69375000I-100000J0D01*
G01*
G37*
G36*
G01*
X141125000Y-69375000D02*
X140925000Y-69375000D01*
G75*
G02*
X140825000Y-69275000I0J100000D01*
G01*
X140825000Y-68000000D01*
G75*
G02*
X140925000Y-67900000I100000J0D01*
G01*
X141125000Y-67900000D01*
G75*
G02*
X141225000Y-68000000I0J-100000D01*
G01*
X141225000Y-69275000D01*
G75*
G02*
X141125000Y-69375000I-100000J0D01*
G01*
G37*
G36*
G01*
X141775000Y-69375000D02*
X141575000Y-69375000D01*
G75*
G02*
X141475000Y-69275000I0J100000D01*
G01*
X141475000Y-68000000D01*
G75*
G02*
X141575000Y-67900000I100000J0D01*
G01*
X141775000Y-67900000D01*
G75*
G02*
X141875000Y-68000000I0J-100000D01*
G01*
X141875000Y-69275000D01*
G75*
G02*
X141775000Y-69375000I-100000J0D01*
G01*
G37*
G36*
G01*
X142425000Y-69375000D02*
X142225000Y-69375000D01*
G75*
G02*
X142125000Y-69275000I0J100000D01*
G01*
X142125000Y-68000000D01*
G75*
G02*
X142225000Y-67900000I100000J0D01*
G01*
X142425000Y-67900000D01*
G75*
G02*
X142525000Y-68000000I0J-100000D01*
G01*
X142525000Y-69275000D01*
G75*
G02*
X142425000Y-69375000I-100000J0D01*
G01*
G37*
G36*
G01*
X143075000Y-69375000D02*
X142875000Y-69375000D01*
G75*
G02*
X142775000Y-69275000I0J100000D01*
G01*
X142775000Y-68000000D01*
G75*
G02*
X142875000Y-67900000I100000J0D01*
G01*
X143075000Y-67900000D01*
G75*
G02*
X143175000Y-68000000I0J-100000D01*
G01*
X143175000Y-69275000D01*
G75*
G02*
X143075000Y-69375000I-100000J0D01*
G01*
G37*
G36*
G01*
X143725000Y-69375000D02*
X143525000Y-69375000D01*
G75*
G02*
X143425000Y-69275000I0J100000D01*
G01*
X143425000Y-68000000D01*
G75*
G02*
X143525000Y-67900000I100000J0D01*
G01*
X143725000Y-67900000D01*
G75*
G02*
X143825000Y-68000000I0J-100000D01*
G01*
X143825000Y-69275000D01*
G75*
G02*
X143725000Y-69375000I-100000J0D01*
G01*
G37*
G36*
G01*
X144375000Y-69375000D02*
X144175000Y-69375000D01*
G75*
G02*
X144075000Y-69275000I0J100000D01*
G01*
X144075000Y-68000000D01*
G75*
G02*
X144175000Y-67900000I100000J0D01*
G01*
X144375000Y-67900000D01*
G75*
G02*
X144475000Y-68000000I0J-100000D01*
G01*
X144475000Y-69275000D01*
G75*
G02*
X144375000Y-69375000I-100000J0D01*
G01*
G37*
G36*
G01*
X145025000Y-69375000D02*
X144825000Y-69375000D01*
G75*
G02*
X144725000Y-69275000I0J100000D01*
G01*
X144725000Y-68000000D01*
G75*
G02*
X144825000Y-67900000I100000J0D01*
G01*
X145025000Y-67900000D01*
G75*
G02*
X145125000Y-68000000I0J-100000D01*
G01*
X145125000Y-69275000D01*
G75*
G02*
X145025000Y-69375000I-100000J0D01*
G01*
G37*
G36*
G01*
X145675000Y-69375000D02*
X145475000Y-69375000D01*
G75*
G02*
X145375000Y-69275000I0J100000D01*
G01*
X145375000Y-68000000D01*
G75*
G02*
X145475000Y-67900000I100000J0D01*
G01*
X145675000Y-67900000D01*
G75*
G02*
X145775000Y-68000000I0J-100000D01*
G01*
X145775000Y-69275000D01*
G75*
G02*
X145675000Y-69375000I-100000J0D01*
G01*
G37*
G36*
G01*
X146325000Y-69375000D02*
X146125000Y-69375000D01*
G75*
G02*
X146025000Y-69275000I0J100000D01*
G01*
X146025000Y-68000000D01*
G75*
G02*
X146125000Y-67900000I100000J0D01*
G01*
X146325000Y-67900000D01*
G75*
G02*
X146425000Y-68000000I0J-100000D01*
G01*
X146425000Y-69275000D01*
G75*
G02*
X146325000Y-69375000I-100000J0D01*
G01*
G37*
G36*
G01*
X146325000Y-75100000D02*
X146125000Y-75100000D01*
G75*
G02*
X146025000Y-75000000I0J100000D01*
G01*
X146025000Y-73725000D01*
G75*
G02*
X146125000Y-73625000I100000J0D01*
G01*
X146325000Y-73625000D01*
G75*
G02*
X146425000Y-73725000I0J-100000D01*
G01*
X146425000Y-75000000D01*
G75*
G02*
X146325000Y-75100000I-100000J0D01*
G01*
G37*
G36*
G01*
X145675000Y-75100000D02*
X145475000Y-75100000D01*
G75*
G02*
X145375000Y-75000000I0J100000D01*
G01*
X145375000Y-73725000D01*
G75*
G02*
X145475000Y-73625000I100000J0D01*
G01*
X145675000Y-73625000D01*
G75*
G02*
X145775000Y-73725000I0J-100000D01*
G01*
X145775000Y-75000000D01*
G75*
G02*
X145675000Y-75100000I-100000J0D01*
G01*
G37*
G36*
G01*
X145025000Y-75100000D02*
X144825000Y-75100000D01*
G75*
G02*
X144725000Y-75000000I0J100000D01*
G01*
X144725000Y-73725000D01*
G75*
G02*
X144825000Y-73625000I100000J0D01*
G01*
X145025000Y-73625000D01*
G75*
G02*
X145125000Y-73725000I0J-100000D01*
G01*
X145125000Y-75000000D01*
G75*
G02*
X145025000Y-75100000I-100000J0D01*
G01*
G37*
G36*
G01*
X144375000Y-75100000D02*
X144175000Y-75100000D01*
G75*
G02*
X144075000Y-75000000I0J100000D01*
G01*
X144075000Y-73725000D01*
G75*
G02*
X144175000Y-73625000I100000J0D01*
G01*
X144375000Y-73625000D01*
G75*
G02*
X144475000Y-73725000I0J-100000D01*
G01*
X144475000Y-75000000D01*
G75*
G02*
X144375000Y-75100000I-100000J0D01*
G01*
G37*
G36*
G01*
X143725000Y-75100000D02*
X143525000Y-75100000D01*
G75*
G02*
X143425000Y-75000000I0J100000D01*
G01*
X143425000Y-73725000D01*
G75*
G02*
X143525000Y-73625000I100000J0D01*
G01*
X143725000Y-73625000D01*
G75*
G02*
X143825000Y-73725000I0J-100000D01*
G01*
X143825000Y-75000000D01*
G75*
G02*
X143725000Y-75100000I-100000J0D01*
G01*
G37*
G36*
G01*
X143075000Y-75100000D02*
X142875000Y-75100000D01*
G75*
G02*
X142775000Y-75000000I0J100000D01*
G01*
X142775000Y-73725000D01*
G75*
G02*
X142875000Y-73625000I100000J0D01*
G01*
X143075000Y-73625000D01*
G75*
G02*
X143175000Y-73725000I0J-100000D01*
G01*
X143175000Y-75000000D01*
G75*
G02*
X143075000Y-75100000I-100000J0D01*
G01*
G37*
G36*
G01*
X142425000Y-75100000D02*
X142225000Y-75100000D01*
G75*
G02*
X142125000Y-75000000I0J100000D01*
G01*
X142125000Y-73725000D01*
G75*
G02*
X142225000Y-73625000I100000J0D01*
G01*
X142425000Y-73625000D01*
G75*
G02*
X142525000Y-73725000I0J-100000D01*
G01*
X142525000Y-75000000D01*
G75*
G02*
X142425000Y-75100000I-100000J0D01*
G01*
G37*
G36*
G01*
X141775000Y-75100000D02*
X141575000Y-75100000D01*
G75*
G02*
X141475000Y-75000000I0J100000D01*
G01*
X141475000Y-73725000D01*
G75*
G02*
X141575000Y-73625000I100000J0D01*
G01*
X141775000Y-73625000D01*
G75*
G02*
X141875000Y-73725000I0J-100000D01*
G01*
X141875000Y-75000000D01*
G75*
G02*
X141775000Y-75100000I-100000J0D01*
G01*
G37*
G36*
G01*
X141125000Y-75100000D02*
X140925000Y-75100000D01*
G75*
G02*
X140825000Y-75000000I0J100000D01*
G01*
X140825000Y-73725000D01*
G75*
G02*
X140925000Y-73625000I100000J0D01*
G01*
X141125000Y-73625000D01*
G75*
G02*
X141225000Y-73725000I0J-100000D01*
G01*
X141225000Y-75000000D01*
G75*
G02*
X141125000Y-75100000I-100000J0D01*
G01*
G37*
G36*
G01*
X140475000Y-75100000D02*
X140275000Y-75100000D01*
G75*
G02*
X140175000Y-75000000I0J100000D01*
G01*
X140175000Y-73725000D01*
G75*
G02*
X140275000Y-73625000I100000J0D01*
G01*
X140475000Y-73625000D01*
G75*
G02*
X140575000Y-73725000I0J-100000D01*
G01*
X140575000Y-75000000D01*
G75*
G02*
X140475000Y-75100000I-100000J0D01*
G01*
G37*
G36*
G01*
X139825000Y-75100000D02*
X139625000Y-75100000D01*
G75*
G02*
X139525000Y-75000000I0J100000D01*
G01*
X139525000Y-73725000D01*
G75*
G02*
X139625000Y-73625000I100000J0D01*
G01*
X139825000Y-73625000D01*
G75*
G02*
X139925000Y-73725000I0J-100000D01*
G01*
X139925000Y-75000000D01*
G75*
G02*
X139825000Y-75100000I-100000J0D01*
G01*
G37*
G36*
G01*
X139175000Y-75100000D02*
X138975000Y-75100000D01*
G75*
G02*
X138875000Y-75000000I0J100000D01*
G01*
X138875000Y-73725000D01*
G75*
G02*
X138975000Y-73625000I100000J0D01*
G01*
X139175000Y-73625000D01*
G75*
G02*
X139275000Y-73725000I0J-100000D01*
G01*
X139275000Y-75000000D01*
G75*
G02*
X139175000Y-75100000I-100000J0D01*
G01*
G37*
G36*
G01*
X138525000Y-75100000D02*
X138325000Y-75100000D01*
G75*
G02*
X138225000Y-75000000I0J100000D01*
G01*
X138225000Y-73725000D01*
G75*
G02*
X138325000Y-73625000I100000J0D01*
G01*
X138525000Y-73625000D01*
G75*
G02*
X138625000Y-73725000I0J-100000D01*
G01*
X138625000Y-75000000D01*
G75*
G02*
X138525000Y-75100000I-100000J0D01*
G01*
G37*
G36*
G01*
X137875000Y-75100000D02*
X137675000Y-75100000D01*
G75*
G02*
X137575000Y-75000000I0J100000D01*
G01*
X137575000Y-73725000D01*
G75*
G02*
X137675000Y-73625000I100000J0D01*
G01*
X137875000Y-73625000D01*
G75*
G02*
X137975000Y-73725000I0J-100000D01*
G01*
X137975000Y-75000000D01*
G75*
G02*
X137875000Y-75100000I-100000J0D01*
G01*
G37*
%TD*%
%TO.C,U2*%
G36*
G01*
X97875000Y-69375000D02*
X97675000Y-69375000D01*
G75*
G02*
X97575000Y-69275000I0J100000D01*
G01*
X97575000Y-68000000D01*
G75*
G02*
X97675000Y-67900000I100000J0D01*
G01*
X97875000Y-67900000D01*
G75*
G02*
X97975000Y-68000000I0J-100000D01*
G01*
X97975000Y-69275000D01*
G75*
G02*
X97875000Y-69375000I-100000J0D01*
G01*
G37*
G36*
G01*
X98525000Y-69375000D02*
X98325000Y-69375000D01*
G75*
G02*
X98225000Y-69275000I0J100000D01*
G01*
X98225000Y-68000000D01*
G75*
G02*
X98325000Y-67900000I100000J0D01*
G01*
X98525000Y-67900000D01*
G75*
G02*
X98625000Y-68000000I0J-100000D01*
G01*
X98625000Y-69275000D01*
G75*
G02*
X98525000Y-69375000I-100000J0D01*
G01*
G37*
G36*
G01*
X99175000Y-69375000D02*
X98975000Y-69375000D01*
G75*
G02*
X98875000Y-69275000I0J100000D01*
G01*
X98875000Y-68000000D01*
G75*
G02*
X98975000Y-67900000I100000J0D01*
G01*
X99175000Y-67900000D01*
G75*
G02*
X99275000Y-68000000I0J-100000D01*
G01*
X99275000Y-69275000D01*
G75*
G02*
X99175000Y-69375000I-100000J0D01*
G01*
G37*
G36*
G01*
X99825000Y-69375000D02*
X99625000Y-69375000D01*
G75*
G02*
X99525000Y-69275000I0J100000D01*
G01*
X99525000Y-68000000D01*
G75*
G02*
X99625000Y-67900000I100000J0D01*
G01*
X99825000Y-67900000D01*
G75*
G02*
X99925000Y-68000000I0J-100000D01*
G01*
X99925000Y-69275000D01*
G75*
G02*
X99825000Y-69375000I-100000J0D01*
G01*
G37*
G36*
G01*
X100475000Y-69375000D02*
X100275000Y-69375000D01*
G75*
G02*
X100175000Y-69275000I0J100000D01*
G01*
X100175000Y-68000000D01*
G75*
G02*
X100275000Y-67900000I100000J0D01*
G01*
X100475000Y-67900000D01*
G75*
G02*
X100575000Y-68000000I0J-100000D01*
G01*
X100575000Y-69275000D01*
G75*
G02*
X100475000Y-69375000I-100000J0D01*
G01*
G37*
G36*
G01*
X101125000Y-69375000D02*
X100925000Y-69375000D01*
G75*
G02*
X100825000Y-69275000I0J100000D01*
G01*
X100825000Y-68000000D01*
G75*
G02*
X100925000Y-67900000I100000J0D01*
G01*
X101125000Y-67900000D01*
G75*
G02*
X101225000Y-68000000I0J-100000D01*
G01*
X101225000Y-69275000D01*
G75*
G02*
X101125000Y-69375000I-100000J0D01*
G01*
G37*
G36*
G01*
X101775000Y-69375000D02*
X101575000Y-69375000D01*
G75*
G02*
X101475000Y-69275000I0J100000D01*
G01*
X101475000Y-68000000D01*
G75*
G02*
X101575000Y-67900000I100000J0D01*
G01*
X101775000Y-67900000D01*
G75*
G02*
X101875000Y-68000000I0J-100000D01*
G01*
X101875000Y-69275000D01*
G75*
G02*
X101775000Y-69375000I-100000J0D01*
G01*
G37*
G36*
G01*
X102425000Y-69375000D02*
X102225000Y-69375000D01*
G75*
G02*
X102125000Y-69275000I0J100000D01*
G01*
X102125000Y-68000000D01*
G75*
G02*
X102225000Y-67900000I100000J0D01*
G01*
X102425000Y-67900000D01*
G75*
G02*
X102525000Y-68000000I0J-100000D01*
G01*
X102525000Y-69275000D01*
G75*
G02*
X102425000Y-69375000I-100000J0D01*
G01*
G37*
G36*
G01*
X103075000Y-69375000D02*
X102875000Y-69375000D01*
G75*
G02*
X102775000Y-69275000I0J100000D01*
G01*
X102775000Y-68000000D01*
G75*
G02*
X102875000Y-67900000I100000J0D01*
G01*
X103075000Y-67900000D01*
G75*
G02*
X103175000Y-68000000I0J-100000D01*
G01*
X103175000Y-69275000D01*
G75*
G02*
X103075000Y-69375000I-100000J0D01*
G01*
G37*
G36*
G01*
X103725000Y-69375000D02*
X103525000Y-69375000D01*
G75*
G02*
X103425000Y-69275000I0J100000D01*
G01*
X103425000Y-68000000D01*
G75*
G02*
X103525000Y-67900000I100000J0D01*
G01*
X103725000Y-67900000D01*
G75*
G02*
X103825000Y-68000000I0J-100000D01*
G01*
X103825000Y-69275000D01*
G75*
G02*
X103725000Y-69375000I-100000J0D01*
G01*
G37*
G36*
G01*
X104375000Y-69375000D02*
X104175000Y-69375000D01*
G75*
G02*
X104075000Y-69275000I0J100000D01*
G01*
X104075000Y-68000000D01*
G75*
G02*
X104175000Y-67900000I100000J0D01*
G01*
X104375000Y-67900000D01*
G75*
G02*
X104475000Y-68000000I0J-100000D01*
G01*
X104475000Y-69275000D01*
G75*
G02*
X104375000Y-69375000I-100000J0D01*
G01*
G37*
G36*
G01*
X105025000Y-69375000D02*
X104825000Y-69375000D01*
G75*
G02*
X104725000Y-69275000I0J100000D01*
G01*
X104725000Y-68000000D01*
G75*
G02*
X104825000Y-67900000I100000J0D01*
G01*
X105025000Y-67900000D01*
G75*
G02*
X105125000Y-68000000I0J-100000D01*
G01*
X105125000Y-69275000D01*
G75*
G02*
X105025000Y-69375000I-100000J0D01*
G01*
G37*
G36*
G01*
X105675000Y-69375000D02*
X105475000Y-69375000D01*
G75*
G02*
X105375000Y-69275000I0J100000D01*
G01*
X105375000Y-68000000D01*
G75*
G02*
X105475000Y-67900000I100000J0D01*
G01*
X105675000Y-67900000D01*
G75*
G02*
X105775000Y-68000000I0J-100000D01*
G01*
X105775000Y-69275000D01*
G75*
G02*
X105675000Y-69375000I-100000J0D01*
G01*
G37*
G36*
G01*
X106325000Y-69375000D02*
X106125000Y-69375000D01*
G75*
G02*
X106025000Y-69275000I0J100000D01*
G01*
X106025000Y-68000000D01*
G75*
G02*
X106125000Y-67900000I100000J0D01*
G01*
X106325000Y-67900000D01*
G75*
G02*
X106425000Y-68000000I0J-100000D01*
G01*
X106425000Y-69275000D01*
G75*
G02*
X106325000Y-69375000I-100000J0D01*
G01*
G37*
G36*
G01*
X106325000Y-75100000D02*
X106125000Y-75100000D01*
G75*
G02*
X106025000Y-75000000I0J100000D01*
G01*
X106025000Y-73725000D01*
G75*
G02*
X106125000Y-73625000I100000J0D01*
G01*
X106325000Y-73625000D01*
G75*
G02*
X106425000Y-73725000I0J-100000D01*
G01*
X106425000Y-75000000D01*
G75*
G02*
X106325000Y-75100000I-100000J0D01*
G01*
G37*
G36*
G01*
X105675000Y-75100000D02*
X105475000Y-75100000D01*
G75*
G02*
X105375000Y-75000000I0J100000D01*
G01*
X105375000Y-73725000D01*
G75*
G02*
X105475000Y-73625000I100000J0D01*
G01*
X105675000Y-73625000D01*
G75*
G02*
X105775000Y-73725000I0J-100000D01*
G01*
X105775000Y-75000000D01*
G75*
G02*
X105675000Y-75100000I-100000J0D01*
G01*
G37*
G36*
G01*
X105025000Y-75100000D02*
X104825000Y-75100000D01*
G75*
G02*
X104725000Y-75000000I0J100000D01*
G01*
X104725000Y-73725000D01*
G75*
G02*
X104825000Y-73625000I100000J0D01*
G01*
X105025000Y-73625000D01*
G75*
G02*
X105125000Y-73725000I0J-100000D01*
G01*
X105125000Y-75000000D01*
G75*
G02*
X105025000Y-75100000I-100000J0D01*
G01*
G37*
G36*
G01*
X104375000Y-75100000D02*
X104175000Y-75100000D01*
G75*
G02*
X104075000Y-75000000I0J100000D01*
G01*
X104075000Y-73725000D01*
G75*
G02*
X104175000Y-73625000I100000J0D01*
G01*
X104375000Y-73625000D01*
G75*
G02*
X104475000Y-73725000I0J-100000D01*
G01*
X104475000Y-75000000D01*
G75*
G02*
X104375000Y-75100000I-100000J0D01*
G01*
G37*
G36*
G01*
X103725000Y-75100000D02*
X103525000Y-75100000D01*
G75*
G02*
X103425000Y-75000000I0J100000D01*
G01*
X103425000Y-73725000D01*
G75*
G02*
X103525000Y-73625000I100000J0D01*
G01*
X103725000Y-73625000D01*
G75*
G02*
X103825000Y-73725000I0J-100000D01*
G01*
X103825000Y-75000000D01*
G75*
G02*
X103725000Y-75100000I-100000J0D01*
G01*
G37*
G36*
G01*
X103075000Y-75100000D02*
X102875000Y-75100000D01*
G75*
G02*
X102775000Y-75000000I0J100000D01*
G01*
X102775000Y-73725000D01*
G75*
G02*
X102875000Y-73625000I100000J0D01*
G01*
X103075000Y-73625000D01*
G75*
G02*
X103175000Y-73725000I0J-100000D01*
G01*
X103175000Y-75000000D01*
G75*
G02*
X103075000Y-75100000I-100000J0D01*
G01*
G37*
G36*
G01*
X102425000Y-75100000D02*
X102225000Y-75100000D01*
G75*
G02*
X102125000Y-75000000I0J100000D01*
G01*
X102125000Y-73725000D01*
G75*
G02*
X102225000Y-73625000I100000J0D01*
G01*
X102425000Y-73625000D01*
G75*
G02*
X102525000Y-73725000I0J-100000D01*
G01*
X102525000Y-75000000D01*
G75*
G02*
X102425000Y-75100000I-100000J0D01*
G01*
G37*
G36*
G01*
X101775000Y-75100000D02*
X101575000Y-75100000D01*
G75*
G02*
X101475000Y-75000000I0J100000D01*
G01*
X101475000Y-73725000D01*
G75*
G02*
X101575000Y-73625000I100000J0D01*
G01*
X101775000Y-73625000D01*
G75*
G02*
X101875000Y-73725000I0J-100000D01*
G01*
X101875000Y-75000000D01*
G75*
G02*
X101775000Y-75100000I-100000J0D01*
G01*
G37*
G36*
G01*
X101125000Y-75100000D02*
X100925000Y-75100000D01*
G75*
G02*
X100825000Y-75000000I0J100000D01*
G01*
X100825000Y-73725000D01*
G75*
G02*
X100925000Y-73625000I100000J0D01*
G01*
X101125000Y-73625000D01*
G75*
G02*
X101225000Y-73725000I0J-100000D01*
G01*
X101225000Y-75000000D01*
G75*
G02*
X101125000Y-75100000I-100000J0D01*
G01*
G37*
G36*
G01*
X100475000Y-75100000D02*
X100275000Y-75100000D01*
G75*
G02*
X100175000Y-75000000I0J100000D01*
G01*
X100175000Y-73725000D01*
G75*
G02*
X100275000Y-73625000I100000J0D01*
G01*
X100475000Y-73625000D01*
G75*
G02*
X100575000Y-73725000I0J-100000D01*
G01*
X100575000Y-75000000D01*
G75*
G02*
X100475000Y-75100000I-100000J0D01*
G01*
G37*
G36*
G01*
X99825000Y-75100000D02*
X99625000Y-75100000D01*
G75*
G02*
X99525000Y-75000000I0J100000D01*
G01*
X99525000Y-73725000D01*
G75*
G02*
X99625000Y-73625000I100000J0D01*
G01*
X99825000Y-73625000D01*
G75*
G02*
X99925000Y-73725000I0J-100000D01*
G01*
X99925000Y-75000000D01*
G75*
G02*
X99825000Y-75100000I-100000J0D01*
G01*
G37*
G36*
G01*
X99175000Y-75100000D02*
X98975000Y-75100000D01*
G75*
G02*
X98875000Y-75000000I0J100000D01*
G01*
X98875000Y-73725000D01*
G75*
G02*
X98975000Y-73625000I100000J0D01*
G01*
X99175000Y-73625000D01*
G75*
G02*
X99275000Y-73725000I0J-100000D01*
G01*
X99275000Y-75000000D01*
G75*
G02*
X99175000Y-75100000I-100000J0D01*
G01*
G37*
G36*
G01*
X98525000Y-75100000D02*
X98325000Y-75100000D01*
G75*
G02*
X98225000Y-75000000I0J100000D01*
G01*
X98225000Y-73725000D01*
G75*
G02*
X98325000Y-73625000I100000J0D01*
G01*
X98525000Y-73625000D01*
G75*
G02*
X98625000Y-73725000I0J-100000D01*
G01*
X98625000Y-75000000D01*
G75*
G02*
X98525000Y-75100000I-100000J0D01*
G01*
G37*
G36*
G01*
X97875000Y-75100000D02*
X97675000Y-75100000D01*
G75*
G02*
X97575000Y-75000000I0J100000D01*
G01*
X97575000Y-73725000D01*
G75*
G02*
X97675000Y-73625000I100000J0D01*
G01*
X97875000Y-73625000D01*
G75*
G02*
X97975000Y-73725000I0J-100000D01*
G01*
X97975000Y-75000000D01*
G75*
G02*
X97875000Y-75100000I-100000J0D01*
G01*
G37*
%TD*%
%TO.C,R20*%
G36*
G01*
X54850000Y-33256250D02*
X54850000Y-32743750D01*
G75*
G02*
X55068750Y-32525000I218750J0D01*
G01*
X55506250Y-32525000D01*
G75*
G02*
X55725000Y-32743750I0J-218750D01*
G01*
X55725000Y-33256250D01*
G75*
G02*
X55506250Y-33475000I-218750J0D01*
G01*
X55068750Y-33475000D01*
G75*
G02*
X54850000Y-33256250I0J218750D01*
G01*
G37*
G36*
G01*
X53275000Y-33256250D02*
X53275000Y-32743750D01*
G75*
G02*
X53493750Y-32525000I218750J0D01*
G01*
X53931250Y-32525000D01*
G75*
G02*
X54150000Y-32743750I0J-218750D01*
G01*
X54150000Y-33256250D01*
G75*
G02*
X53931250Y-33475000I-218750J0D01*
G01*
X53493750Y-33475000D01*
G75*
G02*
X53275000Y-33256250I0J218750D01*
G01*
G37*
%TD*%
%TO.C,R19*%
G36*
G01*
X54850000Y-35256250D02*
X54850000Y-34743750D01*
G75*
G02*
X55068750Y-34525000I218750J0D01*
G01*
X55506250Y-34525000D01*
G75*
G02*
X55725000Y-34743750I0J-218750D01*
G01*
X55725000Y-35256250D01*
G75*
G02*
X55506250Y-35475000I-218750J0D01*
G01*
X55068750Y-35475000D01*
G75*
G02*
X54850000Y-35256250I0J218750D01*
G01*
G37*
G36*
G01*
X53275000Y-35256250D02*
X53275000Y-34743750D01*
G75*
G02*
X53493750Y-34525000I218750J0D01*
G01*
X53931250Y-34525000D01*
G75*
G02*
X54150000Y-34743750I0J-218750D01*
G01*
X54150000Y-35256250D01*
G75*
G02*
X53931250Y-35475000I-218750J0D01*
G01*
X53493750Y-35475000D01*
G75*
G02*
X53275000Y-35256250I0J218750D01*
G01*
G37*
%TD*%
%TO.C,R18*%
G36*
G01*
X141750000Y-85056250D02*
X141750000Y-84543750D01*
G75*
G02*
X141968750Y-84325000I218750J0D01*
G01*
X142406250Y-84325000D01*
G75*
G02*
X142625000Y-84543750I0J-218750D01*
G01*
X142625000Y-85056250D01*
G75*
G02*
X142406250Y-85275000I-218750J0D01*
G01*
X141968750Y-85275000D01*
G75*
G02*
X141750000Y-85056250I0J218750D01*
G01*
G37*
G36*
G01*
X140175000Y-85056250D02*
X140175000Y-84543750D01*
G75*
G02*
X140393750Y-84325000I218750J0D01*
G01*
X140831250Y-84325000D01*
G75*
G02*
X141050000Y-84543750I0J-218750D01*
G01*
X141050000Y-85056250D01*
G75*
G02*
X140831250Y-85275000I-218750J0D01*
G01*
X140393750Y-85275000D01*
G75*
G02*
X140175000Y-85056250I0J218750D01*
G01*
G37*
%TD*%
%TO.C,R17*%
G36*
G01*
X141750000Y-87556250D02*
X141750000Y-87043750D01*
G75*
G02*
X141968750Y-86825000I218750J0D01*
G01*
X142406250Y-86825000D01*
G75*
G02*
X142625000Y-87043750I0J-218750D01*
G01*
X142625000Y-87556250D01*
G75*
G02*
X142406250Y-87775000I-218750J0D01*
G01*
X141968750Y-87775000D01*
G75*
G02*
X141750000Y-87556250I0J218750D01*
G01*
G37*
G36*
G01*
X140175000Y-87556250D02*
X140175000Y-87043750D01*
G75*
G02*
X140393750Y-86825000I218750J0D01*
G01*
X140831250Y-86825000D01*
G75*
G02*
X141050000Y-87043750I0J-218750D01*
G01*
X141050000Y-87556250D01*
G75*
G02*
X140831250Y-87775000I-218750J0D01*
G01*
X140393750Y-87775000D01*
G75*
G02*
X140175000Y-87556250I0J218750D01*
G01*
G37*
%TD*%
%TO.C,R16*%
G36*
G01*
X141750000Y-90056250D02*
X141750000Y-89543750D01*
G75*
G02*
X141968750Y-89325000I218750J0D01*
G01*
X142406250Y-89325000D01*
G75*
G02*
X142625000Y-89543750I0J-218750D01*
G01*
X142625000Y-90056250D01*
G75*
G02*
X142406250Y-90275000I-218750J0D01*
G01*
X141968750Y-90275000D01*
G75*
G02*
X141750000Y-90056250I0J218750D01*
G01*
G37*
G36*
G01*
X140175000Y-90056250D02*
X140175000Y-89543750D01*
G75*
G02*
X140393750Y-89325000I218750J0D01*
G01*
X140831250Y-89325000D01*
G75*
G02*
X141050000Y-89543750I0J-218750D01*
G01*
X141050000Y-90056250D01*
G75*
G02*
X140831250Y-90275000I-218750J0D01*
G01*
X140393750Y-90275000D01*
G75*
G02*
X140175000Y-90056250I0J218750D01*
G01*
G37*
%TD*%
%TO.C,R15*%
G36*
G01*
X141750000Y-92556250D02*
X141750000Y-92043750D01*
G75*
G02*
X141968750Y-91825000I218750J0D01*
G01*
X142406250Y-91825000D01*
G75*
G02*
X142625000Y-92043750I0J-218750D01*
G01*
X142625000Y-92556250D01*
G75*
G02*
X142406250Y-92775000I-218750J0D01*
G01*
X141968750Y-92775000D01*
G75*
G02*
X141750000Y-92556250I0J218750D01*
G01*
G37*
G36*
G01*
X140175000Y-92556250D02*
X140175000Y-92043750D01*
G75*
G02*
X140393750Y-91825000I218750J0D01*
G01*
X140831250Y-91825000D01*
G75*
G02*
X141050000Y-92043750I0J-218750D01*
G01*
X141050000Y-92556250D01*
G75*
G02*
X140831250Y-92775000I-218750J0D01*
G01*
X140393750Y-92775000D01*
G75*
G02*
X140175000Y-92556250I0J218750D01*
G01*
G37*
%TD*%
%TO.C,R14*%
G36*
G01*
X141750000Y-95056250D02*
X141750000Y-94543750D01*
G75*
G02*
X141968750Y-94325000I218750J0D01*
G01*
X142406250Y-94325000D01*
G75*
G02*
X142625000Y-94543750I0J-218750D01*
G01*
X142625000Y-95056250D01*
G75*
G02*
X142406250Y-95275000I-218750J0D01*
G01*
X141968750Y-95275000D01*
G75*
G02*
X141750000Y-95056250I0J218750D01*
G01*
G37*
G36*
G01*
X140175000Y-95056250D02*
X140175000Y-94543750D01*
G75*
G02*
X140393750Y-94325000I218750J0D01*
G01*
X140831250Y-94325000D01*
G75*
G02*
X141050000Y-94543750I0J-218750D01*
G01*
X141050000Y-95056250D01*
G75*
G02*
X140831250Y-95275000I-218750J0D01*
G01*
X140393750Y-95275000D01*
G75*
G02*
X140175000Y-95056250I0J218750D01*
G01*
G37*
%TD*%
%TO.C,R13*%
G36*
G01*
X141750000Y-97556250D02*
X141750000Y-97043750D01*
G75*
G02*
X141968750Y-96825000I218750J0D01*
G01*
X142406250Y-96825000D01*
G75*
G02*
X142625000Y-97043750I0J-218750D01*
G01*
X142625000Y-97556250D01*
G75*
G02*
X142406250Y-97775000I-218750J0D01*
G01*
X141968750Y-97775000D01*
G75*
G02*
X141750000Y-97556250I0J218750D01*
G01*
G37*
G36*
G01*
X140175000Y-97556250D02*
X140175000Y-97043750D01*
G75*
G02*
X140393750Y-96825000I218750J0D01*
G01*
X140831250Y-96825000D01*
G75*
G02*
X141050000Y-97043750I0J-218750D01*
G01*
X141050000Y-97556250D01*
G75*
G02*
X140831250Y-97775000I-218750J0D01*
G01*
X140393750Y-97775000D01*
G75*
G02*
X140175000Y-97556250I0J218750D01*
G01*
G37*
%TD*%
%TO.C,R12*%
G36*
G01*
X101750000Y-85056250D02*
X101750000Y-84543750D01*
G75*
G02*
X101968750Y-84325000I218750J0D01*
G01*
X102406250Y-84325000D01*
G75*
G02*
X102625000Y-84543750I0J-218750D01*
G01*
X102625000Y-85056250D01*
G75*
G02*
X102406250Y-85275000I-218750J0D01*
G01*
X101968750Y-85275000D01*
G75*
G02*
X101750000Y-85056250I0J218750D01*
G01*
G37*
G36*
G01*
X100175000Y-85056250D02*
X100175000Y-84543750D01*
G75*
G02*
X100393750Y-84325000I218750J0D01*
G01*
X100831250Y-84325000D01*
G75*
G02*
X101050000Y-84543750I0J-218750D01*
G01*
X101050000Y-85056250D01*
G75*
G02*
X100831250Y-85275000I-218750J0D01*
G01*
X100393750Y-85275000D01*
G75*
G02*
X100175000Y-85056250I0J218750D01*
G01*
G37*
%TD*%
%TO.C,R11*%
G36*
G01*
X101750000Y-87556250D02*
X101750000Y-87043750D01*
G75*
G02*
X101968750Y-86825000I218750J0D01*
G01*
X102406250Y-86825000D01*
G75*
G02*
X102625000Y-87043750I0J-218750D01*
G01*
X102625000Y-87556250D01*
G75*
G02*
X102406250Y-87775000I-218750J0D01*
G01*
X101968750Y-87775000D01*
G75*
G02*
X101750000Y-87556250I0J218750D01*
G01*
G37*
G36*
G01*
X100175000Y-87556250D02*
X100175000Y-87043750D01*
G75*
G02*
X100393750Y-86825000I218750J0D01*
G01*
X100831250Y-86825000D01*
G75*
G02*
X101050000Y-87043750I0J-218750D01*
G01*
X101050000Y-87556250D01*
G75*
G02*
X100831250Y-87775000I-218750J0D01*
G01*
X100393750Y-87775000D01*
G75*
G02*
X100175000Y-87556250I0J218750D01*
G01*
G37*
%TD*%
%TO.C,R10*%
G36*
G01*
X101750000Y-90056250D02*
X101750000Y-89543750D01*
G75*
G02*
X101968750Y-89325000I218750J0D01*
G01*
X102406250Y-89325000D01*
G75*
G02*
X102625000Y-89543750I0J-218750D01*
G01*
X102625000Y-90056250D01*
G75*
G02*
X102406250Y-90275000I-218750J0D01*
G01*
X101968750Y-90275000D01*
G75*
G02*
X101750000Y-90056250I0J218750D01*
G01*
G37*
G36*
G01*
X100175000Y-90056250D02*
X100175000Y-89543750D01*
G75*
G02*
X100393750Y-89325000I218750J0D01*
G01*
X100831250Y-89325000D01*
G75*
G02*
X101050000Y-89543750I0J-218750D01*
G01*
X101050000Y-90056250D01*
G75*
G02*
X100831250Y-90275000I-218750J0D01*
G01*
X100393750Y-90275000D01*
G75*
G02*
X100175000Y-90056250I0J218750D01*
G01*
G37*
%TD*%
%TO.C,R9*%
G36*
G01*
X101750000Y-92556250D02*
X101750000Y-92043750D01*
G75*
G02*
X101968750Y-91825000I218750J0D01*
G01*
X102406250Y-91825000D01*
G75*
G02*
X102625000Y-92043750I0J-218750D01*
G01*
X102625000Y-92556250D01*
G75*
G02*
X102406250Y-92775000I-218750J0D01*
G01*
X101968750Y-92775000D01*
G75*
G02*
X101750000Y-92556250I0J218750D01*
G01*
G37*
G36*
G01*
X100175000Y-92556250D02*
X100175000Y-92043750D01*
G75*
G02*
X100393750Y-91825000I218750J0D01*
G01*
X100831250Y-91825000D01*
G75*
G02*
X101050000Y-92043750I0J-218750D01*
G01*
X101050000Y-92556250D01*
G75*
G02*
X100831250Y-92775000I-218750J0D01*
G01*
X100393750Y-92775000D01*
G75*
G02*
X100175000Y-92556250I0J218750D01*
G01*
G37*
%TD*%
%TO.C,R8*%
G36*
G01*
X101750000Y-95056250D02*
X101750000Y-94543750D01*
G75*
G02*
X101968750Y-94325000I218750J0D01*
G01*
X102406250Y-94325000D01*
G75*
G02*
X102625000Y-94543750I0J-218750D01*
G01*
X102625000Y-95056250D01*
G75*
G02*
X102406250Y-95275000I-218750J0D01*
G01*
X101968750Y-95275000D01*
G75*
G02*
X101750000Y-95056250I0J218750D01*
G01*
G37*
G36*
G01*
X100175000Y-95056250D02*
X100175000Y-94543750D01*
G75*
G02*
X100393750Y-94325000I218750J0D01*
G01*
X100831250Y-94325000D01*
G75*
G02*
X101050000Y-94543750I0J-218750D01*
G01*
X101050000Y-95056250D01*
G75*
G02*
X100831250Y-95275000I-218750J0D01*
G01*
X100393750Y-95275000D01*
G75*
G02*
X100175000Y-95056250I0J218750D01*
G01*
G37*
%TD*%
%TO.C,R7*%
G36*
G01*
X101750000Y-97556250D02*
X101750000Y-97043750D01*
G75*
G02*
X101968750Y-96825000I218750J0D01*
G01*
X102406250Y-96825000D01*
G75*
G02*
X102625000Y-97043750I0J-218750D01*
G01*
X102625000Y-97556250D01*
G75*
G02*
X102406250Y-97775000I-218750J0D01*
G01*
X101968750Y-97775000D01*
G75*
G02*
X101750000Y-97556250I0J218750D01*
G01*
G37*
G36*
G01*
X100175000Y-97556250D02*
X100175000Y-97043750D01*
G75*
G02*
X100393750Y-96825000I218750J0D01*
G01*
X100831250Y-96825000D01*
G75*
G02*
X101050000Y-97043750I0J-218750D01*
G01*
X101050000Y-97556250D01*
G75*
G02*
X100831250Y-97775000I-218750J0D01*
G01*
X100393750Y-97775000D01*
G75*
G02*
X100175000Y-97556250I0J218750D01*
G01*
G37*
%TD*%
%TO.C,R6*%
G36*
G01*
X61750000Y-85056250D02*
X61750000Y-84543750D01*
G75*
G02*
X61968750Y-84325000I218750J0D01*
G01*
X62406250Y-84325000D01*
G75*
G02*
X62625000Y-84543750I0J-218750D01*
G01*
X62625000Y-85056250D01*
G75*
G02*
X62406250Y-85275000I-218750J0D01*
G01*
X61968750Y-85275000D01*
G75*
G02*
X61750000Y-85056250I0J218750D01*
G01*
G37*
G36*
G01*
X60175000Y-85056250D02*
X60175000Y-84543750D01*
G75*
G02*
X60393750Y-84325000I218750J0D01*
G01*
X60831250Y-84325000D01*
G75*
G02*
X61050000Y-84543750I0J-218750D01*
G01*
X61050000Y-85056250D01*
G75*
G02*
X60831250Y-85275000I-218750J0D01*
G01*
X60393750Y-85275000D01*
G75*
G02*
X60175000Y-85056250I0J218750D01*
G01*
G37*
%TD*%
%TO.C,R5*%
G36*
G01*
X61750000Y-87556250D02*
X61750000Y-87043750D01*
G75*
G02*
X61968750Y-86825000I218750J0D01*
G01*
X62406250Y-86825000D01*
G75*
G02*
X62625000Y-87043750I0J-218750D01*
G01*
X62625000Y-87556250D01*
G75*
G02*
X62406250Y-87775000I-218750J0D01*
G01*
X61968750Y-87775000D01*
G75*
G02*
X61750000Y-87556250I0J218750D01*
G01*
G37*
G36*
G01*
X60175000Y-87556250D02*
X60175000Y-87043750D01*
G75*
G02*
X60393750Y-86825000I218750J0D01*
G01*
X60831250Y-86825000D01*
G75*
G02*
X61050000Y-87043750I0J-218750D01*
G01*
X61050000Y-87556250D01*
G75*
G02*
X60831250Y-87775000I-218750J0D01*
G01*
X60393750Y-87775000D01*
G75*
G02*
X60175000Y-87556250I0J218750D01*
G01*
G37*
%TD*%
%TO.C,R4*%
G36*
G01*
X61750000Y-90056250D02*
X61750000Y-89543750D01*
G75*
G02*
X61968750Y-89325000I218750J0D01*
G01*
X62406250Y-89325000D01*
G75*
G02*
X62625000Y-89543750I0J-218750D01*
G01*
X62625000Y-90056250D01*
G75*
G02*
X62406250Y-90275000I-218750J0D01*
G01*
X61968750Y-90275000D01*
G75*
G02*
X61750000Y-90056250I0J218750D01*
G01*
G37*
G36*
G01*
X60175000Y-90056250D02*
X60175000Y-89543750D01*
G75*
G02*
X60393750Y-89325000I218750J0D01*
G01*
X60831250Y-89325000D01*
G75*
G02*
X61050000Y-89543750I0J-218750D01*
G01*
X61050000Y-90056250D01*
G75*
G02*
X60831250Y-90275000I-218750J0D01*
G01*
X60393750Y-90275000D01*
G75*
G02*
X60175000Y-90056250I0J218750D01*
G01*
G37*
%TD*%
%TO.C,R3*%
G36*
G01*
X61750000Y-92556250D02*
X61750000Y-92043750D01*
G75*
G02*
X61968750Y-91825000I218750J0D01*
G01*
X62406250Y-91825000D01*
G75*
G02*
X62625000Y-92043750I0J-218750D01*
G01*
X62625000Y-92556250D01*
G75*
G02*
X62406250Y-92775000I-218750J0D01*
G01*
X61968750Y-92775000D01*
G75*
G02*
X61750000Y-92556250I0J218750D01*
G01*
G37*
G36*
G01*
X60175000Y-92556250D02*
X60175000Y-92043750D01*
G75*
G02*
X60393750Y-91825000I218750J0D01*
G01*
X60831250Y-91825000D01*
G75*
G02*
X61050000Y-92043750I0J-218750D01*
G01*
X61050000Y-92556250D01*
G75*
G02*
X60831250Y-92775000I-218750J0D01*
G01*
X60393750Y-92775000D01*
G75*
G02*
X60175000Y-92556250I0J218750D01*
G01*
G37*
%TD*%
%TO.C,R2*%
G36*
G01*
X61750000Y-95056250D02*
X61750000Y-94543750D01*
G75*
G02*
X61968750Y-94325000I218750J0D01*
G01*
X62406250Y-94325000D01*
G75*
G02*
X62625000Y-94543750I0J-218750D01*
G01*
X62625000Y-95056250D01*
G75*
G02*
X62406250Y-95275000I-218750J0D01*
G01*
X61968750Y-95275000D01*
G75*
G02*
X61750000Y-95056250I0J218750D01*
G01*
G37*
G36*
G01*
X60175000Y-95056250D02*
X60175000Y-94543750D01*
G75*
G02*
X60393750Y-94325000I218750J0D01*
G01*
X60831250Y-94325000D01*
G75*
G02*
X61050000Y-94543750I0J-218750D01*
G01*
X61050000Y-95056250D01*
G75*
G02*
X60831250Y-95275000I-218750J0D01*
G01*
X60393750Y-95275000D01*
G75*
G02*
X60175000Y-95056250I0J218750D01*
G01*
G37*
%TD*%
%TO.C,R1*%
G36*
G01*
X61795000Y-97556250D02*
X61795000Y-97043750D01*
G75*
G02*
X62013750Y-96825000I218750J0D01*
G01*
X62451250Y-96825000D01*
G75*
G02*
X62670000Y-97043750I0J-218750D01*
G01*
X62670000Y-97556250D01*
G75*
G02*
X62451250Y-97775000I-218750J0D01*
G01*
X62013750Y-97775000D01*
G75*
G02*
X61795000Y-97556250I0J218750D01*
G01*
G37*
G36*
G01*
X60175000Y-97556250D02*
X60175000Y-97043750D01*
G75*
G02*
X60393750Y-96825000I218750J0D01*
G01*
X60831250Y-96825000D01*
G75*
G02*
X61050000Y-97043750I0J-218750D01*
G01*
X61050000Y-97556250D01*
G75*
G02*
X60831250Y-97775000I-218750J0D01*
G01*
X60393750Y-97775000D01*
G75*
G02*
X60175000Y-97556250I0J218750D01*
G01*
G37*
%TD*%
D10*
%TO.C,Q24*%
X122185000Y-51505000D03*
X122185000Y-55935000D03*
D11*
X119209000Y-55935000D03*
X119209000Y-51505000D03*
D12*
X121000000Y-52605000D03*
X121000000Y-54835000D03*
D13*
X124795000Y-51815000D03*
X124795000Y-53085000D03*
X124795000Y-54355000D03*
X124795000Y-55625000D03*
%TD*%
D10*
%TO.C,Q23*%
X132050000Y-51505000D03*
X132050000Y-55935000D03*
D11*
X129074000Y-55935000D03*
X129074000Y-51505000D03*
D12*
X130865000Y-52605000D03*
X130865000Y-54835000D03*
D13*
X134660000Y-51815000D03*
X134660000Y-53085000D03*
X134660000Y-54355000D03*
X134660000Y-55625000D03*
%TD*%
D10*
%TO.C,Q22*%
X132050000Y-65465000D03*
X132050000Y-69895000D03*
D11*
X129074000Y-69895000D03*
X129074000Y-65465000D03*
D12*
X130865000Y-66565000D03*
X130865000Y-68795000D03*
D13*
X134660000Y-65775000D03*
X134660000Y-67045000D03*
X134660000Y-68315000D03*
X134660000Y-69585000D03*
%TD*%
D10*
%TO.C,Q21*%
X122185000Y-65465000D03*
X122185000Y-69895000D03*
D11*
X119209000Y-69895000D03*
X119209000Y-65465000D03*
D12*
X121000000Y-66565000D03*
X121000000Y-68795000D03*
D13*
X124795000Y-65775000D03*
X124795000Y-67045000D03*
X124795000Y-68315000D03*
X124795000Y-69585000D03*
%TD*%
D10*
%TO.C,Q20*%
X122185000Y-73105000D03*
X122185000Y-77535000D03*
D11*
X119209000Y-77535000D03*
X119209000Y-73105000D03*
D12*
X121000000Y-74205000D03*
X121000000Y-76435000D03*
D13*
X124795000Y-73415000D03*
X124795000Y-74685000D03*
X124795000Y-75955000D03*
X124795000Y-77225000D03*
%TD*%
D10*
%TO.C,Q19*%
X132050000Y-73105000D03*
X132050000Y-77535000D03*
D11*
X129074000Y-77535000D03*
X129074000Y-73105000D03*
D12*
X130865000Y-74205000D03*
X130865000Y-76435000D03*
D13*
X134660000Y-73415000D03*
X134660000Y-74685000D03*
X134660000Y-75955000D03*
X134660000Y-77225000D03*
%TD*%
D10*
%TO.C,Q18*%
X132050000Y-87065000D03*
X132050000Y-91495000D03*
D11*
X129074000Y-91495000D03*
X129074000Y-87065000D03*
D12*
X130865000Y-88165000D03*
X130865000Y-90395000D03*
D13*
X134660000Y-87375000D03*
X134660000Y-88645000D03*
X134660000Y-89915000D03*
X134660000Y-91185000D03*
%TD*%
D10*
%TO.C,Q17*%
X122185000Y-87065000D03*
X122185000Y-91495000D03*
D11*
X119209000Y-91495000D03*
X119209000Y-87065000D03*
D12*
X121000000Y-88165000D03*
X121000000Y-90395000D03*
D13*
X124795000Y-87375000D03*
X124795000Y-88645000D03*
X124795000Y-89915000D03*
X124795000Y-91185000D03*
%TD*%
D10*
%TO.C,Q16*%
X82185000Y-51505000D03*
X82185000Y-55935000D03*
D11*
X79209000Y-55935000D03*
X79209000Y-51505000D03*
D12*
X81000000Y-52605000D03*
X81000000Y-54835000D03*
D13*
X84795000Y-51815000D03*
X84795000Y-53085000D03*
X84795000Y-54355000D03*
X84795000Y-55625000D03*
%TD*%
D10*
%TO.C,Q15*%
X92050000Y-51505000D03*
X92050000Y-55935000D03*
D11*
X89074000Y-55935000D03*
X89074000Y-51505000D03*
D12*
X90865000Y-52605000D03*
X90865000Y-54835000D03*
D13*
X94660000Y-51815000D03*
X94660000Y-53085000D03*
X94660000Y-54355000D03*
X94660000Y-55625000D03*
%TD*%
D10*
%TO.C,Q14*%
X92050000Y-65465000D03*
X92050000Y-69895000D03*
D11*
X89074000Y-69895000D03*
X89074000Y-65465000D03*
D12*
X90865000Y-66565000D03*
X90865000Y-68795000D03*
D13*
X94660000Y-65775000D03*
X94660000Y-67045000D03*
X94660000Y-68315000D03*
X94660000Y-69585000D03*
%TD*%
D10*
%TO.C,Q13*%
X82185000Y-65465000D03*
X82185000Y-69895000D03*
D11*
X79209000Y-69895000D03*
X79209000Y-65465000D03*
D12*
X81000000Y-66565000D03*
X81000000Y-68795000D03*
D13*
X84795000Y-65775000D03*
X84795000Y-67045000D03*
X84795000Y-68315000D03*
X84795000Y-69585000D03*
%TD*%
D10*
%TO.C,Q12*%
X82185000Y-73105000D03*
X82185000Y-77535000D03*
D11*
X79209000Y-77535000D03*
X79209000Y-73105000D03*
D12*
X81000000Y-74205000D03*
X81000000Y-76435000D03*
D13*
X84795000Y-73415000D03*
X84795000Y-74685000D03*
X84795000Y-75955000D03*
X84795000Y-77225000D03*
%TD*%
D10*
%TO.C,Q11*%
X92050000Y-73105000D03*
X92050000Y-77535000D03*
D11*
X89074000Y-77535000D03*
X89074000Y-73105000D03*
D12*
X90865000Y-74205000D03*
X90865000Y-76435000D03*
D13*
X94660000Y-73415000D03*
X94660000Y-74685000D03*
X94660000Y-75955000D03*
X94660000Y-77225000D03*
%TD*%
D10*
%TO.C,Q10*%
X92050000Y-87065000D03*
X92050000Y-91495000D03*
D11*
X89074000Y-91495000D03*
X89074000Y-87065000D03*
D12*
X90865000Y-88165000D03*
X90865000Y-90395000D03*
D13*
X94660000Y-87375000D03*
X94660000Y-88645000D03*
X94660000Y-89915000D03*
X94660000Y-91185000D03*
%TD*%
D10*
%TO.C,Q9*%
X82185000Y-87065000D03*
X82185000Y-91495000D03*
D11*
X79209000Y-91495000D03*
X79209000Y-87065000D03*
D12*
X81000000Y-88165000D03*
X81000000Y-90395000D03*
D13*
X84795000Y-87375000D03*
X84795000Y-88645000D03*
X84795000Y-89915000D03*
X84795000Y-91185000D03*
%TD*%
D10*
%TO.C,Q8*%
X42185000Y-51505000D03*
X42185000Y-55935000D03*
D11*
X39209000Y-55935000D03*
X39209000Y-51505000D03*
D12*
X41000000Y-52605000D03*
X41000000Y-54835000D03*
D13*
X44795000Y-51815000D03*
X44795000Y-53085000D03*
X44795000Y-54355000D03*
X44795000Y-55625000D03*
%TD*%
D10*
%TO.C,Q7*%
X52050000Y-51505000D03*
X52050000Y-55935000D03*
D11*
X49074000Y-55935000D03*
X49074000Y-51505000D03*
D12*
X50865000Y-52605000D03*
X50865000Y-54835000D03*
D13*
X54660000Y-51815000D03*
X54660000Y-53085000D03*
X54660000Y-54355000D03*
X54660000Y-55625000D03*
%TD*%
D10*
%TO.C,Q6*%
X52050000Y-65465000D03*
X52050000Y-69895000D03*
D11*
X49074000Y-69895000D03*
X49074000Y-65465000D03*
D12*
X50865000Y-66565000D03*
X50865000Y-68795000D03*
D13*
X54660000Y-65775000D03*
X54660000Y-67045000D03*
X54660000Y-68315000D03*
X54660000Y-69585000D03*
%TD*%
D10*
%TO.C,Q5*%
X42185000Y-65465000D03*
X42185000Y-69895000D03*
D11*
X39209000Y-69895000D03*
X39209000Y-65465000D03*
D12*
X41000000Y-66565000D03*
X41000000Y-68795000D03*
D13*
X44795000Y-65775000D03*
X44795000Y-67045000D03*
X44795000Y-68315000D03*
X44795000Y-69585000D03*
%TD*%
D10*
%TO.C,Q4*%
X42185000Y-73105000D03*
X42185000Y-77535000D03*
D11*
X39209000Y-77535000D03*
X39209000Y-73105000D03*
D12*
X41000000Y-74205000D03*
X41000000Y-76435000D03*
D13*
X44795000Y-73415000D03*
X44795000Y-74685000D03*
X44795000Y-75955000D03*
X44795000Y-77225000D03*
%TD*%
D10*
%TO.C,Q3*%
X52050000Y-73105000D03*
X52050000Y-77535000D03*
D11*
X49074000Y-77535000D03*
X49074000Y-73105000D03*
D12*
X50865000Y-74205000D03*
X50865000Y-76435000D03*
D13*
X54660000Y-73415000D03*
X54660000Y-74685000D03*
X54660000Y-75955000D03*
X54660000Y-77225000D03*
%TD*%
D10*
%TO.C,Q2*%
X52050000Y-87065000D03*
X52050000Y-91495000D03*
D11*
X49074000Y-91495000D03*
X49074000Y-87065000D03*
D12*
X50865000Y-88165000D03*
X50865000Y-90395000D03*
D13*
X54660000Y-87375000D03*
X54660000Y-88645000D03*
X54660000Y-89915000D03*
X54660000Y-91185000D03*
%TD*%
D10*
%TO.C,Q1*%
X42185000Y-87065000D03*
X42185000Y-91495000D03*
D11*
X39209000Y-91495000D03*
X39209000Y-87065000D03*
D12*
X41000000Y-88165000D03*
X41000000Y-90395000D03*
D13*
X44795000Y-87375000D03*
X44795000Y-88645000D03*
X44795000Y-89915000D03*
X44795000Y-91185000D03*
%TD*%
M02*
