%TF.GenerationSoftware,KiCad,Pcbnew,(5.1.6)-1*%
%TF.CreationDate,2020-07-03T16:53:40+09:00*%
%TF.ProjectId,PWM-PCA9685,50574d2d-5043-4413-9936-38352e6b6963,rev?*%
%TF.SameCoordinates,Original*%
%TF.FileFunction,Copper,L2,Bot*%
%TF.FilePolarity,Positive*%
%FSLAX46Y46*%
G04 Gerber Fmt 4.6, Leading zero omitted, Abs format (unit mm)*
G04 Created by KiCad (PCBNEW (5.1.6)-1) date 2020-07-03 16:53:40*
%MOMM*%
%LPD*%
G01*
G04 APERTURE LIST*
%TA.AperFunction,ComponentPad*%
%ADD10C,1.600000*%
%TD*%
%TA.AperFunction,ComponentPad*%
%ADD11R,1.600000X1.600000*%
%TD*%
%TA.AperFunction,ComponentPad*%
%ADD12O,1.700000X1.700000*%
%TD*%
%TA.AperFunction,ComponentPad*%
%ADD13R,1.700000X1.700000*%
%TD*%
%TA.AperFunction,SMDPad,CuDef*%
%ADD14R,0.600000X0.700000*%
%TD*%
%TA.AperFunction,ComponentPad*%
%ADD15O,3.300000X2.700000*%
%TD*%
%TA.AperFunction,ViaPad*%
%ADD16C,1.000000*%
%TD*%
%TA.AperFunction,ViaPad*%
%ADD17C,0.800000*%
%TD*%
%TA.AperFunction,Conductor*%
%ADD18C,0.400000*%
%TD*%
%TA.AperFunction,Conductor*%
%ADD19C,2.000000*%
%TD*%
%TA.AperFunction,Conductor*%
%ADD20C,1.000000*%
%TD*%
%TA.AperFunction,Conductor*%
%ADD21C,0.500000*%
%TD*%
%TA.AperFunction,Conductor*%
%ADD22C,8.000000*%
%TD*%
%TA.AperFunction,Conductor*%
%ADD23C,5.000000*%
%TD*%
%TA.AperFunction,Conductor*%
%ADD24C,0.300000*%
%TD*%
G04 APERTURE END LIST*
%TO.P,C7,2*%
%TO.N,GND*%
%TA.AperFunction,SMDPad,CuDef*%
G36*
G01*
X139950000Y-71625000D02*
X139950000Y-70375000D01*
G75*
G02*
X140200000Y-70125000I250000J0D01*
G01*
X140950000Y-70125000D01*
G75*
G02*
X141200000Y-70375000I0J-250000D01*
G01*
X141200000Y-71625000D01*
G75*
G02*
X140950000Y-71875000I-250000J0D01*
G01*
X140200000Y-71875000D01*
G75*
G02*
X139950000Y-71625000I0J250000D01*
G01*
G37*
%TD.AperFunction*%
%TO.P,C7,1*%
%TO.N,+5V*%
%TA.AperFunction,SMDPad,CuDef*%
G36*
G01*
X137150000Y-71625000D02*
X137150000Y-70375000D01*
G75*
G02*
X137400000Y-70125000I250000J0D01*
G01*
X138150000Y-70125000D01*
G75*
G02*
X138400000Y-70375000I0J-250000D01*
G01*
X138400000Y-71625000D01*
G75*
G02*
X138150000Y-71875000I-250000J0D01*
G01*
X137400000Y-71875000D01*
G75*
G02*
X137150000Y-71625000I0J250000D01*
G01*
G37*
%TD.AperFunction*%
%TD*%
%TO.P,C6,2*%
%TO.N,GND*%
%TA.AperFunction,SMDPad,CuDef*%
G36*
G01*
X99950000Y-71625000D02*
X99950000Y-70375000D01*
G75*
G02*
X100200000Y-70125000I250000J0D01*
G01*
X100950000Y-70125000D01*
G75*
G02*
X101200000Y-70375000I0J-250000D01*
G01*
X101200000Y-71625000D01*
G75*
G02*
X100950000Y-71875000I-250000J0D01*
G01*
X100200000Y-71875000D01*
G75*
G02*
X99950000Y-71625000I0J250000D01*
G01*
G37*
%TD.AperFunction*%
%TO.P,C6,1*%
%TO.N,+5V*%
%TA.AperFunction,SMDPad,CuDef*%
G36*
G01*
X97150000Y-71625000D02*
X97150000Y-70375000D01*
G75*
G02*
X97400000Y-70125000I250000J0D01*
G01*
X98150000Y-70125000D01*
G75*
G02*
X98400000Y-70375000I0J-250000D01*
G01*
X98400000Y-71625000D01*
G75*
G02*
X98150000Y-71875000I-250000J0D01*
G01*
X97400000Y-71875000D01*
G75*
G02*
X97150000Y-71625000I0J250000D01*
G01*
G37*
%TD.AperFunction*%
%TD*%
%TO.P,C5,2*%
%TO.N,GND*%
%TA.AperFunction,SMDPad,CuDef*%
G36*
G01*
X59950000Y-71625000D02*
X59950000Y-70375000D01*
G75*
G02*
X60200000Y-70125000I250000J0D01*
G01*
X60950000Y-70125000D01*
G75*
G02*
X61200000Y-70375000I0J-250000D01*
G01*
X61200000Y-71625000D01*
G75*
G02*
X60950000Y-71875000I-250000J0D01*
G01*
X60200000Y-71875000D01*
G75*
G02*
X59950000Y-71625000I0J250000D01*
G01*
G37*
%TD.AperFunction*%
%TO.P,C5,1*%
%TO.N,+5V*%
%TA.AperFunction,SMDPad,CuDef*%
G36*
G01*
X57150000Y-71625000D02*
X57150000Y-70375000D01*
G75*
G02*
X57400000Y-70125000I250000J0D01*
G01*
X58150000Y-70125000D01*
G75*
G02*
X58400000Y-70375000I0J-250000D01*
G01*
X58400000Y-71625000D01*
G75*
G02*
X58150000Y-71875000I-250000J0D01*
G01*
X57400000Y-71875000D01*
G75*
G02*
X57150000Y-71625000I0J250000D01*
G01*
G37*
%TD.AperFunction*%
%TD*%
D10*
%TO.P,C4,2*%
%TO.N,GND*%
X46000000Y-37000000D03*
D11*
%TO.P,C4,1*%
%TO.N,+12V*%
X46000000Y-39500000D03*
%TD*%
D10*
%TO.P,C3,2*%
%TO.N,GND*%
X36000000Y-37000000D03*
D11*
%TO.P,C3,1*%
%TO.N,+12V*%
X36000000Y-39500000D03*
%TD*%
D10*
%TO.P,C2,2*%
%TO.N,GND*%
X125000000Y-97500000D03*
D11*
%TO.P,C2,1*%
%TO.N,+5V*%
X125000000Y-100000000D03*
%TD*%
D10*
%TO.P,C1,2*%
%TO.N,GND*%
X115000000Y-97500000D03*
D11*
%TO.P,C1,1*%
%TO.N,+5V*%
X115000000Y-100000000D03*
%TD*%
D12*
%TO.P,J4,39*%
%TO.N,GND*%
X73130000Y-29620000D03*
%TO.P,J4,40*%
%TO.N,~OE*%
X73130000Y-27080000D03*
%TO.P,J4,37*%
%TO.N,Net-(J4-Pad37)*%
X70590000Y-29620000D03*
%TO.P,J4,38*%
%TO.N,Net-(J4-Pad38)*%
X70590000Y-27080000D03*
%TO.P,J4,35*%
%TO.N,Net-(J4-Pad35)*%
X68050000Y-29620000D03*
%TO.P,J4,36*%
%TO.N,Net-(J4-Pad36)*%
X68050000Y-27080000D03*
%TO.P,J4,33*%
%TO.N,Net-(J4-Pad33)*%
X65510000Y-29620000D03*
%TO.P,J4,34*%
%TO.N,GND*%
X65510000Y-27080000D03*
%TO.P,J4,31*%
%TO.N,Net-(J4-Pad31)*%
X62970000Y-29620000D03*
%TO.P,J4,32*%
%TO.N,Net-(J4-Pad32)*%
X62970000Y-27080000D03*
%TO.P,J4,29*%
%TO.N,Net-(J4-Pad29)*%
X60430000Y-29620000D03*
%TO.P,J4,30*%
%TO.N,GND*%
X60430000Y-27080000D03*
%TO.P,J4,27*%
%TO.N,SDA*%
X57890000Y-29620000D03*
%TO.P,J4,28*%
%TO.N,SCL*%
X57890000Y-27080000D03*
%TO.P,J4,25*%
%TO.N,GND*%
X55350000Y-29620000D03*
%TO.P,J4,26*%
%TO.N,Net-(J4-Pad26)*%
X55350000Y-27080000D03*
%TO.P,J4,23*%
%TO.N,Net-(J4-Pad23)*%
X52810000Y-29620000D03*
%TO.P,J4,24*%
%TO.N,Net-(J4-Pad24)*%
X52810000Y-27080000D03*
%TO.P,J4,21*%
%TO.N,Net-(J4-Pad21)*%
X50270000Y-29620000D03*
%TO.P,J4,22*%
%TO.N,Net-(J4-Pad22)*%
X50270000Y-27080000D03*
%TO.P,J4,19*%
%TO.N,Net-(J4-Pad19)*%
X47730000Y-29620000D03*
%TO.P,J4,20*%
%TO.N,GND*%
X47730000Y-27080000D03*
%TO.P,J4,17*%
%TO.N,Net-(J4-Pad17)*%
X45190000Y-29620000D03*
%TO.P,J4,18*%
%TO.N,Net-(J4-Pad18)*%
X45190000Y-27080000D03*
%TO.P,J4,15*%
%TO.N,Net-(J4-Pad15)*%
X42650000Y-29620000D03*
%TO.P,J4,16*%
%TO.N,Net-(J4-Pad16)*%
X42650000Y-27080000D03*
%TO.P,J4,13*%
%TO.N,Net-(J4-Pad13)*%
X40110000Y-29620000D03*
%TO.P,J4,14*%
%TO.N,GND*%
X40110000Y-27080000D03*
%TO.P,J4,11*%
%TO.N,Net-(J4-Pad11)*%
X37570000Y-29620000D03*
%TO.P,J4,12*%
%TO.N,Net-(J4-Pad12)*%
X37570000Y-27080000D03*
%TO.P,J4,9*%
%TO.N,GND*%
X35030000Y-29620000D03*
%TO.P,J4,10*%
%TO.N,Net-(J4-Pad10)*%
X35030000Y-27080000D03*
%TO.P,J4,7*%
%TO.N,Net-(J4-Pad7)*%
X32490000Y-29620000D03*
%TO.P,J4,8*%
%TO.N,Net-(J4-Pad8)*%
X32490000Y-27080000D03*
%TO.P,J4,5*%
%TO.N,Net-(J4-Pad5)*%
X29950000Y-29620000D03*
%TO.P,J4,6*%
%TO.N,GND*%
X29950000Y-27080000D03*
%TO.P,J4,3*%
%TO.N,Net-(J4-Pad3)*%
X27410000Y-29620000D03*
%TO.P,J4,4*%
%TO.N,Net-(J4-Pad4)*%
X27410000Y-27080000D03*
%TO.P,J4,1*%
%TO.N,Net-(J4-Pad1)*%
X24870000Y-29620000D03*
D13*
%TO.P,J4,2*%
%TO.N,Net-(J4-Pad2)*%
X24870000Y-27080000D03*
%TD*%
D12*
%TO.P,J1,17*%
%TO.N,+12V*%
X31460000Y-90550000D03*
%TO.P,J1,1*%
%TO.N,/D0*%
X34000000Y-90550000D03*
%TO.P,J1,18*%
%TO.N,+12V*%
X31460000Y-88010000D03*
%TO.P,J1,2*%
%TO.N,/D1*%
X34000000Y-88010000D03*
%TO.P,J1,19*%
%TO.N,+12V*%
X31460000Y-85470000D03*
%TO.P,J1,3*%
%TO.N,/D2*%
X34000000Y-85470000D03*
%TO.P,J1,20*%
%TO.N,+12V*%
X31460000Y-82930000D03*
%TO.P,J1,4*%
%TO.N,/D3*%
X34000000Y-82930000D03*
%TO.P,J1,21*%
%TO.N,+12V*%
X31460000Y-80390000D03*
%TO.P,J1,5*%
%TO.N,/D4*%
X34000000Y-80390000D03*
%TO.P,J1,22*%
%TO.N,+12V*%
X31460000Y-77850000D03*
%TO.P,J1,6*%
%TO.N,/D5*%
X34000000Y-77850000D03*
%TO.P,J1,23*%
%TO.N,+12V*%
X31460000Y-75310000D03*
%TO.P,J1,7*%
%TO.N,/D6*%
X34000000Y-75310000D03*
%TO.P,J1,24*%
%TO.N,+12V*%
X31460000Y-72770000D03*
%TO.P,J1,8*%
%TO.N,/D7*%
X34000000Y-72770000D03*
%TO.P,J1,25*%
%TO.N,+12V*%
X31460000Y-70230000D03*
%TO.P,J1,9*%
%TO.N,/D8*%
X34000000Y-70230000D03*
%TO.P,J1,26*%
%TO.N,+12V*%
X31460000Y-67690000D03*
%TO.P,J1,10*%
%TO.N,/D9*%
X34000000Y-67690000D03*
%TO.P,J1,27*%
%TO.N,+12V*%
X31460000Y-65150000D03*
%TO.P,J1,11*%
%TO.N,/D10*%
X34000000Y-65150000D03*
%TO.P,J1,28*%
%TO.N,+12V*%
X31460000Y-62610000D03*
%TO.P,J1,12*%
%TO.N,/D11*%
X34000000Y-62610000D03*
%TO.P,J1,29*%
%TO.N,+12V*%
X31460000Y-60070000D03*
%TO.P,J1,13*%
%TO.N,/D12*%
X34000000Y-60070000D03*
%TO.P,J1,30*%
%TO.N,+12V*%
X31460000Y-57530000D03*
%TO.P,J1,14*%
%TO.N,/D13*%
X34000000Y-57530000D03*
%TO.P,J1,31*%
%TO.N,+12V*%
X31460000Y-54990000D03*
%TO.P,J1,15*%
%TO.N,/D14*%
X34000000Y-54990000D03*
%TO.P,J1,32*%
%TO.N,+12V*%
X31460000Y-52450000D03*
D13*
%TO.P,J1,16*%
%TO.N,/D15*%
X34000000Y-52450000D03*
%TD*%
D12*
%TO.P,J2,17*%
%TO.N,+12V*%
X71460000Y-90550000D03*
%TO.P,J2,1*%
%TO.N,/D16*%
X74000000Y-90550000D03*
%TO.P,J2,18*%
%TO.N,+12V*%
X71460000Y-88010000D03*
%TO.P,J2,2*%
%TO.N,/D17*%
X74000000Y-88010000D03*
%TO.P,J2,19*%
%TO.N,+12V*%
X71460000Y-85470000D03*
%TO.P,J2,3*%
%TO.N,/D18*%
X74000000Y-85470000D03*
%TO.P,J2,20*%
%TO.N,+12V*%
X71460000Y-82930000D03*
%TO.P,J2,4*%
%TO.N,/D19*%
X74000000Y-82930000D03*
%TO.P,J2,21*%
%TO.N,+12V*%
X71460000Y-80390000D03*
%TO.P,J2,5*%
%TO.N,/D20*%
X74000000Y-80390000D03*
%TO.P,J2,22*%
%TO.N,+12V*%
X71460000Y-77850000D03*
%TO.P,J2,6*%
%TO.N,/D21*%
X74000000Y-77850000D03*
%TO.P,J2,23*%
%TO.N,+12V*%
X71460000Y-75310000D03*
%TO.P,J2,7*%
%TO.N,/D22*%
X74000000Y-75310000D03*
%TO.P,J2,24*%
%TO.N,+12V*%
X71460000Y-72770000D03*
%TO.P,J2,8*%
%TO.N,/D23*%
X74000000Y-72770000D03*
%TO.P,J2,25*%
%TO.N,+12V*%
X71460000Y-70230000D03*
%TO.P,J2,9*%
%TO.N,/D24*%
X74000000Y-70230000D03*
%TO.P,J2,26*%
%TO.N,+12V*%
X71460000Y-67690000D03*
%TO.P,J2,10*%
%TO.N,/D25*%
X74000000Y-67690000D03*
%TO.P,J2,27*%
%TO.N,+12V*%
X71460000Y-65150000D03*
%TO.P,J2,11*%
%TO.N,/D26*%
X74000000Y-65150000D03*
%TO.P,J2,28*%
%TO.N,+12V*%
X71460000Y-62610000D03*
%TO.P,J2,12*%
%TO.N,/D27*%
X74000000Y-62610000D03*
%TO.P,J2,29*%
%TO.N,+12V*%
X71460000Y-60070000D03*
%TO.P,J2,13*%
%TO.N,/D28*%
X74000000Y-60070000D03*
%TO.P,J2,30*%
%TO.N,+12V*%
X71460000Y-57530000D03*
%TO.P,J2,14*%
%TO.N,/D29*%
X74000000Y-57530000D03*
%TO.P,J2,31*%
%TO.N,+12V*%
X71460000Y-54990000D03*
%TO.P,J2,15*%
%TO.N,/D30*%
X74000000Y-54990000D03*
%TO.P,J2,32*%
%TO.N,+12V*%
X71460000Y-52450000D03*
D13*
%TO.P,J2,16*%
%TO.N,/D31*%
X74000000Y-52450000D03*
%TD*%
D12*
%TO.P,J3,17*%
%TO.N,+12V*%
X111460000Y-90550000D03*
%TO.P,J3,1*%
%TO.N,/D32*%
X114000000Y-90550000D03*
%TO.P,J3,18*%
%TO.N,+12V*%
X111460000Y-88010000D03*
%TO.P,J3,2*%
%TO.N,/D33*%
X114000000Y-88010000D03*
%TO.P,J3,19*%
%TO.N,+12V*%
X111460000Y-85470000D03*
%TO.P,J3,3*%
%TO.N,/D34*%
X114000000Y-85470000D03*
%TO.P,J3,20*%
%TO.N,+12V*%
X111460000Y-82930000D03*
%TO.P,J3,4*%
%TO.N,/D35*%
X114000000Y-82930000D03*
%TO.P,J3,21*%
%TO.N,+12V*%
X111460000Y-80390000D03*
%TO.P,J3,5*%
%TO.N,/D36*%
X114000000Y-80390000D03*
%TO.P,J3,22*%
%TO.N,+12V*%
X111460000Y-77850000D03*
%TO.P,J3,6*%
%TO.N,/D37*%
X114000000Y-77850000D03*
%TO.P,J3,23*%
%TO.N,+12V*%
X111460000Y-75310000D03*
%TO.P,J3,7*%
%TO.N,/D38*%
X114000000Y-75310000D03*
%TO.P,J3,24*%
%TO.N,+12V*%
X111460000Y-72770000D03*
%TO.P,J3,8*%
%TO.N,/D39*%
X114000000Y-72770000D03*
%TO.P,J3,25*%
%TO.N,+12V*%
X111460000Y-70230000D03*
%TO.P,J3,9*%
%TO.N,/D40*%
X114000000Y-70230000D03*
%TO.P,J3,26*%
%TO.N,+12V*%
X111460000Y-67690000D03*
%TO.P,J3,10*%
%TO.N,/D41*%
X114000000Y-67690000D03*
%TO.P,J3,27*%
%TO.N,+12V*%
X111460000Y-65150000D03*
%TO.P,J3,11*%
%TO.N,/D42*%
X114000000Y-65150000D03*
%TO.P,J3,28*%
%TO.N,+12V*%
X111460000Y-62610000D03*
%TO.P,J3,12*%
%TO.N,/D43*%
X114000000Y-62610000D03*
%TO.P,J3,29*%
%TO.N,+12V*%
X111460000Y-60070000D03*
%TO.P,J3,13*%
%TO.N,/D44*%
X114000000Y-60070000D03*
%TO.P,J3,30*%
%TO.N,+12V*%
X111460000Y-57530000D03*
%TO.P,J3,14*%
%TO.N,/D45*%
X114000000Y-57530000D03*
%TO.P,J3,31*%
%TO.N,+12V*%
X111460000Y-54990000D03*
%TO.P,J3,15*%
%TO.N,/D46*%
X114000000Y-54990000D03*
%TO.P,J3,32*%
%TO.N,+12V*%
X111460000Y-52450000D03*
D13*
%TO.P,J3,16*%
%TO.N,/D47*%
X114000000Y-52450000D03*
%TD*%
D14*
%TO.P,D38,1*%
%TO.N,+12V*%
X126300000Y-72770000D03*
%TO.P,D38,2*%
%TO.N,/D37*%
X127700000Y-72770000D03*
%TD*%
D15*
%TO.P,J5,24*%
%TO.N,GND*%
X162500000Y-47800000D03*
%TO.P,J5,23*%
%TO.N,Net-(J5-Pad23)*%
X162500000Y-52000000D03*
%TO.P,J5,22*%
%TO.N,Net-(J5-Pad22)*%
X162500000Y-56200000D03*
%TO.P,J5,21*%
%TO.N,Net-(J5-Pad21)*%
X162500000Y-60400000D03*
%TO.P,J5,20*%
%TO.N,Net-(J5-Pad20)*%
X162500000Y-64600000D03*
%TO.P,J5,19*%
%TO.N,GND*%
X162500000Y-68800000D03*
%TO.P,J5,18*%
X162500000Y-73000000D03*
%TO.P,J5,17*%
X162500000Y-77200000D03*
%TO.P,J5,16*%
%TO.N,Net-(J5-Pad16)*%
X162500000Y-81400000D03*
%TO.P,J5,15*%
%TO.N,GND*%
X162500000Y-85600000D03*
%TO.P,J5,14*%
%TO.N,Net-(J5-Pad14)*%
X162500000Y-89800000D03*
%TO.P,J5,13*%
%TO.N,Net-(J5-Pad13)*%
X162500000Y-94000000D03*
%TO.P,J5,12*%
%TO.N,Net-(J5-Pad12)*%
X157000000Y-47800000D03*
%TO.P,J5,11*%
%TO.N,Net-(J5-Pad11)*%
X157000000Y-52000000D03*
%TO.P,J5,10*%
%TO.N,+12V*%
X157000000Y-56200000D03*
%TO.P,J5,9*%
%TO.N,Net-(J5-Pad9)*%
X157000000Y-60400000D03*
%TO.P,J5,8*%
%TO.N,Net-(J5-Pad8)*%
X157000000Y-64600000D03*
%TO.P,J5,7*%
%TO.N,Net-(J5-Pad7)*%
X157000000Y-68800000D03*
%TO.P,J5,6*%
%TO.N,Net-(J5-Pad6)*%
X157000000Y-73000000D03*
%TO.P,J5,5*%
%TO.N,GND*%
X157000000Y-77200000D03*
%TO.P,J5,4*%
%TO.N,+5V*%
X157000000Y-81400000D03*
%TO.P,J5,3*%
%TO.N,GND*%
X157000000Y-85600000D03*
%TO.P,J5,2*%
%TO.N,Net-(J5-Pad2)*%
X157000000Y-89800000D03*
%TO.P,J5,1*%
%TO.N,Net-(J5-Pad1)*%
%TA.AperFunction,ComponentPad*%
G36*
G01*
X158399999Y-95350000D02*
X155600001Y-95350000D01*
G75*
G02*
X155350000Y-95099999I0J250001D01*
G01*
X155350000Y-92900001D01*
G75*
G02*
X155600001Y-92650000I250001J0D01*
G01*
X158399999Y-92650000D01*
G75*
G02*
X158650000Y-92900001I0J-250001D01*
G01*
X158650000Y-95099999D01*
G75*
G02*
X158399999Y-95350000I-250001J0D01*
G01*
G37*
%TD.AperFunction*%
%TD*%
D14*
%TO.P,D48,1*%
%TO.N,+12V*%
X116300000Y-52450000D03*
%TO.P,D48,2*%
%TO.N,/D47*%
X117700000Y-52450000D03*
%TD*%
%TO.P,D47,1*%
%TO.N,+12V*%
X116300000Y-54990000D03*
%TO.P,D47,2*%
%TO.N,/D46*%
X117700000Y-54990000D03*
%TD*%
%TO.P,D46,1*%
%TO.N,+12V*%
X126300000Y-52450000D03*
%TO.P,D46,2*%
%TO.N,/D45*%
X127700000Y-52450000D03*
%TD*%
%TO.P,D45,1*%
%TO.N,+12V*%
X126300000Y-54990000D03*
%TO.P,D45,2*%
%TO.N,/D44*%
X127700000Y-54990000D03*
%TD*%
%TO.P,D44,1*%
%TO.N,+12V*%
X126300000Y-67690000D03*
%TO.P,D44,2*%
%TO.N,/D43*%
X127700000Y-67690000D03*
%TD*%
%TO.P,D43,1*%
%TO.N,+12V*%
X126300000Y-70230000D03*
%TO.P,D43,2*%
%TO.N,/D42*%
X127700000Y-70230000D03*
%TD*%
%TO.P,D42,1*%
%TO.N,+12V*%
X116300000Y-67690000D03*
%TO.P,D42,2*%
%TO.N,/D41*%
X117700000Y-67690000D03*
%TD*%
%TO.P,D41,1*%
%TO.N,+12V*%
X116300000Y-70230000D03*
%TO.P,D41,2*%
%TO.N,/D40*%
X117700000Y-70230000D03*
%TD*%
%TO.P,D40,1*%
%TO.N,+12V*%
X116300000Y-72770000D03*
%TO.P,D40,2*%
%TO.N,/D39*%
X117700000Y-72770000D03*
%TD*%
%TO.P,D39,1*%
%TO.N,+12V*%
X116300000Y-75310000D03*
%TO.P,D39,2*%
%TO.N,/D38*%
X117700000Y-75310000D03*
%TD*%
%TO.P,D37,1*%
%TO.N,+12V*%
X126300000Y-75310000D03*
%TO.P,D37,2*%
%TO.N,/D36*%
X127700000Y-75310000D03*
%TD*%
%TO.P,D36,1*%
%TO.N,+12V*%
X126300000Y-88010000D03*
%TO.P,D36,2*%
%TO.N,/D35*%
X127700000Y-88010000D03*
%TD*%
%TO.P,D35,1*%
%TO.N,+12V*%
X126300000Y-90550000D03*
%TO.P,D35,2*%
%TO.N,/D34*%
X127700000Y-90550000D03*
%TD*%
%TO.P,D34,1*%
%TO.N,+12V*%
X116300000Y-88010000D03*
%TO.P,D34,2*%
%TO.N,/D33*%
X117700000Y-88010000D03*
%TD*%
%TO.P,D33,1*%
%TO.N,+12V*%
X116300000Y-90550000D03*
%TO.P,D33,2*%
%TO.N,/D32*%
X117700000Y-90550000D03*
%TD*%
%TO.P,D32,1*%
%TO.N,+12V*%
X76300000Y-52450000D03*
%TO.P,D32,2*%
%TO.N,/D31*%
X77700000Y-52450000D03*
%TD*%
%TO.P,D31,1*%
%TO.N,+12V*%
X76300000Y-54990000D03*
%TO.P,D31,2*%
%TO.N,/D30*%
X77700000Y-54990000D03*
%TD*%
%TO.P,D30,1*%
%TO.N,+12V*%
X86300000Y-52450000D03*
%TO.P,D30,2*%
%TO.N,/D29*%
X87700000Y-52450000D03*
%TD*%
%TO.P,D29,1*%
%TO.N,+12V*%
X86300000Y-54990000D03*
%TO.P,D29,2*%
%TO.N,/D28*%
X87700000Y-54990000D03*
%TD*%
%TO.P,D28,1*%
%TO.N,+12V*%
X86300000Y-67690000D03*
%TO.P,D28,2*%
%TO.N,/D27*%
X87700000Y-67690000D03*
%TD*%
%TO.P,D27,1*%
%TO.N,+12V*%
X86300000Y-70230000D03*
%TO.P,D27,2*%
%TO.N,/D26*%
X87700000Y-70230000D03*
%TD*%
%TO.P,D26,1*%
%TO.N,+12V*%
X76300000Y-67690000D03*
%TO.P,D26,2*%
%TO.N,/D25*%
X77700000Y-67690000D03*
%TD*%
%TO.P,D25,1*%
%TO.N,+12V*%
X76300000Y-70230000D03*
%TO.P,D25,2*%
%TO.N,/D24*%
X77700000Y-70230000D03*
%TD*%
%TO.P,D24,1*%
%TO.N,+12V*%
X76300000Y-72770000D03*
%TO.P,D24,2*%
%TO.N,/D23*%
X77700000Y-72770000D03*
%TD*%
%TO.P,D23,1*%
%TO.N,+12V*%
X76300000Y-75310000D03*
%TO.P,D23,2*%
%TO.N,/D22*%
X77700000Y-75310000D03*
%TD*%
%TO.P,D22,1*%
%TO.N,+12V*%
X86300000Y-72770000D03*
%TO.P,D22,2*%
%TO.N,/D21*%
X87700000Y-72770000D03*
%TD*%
%TO.P,D21,1*%
%TO.N,+12V*%
X86300000Y-75310000D03*
%TO.P,D21,2*%
%TO.N,/D20*%
X87700000Y-75310000D03*
%TD*%
%TO.P,D20,1*%
%TO.N,+12V*%
X86300000Y-88010000D03*
%TO.P,D20,2*%
%TO.N,/D19*%
X87700000Y-88010000D03*
%TD*%
%TO.P,D19,1*%
%TO.N,+12V*%
X86300000Y-90550000D03*
%TO.P,D19,2*%
%TO.N,/D18*%
X87700000Y-90550000D03*
%TD*%
%TO.P,D18,1*%
%TO.N,+12V*%
X76300000Y-88010000D03*
%TO.P,D18,2*%
%TO.N,/D17*%
X77700000Y-88010000D03*
%TD*%
%TO.P,D17,1*%
%TO.N,+12V*%
X76300000Y-90550000D03*
%TO.P,D17,2*%
%TO.N,/D16*%
X77700000Y-90550000D03*
%TD*%
%TO.P,D16,1*%
%TO.N,+12V*%
X36300000Y-52590000D03*
%TO.P,D16,2*%
%TO.N,/D15*%
X37700000Y-52590000D03*
%TD*%
%TO.P,D15,1*%
%TO.N,+12V*%
X36300000Y-54850000D03*
%TO.P,D15,2*%
%TO.N,/D14*%
X37700000Y-54850000D03*
%TD*%
%TO.P,D14,1*%
%TO.N,+12V*%
X46300000Y-52500000D03*
%TO.P,D14,2*%
%TO.N,/D13*%
X47700000Y-52500000D03*
%TD*%
%TO.P,D13,1*%
%TO.N,+12V*%
X46300000Y-54980000D03*
%TO.P,D13,2*%
%TO.N,/D12*%
X47700000Y-54980000D03*
%TD*%
%TO.P,D12,1*%
%TO.N,+12V*%
X46300000Y-67690000D03*
%TO.P,D12,2*%
%TO.N,/D11*%
X47700000Y-67690000D03*
%TD*%
%TO.P,D11,1*%
%TO.N,+12V*%
X46300000Y-70230000D03*
%TO.P,D11,2*%
%TO.N,/D10*%
X47700000Y-70230000D03*
%TD*%
%TO.P,D10,1*%
%TO.N,+12V*%
X36300000Y-67690000D03*
%TO.P,D10,2*%
%TO.N,/D9*%
X37700000Y-67690000D03*
%TD*%
%TO.P,D9,1*%
%TO.N,+12V*%
X36300000Y-70230000D03*
%TO.P,D9,2*%
%TO.N,/D8*%
X37700000Y-70230000D03*
%TD*%
%TO.P,D8,1*%
%TO.N,+12V*%
X36300000Y-72770000D03*
%TO.P,D8,2*%
%TO.N,/D7*%
X37700000Y-72770000D03*
%TD*%
%TO.P,D7,1*%
%TO.N,+12V*%
X36300000Y-75310000D03*
%TO.P,D7,2*%
%TO.N,/D6*%
X37700000Y-75310000D03*
%TD*%
%TO.P,D6,1*%
%TO.N,+12V*%
X46300000Y-72770000D03*
%TO.P,D6,2*%
%TO.N,/D5*%
X47700000Y-72770000D03*
%TD*%
%TO.P,D5,1*%
%TO.N,+12V*%
X46300000Y-75310000D03*
%TO.P,D5,2*%
%TO.N,/D4*%
X47700000Y-75310000D03*
%TD*%
%TO.P,D4,1*%
%TO.N,+12V*%
X46300000Y-88010000D03*
%TO.P,D4,2*%
%TO.N,/D3*%
X47700000Y-88010000D03*
%TD*%
%TO.P,D3,1*%
%TO.N,+12V*%
X46300000Y-90550000D03*
%TO.P,D3,2*%
%TO.N,/D2*%
X47700000Y-90550000D03*
%TD*%
%TO.P,D2,1*%
%TO.N,+12V*%
X36300000Y-88010000D03*
%TO.P,D2,2*%
%TO.N,/D1*%
X37700000Y-88010000D03*
%TD*%
%TO.P,D1,1*%
%TO.N,+12V*%
X36300000Y-90550000D03*
%TO.P,D1,2*%
%TO.N,/D0*%
X37700000Y-90550000D03*
%TD*%
D16*
%TO.N,GND*%
X50000000Y-82000000D03*
X50000000Y-61000000D03*
X52000000Y-61000000D03*
X54000000Y-61000000D03*
X56000000Y-61000000D03*
D17*
%TO.N,~OE*%
X78000000Y-47500000D03*
%TO.N,GND*%
X60500000Y-53000000D03*
X66225000Y-76000000D03*
X43700000Y-65775000D03*
X43700000Y-67045000D03*
X43700000Y-68315000D03*
X43700000Y-69585000D03*
X53550000Y-69585000D03*
X53550000Y-68315000D03*
X53550000Y-67045000D03*
X53550000Y-65775000D03*
X43700000Y-87375000D03*
X43700000Y-89915000D03*
X53550000Y-89915000D03*
X53550000Y-87375000D03*
X43700000Y-75955000D03*
X43700000Y-73415000D03*
X53550000Y-73415000D03*
X53550000Y-75955000D03*
X43700000Y-74685000D03*
X43700000Y-77225000D03*
X43700000Y-88645000D03*
X43700000Y-91185000D03*
X53550000Y-91185000D03*
X53550000Y-88645000D03*
X53550000Y-77225000D03*
X53550000Y-74685000D03*
X43700000Y-55625000D03*
X43700000Y-54355000D03*
X43700000Y-53085000D03*
X43700000Y-51815000D03*
X53550000Y-51815000D03*
X53550000Y-53085000D03*
X53550000Y-54355000D03*
X53550000Y-55625000D03*
X83700000Y-91185000D03*
X83700000Y-89915000D03*
X83700000Y-88645000D03*
X83700000Y-87375000D03*
X83700000Y-77225000D03*
X83700000Y-75955000D03*
X83700000Y-74685000D03*
X83700000Y-73415000D03*
X83700000Y-69585000D03*
X83700000Y-68315000D03*
X83700000Y-67045000D03*
X83700000Y-65775000D03*
X83700000Y-55625000D03*
X83700000Y-54355000D03*
X83700000Y-53085000D03*
X83700000Y-51815000D03*
X93550000Y-91185000D03*
X93550000Y-89915000D03*
X93550000Y-88645000D03*
X93550000Y-87375000D03*
X133550000Y-77225000D03*
X93550000Y-75955000D03*
X93550000Y-74685000D03*
X93550000Y-73415000D03*
X93550000Y-69585000D03*
X93550000Y-68315000D03*
X93550000Y-67045000D03*
X93550000Y-65775000D03*
X93550000Y-55625000D03*
X93550000Y-54355000D03*
X93550000Y-53085000D03*
X93550000Y-51815000D03*
X123700000Y-51815000D03*
X123700000Y-53085000D03*
X123700000Y-54355000D03*
X123700000Y-55625000D03*
X123700000Y-65775000D03*
X123700000Y-67045000D03*
X123700000Y-68315000D03*
X123700000Y-69585000D03*
X123700000Y-73415000D03*
X123700000Y-74685000D03*
X123700000Y-75955000D03*
X123700000Y-77225000D03*
X123700000Y-87375000D03*
X123700000Y-88645000D03*
X123700000Y-89915000D03*
X123700000Y-91185000D03*
X133550000Y-51815000D03*
X133550000Y-53085000D03*
X133550000Y-54355000D03*
X133550000Y-55625000D03*
X133550000Y-65775000D03*
X133550000Y-67045000D03*
X133550000Y-68315000D03*
X133550000Y-69585000D03*
X133550000Y-73415000D03*
X133550000Y-74685000D03*
X133550000Y-75955000D03*
X93550000Y-77225000D03*
X133550000Y-87375000D03*
X133550000Y-88645000D03*
X133550000Y-89915000D03*
X133550000Y-91185000D03*
X142187500Y-86050000D03*
X142187500Y-88550000D03*
X142187500Y-91050000D03*
X142187500Y-93550000D03*
X142187500Y-96050000D03*
X102187500Y-86050000D03*
X102187500Y-88550000D03*
X102187500Y-91050000D03*
X102187500Y-93550000D03*
X102187500Y-96050000D03*
X62187500Y-86050000D03*
X62187500Y-88550000D03*
X62187500Y-91050000D03*
X62187500Y-93550000D03*
X62187500Y-96050000D03*
X106225000Y-76000000D03*
X146225000Y-76000000D03*
X100500000Y-53000000D03*
X139390000Y-61900000D03*
D16*
X48000000Y-61000000D03*
X48000000Y-82000000D03*
X52000000Y-82000000D03*
X54000000Y-82000000D03*
X56000000Y-82000000D03*
X88000000Y-61000000D03*
X90000000Y-61000000D03*
X92000000Y-61000000D03*
X94000000Y-61000000D03*
X96000000Y-61000000D03*
X88000000Y-82000000D03*
X90000000Y-82000000D03*
X92000000Y-82000000D03*
X94000000Y-82000000D03*
X96000000Y-82000000D03*
X128000000Y-61000000D03*
X130000000Y-61000000D03*
X132000000Y-61000000D03*
X134000000Y-61000000D03*
X136000000Y-61000000D03*
X128000000Y-82000000D03*
X130000000Y-82000000D03*
X132000000Y-82000000D03*
X134000000Y-82000000D03*
X136000000Y-82000000D03*
X52000000Y-59000000D03*
X52000000Y-63000000D03*
X52000000Y-80000000D03*
X52000000Y-84000000D03*
X92000000Y-80000000D03*
X92000000Y-84000000D03*
X92000000Y-59000000D03*
X92000000Y-63000000D03*
X132000000Y-59000000D03*
X132000000Y-63000000D03*
X132000000Y-80000000D03*
X132000000Y-84000000D03*
X130000000Y-59000000D03*
X134000000Y-59000000D03*
X134000000Y-63000000D03*
X130000000Y-63000000D03*
X130000000Y-80000000D03*
X134000000Y-80000000D03*
X134000000Y-84000000D03*
X130000000Y-84000000D03*
X90000000Y-80000000D03*
X90000000Y-84000000D03*
X94000000Y-80000000D03*
X94000000Y-84000000D03*
X94000000Y-59000000D03*
X90000000Y-59000000D03*
X90000000Y-63000000D03*
X94000000Y-63000000D03*
X54000000Y-59000000D03*
X50000000Y-59000000D03*
X50000000Y-63000000D03*
X54000000Y-63000000D03*
X50000000Y-80000000D03*
X54000000Y-80000000D03*
X54000000Y-84000000D03*
X50000000Y-84000000D03*
X60500000Y-48500000D03*
%TO.N,+5V*%
X65000000Y-83000000D03*
X56200000Y-69585000D03*
X96200000Y-69585000D03*
X136200000Y-69585000D03*
X105000000Y-83000000D03*
X145000000Y-83000000D03*
%TO.N,+12V*%
X143510000Y-39450000D03*
%TO.N,/D0*%
X37700000Y-92000000D03*
%TO.N,/D1*%
X37700000Y-86500000D03*
%TO.N,/D2*%
X47700000Y-92000000D03*
%TO.N,/D3*%
X47700000Y-83517500D03*
%TO.N,/D4*%
X47700000Y-80390000D03*
%TO.N,/D5*%
X47700000Y-74205000D03*
%TO.N,/D6*%
X37700000Y-76435000D03*
%TO.N,/D7*%
X37700000Y-74205000D03*
%TO.N,/D8*%
X37700000Y-68900000D03*
%TO.N,/D9*%
X37700000Y-66400000D03*
%TO.N,/D10*%
X47700000Y-69000000D03*
%TO.N,/D11*%
X47700000Y-65340978D03*
%TO.N,/D12*%
X47700000Y-56460000D03*
%TO.N,/D13*%
X47700000Y-51120000D03*
%TO.N,/D14*%
X37700000Y-56170000D03*
%TO.N,/D15*%
X37700000Y-51310000D03*
%TO.N,/D16*%
X77700000Y-92000000D03*
%TO.N,/D17*%
X77700000Y-86500000D03*
%TO.N,/D18*%
X87700000Y-92000000D03*
%TO.N,/D19*%
X87700000Y-83517500D03*
%TO.N,/D20*%
X87700000Y-80390000D03*
%TO.N,/D21*%
X87700000Y-74205000D03*
%TO.N,/D22*%
X77700000Y-76435000D03*
%TO.N,/D23*%
X77700000Y-74205000D03*
%TO.N,/D24*%
X77700000Y-68900000D03*
%TO.N,/D25*%
X77700000Y-66400000D03*
%TO.N,/D26*%
X87700000Y-69000000D03*
%TO.N,/D27*%
X87700000Y-65340978D03*
%TO.N,/D28*%
X87700000Y-56460000D03*
%TO.N,/D29*%
X87700000Y-51120000D03*
%TO.N,/D30*%
X77700000Y-56170000D03*
%TO.N,/D31*%
X77700000Y-51310000D03*
%TO.N,/D32*%
X117700000Y-92000000D03*
%TO.N,/D33*%
X117700000Y-86500000D03*
%TO.N,/D34*%
X127700000Y-92000000D03*
%TO.N,/D35*%
X127700000Y-83517500D03*
%TO.N,/D36*%
X127700000Y-80390000D03*
%TO.N,/D37*%
X127700000Y-74205000D03*
%TO.N,/D38*%
X117700000Y-76435000D03*
%TO.N,/D39*%
X117700000Y-74205000D03*
%TO.N,/D40*%
X117700000Y-68900000D03*
%TO.N,/D41*%
X117700000Y-66400000D03*
%TO.N,/D42*%
X127700000Y-69000000D03*
%TO.N,/D43*%
X127700000Y-65340978D03*
%TO.N,/D44*%
X127700000Y-56460000D03*
%TO.N,/D45*%
X127700000Y-51120000D03*
%TO.N,/D46*%
X117700000Y-56170000D03*
%TO.N,/D47*%
X117700000Y-51310000D03*
D17*
%TO.N,SDA*%
X57500000Y-35000000D03*
X74040000Y-35000000D03*
X67140000Y-35000000D03*
D16*
%TO.N,/A15*%
X68000000Y-78500000D03*
%TO.N,/A25*%
X108000000Y-78500000D03*
%TO.N,/A35*%
X148000000Y-78500000D03*
%TO.N,PWM1*%
X49000000Y-93000000D03*
X63625000Y-80000000D03*
%TO.N,PWM0*%
X49000000Y-95000000D03*
X63625000Y-81500000D03*
%TO.N,PWM3*%
X56200000Y-87375000D03*
X63625000Y-77000000D03*
%TO.N,PWM2*%
X56200000Y-89915000D03*
X63625000Y-78500000D03*
%TO.N,PWM11*%
X66225000Y-65500000D03*
X56200000Y-65775000D03*
%TO.N,PWM10*%
X66225000Y-67000000D03*
X56200000Y-68315000D03*
%TO.N,PWM13*%
X64275000Y-62500000D03*
X56200000Y-51815000D03*
%TO.N,PWM12*%
X64275000Y-64000000D03*
X56200000Y-54355000D03*
%TO.N,PWM15*%
X49000000Y-48500000D03*
X64275000Y-59500000D03*
%TO.N,PWM14*%
X49000000Y-50000000D03*
X64275000Y-61000000D03*
%TO.N,PWM17*%
X103625000Y-80000000D03*
X89000000Y-93000000D03*
%TO.N,PWM16*%
X103625000Y-81500000D03*
X89000000Y-95000000D03*
%TO.N,PWM19*%
X103625000Y-77000000D03*
X96200000Y-87375000D03*
%TO.N,PWM18*%
X103625000Y-78500000D03*
X96200000Y-89915000D03*
%TO.N,PWM27*%
X106225000Y-65500000D03*
X96200000Y-65775000D03*
%TO.N,PWM26*%
X106225000Y-67000000D03*
X96200000Y-68315000D03*
%TO.N,PWM29*%
X96200000Y-51815000D03*
X104275000Y-62500000D03*
%TO.N,PWM28*%
X96200000Y-54355000D03*
X104275000Y-64000000D03*
%TO.N,PWM31*%
X89000000Y-48500000D03*
X104275000Y-59500000D03*
%TO.N,PWM30*%
X104275000Y-61000000D03*
X89000000Y-50000000D03*
%TO.N,PWM33*%
X143625000Y-80000000D03*
X129000000Y-93000000D03*
%TO.N,PWM32*%
X129000000Y-95000000D03*
X143625000Y-81500000D03*
%TO.N,PWM35*%
X136200000Y-87375000D03*
X143625000Y-77000000D03*
%TO.N,PWM34*%
X143625000Y-78500000D03*
X136200000Y-89915000D03*
%TO.N,PWM43*%
X146225000Y-65500000D03*
X136200000Y-65775000D03*
%TO.N,PWM42*%
X146225000Y-67000000D03*
X136200000Y-68315000D03*
%TO.N,PWM45*%
X144275000Y-62500000D03*
X136200000Y-51815000D03*
%TO.N,PWM44*%
X144275000Y-64000000D03*
X136200000Y-54355000D03*
%TO.N,PWM47*%
X144275000Y-59500000D03*
X129000000Y-48500000D03*
%TO.N,PWM46*%
X129000000Y-50000000D03*
X144275000Y-61000000D03*
D17*
%TO.N,~OE*%
X62000000Y-34000000D03*
X62000000Y-54000000D03*
X142000000Y-56000000D03*
X62000000Y-56000000D03*
X142000000Y-54000000D03*
X102000000Y-56000000D03*
X102000000Y-47500000D03*
X102000000Y-54000000D03*
X80489998Y-35780000D03*
%TD*%
D18*
%TO.N,+5V*%
X145000000Y-77042998D02*
X145000000Y-83000000D01*
X144057001Y-76099999D02*
X145000000Y-77042998D01*
X137775000Y-70400000D02*
X137775000Y-70875000D01*
X65000000Y-77042998D02*
X65000000Y-83000000D01*
X64057001Y-76099999D02*
X65000000Y-77042998D01*
X103474999Y-76099999D02*
X104057001Y-76099999D01*
X104057001Y-76099999D02*
X105000000Y-77042998D01*
X105000000Y-77042998D02*
X105000000Y-83000000D01*
X57615000Y-71000000D02*
X56200000Y-69585000D01*
X57775000Y-71000000D02*
X57615000Y-71000000D01*
X64057001Y-76099999D02*
X62879999Y-76099999D01*
X62879999Y-76099999D02*
X57780000Y-71000000D01*
X103474999Y-76099999D02*
X102879999Y-76099999D01*
X102879999Y-76099999D02*
X97780000Y-71000000D01*
X97615000Y-71000000D02*
X96200000Y-69585000D01*
X97775000Y-71000000D02*
X97615000Y-71000000D01*
X137615000Y-71000000D02*
X136200000Y-69585000D01*
X137775000Y-71000000D02*
X137615000Y-71000000D01*
X144057001Y-76099999D02*
X142879999Y-76099999D01*
X142879999Y-76099999D02*
X137780000Y-71000000D01*
D19*
%TO.N,+12V*%
X31460000Y-90550000D02*
X31460000Y-52450000D01*
D20*
X36300000Y-52590000D02*
X36300000Y-90550000D01*
X46300000Y-52500000D02*
X46300000Y-90550000D01*
X86300000Y-52450000D02*
X86300000Y-73280002D01*
X86300000Y-73280002D02*
X86300000Y-90550000D01*
D19*
X71460000Y-52450000D02*
X71460000Y-90550000D01*
D20*
X116300000Y-52450000D02*
X116300000Y-90550000D01*
X126300000Y-52450000D02*
X126300000Y-90550000D01*
X126300000Y-52450000D02*
X126300000Y-49000000D01*
X116300000Y-52450000D02*
X116300000Y-49110000D01*
X116300000Y-49110000D02*
X116410000Y-49000000D01*
X126300000Y-49000000D02*
X116410000Y-49000000D01*
X116410000Y-49000000D02*
X111460000Y-49000000D01*
D19*
X111460000Y-52450000D02*
X111460000Y-42500000D01*
D20*
X111460000Y-49000000D02*
X111460000Y-52450000D01*
D19*
X111460000Y-52450000D02*
X111460000Y-90550000D01*
X31450000Y-52440000D02*
X31460000Y-52450000D01*
D20*
X76410000Y-49000000D02*
X71460000Y-49000000D01*
X86300000Y-49000000D02*
X76410000Y-49000000D01*
X76300000Y-52450000D02*
X76300000Y-49110000D01*
X86300000Y-52450000D02*
X86300000Y-49000000D01*
X36410000Y-49000000D02*
X31460000Y-49000000D01*
X46300000Y-49000000D02*
X36410000Y-49000000D01*
X36300000Y-52590000D02*
X36300000Y-49110000D01*
X46300000Y-52500000D02*
X46300000Y-49000000D01*
D21*
X145810000Y-51330000D02*
X146000000Y-51140000D01*
X146000000Y-51140000D02*
X146000000Y-51140000D01*
D22*
X138450000Y-42500000D02*
X111360000Y-42500000D01*
D23*
X157000000Y-56200000D02*
X152150000Y-56200000D01*
D22*
X152150000Y-56200000D02*
X138450000Y-42500000D01*
D19*
X71460000Y-52450000D02*
X71460000Y-42740000D01*
D22*
X111360000Y-42500000D02*
X71220000Y-42500000D01*
D20*
X76300000Y-52450000D02*
X76300000Y-90550000D01*
D22*
X71220000Y-42500000D02*
X34500000Y-42500000D01*
D19*
X31460000Y-45540000D02*
X34500000Y-42500000D01*
X31460000Y-52450000D02*
X31460000Y-45540000D01*
D24*
X159790000Y-45920000D02*
X153320000Y-39450000D01*
X157000000Y-56200000D02*
X159790000Y-53410000D01*
X153320000Y-39450000D02*
X143510000Y-39450000D01*
X159790000Y-53410000D02*
X159790000Y-45920000D01*
D21*
%TO.N,/D0*%
X37700000Y-90550000D02*
X37700000Y-92000000D01*
%TO.N,/D1*%
X37700000Y-88010000D02*
X37700000Y-86500000D01*
%TO.N,/D2*%
X47700000Y-90550000D02*
X47700000Y-92000000D01*
%TO.N,/D3*%
X47700000Y-88010000D02*
X47700000Y-83517500D01*
%TO.N,/D4*%
X47700000Y-75310000D02*
X47700000Y-80390000D01*
%TO.N,/D5*%
X47700000Y-72770000D02*
X47700000Y-74205000D01*
%TO.N,/D6*%
X37700000Y-75310000D02*
X37700000Y-76435000D01*
%TO.N,/D7*%
X37700000Y-72770000D02*
X37700000Y-74205000D01*
%TO.N,/D8*%
X37700000Y-70230000D02*
X37700000Y-68900000D01*
%TO.N,/D9*%
X37700000Y-67690000D02*
X37700000Y-66400000D01*
%TO.N,/D10*%
X47700000Y-70230000D02*
X47700000Y-69000000D01*
%TO.N,/D11*%
X47700000Y-67690000D02*
X47700000Y-65340978D01*
%TO.N,/D12*%
X47700000Y-54980000D02*
X47700000Y-56460000D01*
%TO.N,/D13*%
X47700000Y-52500000D02*
X47700000Y-51120000D01*
%TO.N,/D14*%
X37700000Y-54850000D02*
X37700000Y-56170000D01*
%TO.N,/D15*%
X37700000Y-52590000D02*
X37700000Y-51310000D01*
%TO.N,/D16*%
X77700000Y-90550000D02*
X77700000Y-92000000D01*
%TO.N,/D17*%
X77700000Y-88010000D02*
X77700000Y-86500000D01*
%TO.N,/D18*%
X87700000Y-90550000D02*
X87700000Y-92000000D01*
%TO.N,/D19*%
X87700000Y-88010000D02*
X87700000Y-83517500D01*
%TO.N,/D20*%
X87700000Y-75310000D02*
X87700000Y-80390000D01*
%TO.N,/D21*%
X87700000Y-72770000D02*
X87700000Y-74205000D01*
%TO.N,/D22*%
X77700000Y-75310000D02*
X77700000Y-76435000D01*
%TO.N,/D23*%
X77700000Y-72770000D02*
X77700000Y-74205000D01*
%TO.N,/D24*%
X77700000Y-70230000D02*
X77700000Y-68900000D01*
%TO.N,/D25*%
X77700000Y-67690000D02*
X77700000Y-66400000D01*
%TO.N,/D26*%
X87700000Y-70230000D02*
X87700000Y-69000000D01*
%TO.N,/D27*%
X87700000Y-67690000D02*
X87700000Y-65340978D01*
%TO.N,/D28*%
X87700000Y-54990000D02*
X87700000Y-56460000D01*
%TO.N,/D29*%
X87700000Y-52450000D02*
X87700000Y-51120000D01*
%TO.N,/D30*%
X77700000Y-54990000D02*
X77700000Y-56170000D01*
%TO.N,/D31*%
X77700000Y-52450000D02*
X77700000Y-51310000D01*
%TO.N,/D32*%
X117700000Y-90550000D02*
X117700000Y-92000000D01*
%TO.N,/D33*%
X117700000Y-88010000D02*
X117700000Y-86500000D01*
%TO.N,/D34*%
X127700000Y-90550000D02*
X127700000Y-92000000D01*
%TO.N,/D35*%
X127700000Y-88010000D02*
X127700000Y-83517500D01*
%TO.N,/D36*%
X127700000Y-75310000D02*
X127700000Y-80390000D01*
%TO.N,/D37*%
X127700000Y-72770000D02*
X127700000Y-74205000D01*
%TO.N,/D38*%
X117700000Y-75310000D02*
X117700000Y-76435000D01*
%TO.N,/D39*%
X117700000Y-72770000D02*
X117700000Y-74205000D01*
%TO.N,/D40*%
X117700000Y-70230000D02*
X117700000Y-68900000D01*
%TO.N,/D41*%
X117700000Y-67690000D02*
X117700000Y-66400000D01*
%TO.N,/D42*%
X127700000Y-70230000D02*
X127700000Y-69000000D01*
%TO.N,/D43*%
X127700000Y-67690000D02*
X127700000Y-65340978D01*
%TO.N,/D44*%
X127700000Y-54990000D02*
X127700000Y-56460000D01*
%TO.N,/D45*%
X127700000Y-52450000D02*
X127700000Y-51120000D01*
%TO.N,/D46*%
X117700000Y-54990000D02*
X117700000Y-56170000D01*
%TO.N,/D47*%
X117700000Y-52450000D02*
X117700000Y-51310000D01*
D24*
%TO.N,SDA*%
X74040000Y-35000000D02*
X67140000Y-35000000D01*
X57500000Y-35000000D02*
X67140000Y-35000000D01*
X57500000Y-35000000D02*
X57500000Y-30010000D01*
X57500000Y-30010000D02*
X57890000Y-29620000D01*
%TO.N,PWM1*%
X49000000Y-93000000D02*
X54625000Y-93000000D01*
X57550009Y-90074991D02*
X54625000Y-93000000D01*
X57550009Y-86074991D02*
X57550009Y-90074991D01*
X63625000Y-80000000D02*
X57550009Y-86074991D01*
%TO.N,PWM0*%
X58100000Y-91525000D02*
X54625000Y-95000000D01*
X54625000Y-95000000D02*
X49000000Y-95000000D01*
X58100000Y-87025000D02*
X58100000Y-91525000D01*
X63625000Y-81500000D02*
X58100000Y-87025000D01*
%TO.N,PWM3*%
X56200000Y-84425000D02*
X63625000Y-77000000D01*
X56200000Y-87375000D02*
X56200000Y-84425000D01*
%TO.N,PWM2*%
X57050001Y-89064999D02*
X56200000Y-89915000D01*
X57050001Y-85074999D02*
X57050001Y-89064999D01*
X63625000Y-78500000D02*
X57050001Y-85074999D01*
%TO.N,PWM11*%
X56475000Y-65500000D02*
X56200000Y-65775000D01*
X66225000Y-65500000D02*
X56475000Y-65500000D01*
%TO.N,PWM10*%
X57515000Y-67000000D02*
X56200000Y-68315000D01*
X66225000Y-67000000D02*
X57515000Y-67000000D01*
%TO.N,PWM13*%
X58690000Y-56915000D02*
X64275000Y-62500000D01*
X58690000Y-54300000D02*
X58690000Y-56915000D01*
X56200000Y-51815000D02*
X56205000Y-51815000D01*
X56205000Y-51815000D02*
X58690000Y-54300000D01*
%TO.N,PWM12*%
X56200000Y-55925000D02*
X64275000Y-64000000D01*
X56200000Y-54355000D02*
X56200000Y-55925000D01*
%TO.N,PWM15*%
X64275000Y-59500000D02*
X64275000Y-54755000D01*
X58020000Y-48500000D02*
X49000000Y-48500000D01*
X64275000Y-54755000D02*
X58020000Y-48500000D01*
%TO.N,PWM14*%
X59700000Y-56880000D02*
X59700000Y-53880000D01*
X64275000Y-61000000D02*
X63820000Y-61000000D01*
X55820000Y-50000000D02*
X49000000Y-50000000D01*
X59700000Y-53880000D02*
X55820000Y-50000000D01*
X63820000Y-61000000D02*
X59700000Y-56880000D01*
%TO.N,PWM17*%
X97730000Y-85895000D02*
X103625000Y-80000000D01*
X97730000Y-90270000D02*
X97730000Y-85895000D01*
X89000000Y-93000000D02*
X95000000Y-93000000D01*
X95000000Y-93000000D02*
X97730000Y-90270000D01*
%TO.N,PWM16*%
X98330000Y-91300000D02*
X98330000Y-86795000D01*
X98330000Y-86795000D02*
X103625000Y-81500000D01*
X89000000Y-95000000D02*
X94630000Y-95000000D01*
X94630000Y-95000000D02*
X98330000Y-91300000D01*
%TO.N,PWM19*%
X96200000Y-84425000D02*
X96200000Y-87375000D01*
X103625000Y-77000000D02*
X96200000Y-84425000D01*
%TO.N,PWM18*%
X97190000Y-84935000D02*
X103625000Y-78500000D01*
X96200000Y-89915000D02*
X97190000Y-88925000D01*
X97190000Y-88925000D02*
X97190000Y-84935000D01*
%TO.N,PWM27*%
X96475000Y-65500000D02*
X96200000Y-65775000D01*
X106225000Y-65500000D02*
X96475000Y-65500000D01*
%TO.N,PWM26*%
X97515000Y-67000000D02*
X96200000Y-68315000D01*
X106225000Y-67000000D02*
X97515000Y-67000000D01*
%TO.N,PWM29*%
X98460000Y-54070000D02*
X98460000Y-56685000D01*
X96200000Y-51815000D02*
X96205000Y-51815000D01*
X98460000Y-56685000D02*
X104275000Y-62500000D01*
X96205000Y-51815000D02*
X98460000Y-54070000D01*
%TO.N,PWM28*%
X96200000Y-55925000D02*
X96200000Y-54355000D01*
X104275000Y-64000000D02*
X96200000Y-55925000D01*
%TO.N,PWM31*%
X104275000Y-59500000D02*
X104275000Y-54655000D01*
X98120000Y-48500000D02*
X89000000Y-48500000D01*
X104275000Y-54655000D02*
X98120000Y-48500000D01*
%TO.N,PWM30*%
X104275000Y-60758002D02*
X99690010Y-56173012D01*
X104275000Y-61000000D02*
X104275000Y-60758002D01*
X95643002Y-50000000D02*
X89000000Y-50000000D01*
X99690010Y-54047008D02*
X95643002Y-50000000D01*
X99690010Y-56173012D02*
X99690010Y-54047008D01*
%TO.N,PWM33*%
X137760000Y-85865000D02*
X143625000Y-80000000D01*
X137760000Y-90170000D02*
X137760000Y-85865000D01*
X129000000Y-93000000D02*
X134930000Y-93000000D01*
X134930000Y-93000000D02*
X137760000Y-90170000D01*
%TO.N,PWM32*%
X138260000Y-91040000D02*
X138260000Y-86865000D01*
X138260000Y-86865000D02*
X143625000Y-81500000D01*
X129000000Y-95000000D02*
X134300000Y-95000000D01*
X134300000Y-95000000D02*
X138260000Y-91040000D01*
%TO.N,PWM35*%
X136200000Y-84425000D02*
X136200000Y-87375000D01*
X143625000Y-77000000D02*
X136200000Y-84425000D01*
%TO.N,PWM34*%
X137230000Y-84895000D02*
X143625000Y-78500000D01*
X136200000Y-89915000D02*
X137230000Y-88885000D01*
X137230000Y-88885000D02*
X137230000Y-84895000D01*
%TO.N,PWM43*%
X136475000Y-65500000D02*
X136200000Y-65775000D01*
X146225000Y-65500000D02*
X136475000Y-65500000D01*
%TO.N,PWM42*%
X137515000Y-67000000D02*
X136200000Y-68315000D01*
X146225000Y-67000000D02*
X137515000Y-67000000D01*
%TO.N,PWM45*%
X139220000Y-54835000D02*
X136200000Y-51815000D01*
X144275000Y-62500000D02*
X139220000Y-57445000D01*
X139220000Y-57445000D02*
X139220000Y-54835000D01*
%TO.N,PWM44*%
X136200000Y-55925000D02*
X136200000Y-54355000D01*
X144275000Y-64000000D02*
X136200000Y-55925000D01*
%TO.N,PWM47*%
X144275000Y-59500000D02*
X144275000Y-54825000D01*
X137950000Y-48500000D02*
X129000000Y-48500000D01*
X144275000Y-54825000D02*
X137950000Y-48500000D01*
%TO.N,PWM46*%
X144275000Y-60758002D02*
X140510010Y-56993012D01*
X140510010Y-56993012D02*
X140510010Y-54867008D01*
X144275000Y-61000000D02*
X144275000Y-60758002D01*
X135643002Y-50000000D02*
X129000000Y-50000000D01*
X140510010Y-54867008D02*
X135643002Y-50000000D01*
%TO.N,~OE*%
X142000000Y-56000000D02*
X142000000Y-54000000D01*
X62000000Y-56000000D02*
X62000000Y-54000000D01*
X102000000Y-56000000D02*
X102000000Y-54000000D01*
X62000000Y-34000000D02*
X78710000Y-34000000D01*
X78700000Y-34000000D02*
X78710000Y-34000000D01*
X78710000Y-34000000D02*
X78710000Y-32660000D01*
X78710000Y-32660000D02*
X73130000Y-27080000D01*
X78710000Y-34000000D02*
X80089999Y-35380001D01*
X80089999Y-35380001D02*
X80489998Y-35780000D01*
X78000000Y-47500000D02*
X102000000Y-47500000D01*
%TD*%
M02*
