%TF.GenerationSoftware,KiCad,Pcbnew,(5.1.6)-1*%
%TF.CreationDate,2020-07-03T16:53:40+09:00*%
%TF.ProjectId,PWM-PCA9685,50574d2d-5043-4413-9936-38352e6b6963,rev?*%
%TF.SameCoordinates,Original*%
%TF.FileFunction,Copper,L1,Top*%
%TF.FilePolarity,Positive*%
%FSLAX46Y46*%
G04 Gerber Fmt 4.6, Leading zero omitted, Abs format (unit mm)*
G04 Created by KiCad (PCBNEW (5.1.6)-1) date 2020-07-03 16:53:40*
%MOMM*%
%LPD*%
G01*
G04 APERTURE LIST*
%TA.AperFunction,ComponentPad*%
%ADD10C,1.600000*%
%TD*%
%TA.AperFunction,ComponentPad*%
%ADD11R,1.600000X1.600000*%
%TD*%
%TA.AperFunction,ComponentPad*%
%ADD12O,1.700000X1.700000*%
%TD*%
%TA.AperFunction,ComponentPad*%
%ADD13R,1.700000X1.700000*%
%TD*%
%TA.AperFunction,SMDPad,CuDef*%
%ADD14R,1.000000X1.500000*%
%TD*%
%TA.AperFunction,SMDPad,CuDef*%
%ADD15R,0.510000X0.585000*%
%TD*%
%TA.AperFunction,SMDPad,CuDef*%
%ADD16R,0.410000X0.470000*%
%TD*%
%TA.AperFunction,SMDPad,CuDef*%
%ADD17R,3.990000X1.730000*%
%TD*%
%TA.AperFunction,SMDPad,CuDef*%
%ADD18R,0.720000X0.410000*%
%TD*%
%TA.AperFunction,ComponentPad*%
%ADD19O,3.300000X2.700000*%
%TD*%
%TA.AperFunction,ViaPad*%
%ADD20C,1.000000*%
%TD*%
%TA.AperFunction,ViaPad*%
%ADD21C,0.800000*%
%TD*%
%TA.AperFunction,Conductor*%
%ADD22C,0.300000*%
%TD*%
%TA.AperFunction,Conductor*%
%ADD23C,0.400000*%
%TD*%
%TA.AperFunction,Conductor*%
%ADD24C,0.500000*%
%TD*%
%TA.AperFunction,Conductor*%
%ADD25C,1.000000*%
%TD*%
G04 APERTURE END LIST*
%TO.P,R22,2*%
%TO.N,+5V*%
%TA.AperFunction,SMDPad,CuDef*%
G36*
G01*
X149743750Y-47350000D02*
X150256250Y-47350000D01*
G75*
G02*
X150475000Y-47568750I0J-218750D01*
G01*
X150475000Y-48006250D01*
G75*
G02*
X150256250Y-48225000I-218750J0D01*
G01*
X149743750Y-48225000D01*
G75*
G02*
X149525000Y-48006250I0J218750D01*
G01*
X149525000Y-47568750D01*
G75*
G02*
X149743750Y-47350000I218750J0D01*
G01*
G37*
%TD.AperFunction*%
%TO.P,R22,1*%
%TO.N,Net-(D50-Pad2)*%
%TA.AperFunction,SMDPad,CuDef*%
G36*
G01*
X149743750Y-45775000D02*
X150256250Y-45775000D01*
G75*
G02*
X150475000Y-45993750I0J-218750D01*
G01*
X150475000Y-46431250D01*
G75*
G02*
X150256250Y-46650000I-218750J0D01*
G01*
X149743750Y-46650000D01*
G75*
G02*
X149525000Y-46431250I0J218750D01*
G01*
X149525000Y-45993750D01*
G75*
G02*
X149743750Y-45775000I218750J0D01*
G01*
G37*
%TD.AperFunction*%
%TD*%
%TO.P,R21,2*%
%TO.N,+12V*%
%TA.AperFunction,SMDPad,CuDef*%
G36*
G01*
X145743750Y-47350000D02*
X146256250Y-47350000D01*
G75*
G02*
X146475000Y-47568750I0J-218750D01*
G01*
X146475000Y-48006250D01*
G75*
G02*
X146256250Y-48225000I-218750J0D01*
G01*
X145743750Y-48225000D01*
G75*
G02*
X145525000Y-48006250I0J218750D01*
G01*
X145525000Y-47568750D01*
G75*
G02*
X145743750Y-47350000I218750J0D01*
G01*
G37*
%TD.AperFunction*%
%TO.P,R21,1*%
%TO.N,Net-(D49-Pad2)*%
%TA.AperFunction,SMDPad,CuDef*%
G36*
G01*
X145743750Y-45775000D02*
X146256250Y-45775000D01*
G75*
G02*
X146475000Y-45993750I0J-218750D01*
G01*
X146475000Y-46431250D01*
G75*
G02*
X146256250Y-46650000I-218750J0D01*
G01*
X145743750Y-46650000D01*
G75*
G02*
X145525000Y-46431250I0J218750D01*
G01*
X145525000Y-45993750D01*
G75*
G02*
X145743750Y-45775000I218750J0D01*
G01*
G37*
%TD.AperFunction*%
%TD*%
%TO.P,D50,2*%
%TO.N,Net-(D50-Pad2)*%
%TA.AperFunction,SMDPad,CuDef*%
G36*
G01*
X149743750Y-43350000D02*
X150256250Y-43350000D01*
G75*
G02*
X150475000Y-43568750I0J-218750D01*
G01*
X150475000Y-44006250D01*
G75*
G02*
X150256250Y-44225000I-218750J0D01*
G01*
X149743750Y-44225000D01*
G75*
G02*
X149525000Y-44006250I0J218750D01*
G01*
X149525000Y-43568750D01*
G75*
G02*
X149743750Y-43350000I218750J0D01*
G01*
G37*
%TD.AperFunction*%
%TO.P,D50,1*%
%TO.N,GND*%
%TA.AperFunction,SMDPad,CuDef*%
G36*
G01*
X149743750Y-41775000D02*
X150256250Y-41775000D01*
G75*
G02*
X150475000Y-41993750I0J-218750D01*
G01*
X150475000Y-42431250D01*
G75*
G02*
X150256250Y-42650000I-218750J0D01*
G01*
X149743750Y-42650000D01*
G75*
G02*
X149525000Y-42431250I0J218750D01*
G01*
X149525000Y-41993750D01*
G75*
G02*
X149743750Y-41775000I218750J0D01*
G01*
G37*
%TD.AperFunction*%
%TD*%
%TO.P,D49,2*%
%TO.N,Net-(D49-Pad2)*%
%TA.AperFunction,SMDPad,CuDef*%
G36*
G01*
X145743750Y-43350000D02*
X146256250Y-43350000D01*
G75*
G02*
X146475000Y-43568750I0J-218750D01*
G01*
X146475000Y-44006250D01*
G75*
G02*
X146256250Y-44225000I-218750J0D01*
G01*
X145743750Y-44225000D01*
G75*
G02*
X145525000Y-44006250I0J218750D01*
G01*
X145525000Y-43568750D01*
G75*
G02*
X145743750Y-43350000I218750J0D01*
G01*
G37*
%TD.AperFunction*%
%TO.P,D49,1*%
%TO.N,GND*%
%TA.AperFunction,SMDPad,CuDef*%
G36*
G01*
X145743750Y-41775000D02*
X146256250Y-41775000D01*
G75*
G02*
X146475000Y-41993750I0J-218750D01*
G01*
X146475000Y-42431250D01*
G75*
G02*
X146256250Y-42650000I-218750J0D01*
G01*
X145743750Y-42650000D01*
G75*
G02*
X145525000Y-42431250I0J218750D01*
G01*
X145525000Y-41993750D01*
G75*
G02*
X145743750Y-41775000I218750J0D01*
G01*
G37*
%TD.AperFunction*%
%TD*%
D10*
%TO.P,C4,2*%
%TO.N,GND*%
X46000000Y-37000000D03*
D11*
%TO.P,C4,1*%
%TO.N,+12V*%
X46000000Y-39500000D03*
%TD*%
D10*
%TO.P,C3,2*%
%TO.N,GND*%
X36000000Y-37000000D03*
D11*
%TO.P,C3,1*%
%TO.N,+12V*%
X36000000Y-39500000D03*
%TD*%
D10*
%TO.P,C2,2*%
%TO.N,GND*%
X125000000Y-97500000D03*
D11*
%TO.P,C2,1*%
%TO.N,+5V*%
X125000000Y-100000000D03*
%TD*%
D10*
%TO.P,C1,2*%
%TO.N,GND*%
X115000000Y-97500000D03*
D11*
%TO.P,C1,1*%
%TO.N,+5V*%
X115000000Y-100000000D03*
%TD*%
D12*
%TO.P,J4,39*%
%TO.N,GND*%
X73130000Y-29620000D03*
%TO.P,J4,40*%
%TO.N,~OE*%
X73130000Y-27080000D03*
%TO.P,J4,37*%
%TO.N,Net-(J4-Pad37)*%
X70590000Y-29620000D03*
%TO.P,J4,38*%
%TO.N,Net-(J4-Pad38)*%
X70590000Y-27080000D03*
%TO.P,J4,35*%
%TO.N,Net-(J4-Pad35)*%
X68050000Y-29620000D03*
%TO.P,J4,36*%
%TO.N,Net-(J4-Pad36)*%
X68050000Y-27080000D03*
%TO.P,J4,33*%
%TO.N,Net-(J4-Pad33)*%
X65510000Y-29620000D03*
%TO.P,J4,34*%
%TO.N,GND*%
X65510000Y-27080000D03*
%TO.P,J4,31*%
%TO.N,Net-(J4-Pad31)*%
X62970000Y-29620000D03*
%TO.P,J4,32*%
%TO.N,Net-(J4-Pad32)*%
X62970000Y-27080000D03*
%TO.P,J4,29*%
%TO.N,Net-(J4-Pad29)*%
X60430000Y-29620000D03*
%TO.P,J4,30*%
%TO.N,GND*%
X60430000Y-27080000D03*
%TO.P,J4,27*%
%TO.N,SDA*%
X57890000Y-29620000D03*
%TO.P,J4,28*%
%TO.N,SCL*%
X57890000Y-27080000D03*
%TO.P,J4,25*%
%TO.N,GND*%
X55350000Y-29620000D03*
%TO.P,J4,26*%
%TO.N,Net-(J4-Pad26)*%
X55350000Y-27080000D03*
%TO.P,J4,23*%
%TO.N,Net-(J4-Pad23)*%
X52810000Y-29620000D03*
%TO.P,J4,24*%
%TO.N,Net-(J4-Pad24)*%
X52810000Y-27080000D03*
%TO.P,J4,21*%
%TO.N,Net-(J4-Pad21)*%
X50270000Y-29620000D03*
%TO.P,J4,22*%
%TO.N,Net-(J4-Pad22)*%
X50270000Y-27080000D03*
%TO.P,J4,19*%
%TO.N,Net-(J4-Pad19)*%
X47730000Y-29620000D03*
%TO.P,J4,20*%
%TO.N,GND*%
X47730000Y-27080000D03*
%TO.P,J4,17*%
%TO.N,Net-(J4-Pad17)*%
X45190000Y-29620000D03*
%TO.P,J4,18*%
%TO.N,Net-(J4-Pad18)*%
X45190000Y-27080000D03*
%TO.P,J4,15*%
%TO.N,Net-(J4-Pad15)*%
X42650000Y-29620000D03*
%TO.P,J4,16*%
%TO.N,Net-(J4-Pad16)*%
X42650000Y-27080000D03*
%TO.P,J4,13*%
%TO.N,Net-(J4-Pad13)*%
X40110000Y-29620000D03*
%TO.P,J4,14*%
%TO.N,GND*%
X40110000Y-27080000D03*
%TO.P,J4,11*%
%TO.N,Net-(J4-Pad11)*%
X37570000Y-29620000D03*
%TO.P,J4,12*%
%TO.N,Net-(J4-Pad12)*%
X37570000Y-27080000D03*
%TO.P,J4,9*%
%TO.N,GND*%
X35030000Y-29620000D03*
%TO.P,J4,10*%
%TO.N,Net-(J4-Pad10)*%
X35030000Y-27080000D03*
%TO.P,J4,7*%
%TO.N,Net-(J4-Pad7)*%
X32490000Y-29620000D03*
%TO.P,J4,8*%
%TO.N,Net-(J4-Pad8)*%
X32490000Y-27080000D03*
%TO.P,J4,5*%
%TO.N,Net-(J4-Pad5)*%
X29950000Y-29620000D03*
%TO.P,J4,6*%
%TO.N,GND*%
X29950000Y-27080000D03*
%TO.P,J4,3*%
%TO.N,Net-(J4-Pad3)*%
X27410000Y-29620000D03*
%TO.P,J4,4*%
%TO.N,Net-(J4-Pad4)*%
X27410000Y-27080000D03*
%TO.P,J4,1*%
%TO.N,Net-(J4-Pad1)*%
X24870000Y-29620000D03*
D13*
%TO.P,J4,2*%
%TO.N,Net-(J4-Pad2)*%
X24870000Y-27080000D03*
%TD*%
D12*
%TO.P,J1,17*%
%TO.N,+12V*%
X31460000Y-90550000D03*
%TO.P,J1,1*%
%TO.N,/D0*%
X34000000Y-90550000D03*
%TO.P,J1,18*%
%TO.N,+12V*%
X31460000Y-88010000D03*
%TO.P,J1,2*%
%TO.N,/D1*%
X34000000Y-88010000D03*
%TO.P,J1,19*%
%TO.N,+12V*%
X31460000Y-85470000D03*
%TO.P,J1,3*%
%TO.N,/D2*%
X34000000Y-85470000D03*
%TO.P,J1,20*%
%TO.N,+12V*%
X31460000Y-82930000D03*
%TO.P,J1,4*%
%TO.N,/D3*%
X34000000Y-82930000D03*
%TO.P,J1,21*%
%TO.N,+12V*%
X31460000Y-80390000D03*
%TO.P,J1,5*%
%TO.N,/D4*%
X34000000Y-80390000D03*
%TO.P,J1,22*%
%TO.N,+12V*%
X31460000Y-77850000D03*
%TO.P,J1,6*%
%TO.N,/D5*%
X34000000Y-77850000D03*
%TO.P,J1,23*%
%TO.N,+12V*%
X31460000Y-75310000D03*
%TO.P,J1,7*%
%TO.N,/D6*%
X34000000Y-75310000D03*
%TO.P,J1,24*%
%TO.N,+12V*%
X31460000Y-72770000D03*
%TO.P,J1,8*%
%TO.N,/D7*%
X34000000Y-72770000D03*
%TO.P,J1,25*%
%TO.N,+12V*%
X31460000Y-70230000D03*
%TO.P,J1,9*%
%TO.N,/D8*%
X34000000Y-70230000D03*
%TO.P,J1,26*%
%TO.N,+12V*%
X31460000Y-67690000D03*
%TO.P,J1,10*%
%TO.N,/D9*%
X34000000Y-67690000D03*
%TO.P,J1,27*%
%TO.N,+12V*%
X31460000Y-65150000D03*
%TO.P,J1,11*%
%TO.N,/D10*%
X34000000Y-65150000D03*
%TO.P,J1,28*%
%TO.N,+12V*%
X31460000Y-62610000D03*
%TO.P,J1,12*%
%TO.N,/D11*%
X34000000Y-62610000D03*
%TO.P,J1,29*%
%TO.N,+12V*%
X31460000Y-60070000D03*
%TO.P,J1,13*%
%TO.N,/D12*%
X34000000Y-60070000D03*
%TO.P,J1,30*%
%TO.N,+12V*%
X31460000Y-57530000D03*
%TO.P,J1,14*%
%TO.N,/D13*%
X34000000Y-57530000D03*
%TO.P,J1,31*%
%TO.N,+12V*%
X31460000Y-54990000D03*
%TO.P,J1,15*%
%TO.N,/D14*%
X34000000Y-54990000D03*
%TO.P,J1,32*%
%TO.N,+12V*%
X31460000Y-52450000D03*
D13*
%TO.P,J1,16*%
%TO.N,/D15*%
X34000000Y-52450000D03*
%TD*%
D12*
%TO.P,J2,17*%
%TO.N,+12V*%
X71460000Y-90550000D03*
%TO.P,J2,1*%
%TO.N,/D16*%
X74000000Y-90550000D03*
%TO.P,J2,18*%
%TO.N,+12V*%
X71460000Y-88010000D03*
%TO.P,J2,2*%
%TO.N,/D17*%
X74000000Y-88010000D03*
%TO.P,J2,19*%
%TO.N,+12V*%
X71460000Y-85470000D03*
%TO.P,J2,3*%
%TO.N,/D18*%
X74000000Y-85470000D03*
%TO.P,J2,20*%
%TO.N,+12V*%
X71460000Y-82930000D03*
%TO.P,J2,4*%
%TO.N,/D19*%
X74000000Y-82930000D03*
%TO.P,J2,21*%
%TO.N,+12V*%
X71460000Y-80390000D03*
%TO.P,J2,5*%
%TO.N,/D20*%
X74000000Y-80390000D03*
%TO.P,J2,22*%
%TO.N,+12V*%
X71460000Y-77850000D03*
%TO.P,J2,6*%
%TO.N,/D21*%
X74000000Y-77850000D03*
%TO.P,J2,23*%
%TO.N,+12V*%
X71460000Y-75310000D03*
%TO.P,J2,7*%
%TO.N,/D22*%
X74000000Y-75310000D03*
%TO.P,J2,24*%
%TO.N,+12V*%
X71460000Y-72770000D03*
%TO.P,J2,8*%
%TO.N,/D23*%
X74000000Y-72770000D03*
%TO.P,J2,25*%
%TO.N,+12V*%
X71460000Y-70230000D03*
%TO.P,J2,9*%
%TO.N,/D24*%
X74000000Y-70230000D03*
%TO.P,J2,26*%
%TO.N,+12V*%
X71460000Y-67690000D03*
%TO.P,J2,10*%
%TO.N,/D25*%
X74000000Y-67690000D03*
%TO.P,J2,27*%
%TO.N,+12V*%
X71460000Y-65150000D03*
%TO.P,J2,11*%
%TO.N,/D26*%
X74000000Y-65150000D03*
%TO.P,J2,28*%
%TO.N,+12V*%
X71460000Y-62610000D03*
%TO.P,J2,12*%
%TO.N,/D27*%
X74000000Y-62610000D03*
%TO.P,J2,29*%
%TO.N,+12V*%
X71460000Y-60070000D03*
%TO.P,J2,13*%
%TO.N,/D28*%
X74000000Y-60070000D03*
%TO.P,J2,30*%
%TO.N,+12V*%
X71460000Y-57530000D03*
%TO.P,J2,14*%
%TO.N,/D29*%
X74000000Y-57530000D03*
%TO.P,J2,31*%
%TO.N,+12V*%
X71460000Y-54990000D03*
%TO.P,J2,15*%
%TO.N,/D30*%
X74000000Y-54990000D03*
%TO.P,J2,32*%
%TO.N,+12V*%
X71460000Y-52450000D03*
D13*
%TO.P,J2,16*%
%TO.N,/D31*%
X74000000Y-52450000D03*
%TD*%
D12*
%TO.P,J3,17*%
%TO.N,+12V*%
X111460000Y-90550000D03*
%TO.P,J3,1*%
%TO.N,/D32*%
X114000000Y-90550000D03*
%TO.P,J3,18*%
%TO.N,+12V*%
X111460000Y-88010000D03*
%TO.P,J3,2*%
%TO.N,/D33*%
X114000000Y-88010000D03*
%TO.P,J3,19*%
%TO.N,+12V*%
X111460000Y-85470000D03*
%TO.P,J3,3*%
%TO.N,/D34*%
X114000000Y-85470000D03*
%TO.P,J3,20*%
%TO.N,+12V*%
X111460000Y-82930000D03*
%TO.P,J3,4*%
%TO.N,/D35*%
X114000000Y-82930000D03*
%TO.P,J3,21*%
%TO.N,+12V*%
X111460000Y-80390000D03*
%TO.P,J3,5*%
%TO.N,/D36*%
X114000000Y-80390000D03*
%TO.P,J3,22*%
%TO.N,+12V*%
X111460000Y-77850000D03*
%TO.P,J3,6*%
%TO.N,/D37*%
X114000000Y-77850000D03*
%TO.P,J3,23*%
%TO.N,+12V*%
X111460000Y-75310000D03*
%TO.P,J3,7*%
%TO.N,/D38*%
X114000000Y-75310000D03*
%TO.P,J3,24*%
%TO.N,+12V*%
X111460000Y-72770000D03*
%TO.P,J3,8*%
%TO.N,/D39*%
X114000000Y-72770000D03*
%TO.P,J3,25*%
%TO.N,+12V*%
X111460000Y-70230000D03*
%TO.P,J3,9*%
%TO.N,/D40*%
X114000000Y-70230000D03*
%TO.P,J3,26*%
%TO.N,+12V*%
X111460000Y-67690000D03*
%TO.P,J3,10*%
%TO.N,/D41*%
X114000000Y-67690000D03*
%TO.P,J3,27*%
%TO.N,+12V*%
X111460000Y-65150000D03*
%TO.P,J3,11*%
%TO.N,/D42*%
X114000000Y-65150000D03*
%TO.P,J3,28*%
%TO.N,+12V*%
X111460000Y-62610000D03*
%TO.P,J3,12*%
%TO.N,/D43*%
X114000000Y-62610000D03*
%TO.P,J3,29*%
%TO.N,+12V*%
X111460000Y-60070000D03*
%TO.P,J3,13*%
%TO.N,/D44*%
X114000000Y-60070000D03*
%TO.P,J3,30*%
%TO.N,+12V*%
X111460000Y-57530000D03*
%TO.P,J3,14*%
%TO.N,/D45*%
X114000000Y-57530000D03*
%TO.P,J3,31*%
%TO.N,+12V*%
X111460000Y-54990000D03*
%TO.P,J3,15*%
%TO.N,/D46*%
X114000000Y-54990000D03*
%TO.P,J3,32*%
%TO.N,+12V*%
X111460000Y-52450000D03*
D13*
%TO.P,J3,16*%
%TO.N,/D47*%
X114000000Y-52450000D03*
%TD*%
D14*
%TO.P,JP18,1*%
%TO.N,+5V*%
X148100000Y-84800000D03*
%TO.P,JP18,2*%
%TO.N,/A35*%
X146800000Y-84800000D03*
%TD*%
%TO.P,JP17,1*%
%TO.N,+5V*%
X148100000Y-87300000D03*
%TO.P,JP17,2*%
%TO.N,/A34*%
X146800000Y-87300000D03*
%TD*%
%TO.P,JP16,1*%
%TO.N,+5V*%
X148100000Y-89800000D03*
%TO.P,JP16,2*%
%TO.N,/A33*%
X146800000Y-89800000D03*
%TD*%
%TO.P,JP15,1*%
%TO.N,+5V*%
X148100000Y-92300000D03*
%TO.P,JP15,2*%
%TO.N,/A32*%
X146800000Y-92300000D03*
%TD*%
%TO.P,JP14,1*%
%TO.N,+5V*%
X148100000Y-94800000D03*
%TO.P,JP14,2*%
%TO.N,/A31*%
X146800000Y-94800000D03*
%TD*%
%TO.P,JP13,1*%
%TO.N,+5V*%
X148100000Y-97300000D03*
%TO.P,JP13,2*%
%TO.N,/A30*%
X146800000Y-97300000D03*
%TD*%
%TO.P,JP12,1*%
%TO.N,+5V*%
X108100000Y-84800000D03*
%TO.P,JP12,2*%
%TO.N,/A25*%
X106800000Y-84800000D03*
%TD*%
%TO.P,JP11,1*%
%TO.N,+5V*%
X108100000Y-87300000D03*
%TO.P,JP11,2*%
%TO.N,/A24*%
X106800000Y-87300000D03*
%TD*%
%TO.P,JP10,1*%
%TO.N,+5V*%
X108100000Y-89800000D03*
%TO.P,JP10,2*%
%TO.N,/A23*%
X106800000Y-89800000D03*
%TD*%
%TO.P,JP9,1*%
%TO.N,+5V*%
X108100000Y-92300000D03*
%TO.P,JP9,2*%
%TO.N,/A22*%
X106800000Y-92300000D03*
%TD*%
%TO.P,JP8,1*%
%TO.N,+5V*%
X108100000Y-94800000D03*
%TO.P,JP8,2*%
%TO.N,/A21*%
X106800000Y-94800000D03*
%TD*%
%TO.P,JP7,1*%
%TO.N,+5V*%
X108100000Y-97300000D03*
%TO.P,JP7,2*%
%TO.N,/A20*%
X106800000Y-97300000D03*
%TD*%
%TO.P,JP6,1*%
%TO.N,+5V*%
X68100000Y-84800000D03*
%TO.P,JP6,2*%
%TO.N,/A15*%
X66800000Y-84800000D03*
%TD*%
%TO.P,JP5,1*%
%TO.N,+5V*%
X68100000Y-87300000D03*
%TO.P,JP5,2*%
%TO.N,/A14*%
X66800000Y-87300000D03*
%TD*%
%TO.P,JP4,1*%
%TO.N,+5V*%
X68100000Y-89800000D03*
%TO.P,JP4,2*%
%TO.N,/A13*%
X66800000Y-89800000D03*
%TD*%
%TO.P,JP3,1*%
%TO.N,+5V*%
X68100000Y-92300000D03*
%TO.P,JP3,2*%
%TO.N,/A12*%
X66800000Y-92300000D03*
%TD*%
%TO.P,JP2,1*%
%TO.N,+5V*%
X68100000Y-94800000D03*
%TO.P,JP2,2*%
%TO.N,/A11*%
X66800000Y-94800000D03*
%TD*%
%TO.P,JP1,1*%
%TO.N,+5V*%
X68100000Y-97300000D03*
%TO.P,JP1,2*%
%TO.N,/A10*%
X66800000Y-97300000D03*
%TD*%
%TO.P,U1,28*%
%TO.N,+5V*%
%TA.AperFunction,SMDPad,CuDef*%
G36*
G01*
X57875000Y-69375000D02*
X57675000Y-69375000D01*
G75*
G02*
X57575000Y-69275000I0J100000D01*
G01*
X57575000Y-68000000D01*
G75*
G02*
X57675000Y-67900000I100000J0D01*
G01*
X57875000Y-67900000D01*
G75*
G02*
X57975000Y-68000000I0J-100000D01*
G01*
X57975000Y-69275000D01*
G75*
G02*
X57875000Y-69375000I-100000J0D01*
G01*
G37*
%TD.AperFunction*%
%TO.P,U1,27*%
%TO.N,SDA*%
%TA.AperFunction,SMDPad,CuDef*%
G36*
G01*
X58525000Y-69375000D02*
X58325000Y-69375000D01*
G75*
G02*
X58225000Y-69275000I0J100000D01*
G01*
X58225000Y-68000000D01*
G75*
G02*
X58325000Y-67900000I100000J0D01*
G01*
X58525000Y-67900000D01*
G75*
G02*
X58625000Y-68000000I0J-100000D01*
G01*
X58625000Y-69275000D01*
G75*
G02*
X58525000Y-69375000I-100000J0D01*
G01*
G37*
%TD.AperFunction*%
%TO.P,U1,26*%
%TO.N,SCL*%
%TA.AperFunction,SMDPad,CuDef*%
G36*
G01*
X59175000Y-69375000D02*
X58975000Y-69375000D01*
G75*
G02*
X58875000Y-69275000I0J100000D01*
G01*
X58875000Y-68000000D01*
G75*
G02*
X58975000Y-67900000I100000J0D01*
G01*
X59175000Y-67900000D01*
G75*
G02*
X59275000Y-68000000I0J-100000D01*
G01*
X59275000Y-69275000D01*
G75*
G02*
X59175000Y-69375000I-100000J0D01*
G01*
G37*
%TD.AperFunction*%
%TO.P,U1,25*%
%TO.N,GND*%
%TA.AperFunction,SMDPad,CuDef*%
G36*
G01*
X59825000Y-69375000D02*
X59625000Y-69375000D01*
G75*
G02*
X59525000Y-69275000I0J100000D01*
G01*
X59525000Y-68000000D01*
G75*
G02*
X59625000Y-67900000I100000J0D01*
G01*
X59825000Y-67900000D01*
G75*
G02*
X59925000Y-68000000I0J-100000D01*
G01*
X59925000Y-69275000D01*
G75*
G02*
X59825000Y-69375000I-100000J0D01*
G01*
G37*
%TD.AperFunction*%
%TO.P,U1,24*%
%TO.N,/A15*%
%TA.AperFunction,SMDPad,CuDef*%
G36*
G01*
X60475000Y-69375000D02*
X60275000Y-69375000D01*
G75*
G02*
X60175000Y-69275000I0J100000D01*
G01*
X60175000Y-68000000D01*
G75*
G02*
X60275000Y-67900000I100000J0D01*
G01*
X60475000Y-67900000D01*
G75*
G02*
X60575000Y-68000000I0J-100000D01*
G01*
X60575000Y-69275000D01*
G75*
G02*
X60475000Y-69375000I-100000J0D01*
G01*
G37*
%TD.AperFunction*%
%TO.P,U1,23*%
%TO.N,~OE*%
%TA.AperFunction,SMDPad,CuDef*%
G36*
G01*
X61125000Y-69375000D02*
X60925000Y-69375000D01*
G75*
G02*
X60825000Y-69275000I0J100000D01*
G01*
X60825000Y-68000000D01*
G75*
G02*
X60925000Y-67900000I100000J0D01*
G01*
X61125000Y-67900000D01*
G75*
G02*
X61225000Y-68000000I0J-100000D01*
G01*
X61225000Y-69275000D01*
G75*
G02*
X61125000Y-69375000I-100000J0D01*
G01*
G37*
%TD.AperFunction*%
%TO.P,U1,22*%
%TO.N,PWM15*%
%TA.AperFunction,SMDPad,CuDef*%
G36*
G01*
X61775000Y-69375000D02*
X61575000Y-69375000D01*
G75*
G02*
X61475000Y-69275000I0J100000D01*
G01*
X61475000Y-68000000D01*
G75*
G02*
X61575000Y-67900000I100000J0D01*
G01*
X61775000Y-67900000D01*
G75*
G02*
X61875000Y-68000000I0J-100000D01*
G01*
X61875000Y-69275000D01*
G75*
G02*
X61775000Y-69375000I-100000J0D01*
G01*
G37*
%TD.AperFunction*%
%TO.P,U1,21*%
%TO.N,PWM14*%
%TA.AperFunction,SMDPad,CuDef*%
G36*
G01*
X62425000Y-69375000D02*
X62225000Y-69375000D01*
G75*
G02*
X62125000Y-69275000I0J100000D01*
G01*
X62125000Y-68000000D01*
G75*
G02*
X62225000Y-67900000I100000J0D01*
G01*
X62425000Y-67900000D01*
G75*
G02*
X62525000Y-68000000I0J-100000D01*
G01*
X62525000Y-69275000D01*
G75*
G02*
X62425000Y-69375000I-100000J0D01*
G01*
G37*
%TD.AperFunction*%
%TO.P,U1,20*%
%TO.N,PWM13*%
%TA.AperFunction,SMDPad,CuDef*%
G36*
G01*
X63075000Y-69375000D02*
X62875000Y-69375000D01*
G75*
G02*
X62775000Y-69275000I0J100000D01*
G01*
X62775000Y-68000000D01*
G75*
G02*
X62875000Y-67900000I100000J0D01*
G01*
X63075000Y-67900000D01*
G75*
G02*
X63175000Y-68000000I0J-100000D01*
G01*
X63175000Y-69275000D01*
G75*
G02*
X63075000Y-69375000I-100000J0D01*
G01*
G37*
%TD.AperFunction*%
%TO.P,U1,19*%
%TO.N,PWM12*%
%TA.AperFunction,SMDPad,CuDef*%
G36*
G01*
X63725000Y-69375000D02*
X63525000Y-69375000D01*
G75*
G02*
X63425000Y-69275000I0J100000D01*
G01*
X63425000Y-68000000D01*
G75*
G02*
X63525000Y-67900000I100000J0D01*
G01*
X63725000Y-67900000D01*
G75*
G02*
X63825000Y-68000000I0J-100000D01*
G01*
X63825000Y-69275000D01*
G75*
G02*
X63725000Y-69375000I-100000J0D01*
G01*
G37*
%TD.AperFunction*%
%TO.P,U1,18*%
%TO.N,PWM11*%
%TA.AperFunction,SMDPad,CuDef*%
G36*
G01*
X64375000Y-69375000D02*
X64175000Y-69375000D01*
G75*
G02*
X64075000Y-69275000I0J100000D01*
G01*
X64075000Y-68000000D01*
G75*
G02*
X64175000Y-67900000I100000J0D01*
G01*
X64375000Y-67900000D01*
G75*
G02*
X64475000Y-68000000I0J-100000D01*
G01*
X64475000Y-69275000D01*
G75*
G02*
X64375000Y-69375000I-100000J0D01*
G01*
G37*
%TD.AperFunction*%
%TO.P,U1,17*%
%TO.N,PWM10*%
%TA.AperFunction,SMDPad,CuDef*%
G36*
G01*
X65025000Y-69375000D02*
X64825000Y-69375000D01*
G75*
G02*
X64725000Y-69275000I0J100000D01*
G01*
X64725000Y-68000000D01*
G75*
G02*
X64825000Y-67900000I100000J0D01*
G01*
X65025000Y-67900000D01*
G75*
G02*
X65125000Y-68000000I0J-100000D01*
G01*
X65125000Y-69275000D01*
G75*
G02*
X65025000Y-69375000I-100000J0D01*
G01*
G37*
%TD.AperFunction*%
%TO.P,U1,16*%
%TO.N,PWM9*%
%TA.AperFunction,SMDPad,CuDef*%
G36*
G01*
X65675000Y-69375000D02*
X65475000Y-69375000D01*
G75*
G02*
X65375000Y-69275000I0J100000D01*
G01*
X65375000Y-68000000D01*
G75*
G02*
X65475000Y-67900000I100000J0D01*
G01*
X65675000Y-67900000D01*
G75*
G02*
X65775000Y-68000000I0J-100000D01*
G01*
X65775000Y-69275000D01*
G75*
G02*
X65675000Y-69375000I-100000J0D01*
G01*
G37*
%TD.AperFunction*%
%TO.P,U1,15*%
%TO.N,PWM8*%
%TA.AperFunction,SMDPad,CuDef*%
G36*
G01*
X66325000Y-69375000D02*
X66125000Y-69375000D01*
G75*
G02*
X66025000Y-69275000I0J100000D01*
G01*
X66025000Y-68000000D01*
G75*
G02*
X66125000Y-67900000I100000J0D01*
G01*
X66325000Y-67900000D01*
G75*
G02*
X66425000Y-68000000I0J-100000D01*
G01*
X66425000Y-69275000D01*
G75*
G02*
X66325000Y-69375000I-100000J0D01*
G01*
G37*
%TD.AperFunction*%
%TO.P,U1,14*%
%TO.N,GND*%
%TA.AperFunction,SMDPad,CuDef*%
G36*
G01*
X66325000Y-75100000D02*
X66125000Y-75100000D01*
G75*
G02*
X66025000Y-75000000I0J100000D01*
G01*
X66025000Y-73725000D01*
G75*
G02*
X66125000Y-73625000I100000J0D01*
G01*
X66325000Y-73625000D01*
G75*
G02*
X66425000Y-73725000I0J-100000D01*
G01*
X66425000Y-75000000D01*
G75*
G02*
X66325000Y-75100000I-100000J0D01*
G01*
G37*
%TD.AperFunction*%
%TO.P,U1,13*%
%TO.N,PWM7*%
%TA.AperFunction,SMDPad,CuDef*%
G36*
G01*
X65675000Y-75100000D02*
X65475000Y-75100000D01*
G75*
G02*
X65375000Y-75000000I0J100000D01*
G01*
X65375000Y-73725000D01*
G75*
G02*
X65475000Y-73625000I100000J0D01*
G01*
X65675000Y-73625000D01*
G75*
G02*
X65775000Y-73725000I0J-100000D01*
G01*
X65775000Y-75000000D01*
G75*
G02*
X65675000Y-75100000I-100000J0D01*
G01*
G37*
%TD.AperFunction*%
%TO.P,U1,12*%
%TO.N,PWM6*%
%TA.AperFunction,SMDPad,CuDef*%
G36*
G01*
X65025000Y-75100000D02*
X64825000Y-75100000D01*
G75*
G02*
X64725000Y-75000000I0J100000D01*
G01*
X64725000Y-73725000D01*
G75*
G02*
X64825000Y-73625000I100000J0D01*
G01*
X65025000Y-73625000D01*
G75*
G02*
X65125000Y-73725000I0J-100000D01*
G01*
X65125000Y-75000000D01*
G75*
G02*
X65025000Y-75100000I-100000J0D01*
G01*
G37*
%TD.AperFunction*%
%TO.P,U1,11*%
%TO.N,PWM5*%
%TA.AperFunction,SMDPad,CuDef*%
G36*
G01*
X64375000Y-75100000D02*
X64175000Y-75100000D01*
G75*
G02*
X64075000Y-75000000I0J100000D01*
G01*
X64075000Y-73725000D01*
G75*
G02*
X64175000Y-73625000I100000J0D01*
G01*
X64375000Y-73625000D01*
G75*
G02*
X64475000Y-73725000I0J-100000D01*
G01*
X64475000Y-75000000D01*
G75*
G02*
X64375000Y-75100000I-100000J0D01*
G01*
G37*
%TD.AperFunction*%
%TO.P,U1,10*%
%TO.N,PWM4*%
%TA.AperFunction,SMDPad,CuDef*%
G36*
G01*
X63725000Y-75100000D02*
X63525000Y-75100000D01*
G75*
G02*
X63425000Y-75000000I0J100000D01*
G01*
X63425000Y-73725000D01*
G75*
G02*
X63525000Y-73625000I100000J0D01*
G01*
X63725000Y-73625000D01*
G75*
G02*
X63825000Y-73725000I0J-100000D01*
G01*
X63825000Y-75000000D01*
G75*
G02*
X63725000Y-75100000I-100000J0D01*
G01*
G37*
%TD.AperFunction*%
%TO.P,U1,9*%
%TO.N,PWM3*%
%TA.AperFunction,SMDPad,CuDef*%
G36*
G01*
X63075000Y-75100000D02*
X62875000Y-75100000D01*
G75*
G02*
X62775000Y-75000000I0J100000D01*
G01*
X62775000Y-73725000D01*
G75*
G02*
X62875000Y-73625000I100000J0D01*
G01*
X63075000Y-73625000D01*
G75*
G02*
X63175000Y-73725000I0J-100000D01*
G01*
X63175000Y-75000000D01*
G75*
G02*
X63075000Y-75100000I-100000J0D01*
G01*
G37*
%TD.AperFunction*%
%TO.P,U1,8*%
%TO.N,PWM2*%
%TA.AperFunction,SMDPad,CuDef*%
G36*
G01*
X62425000Y-75100000D02*
X62225000Y-75100000D01*
G75*
G02*
X62125000Y-75000000I0J100000D01*
G01*
X62125000Y-73725000D01*
G75*
G02*
X62225000Y-73625000I100000J0D01*
G01*
X62425000Y-73625000D01*
G75*
G02*
X62525000Y-73725000I0J-100000D01*
G01*
X62525000Y-75000000D01*
G75*
G02*
X62425000Y-75100000I-100000J0D01*
G01*
G37*
%TD.AperFunction*%
%TO.P,U1,7*%
%TO.N,PWM1*%
%TA.AperFunction,SMDPad,CuDef*%
G36*
G01*
X61775000Y-75100000D02*
X61575000Y-75100000D01*
G75*
G02*
X61475000Y-75000000I0J100000D01*
G01*
X61475000Y-73725000D01*
G75*
G02*
X61575000Y-73625000I100000J0D01*
G01*
X61775000Y-73625000D01*
G75*
G02*
X61875000Y-73725000I0J-100000D01*
G01*
X61875000Y-75000000D01*
G75*
G02*
X61775000Y-75100000I-100000J0D01*
G01*
G37*
%TD.AperFunction*%
%TO.P,U1,6*%
%TO.N,PWM0*%
%TA.AperFunction,SMDPad,CuDef*%
G36*
G01*
X61125000Y-75100000D02*
X60925000Y-75100000D01*
G75*
G02*
X60825000Y-75000000I0J100000D01*
G01*
X60825000Y-73725000D01*
G75*
G02*
X60925000Y-73625000I100000J0D01*
G01*
X61125000Y-73625000D01*
G75*
G02*
X61225000Y-73725000I0J-100000D01*
G01*
X61225000Y-75000000D01*
G75*
G02*
X61125000Y-75100000I-100000J0D01*
G01*
G37*
%TD.AperFunction*%
%TO.P,U1,5*%
%TO.N,/A14*%
%TA.AperFunction,SMDPad,CuDef*%
G36*
G01*
X60475000Y-75100000D02*
X60275000Y-75100000D01*
G75*
G02*
X60175000Y-75000000I0J100000D01*
G01*
X60175000Y-73725000D01*
G75*
G02*
X60275000Y-73625000I100000J0D01*
G01*
X60475000Y-73625000D01*
G75*
G02*
X60575000Y-73725000I0J-100000D01*
G01*
X60575000Y-75000000D01*
G75*
G02*
X60475000Y-75100000I-100000J0D01*
G01*
G37*
%TD.AperFunction*%
%TO.P,U1,4*%
%TO.N,/A13*%
%TA.AperFunction,SMDPad,CuDef*%
G36*
G01*
X59825000Y-75100000D02*
X59625000Y-75100000D01*
G75*
G02*
X59525000Y-75000000I0J100000D01*
G01*
X59525000Y-73725000D01*
G75*
G02*
X59625000Y-73625000I100000J0D01*
G01*
X59825000Y-73625000D01*
G75*
G02*
X59925000Y-73725000I0J-100000D01*
G01*
X59925000Y-75000000D01*
G75*
G02*
X59825000Y-75100000I-100000J0D01*
G01*
G37*
%TD.AperFunction*%
%TO.P,U1,3*%
%TO.N,/A12*%
%TA.AperFunction,SMDPad,CuDef*%
G36*
G01*
X59175000Y-75100000D02*
X58975000Y-75100000D01*
G75*
G02*
X58875000Y-75000000I0J100000D01*
G01*
X58875000Y-73725000D01*
G75*
G02*
X58975000Y-73625000I100000J0D01*
G01*
X59175000Y-73625000D01*
G75*
G02*
X59275000Y-73725000I0J-100000D01*
G01*
X59275000Y-75000000D01*
G75*
G02*
X59175000Y-75100000I-100000J0D01*
G01*
G37*
%TD.AperFunction*%
%TO.P,U1,2*%
%TO.N,/A11*%
%TA.AperFunction,SMDPad,CuDef*%
G36*
G01*
X58525000Y-75100000D02*
X58325000Y-75100000D01*
G75*
G02*
X58225000Y-75000000I0J100000D01*
G01*
X58225000Y-73725000D01*
G75*
G02*
X58325000Y-73625000I100000J0D01*
G01*
X58525000Y-73625000D01*
G75*
G02*
X58625000Y-73725000I0J-100000D01*
G01*
X58625000Y-75000000D01*
G75*
G02*
X58525000Y-75100000I-100000J0D01*
G01*
G37*
%TD.AperFunction*%
%TO.P,U1,1*%
%TO.N,/A10*%
%TA.AperFunction,SMDPad,CuDef*%
G36*
G01*
X57875000Y-75100000D02*
X57675000Y-75100000D01*
G75*
G02*
X57575000Y-75000000I0J100000D01*
G01*
X57575000Y-73725000D01*
G75*
G02*
X57675000Y-73625000I100000J0D01*
G01*
X57875000Y-73625000D01*
G75*
G02*
X57975000Y-73725000I0J-100000D01*
G01*
X57975000Y-75000000D01*
G75*
G02*
X57875000Y-75100000I-100000J0D01*
G01*
G37*
%TD.AperFunction*%
%TD*%
%TO.P,U3,28*%
%TO.N,+5V*%
%TA.AperFunction,SMDPad,CuDef*%
G36*
G01*
X137875000Y-69375000D02*
X137675000Y-69375000D01*
G75*
G02*
X137575000Y-69275000I0J100000D01*
G01*
X137575000Y-68000000D01*
G75*
G02*
X137675000Y-67900000I100000J0D01*
G01*
X137875000Y-67900000D01*
G75*
G02*
X137975000Y-68000000I0J-100000D01*
G01*
X137975000Y-69275000D01*
G75*
G02*
X137875000Y-69375000I-100000J0D01*
G01*
G37*
%TD.AperFunction*%
%TO.P,U3,27*%
%TO.N,SDA*%
%TA.AperFunction,SMDPad,CuDef*%
G36*
G01*
X138525000Y-69375000D02*
X138325000Y-69375000D01*
G75*
G02*
X138225000Y-69275000I0J100000D01*
G01*
X138225000Y-68000000D01*
G75*
G02*
X138325000Y-67900000I100000J0D01*
G01*
X138525000Y-67900000D01*
G75*
G02*
X138625000Y-68000000I0J-100000D01*
G01*
X138625000Y-69275000D01*
G75*
G02*
X138525000Y-69375000I-100000J0D01*
G01*
G37*
%TD.AperFunction*%
%TO.P,U3,26*%
%TO.N,SCL*%
%TA.AperFunction,SMDPad,CuDef*%
G36*
G01*
X139175000Y-69375000D02*
X138975000Y-69375000D01*
G75*
G02*
X138875000Y-69275000I0J100000D01*
G01*
X138875000Y-68000000D01*
G75*
G02*
X138975000Y-67900000I100000J0D01*
G01*
X139175000Y-67900000D01*
G75*
G02*
X139275000Y-68000000I0J-100000D01*
G01*
X139275000Y-69275000D01*
G75*
G02*
X139175000Y-69375000I-100000J0D01*
G01*
G37*
%TD.AperFunction*%
%TO.P,U3,25*%
%TO.N,GND*%
%TA.AperFunction,SMDPad,CuDef*%
G36*
G01*
X139825000Y-69375000D02*
X139625000Y-69375000D01*
G75*
G02*
X139525000Y-69275000I0J100000D01*
G01*
X139525000Y-68000000D01*
G75*
G02*
X139625000Y-67900000I100000J0D01*
G01*
X139825000Y-67900000D01*
G75*
G02*
X139925000Y-68000000I0J-100000D01*
G01*
X139925000Y-69275000D01*
G75*
G02*
X139825000Y-69375000I-100000J0D01*
G01*
G37*
%TD.AperFunction*%
%TO.P,U3,24*%
%TO.N,/A35*%
%TA.AperFunction,SMDPad,CuDef*%
G36*
G01*
X140475000Y-69375000D02*
X140275000Y-69375000D01*
G75*
G02*
X140175000Y-69275000I0J100000D01*
G01*
X140175000Y-68000000D01*
G75*
G02*
X140275000Y-67900000I100000J0D01*
G01*
X140475000Y-67900000D01*
G75*
G02*
X140575000Y-68000000I0J-100000D01*
G01*
X140575000Y-69275000D01*
G75*
G02*
X140475000Y-69375000I-100000J0D01*
G01*
G37*
%TD.AperFunction*%
%TO.P,U3,23*%
%TO.N,~OE*%
%TA.AperFunction,SMDPad,CuDef*%
G36*
G01*
X141125000Y-69375000D02*
X140925000Y-69375000D01*
G75*
G02*
X140825000Y-69275000I0J100000D01*
G01*
X140825000Y-68000000D01*
G75*
G02*
X140925000Y-67900000I100000J0D01*
G01*
X141125000Y-67900000D01*
G75*
G02*
X141225000Y-68000000I0J-100000D01*
G01*
X141225000Y-69275000D01*
G75*
G02*
X141125000Y-69375000I-100000J0D01*
G01*
G37*
%TD.AperFunction*%
%TO.P,U3,22*%
%TO.N,PWM47*%
%TA.AperFunction,SMDPad,CuDef*%
G36*
G01*
X141775000Y-69375000D02*
X141575000Y-69375000D01*
G75*
G02*
X141475000Y-69275000I0J100000D01*
G01*
X141475000Y-68000000D01*
G75*
G02*
X141575000Y-67900000I100000J0D01*
G01*
X141775000Y-67900000D01*
G75*
G02*
X141875000Y-68000000I0J-100000D01*
G01*
X141875000Y-69275000D01*
G75*
G02*
X141775000Y-69375000I-100000J0D01*
G01*
G37*
%TD.AperFunction*%
%TO.P,U3,21*%
%TO.N,PWM46*%
%TA.AperFunction,SMDPad,CuDef*%
G36*
G01*
X142425000Y-69375000D02*
X142225000Y-69375000D01*
G75*
G02*
X142125000Y-69275000I0J100000D01*
G01*
X142125000Y-68000000D01*
G75*
G02*
X142225000Y-67900000I100000J0D01*
G01*
X142425000Y-67900000D01*
G75*
G02*
X142525000Y-68000000I0J-100000D01*
G01*
X142525000Y-69275000D01*
G75*
G02*
X142425000Y-69375000I-100000J0D01*
G01*
G37*
%TD.AperFunction*%
%TO.P,U3,20*%
%TO.N,PWM45*%
%TA.AperFunction,SMDPad,CuDef*%
G36*
G01*
X143075000Y-69375000D02*
X142875000Y-69375000D01*
G75*
G02*
X142775000Y-69275000I0J100000D01*
G01*
X142775000Y-68000000D01*
G75*
G02*
X142875000Y-67900000I100000J0D01*
G01*
X143075000Y-67900000D01*
G75*
G02*
X143175000Y-68000000I0J-100000D01*
G01*
X143175000Y-69275000D01*
G75*
G02*
X143075000Y-69375000I-100000J0D01*
G01*
G37*
%TD.AperFunction*%
%TO.P,U3,19*%
%TO.N,PWM44*%
%TA.AperFunction,SMDPad,CuDef*%
G36*
G01*
X143725000Y-69375000D02*
X143525000Y-69375000D01*
G75*
G02*
X143425000Y-69275000I0J100000D01*
G01*
X143425000Y-68000000D01*
G75*
G02*
X143525000Y-67900000I100000J0D01*
G01*
X143725000Y-67900000D01*
G75*
G02*
X143825000Y-68000000I0J-100000D01*
G01*
X143825000Y-69275000D01*
G75*
G02*
X143725000Y-69375000I-100000J0D01*
G01*
G37*
%TD.AperFunction*%
%TO.P,U3,18*%
%TO.N,PWM43*%
%TA.AperFunction,SMDPad,CuDef*%
G36*
G01*
X144375000Y-69375000D02*
X144175000Y-69375000D01*
G75*
G02*
X144075000Y-69275000I0J100000D01*
G01*
X144075000Y-68000000D01*
G75*
G02*
X144175000Y-67900000I100000J0D01*
G01*
X144375000Y-67900000D01*
G75*
G02*
X144475000Y-68000000I0J-100000D01*
G01*
X144475000Y-69275000D01*
G75*
G02*
X144375000Y-69375000I-100000J0D01*
G01*
G37*
%TD.AperFunction*%
%TO.P,U3,17*%
%TO.N,PWM42*%
%TA.AperFunction,SMDPad,CuDef*%
G36*
G01*
X145025000Y-69375000D02*
X144825000Y-69375000D01*
G75*
G02*
X144725000Y-69275000I0J100000D01*
G01*
X144725000Y-68000000D01*
G75*
G02*
X144825000Y-67900000I100000J0D01*
G01*
X145025000Y-67900000D01*
G75*
G02*
X145125000Y-68000000I0J-100000D01*
G01*
X145125000Y-69275000D01*
G75*
G02*
X145025000Y-69375000I-100000J0D01*
G01*
G37*
%TD.AperFunction*%
%TO.P,U3,16*%
%TO.N,PWM41*%
%TA.AperFunction,SMDPad,CuDef*%
G36*
G01*
X145675000Y-69375000D02*
X145475000Y-69375000D01*
G75*
G02*
X145375000Y-69275000I0J100000D01*
G01*
X145375000Y-68000000D01*
G75*
G02*
X145475000Y-67900000I100000J0D01*
G01*
X145675000Y-67900000D01*
G75*
G02*
X145775000Y-68000000I0J-100000D01*
G01*
X145775000Y-69275000D01*
G75*
G02*
X145675000Y-69375000I-100000J0D01*
G01*
G37*
%TD.AperFunction*%
%TO.P,U3,15*%
%TO.N,PWM40*%
%TA.AperFunction,SMDPad,CuDef*%
G36*
G01*
X146325000Y-69375000D02*
X146125000Y-69375000D01*
G75*
G02*
X146025000Y-69275000I0J100000D01*
G01*
X146025000Y-68000000D01*
G75*
G02*
X146125000Y-67900000I100000J0D01*
G01*
X146325000Y-67900000D01*
G75*
G02*
X146425000Y-68000000I0J-100000D01*
G01*
X146425000Y-69275000D01*
G75*
G02*
X146325000Y-69375000I-100000J0D01*
G01*
G37*
%TD.AperFunction*%
%TO.P,U3,14*%
%TO.N,GND*%
%TA.AperFunction,SMDPad,CuDef*%
G36*
G01*
X146325000Y-75100000D02*
X146125000Y-75100000D01*
G75*
G02*
X146025000Y-75000000I0J100000D01*
G01*
X146025000Y-73725000D01*
G75*
G02*
X146125000Y-73625000I100000J0D01*
G01*
X146325000Y-73625000D01*
G75*
G02*
X146425000Y-73725000I0J-100000D01*
G01*
X146425000Y-75000000D01*
G75*
G02*
X146325000Y-75100000I-100000J0D01*
G01*
G37*
%TD.AperFunction*%
%TO.P,U3,13*%
%TO.N,PWM39*%
%TA.AperFunction,SMDPad,CuDef*%
G36*
G01*
X145675000Y-75100000D02*
X145475000Y-75100000D01*
G75*
G02*
X145375000Y-75000000I0J100000D01*
G01*
X145375000Y-73725000D01*
G75*
G02*
X145475000Y-73625000I100000J0D01*
G01*
X145675000Y-73625000D01*
G75*
G02*
X145775000Y-73725000I0J-100000D01*
G01*
X145775000Y-75000000D01*
G75*
G02*
X145675000Y-75100000I-100000J0D01*
G01*
G37*
%TD.AperFunction*%
%TO.P,U3,12*%
%TO.N,PWM38*%
%TA.AperFunction,SMDPad,CuDef*%
G36*
G01*
X145025000Y-75100000D02*
X144825000Y-75100000D01*
G75*
G02*
X144725000Y-75000000I0J100000D01*
G01*
X144725000Y-73725000D01*
G75*
G02*
X144825000Y-73625000I100000J0D01*
G01*
X145025000Y-73625000D01*
G75*
G02*
X145125000Y-73725000I0J-100000D01*
G01*
X145125000Y-75000000D01*
G75*
G02*
X145025000Y-75100000I-100000J0D01*
G01*
G37*
%TD.AperFunction*%
%TO.P,U3,11*%
%TO.N,PWM37*%
%TA.AperFunction,SMDPad,CuDef*%
G36*
G01*
X144375000Y-75100000D02*
X144175000Y-75100000D01*
G75*
G02*
X144075000Y-75000000I0J100000D01*
G01*
X144075000Y-73725000D01*
G75*
G02*
X144175000Y-73625000I100000J0D01*
G01*
X144375000Y-73625000D01*
G75*
G02*
X144475000Y-73725000I0J-100000D01*
G01*
X144475000Y-75000000D01*
G75*
G02*
X144375000Y-75100000I-100000J0D01*
G01*
G37*
%TD.AperFunction*%
%TO.P,U3,10*%
%TO.N,PWM36*%
%TA.AperFunction,SMDPad,CuDef*%
G36*
G01*
X143725000Y-75100000D02*
X143525000Y-75100000D01*
G75*
G02*
X143425000Y-75000000I0J100000D01*
G01*
X143425000Y-73725000D01*
G75*
G02*
X143525000Y-73625000I100000J0D01*
G01*
X143725000Y-73625000D01*
G75*
G02*
X143825000Y-73725000I0J-100000D01*
G01*
X143825000Y-75000000D01*
G75*
G02*
X143725000Y-75100000I-100000J0D01*
G01*
G37*
%TD.AperFunction*%
%TO.P,U3,9*%
%TO.N,PWM35*%
%TA.AperFunction,SMDPad,CuDef*%
G36*
G01*
X143075000Y-75100000D02*
X142875000Y-75100000D01*
G75*
G02*
X142775000Y-75000000I0J100000D01*
G01*
X142775000Y-73725000D01*
G75*
G02*
X142875000Y-73625000I100000J0D01*
G01*
X143075000Y-73625000D01*
G75*
G02*
X143175000Y-73725000I0J-100000D01*
G01*
X143175000Y-75000000D01*
G75*
G02*
X143075000Y-75100000I-100000J0D01*
G01*
G37*
%TD.AperFunction*%
%TO.P,U3,8*%
%TO.N,PWM34*%
%TA.AperFunction,SMDPad,CuDef*%
G36*
G01*
X142425000Y-75100000D02*
X142225000Y-75100000D01*
G75*
G02*
X142125000Y-75000000I0J100000D01*
G01*
X142125000Y-73725000D01*
G75*
G02*
X142225000Y-73625000I100000J0D01*
G01*
X142425000Y-73625000D01*
G75*
G02*
X142525000Y-73725000I0J-100000D01*
G01*
X142525000Y-75000000D01*
G75*
G02*
X142425000Y-75100000I-100000J0D01*
G01*
G37*
%TD.AperFunction*%
%TO.P,U3,7*%
%TO.N,PWM33*%
%TA.AperFunction,SMDPad,CuDef*%
G36*
G01*
X141775000Y-75100000D02*
X141575000Y-75100000D01*
G75*
G02*
X141475000Y-75000000I0J100000D01*
G01*
X141475000Y-73725000D01*
G75*
G02*
X141575000Y-73625000I100000J0D01*
G01*
X141775000Y-73625000D01*
G75*
G02*
X141875000Y-73725000I0J-100000D01*
G01*
X141875000Y-75000000D01*
G75*
G02*
X141775000Y-75100000I-100000J0D01*
G01*
G37*
%TD.AperFunction*%
%TO.P,U3,6*%
%TO.N,PWM32*%
%TA.AperFunction,SMDPad,CuDef*%
G36*
G01*
X141125000Y-75100000D02*
X140925000Y-75100000D01*
G75*
G02*
X140825000Y-75000000I0J100000D01*
G01*
X140825000Y-73725000D01*
G75*
G02*
X140925000Y-73625000I100000J0D01*
G01*
X141125000Y-73625000D01*
G75*
G02*
X141225000Y-73725000I0J-100000D01*
G01*
X141225000Y-75000000D01*
G75*
G02*
X141125000Y-75100000I-100000J0D01*
G01*
G37*
%TD.AperFunction*%
%TO.P,U3,5*%
%TO.N,/A34*%
%TA.AperFunction,SMDPad,CuDef*%
G36*
G01*
X140475000Y-75100000D02*
X140275000Y-75100000D01*
G75*
G02*
X140175000Y-75000000I0J100000D01*
G01*
X140175000Y-73725000D01*
G75*
G02*
X140275000Y-73625000I100000J0D01*
G01*
X140475000Y-73625000D01*
G75*
G02*
X140575000Y-73725000I0J-100000D01*
G01*
X140575000Y-75000000D01*
G75*
G02*
X140475000Y-75100000I-100000J0D01*
G01*
G37*
%TD.AperFunction*%
%TO.P,U3,4*%
%TO.N,/A33*%
%TA.AperFunction,SMDPad,CuDef*%
G36*
G01*
X139825000Y-75100000D02*
X139625000Y-75100000D01*
G75*
G02*
X139525000Y-75000000I0J100000D01*
G01*
X139525000Y-73725000D01*
G75*
G02*
X139625000Y-73625000I100000J0D01*
G01*
X139825000Y-73625000D01*
G75*
G02*
X139925000Y-73725000I0J-100000D01*
G01*
X139925000Y-75000000D01*
G75*
G02*
X139825000Y-75100000I-100000J0D01*
G01*
G37*
%TD.AperFunction*%
%TO.P,U3,3*%
%TO.N,/A32*%
%TA.AperFunction,SMDPad,CuDef*%
G36*
G01*
X139175000Y-75100000D02*
X138975000Y-75100000D01*
G75*
G02*
X138875000Y-75000000I0J100000D01*
G01*
X138875000Y-73725000D01*
G75*
G02*
X138975000Y-73625000I100000J0D01*
G01*
X139175000Y-73625000D01*
G75*
G02*
X139275000Y-73725000I0J-100000D01*
G01*
X139275000Y-75000000D01*
G75*
G02*
X139175000Y-75100000I-100000J0D01*
G01*
G37*
%TD.AperFunction*%
%TO.P,U3,2*%
%TO.N,/A31*%
%TA.AperFunction,SMDPad,CuDef*%
G36*
G01*
X138525000Y-75100000D02*
X138325000Y-75100000D01*
G75*
G02*
X138225000Y-75000000I0J100000D01*
G01*
X138225000Y-73725000D01*
G75*
G02*
X138325000Y-73625000I100000J0D01*
G01*
X138525000Y-73625000D01*
G75*
G02*
X138625000Y-73725000I0J-100000D01*
G01*
X138625000Y-75000000D01*
G75*
G02*
X138525000Y-75100000I-100000J0D01*
G01*
G37*
%TD.AperFunction*%
%TO.P,U3,1*%
%TO.N,/A30*%
%TA.AperFunction,SMDPad,CuDef*%
G36*
G01*
X137875000Y-75100000D02*
X137675000Y-75100000D01*
G75*
G02*
X137575000Y-75000000I0J100000D01*
G01*
X137575000Y-73725000D01*
G75*
G02*
X137675000Y-73625000I100000J0D01*
G01*
X137875000Y-73625000D01*
G75*
G02*
X137975000Y-73725000I0J-100000D01*
G01*
X137975000Y-75000000D01*
G75*
G02*
X137875000Y-75100000I-100000J0D01*
G01*
G37*
%TD.AperFunction*%
%TD*%
%TO.P,U2,28*%
%TO.N,+5V*%
%TA.AperFunction,SMDPad,CuDef*%
G36*
G01*
X97875000Y-69375000D02*
X97675000Y-69375000D01*
G75*
G02*
X97575000Y-69275000I0J100000D01*
G01*
X97575000Y-68000000D01*
G75*
G02*
X97675000Y-67900000I100000J0D01*
G01*
X97875000Y-67900000D01*
G75*
G02*
X97975000Y-68000000I0J-100000D01*
G01*
X97975000Y-69275000D01*
G75*
G02*
X97875000Y-69375000I-100000J0D01*
G01*
G37*
%TD.AperFunction*%
%TO.P,U2,27*%
%TO.N,SDA*%
%TA.AperFunction,SMDPad,CuDef*%
G36*
G01*
X98525000Y-69375000D02*
X98325000Y-69375000D01*
G75*
G02*
X98225000Y-69275000I0J100000D01*
G01*
X98225000Y-68000000D01*
G75*
G02*
X98325000Y-67900000I100000J0D01*
G01*
X98525000Y-67900000D01*
G75*
G02*
X98625000Y-68000000I0J-100000D01*
G01*
X98625000Y-69275000D01*
G75*
G02*
X98525000Y-69375000I-100000J0D01*
G01*
G37*
%TD.AperFunction*%
%TO.P,U2,26*%
%TO.N,SCL*%
%TA.AperFunction,SMDPad,CuDef*%
G36*
G01*
X99175000Y-69375000D02*
X98975000Y-69375000D01*
G75*
G02*
X98875000Y-69275000I0J100000D01*
G01*
X98875000Y-68000000D01*
G75*
G02*
X98975000Y-67900000I100000J0D01*
G01*
X99175000Y-67900000D01*
G75*
G02*
X99275000Y-68000000I0J-100000D01*
G01*
X99275000Y-69275000D01*
G75*
G02*
X99175000Y-69375000I-100000J0D01*
G01*
G37*
%TD.AperFunction*%
%TO.P,U2,25*%
%TO.N,GND*%
%TA.AperFunction,SMDPad,CuDef*%
G36*
G01*
X99825000Y-69375000D02*
X99625000Y-69375000D01*
G75*
G02*
X99525000Y-69275000I0J100000D01*
G01*
X99525000Y-68000000D01*
G75*
G02*
X99625000Y-67900000I100000J0D01*
G01*
X99825000Y-67900000D01*
G75*
G02*
X99925000Y-68000000I0J-100000D01*
G01*
X99925000Y-69275000D01*
G75*
G02*
X99825000Y-69375000I-100000J0D01*
G01*
G37*
%TD.AperFunction*%
%TO.P,U2,24*%
%TO.N,/A25*%
%TA.AperFunction,SMDPad,CuDef*%
G36*
G01*
X100475000Y-69375000D02*
X100275000Y-69375000D01*
G75*
G02*
X100175000Y-69275000I0J100000D01*
G01*
X100175000Y-68000000D01*
G75*
G02*
X100275000Y-67900000I100000J0D01*
G01*
X100475000Y-67900000D01*
G75*
G02*
X100575000Y-68000000I0J-100000D01*
G01*
X100575000Y-69275000D01*
G75*
G02*
X100475000Y-69375000I-100000J0D01*
G01*
G37*
%TD.AperFunction*%
%TO.P,U2,23*%
%TO.N,~OE*%
%TA.AperFunction,SMDPad,CuDef*%
G36*
G01*
X101125000Y-69375000D02*
X100925000Y-69375000D01*
G75*
G02*
X100825000Y-69275000I0J100000D01*
G01*
X100825000Y-68000000D01*
G75*
G02*
X100925000Y-67900000I100000J0D01*
G01*
X101125000Y-67900000D01*
G75*
G02*
X101225000Y-68000000I0J-100000D01*
G01*
X101225000Y-69275000D01*
G75*
G02*
X101125000Y-69375000I-100000J0D01*
G01*
G37*
%TD.AperFunction*%
%TO.P,U2,22*%
%TO.N,PWM31*%
%TA.AperFunction,SMDPad,CuDef*%
G36*
G01*
X101775000Y-69375000D02*
X101575000Y-69375000D01*
G75*
G02*
X101475000Y-69275000I0J100000D01*
G01*
X101475000Y-68000000D01*
G75*
G02*
X101575000Y-67900000I100000J0D01*
G01*
X101775000Y-67900000D01*
G75*
G02*
X101875000Y-68000000I0J-100000D01*
G01*
X101875000Y-69275000D01*
G75*
G02*
X101775000Y-69375000I-100000J0D01*
G01*
G37*
%TD.AperFunction*%
%TO.P,U2,21*%
%TO.N,PWM30*%
%TA.AperFunction,SMDPad,CuDef*%
G36*
G01*
X102425000Y-69375000D02*
X102225000Y-69375000D01*
G75*
G02*
X102125000Y-69275000I0J100000D01*
G01*
X102125000Y-68000000D01*
G75*
G02*
X102225000Y-67900000I100000J0D01*
G01*
X102425000Y-67900000D01*
G75*
G02*
X102525000Y-68000000I0J-100000D01*
G01*
X102525000Y-69275000D01*
G75*
G02*
X102425000Y-69375000I-100000J0D01*
G01*
G37*
%TD.AperFunction*%
%TO.P,U2,20*%
%TO.N,PWM29*%
%TA.AperFunction,SMDPad,CuDef*%
G36*
G01*
X103075000Y-69375000D02*
X102875000Y-69375000D01*
G75*
G02*
X102775000Y-69275000I0J100000D01*
G01*
X102775000Y-68000000D01*
G75*
G02*
X102875000Y-67900000I100000J0D01*
G01*
X103075000Y-67900000D01*
G75*
G02*
X103175000Y-68000000I0J-100000D01*
G01*
X103175000Y-69275000D01*
G75*
G02*
X103075000Y-69375000I-100000J0D01*
G01*
G37*
%TD.AperFunction*%
%TO.P,U2,19*%
%TO.N,PWM28*%
%TA.AperFunction,SMDPad,CuDef*%
G36*
G01*
X103725000Y-69375000D02*
X103525000Y-69375000D01*
G75*
G02*
X103425000Y-69275000I0J100000D01*
G01*
X103425000Y-68000000D01*
G75*
G02*
X103525000Y-67900000I100000J0D01*
G01*
X103725000Y-67900000D01*
G75*
G02*
X103825000Y-68000000I0J-100000D01*
G01*
X103825000Y-69275000D01*
G75*
G02*
X103725000Y-69375000I-100000J0D01*
G01*
G37*
%TD.AperFunction*%
%TO.P,U2,18*%
%TO.N,PWM27*%
%TA.AperFunction,SMDPad,CuDef*%
G36*
G01*
X104375000Y-69375000D02*
X104175000Y-69375000D01*
G75*
G02*
X104075000Y-69275000I0J100000D01*
G01*
X104075000Y-68000000D01*
G75*
G02*
X104175000Y-67900000I100000J0D01*
G01*
X104375000Y-67900000D01*
G75*
G02*
X104475000Y-68000000I0J-100000D01*
G01*
X104475000Y-69275000D01*
G75*
G02*
X104375000Y-69375000I-100000J0D01*
G01*
G37*
%TD.AperFunction*%
%TO.P,U2,17*%
%TO.N,PWM26*%
%TA.AperFunction,SMDPad,CuDef*%
G36*
G01*
X105025000Y-69375000D02*
X104825000Y-69375000D01*
G75*
G02*
X104725000Y-69275000I0J100000D01*
G01*
X104725000Y-68000000D01*
G75*
G02*
X104825000Y-67900000I100000J0D01*
G01*
X105025000Y-67900000D01*
G75*
G02*
X105125000Y-68000000I0J-100000D01*
G01*
X105125000Y-69275000D01*
G75*
G02*
X105025000Y-69375000I-100000J0D01*
G01*
G37*
%TD.AperFunction*%
%TO.P,U2,16*%
%TO.N,PWM25*%
%TA.AperFunction,SMDPad,CuDef*%
G36*
G01*
X105675000Y-69375000D02*
X105475000Y-69375000D01*
G75*
G02*
X105375000Y-69275000I0J100000D01*
G01*
X105375000Y-68000000D01*
G75*
G02*
X105475000Y-67900000I100000J0D01*
G01*
X105675000Y-67900000D01*
G75*
G02*
X105775000Y-68000000I0J-100000D01*
G01*
X105775000Y-69275000D01*
G75*
G02*
X105675000Y-69375000I-100000J0D01*
G01*
G37*
%TD.AperFunction*%
%TO.P,U2,15*%
%TO.N,PWM24*%
%TA.AperFunction,SMDPad,CuDef*%
G36*
G01*
X106325000Y-69375000D02*
X106125000Y-69375000D01*
G75*
G02*
X106025000Y-69275000I0J100000D01*
G01*
X106025000Y-68000000D01*
G75*
G02*
X106125000Y-67900000I100000J0D01*
G01*
X106325000Y-67900000D01*
G75*
G02*
X106425000Y-68000000I0J-100000D01*
G01*
X106425000Y-69275000D01*
G75*
G02*
X106325000Y-69375000I-100000J0D01*
G01*
G37*
%TD.AperFunction*%
%TO.P,U2,14*%
%TO.N,GND*%
%TA.AperFunction,SMDPad,CuDef*%
G36*
G01*
X106325000Y-75100000D02*
X106125000Y-75100000D01*
G75*
G02*
X106025000Y-75000000I0J100000D01*
G01*
X106025000Y-73725000D01*
G75*
G02*
X106125000Y-73625000I100000J0D01*
G01*
X106325000Y-73625000D01*
G75*
G02*
X106425000Y-73725000I0J-100000D01*
G01*
X106425000Y-75000000D01*
G75*
G02*
X106325000Y-75100000I-100000J0D01*
G01*
G37*
%TD.AperFunction*%
%TO.P,U2,13*%
%TO.N,PWM23*%
%TA.AperFunction,SMDPad,CuDef*%
G36*
G01*
X105675000Y-75100000D02*
X105475000Y-75100000D01*
G75*
G02*
X105375000Y-75000000I0J100000D01*
G01*
X105375000Y-73725000D01*
G75*
G02*
X105475000Y-73625000I100000J0D01*
G01*
X105675000Y-73625000D01*
G75*
G02*
X105775000Y-73725000I0J-100000D01*
G01*
X105775000Y-75000000D01*
G75*
G02*
X105675000Y-75100000I-100000J0D01*
G01*
G37*
%TD.AperFunction*%
%TO.P,U2,12*%
%TO.N,PWM22*%
%TA.AperFunction,SMDPad,CuDef*%
G36*
G01*
X105025000Y-75100000D02*
X104825000Y-75100000D01*
G75*
G02*
X104725000Y-75000000I0J100000D01*
G01*
X104725000Y-73725000D01*
G75*
G02*
X104825000Y-73625000I100000J0D01*
G01*
X105025000Y-73625000D01*
G75*
G02*
X105125000Y-73725000I0J-100000D01*
G01*
X105125000Y-75000000D01*
G75*
G02*
X105025000Y-75100000I-100000J0D01*
G01*
G37*
%TD.AperFunction*%
%TO.P,U2,11*%
%TO.N,PWM21*%
%TA.AperFunction,SMDPad,CuDef*%
G36*
G01*
X104375000Y-75100000D02*
X104175000Y-75100000D01*
G75*
G02*
X104075000Y-75000000I0J100000D01*
G01*
X104075000Y-73725000D01*
G75*
G02*
X104175000Y-73625000I100000J0D01*
G01*
X104375000Y-73625000D01*
G75*
G02*
X104475000Y-73725000I0J-100000D01*
G01*
X104475000Y-75000000D01*
G75*
G02*
X104375000Y-75100000I-100000J0D01*
G01*
G37*
%TD.AperFunction*%
%TO.P,U2,10*%
%TO.N,PWM20*%
%TA.AperFunction,SMDPad,CuDef*%
G36*
G01*
X103725000Y-75100000D02*
X103525000Y-75100000D01*
G75*
G02*
X103425000Y-75000000I0J100000D01*
G01*
X103425000Y-73725000D01*
G75*
G02*
X103525000Y-73625000I100000J0D01*
G01*
X103725000Y-73625000D01*
G75*
G02*
X103825000Y-73725000I0J-100000D01*
G01*
X103825000Y-75000000D01*
G75*
G02*
X103725000Y-75100000I-100000J0D01*
G01*
G37*
%TD.AperFunction*%
%TO.P,U2,9*%
%TO.N,PWM19*%
%TA.AperFunction,SMDPad,CuDef*%
G36*
G01*
X103075000Y-75100000D02*
X102875000Y-75100000D01*
G75*
G02*
X102775000Y-75000000I0J100000D01*
G01*
X102775000Y-73725000D01*
G75*
G02*
X102875000Y-73625000I100000J0D01*
G01*
X103075000Y-73625000D01*
G75*
G02*
X103175000Y-73725000I0J-100000D01*
G01*
X103175000Y-75000000D01*
G75*
G02*
X103075000Y-75100000I-100000J0D01*
G01*
G37*
%TD.AperFunction*%
%TO.P,U2,8*%
%TO.N,PWM18*%
%TA.AperFunction,SMDPad,CuDef*%
G36*
G01*
X102425000Y-75100000D02*
X102225000Y-75100000D01*
G75*
G02*
X102125000Y-75000000I0J100000D01*
G01*
X102125000Y-73725000D01*
G75*
G02*
X102225000Y-73625000I100000J0D01*
G01*
X102425000Y-73625000D01*
G75*
G02*
X102525000Y-73725000I0J-100000D01*
G01*
X102525000Y-75000000D01*
G75*
G02*
X102425000Y-75100000I-100000J0D01*
G01*
G37*
%TD.AperFunction*%
%TO.P,U2,7*%
%TO.N,PWM17*%
%TA.AperFunction,SMDPad,CuDef*%
G36*
G01*
X101775000Y-75100000D02*
X101575000Y-75100000D01*
G75*
G02*
X101475000Y-75000000I0J100000D01*
G01*
X101475000Y-73725000D01*
G75*
G02*
X101575000Y-73625000I100000J0D01*
G01*
X101775000Y-73625000D01*
G75*
G02*
X101875000Y-73725000I0J-100000D01*
G01*
X101875000Y-75000000D01*
G75*
G02*
X101775000Y-75100000I-100000J0D01*
G01*
G37*
%TD.AperFunction*%
%TO.P,U2,6*%
%TO.N,PWM16*%
%TA.AperFunction,SMDPad,CuDef*%
G36*
G01*
X101125000Y-75100000D02*
X100925000Y-75100000D01*
G75*
G02*
X100825000Y-75000000I0J100000D01*
G01*
X100825000Y-73725000D01*
G75*
G02*
X100925000Y-73625000I100000J0D01*
G01*
X101125000Y-73625000D01*
G75*
G02*
X101225000Y-73725000I0J-100000D01*
G01*
X101225000Y-75000000D01*
G75*
G02*
X101125000Y-75100000I-100000J0D01*
G01*
G37*
%TD.AperFunction*%
%TO.P,U2,5*%
%TO.N,/A24*%
%TA.AperFunction,SMDPad,CuDef*%
G36*
G01*
X100475000Y-75100000D02*
X100275000Y-75100000D01*
G75*
G02*
X100175000Y-75000000I0J100000D01*
G01*
X100175000Y-73725000D01*
G75*
G02*
X100275000Y-73625000I100000J0D01*
G01*
X100475000Y-73625000D01*
G75*
G02*
X100575000Y-73725000I0J-100000D01*
G01*
X100575000Y-75000000D01*
G75*
G02*
X100475000Y-75100000I-100000J0D01*
G01*
G37*
%TD.AperFunction*%
%TO.P,U2,4*%
%TO.N,/A23*%
%TA.AperFunction,SMDPad,CuDef*%
G36*
G01*
X99825000Y-75100000D02*
X99625000Y-75100000D01*
G75*
G02*
X99525000Y-75000000I0J100000D01*
G01*
X99525000Y-73725000D01*
G75*
G02*
X99625000Y-73625000I100000J0D01*
G01*
X99825000Y-73625000D01*
G75*
G02*
X99925000Y-73725000I0J-100000D01*
G01*
X99925000Y-75000000D01*
G75*
G02*
X99825000Y-75100000I-100000J0D01*
G01*
G37*
%TD.AperFunction*%
%TO.P,U2,3*%
%TO.N,/A22*%
%TA.AperFunction,SMDPad,CuDef*%
G36*
G01*
X99175000Y-75100000D02*
X98975000Y-75100000D01*
G75*
G02*
X98875000Y-75000000I0J100000D01*
G01*
X98875000Y-73725000D01*
G75*
G02*
X98975000Y-73625000I100000J0D01*
G01*
X99175000Y-73625000D01*
G75*
G02*
X99275000Y-73725000I0J-100000D01*
G01*
X99275000Y-75000000D01*
G75*
G02*
X99175000Y-75100000I-100000J0D01*
G01*
G37*
%TD.AperFunction*%
%TO.P,U2,2*%
%TO.N,/A21*%
%TA.AperFunction,SMDPad,CuDef*%
G36*
G01*
X98525000Y-75100000D02*
X98325000Y-75100000D01*
G75*
G02*
X98225000Y-75000000I0J100000D01*
G01*
X98225000Y-73725000D01*
G75*
G02*
X98325000Y-73625000I100000J0D01*
G01*
X98525000Y-73625000D01*
G75*
G02*
X98625000Y-73725000I0J-100000D01*
G01*
X98625000Y-75000000D01*
G75*
G02*
X98525000Y-75100000I-100000J0D01*
G01*
G37*
%TD.AperFunction*%
%TO.P,U2,1*%
%TO.N,/A20*%
%TA.AperFunction,SMDPad,CuDef*%
G36*
G01*
X97875000Y-75100000D02*
X97675000Y-75100000D01*
G75*
G02*
X97575000Y-75000000I0J100000D01*
G01*
X97575000Y-73725000D01*
G75*
G02*
X97675000Y-73625000I100000J0D01*
G01*
X97875000Y-73625000D01*
G75*
G02*
X97975000Y-73725000I0J-100000D01*
G01*
X97975000Y-75000000D01*
G75*
G02*
X97875000Y-75100000I-100000J0D01*
G01*
G37*
%TD.AperFunction*%
%TD*%
%TO.P,R20,2*%
%TO.N,SCL*%
%TA.AperFunction,SMDPad,CuDef*%
G36*
G01*
X54850000Y-33256250D02*
X54850000Y-32743750D01*
G75*
G02*
X55068750Y-32525000I218750J0D01*
G01*
X55506250Y-32525000D01*
G75*
G02*
X55725000Y-32743750I0J-218750D01*
G01*
X55725000Y-33256250D01*
G75*
G02*
X55506250Y-33475000I-218750J0D01*
G01*
X55068750Y-33475000D01*
G75*
G02*
X54850000Y-33256250I0J218750D01*
G01*
G37*
%TD.AperFunction*%
%TO.P,R20,1*%
%TO.N,+5V*%
%TA.AperFunction,SMDPad,CuDef*%
G36*
G01*
X53275000Y-33256250D02*
X53275000Y-32743750D01*
G75*
G02*
X53493750Y-32525000I218750J0D01*
G01*
X53931250Y-32525000D01*
G75*
G02*
X54150000Y-32743750I0J-218750D01*
G01*
X54150000Y-33256250D01*
G75*
G02*
X53931250Y-33475000I-218750J0D01*
G01*
X53493750Y-33475000D01*
G75*
G02*
X53275000Y-33256250I0J218750D01*
G01*
G37*
%TD.AperFunction*%
%TD*%
%TO.P,R19,2*%
%TO.N,SDA*%
%TA.AperFunction,SMDPad,CuDef*%
G36*
G01*
X54850000Y-35256250D02*
X54850000Y-34743750D01*
G75*
G02*
X55068750Y-34525000I218750J0D01*
G01*
X55506250Y-34525000D01*
G75*
G02*
X55725000Y-34743750I0J-218750D01*
G01*
X55725000Y-35256250D01*
G75*
G02*
X55506250Y-35475000I-218750J0D01*
G01*
X55068750Y-35475000D01*
G75*
G02*
X54850000Y-35256250I0J218750D01*
G01*
G37*
%TD.AperFunction*%
%TO.P,R19,1*%
%TO.N,+5V*%
%TA.AperFunction,SMDPad,CuDef*%
G36*
G01*
X53275000Y-35256250D02*
X53275000Y-34743750D01*
G75*
G02*
X53493750Y-34525000I218750J0D01*
G01*
X53931250Y-34525000D01*
G75*
G02*
X54150000Y-34743750I0J-218750D01*
G01*
X54150000Y-35256250D01*
G75*
G02*
X53931250Y-35475000I-218750J0D01*
G01*
X53493750Y-35475000D01*
G75*
G02*
X53275000Y-35256250I0J218750D01*
G01*
G37*
%TD.AperFunction*%
%TD*%
%TO.P,R18,2*%
%TO.N,/A35*%
%TA.AperFunction,SMDPad,CuDef*%
G36*
G01*
X141750000Y-85056250D02*
X141750000Y-84543750D01*
G75*
G02*
X141968750Y-84325000I218750J0D01*
G01*
X142406250Y-84325000D01*
G75*
G02*
X142625000Y-84543750I0J-218750D01*
G01*
X142625000Y-85056250D01*
G75*
G02*
X142406250Y-85275000I-218750J0D01*
G01*
X141968750Y-85275000D01*
G75*
G02*
X141750000Y-85056250I0J218750D01*
G01*
G37*
%TD.AperFunction*%
%TO.P,R18,1*%
%TO.N,GND*%
%TA.AperFunction,SMDPad,CuDef*%
G36*
G01*
X140175000Y-85056250D02*
X140175000Y-84543750D01*
G75*
G02*
X140393750Y-84325000I218750J0D01*
G01*
X140831250Y-84325000D01*
G75*
G02*
X141050000Y-84543750I0J-218750D01*
G01*
X141050000Y-85056250D01*
G75*
G02*
X140831250Y-85275000I-218750J0D01*
G01*
X140393750Y-85275000D01*
G75*
G02*
X140175000Y-85056250I0J218750D01*
G01*
G37*
%TD.AperFunction*%
%TD*%
%TO.P,R17,2*%
%TO.N,/A34*%
%TA.AperFunction,SMDPad,CuDef*%
G36*
G01*
X141750000Y-87556250D02*
X141750000Y-87043750D01*
G75*
G02*
X141968750Y-86825000I218750J0D01*
G01*
X142406250Y-86825000D01*
G75*
G02*
X142625000Y-87043750I0J-218750D01*
G01*
X142625000Y-87556250D01*
G75*
G02*
X142406250Y-87775000I-218750J0D01*
G01*
X141968750Y-87775000D01*
G75*
G02*
X141750000Y-87556250I0J218750D01*
G01*
G37*
%TD.AperFunction*%
%TO.P,R17,1*%
%TO.N,GND*%
%TA.AperFunction,SMDPad,CuDef*%
G36*
G01*
X140175000Y-87556250D02*
X140175000Y-87043750D01*
G75*
G02*
X140393750Y-86825000I218750J0D01*
G01*
X140831250Y-86825000D01*
G75*
G02*
X141050000Y-87043750I0J-218750D01*
G01*
X141050000Y-87556250D01*
G75*
G02*
X140831250Y-87775000I-218750J0D01*
G01*
X140393750Y-87775000D01*
G75*
G02*
X140175000Y-87556250I0J218750D01*
G01*
G37*
%TD.AperFunction*%
%TD*%
%TO.P,R16,2*%
%TO.N,/A33*%
%TA.AperFunction,SMDPad,CuDef*%
G36*
G01*
X141750000Y-90056250D02*
X141750000Y-89543750D01*
G75*
G02*
X141968750Y-89325000I218750J0D01*
G01*
X142406250Y-89325000D01*
G75*
G02*
X142625000Y-89543750I0J-218750D01*
G01*
X142625000Y-90056250D01*
G75*
G02*
X142406250Y-90275000I-218750J0D01*
G01*
X141968750Y-90275000D01*
G75*
G02*
X141750000Y-90056250I0J218750D01*
G01*
G37*
%TD.AperFunction*%
%TO.P,R16,1*%
%TO.N,GND*%
%TA.AperFunction,SMDPad,CuDef*%
G36*
G01*
X140175000Y-90056250D02*
X140175000Y-89543750D01*
G75*
G02*
X140393750Y-89325000I218750J0D01*
G01*
X140831250Y-89325000D01*
G75*
G02*
X141050000Y-89543750I0J-218750D01*
G01*
X141050000Y-90056250D01*
G75*
G02*
X140831250Y-90275000I-218750J0D01*
G01*
X140393750Y-90275000D01*
G75*
G02*
X140175000Y-90056250I0J218750D01*
G01*
G37*
%TD.AperFunction*%
%TD*%
%TO.P,R15,2*%
%TO.N,/A32*%
%TA.AperFunction,SMDPad,CuDef*%
G36*
G01*
X141750000Y-92556250D02*
X141750000Y-92043750D01*
G75*
G02*
X141968750Y-91825000I218750J0D01*
G01*
X142406250Y-91825000D01*
G75*
G02*
X142625000Y-92043750I0J-218750D01*
G01*
X142625000Y-92556250D01*
G75*
G02*
X142406250Y-92775000I-218750J0D01*
G01*
X141968750Y-92775000D01*
G75*
G02*
X141750000Y-92556250I0J218750D01*
G01*
G37*
%TD.AperFunction*%
%TO.P,R15,1*%
%TO.N,GND*%
%TA.AperFunction,SMDPad,CuDef*%
G36*
G01*
X140175000Y-92556250D02*
X140175000Y-92043750D01*
G75*
G02*
X140393750Y-91825000I218750J0D01*
G01*
X140831250Y-91825000D01*
G75*
G02*
X141050000Y-92043750I0J-218750D01*
G01*
X141050000Y-92556250D01*
G75*
G02*
X140831250Y-92775000I-218750J0D01*
G01*
X140393750Y-92775000D01*
G75*
G02*
X140175000Y-92556250I0J218750D01*
G01*
G37*
%TD.AperFunction*%
%TD*%
%TO.P,R14,2*%
%TO.N,/A31*%
%TA.AperFunction,SMDPad,CuDef*%
G36*
G01*
X141750000Y-95056250D02*
X141750000Y-94543750D01*
G75*
G02*
X141968750Y-94325000I218750J0D01*
G01*
X142406250Y-94325000D01*
G75*
G02*
X142625000Y-94543750I0J-218750D01*
G01*
X142625000Y-95056250D01*
G75*
G02*
X142406250Y-95275000I-218750J0D01*
G01*
X141968750Y-95275000D01*
G75*
G02*
X141750000Y-95056250I0J218750D01*
G01*
G37*
%TD.AperFunction*%
%TO.P,R14,1*%
%TO.N,GND*%
%TA.AperFunction,SMDPad,CuDef*%
G36*
G01*
X140175000Y-95056250D02*
X140175000Y-94543750D01*
G75*
G02*
X140393750Y-94325000I218750J0D01*
G01*
X140831250Y-94325000D01*
G75*
G02*
X141050000Y-94543750I0J-218750D01*
G01*
X141050000Y-95056250D01*
G75*
G02*
X140831250Y-95275000I-218750J0D01*
G01*
X140393750Y-95275000D01*
G75*
G02*
X140175000Y-95056250I0J218750D01*
G01*
G37*
%TD.AperFunction*%
%TD*%
%TO.P,R13,2*%
%TO.N,/A30*%
%TA.AperFunction,SMDPad,CuDef*%
G36*
G01*
X141750000Y-97556250D02*
X141750000Y-97043750D01*
G75*
G02*
X141968750Y-96825000I218750J0D01*
G01*
X142406250Y-96825000D01*
G75*
G02*
X142625000Y-97043750I0J-218750D01*
G01*
X142625000Y-97556250D01*
G75*
G02*
X142406250Y-97775000I-218750J0D01*
G01*
X141968750Y-97775000D01*
G75*
G02*
X141750000Y-97556250I0J218750D01*
G01*
G37*
%TD.AperFunction*%
%TO.P,R13,1*%
%TO.N,GND*%
%TA.AperFunction,SMDPad,CuDef*%
G36*
G01*
X140175000Y-97556250D02*
X140175000Y-97043750D01*
G75*
G02*
X140393750Y-96825000I218750J0D01*
G01*
X140831250Y-96825000D01*
G75*
G02*
X141050000Y-97043750I0J-218750D01*
G01*
X141050000Y-97556250D01*
G75*
G02*
X140831250Y-97775000I-218750J0D01*
G01*
X140393750Y-97775000D01*
G75*
G02*
X140175000Y-97556250I0J218750D01*
G01*
G37*
%TD.AperFunction*%
%TD*%
%TO.P,R12,2*%
%TO.N,/A25*%
%TA.AperFunction,SMDPad,CuDef*%
G36*
G01*
X101750000Y-85056250D02*
X101750000Y-84543750D01*
G75*
G02*
X101968750Y-84325000I218750J0D01*
G01*
X102406250Y-84325000D01*
G75*
G02*
X102625000Y-84543750I0J-218750D01*
G01*
X102625000Y-85056250D01*
G75*
G02*
X102406250Y-85275000I-218750J0D01*
G01*
X101968750Y-85275000D01*
G75*
G02*
X101750000Y-85056250I0J218750D01*
G01*
G37*
%TD.AperFunction*%
%TO.P,R12,1*%
%TO.N,GND*%
%TA.AperFunction,SMDPad,CuDef*%
G36*
G01*
X100175000Y-85056250D02*
X100175000Y-84543750D01*
G75*
G02*
X100393750Y-84325000I218750J0D01*
G01*
X100831250Y-84325000D01*
G75*
G02*
X101050000Y-84543750I0J-218750D01*
G01*
X101050000Y-85056250D01*
G75*
G02*
X100831250Y-85275000I-218750J0D01*
G01*
X100393750Y-85275000D01*
G75*
G02*
X100175000Y-85056250I0J218750D01*
G01*
G37*
%TD.AperFunction*%
%TD*%
%TO.P,R11,2*%
%TO.N,/A24*%
%TA.AperFunction,SMDPad,CuDef*%
G36*
G01*
X101750000Y-87556250D02*
X101750000Y-87043750D01*
G75*
G02*
X101968750Y-86825000I218750J0D01*
G01*
X102406250Y-86825000D01*
G75*
G02*
X102625000Y-87043750I0J-218750D01*
G01*
X102625000Y-87556250D01*
G75*
G02*
X102406250Y-87775000I-218750J0D01*
G01*
X101968750Y-87775000D01*
G75*
G02*
X101750000Y-87556250I0J218750D01*
G01*
G37*
%TD.AperFunction*%
%TO.P,R11,1*%
%TO.N,GND*%
%TA.AperFunction,SMDPad,CuDef*%
G36*
G01*
X100175000Y-87556250D02*
X100175000Y-87043750D01*
G75*
G02*
X100393750Y-86825000I218750J0D01*
G01*
X100831250Y-86825000D01*
G75*
G02*
X101050000Y-87043750I0J-218750D01*
G01*
X101050000Y-87556250D01*
G75*
G02*
X100831250Y-87775000I-218750J0D01*
G01*
X100393750Y-87775000D01*
G75*
G02*
X100175000Y-87556250I0J218750D01*
G01*
G37*
%TD.AperFunction*%
%TD*%
%TO.P,R10,2*%
%TO.N,/A23*%
%TA.AperFunction,SMDPad,CuDef*%
G36*
G01*
X101750000Y-90056250D02*
X101750000Y-89543750D01*
G75*
G02*
X101968750Y-89325000I218750J0D01*
G01*
X102406250Y-89325000D01*
G75*
G02*
X102625000Y-89543750I0J-218750D01*
G01*
X102625000Y-90056250D01*
G75*
G02*
X102406250Y-90275000I-218750J0D01*
G01*
X101968750Y-90275000D01*
G75*
G02*
X101750000Y-90056250I0J218750D01*
G01*
G37*
%TD.AperFunction*%
%TO.P,R10,1*%
%TO.N,GND*%
%TA.AperFunction,SMDPad,CuDef*%
G36*
G01*
X100175000Y-90056250D02*
X100175000Y-89543750D01*
G75*
G02*
X100393750Y-89325000I218750J0D01*
G01*
X100831250Y-89325000D01*
G75*
G02*
X101050000Y-89543750I0J-218750D01*
G01*
X101050000Y-90056250D01*
G75*
G02*
X100831250Y-90275000I-218750J0D01*
G01*
X100393750Y-90275000D01*
G75*
G02*
X100175000Y-90056250I0J218750D01*
G01*
G37*
%TD.AperFunction*%
%TD*%
%TO.P,R9,2*%
%TO.N,/A22*%
%TA.AperFunction,SMDPad,CuDef*%
G36*
G01*
X101750000Y-92556250D02*
X101750000Y-92043750D01*
G75*
G02*
X101968750Y-91825000I218750J0D01*
G01*
X102406250Y-91825000D01*
G75*
G02*
X102625000Y-92043750I0J-218750D01*
G01*
X102625000Y-92556250D01*
G75*
G02*
X102406250Y-92775000I-218750J0D01*
G01*
X101968750Y-92775000D01*
G75*
G02*
X101750000Y-92556250I0J218750D01*
G01*
G37*
%TD.AperFunction*%
%TO.P,R9,1*%
%TO.N,GND*%
%TA.AperFunction,SMDPad,CuDef*%
G36*
G01*
X100175000Y-92556250D02*
X100175000Y-92043750D01*
G75*
G02*
X100393750Y-91825000I218750J0D01*
G01*
X100831250Y-91825000D01*
G75*
G02*
X101050000Y-92043750I0J-218750D01*
G01*
X101050000Y-92556250D01*
G75*
G02*
X100831250Y-92775000I-218750J0D01*
G01*
X100393750Y-92775000D01*
G75*
G02*
X100175000Y-92556250I0J218750D01*
G01*
G37*
%TD.AperFunction*%
%TD*%
%TO.P,R8,2*%
%TO.N,/A21*%
%TA.AperFunction,SMDPad,CuDef*%
G36*
G01*
X101750000Y-95056250D02*
X101750000Y-94543750D01*
G75*
G02*
X101968750Y-94325000I218750J0D01*
G01*
X102406250Y-94325000D01*
G75*
G02*
X102625000Y-94543750I0J-218750D01*
G01*
X102625000Y-95056250D01*
G75*
G02*
X102406250Y-95275000I-218750J0D01*
G01*
X101968750Y-95275000D01*
G75*
G02*
X101750000Y-95056250I0J218750D01*
G01*
G37*
%TD.AperFunction*%
%TO.P,R8,1*%
%TO.N,GND*%
%TA.AperFunction,SMDPad,CuDef*%
G36*
G01*
X100175000Y-95056250D02*
X100175000Y-94543750D01*
G75*
G02*
X100393750Y-94325000I218750J0D01*
G01*
X100831250Y-94325000D01*
G75*
G02*
X101050000Y-94543750I0J-218750D01*
G01*
X101050000Y-95056250D01*
G75*
G02*
X100831250Y-95275000I-218750J0D01*
G01*
X100393750Y-95275000D01*
G75*
G02*
X100175000Y-95056250I0J218750D01*
G01*
G37*
%TD.AperFunction*%
%TD*%
%TO.P,R7,2*%
%TO.N,/A20*%
%TA.AperFunction,SMDPad,CuDef*%
G36*
G01*
X101750000Y-97556250D02*
X101750000Y-97043750D01*
G75*
G02*
X101968750Y-96825000I218750J0D01*
G01*
X102406250Y-96825000D01*
G75*
G02*
X102625000Y-97043750I0J-218750D01*
G01*
X102625000Y-97556250D01*
G75*
G02*
X102406250Y-97775000I-218750J0D01*
G01*
X101968750Y-97775000D01*
G75*
G02*
X101750000Y-97556250I0J218750D01*
G01*
G37*
%TD.AperFunction*%
%TO.P,R7,1*%
%TO.N,GND*%
%TA.AperFunction,SMDPad,CuDef*%
G36*
G01*
X100175000Y-97556250D02*
X100175000Y-97043750D01*
G75*
G02*
X100393750Y-96825000I218750J0D01*
G01*
X100831250Y-96825000D01*
G75*
G02*
X101050000Y-97043750I0J-218750D01*
G01*
X101050000Y-97556250D01*
G75*
G02*
X100831250Y-97775000I-218750J0D01*
G01*
X100393750Y-97775000D01*
G75*
G02*
X100175000Y-97556250I0J218750D01*
G01*
G37*
%TD.AperFunction*%
%TD*%
%TO.P,R6,2*%
%TO.N,/A15*%
%TA.AperFunction,SMDPad,CuDef*%
G36*
G01*
X61750000Y-85056250D02*
X61750000Y-84543750D01*
G75*
G02*
X61968750Y-84325000I218750J0D01*
G01*
X62406250Y-84325000D01*
G75*
G02*
X62625000Y-84543750I0J-218750D01*
G01*
X62625000Y-85056250D01*
G75*
G02*
X62406250Y-85275000I-218750J0D01*
G01*
X61968750Y-85275000D01*
G75*
G02*
X61750000Y-85056250I0J218750D01*
G01*
G37*
%TD.AperFunction*%
%TO.P,R6,1*%
%TO.N,GND*%
%TA.AperFunction,SMDPad,CuDef*%
G36*
G01*
X60175000Y-85056250D02*
X60175000Y-84543750D01*
G75*
G02*
X60393750Y-84325000I218750J0D01*
G01*
X60831250Y-84325000D01*
G75*
G02*
X61050000Y-84543750I0J-218750D01*
G01*
X61050000Y-85056250D01*
G75*
G02*
X60831250Y-85275000I-218750J0D01*
G01*
X60393750Y-85275000D01*
G75*
G02*
X60175000Y-85056250I0J218750D01*
G01*
G37*
%TD.AperFunction*%
%TD*%
%TO.P,R5,2*%
%TO.N,/A14*%
%TA.AperFunction,SMDPad,CuDef*%
G36*
G01*
X61750000Y-87556250D02*
X61750000Y-87043750D01*
G75*
G02*
X61968750Y-86825000I218750J0D01*
G01*
X62406250Y-86825000D01*
G75*
G02*
X62625000Y-87043750I0J-218750D01*
G01*
X62625000Y-87556250D01*
G75*
G02*
X62406250Y-87775000I-218750J0D01*
G01*
X61968750Y-87775000D01*
G75*
G02*
X61750000Y-87556250I0J218750D01*
G01*
G37*
%TD.AperFunction*%
%TO.P,R5,1*%
%TO.N,GND*%
%TA.AperFunction,SMDPad,CuDef*%
G36*
G01*
X60175000Y-87556250D02*
X60175000Y-87043750D01*
G75*
G02*
X60393750Y-86825000I218750J0D01*
G01*
X60831250Y-86825000D01*
G75*
G02*
X61050000Y-87043750I0J-218750D01*
G01*
X61050000Y-87556250D01*
G75*
G02*
X60831250Y-87775000I-218750J0D01*
G01*
X60393750Y-87775000D01*
G75*
G02*
X60175000Y-87556250I0J218750D01*
G01*
G37*
%TD.AperFunction*%
%TD*%
%TO.P,R4,2*%
%TO.N,/A13*%
%TA.AperFunction,SMDPad,CuDef*%
G36*
G01*
X61750000Y-90056250D02*
X61750000Y-89543750D01*
G75*
G02*
X61968750Y-89325000I218750J0D01*
G01*
X62406250Y-89325000D01*
G75*
G02*
X62625000Y-89543750I0J-218750D01*
G01*
X62625000Y-90056250D01*
G75*
G02*
X62406250Y-90275000I-218750J0D01*
G01*
X61968750Y-90275000D01*
G75*
G02*
X61750000Y-90056250I0J218750D01*
G01*
G37*
%TD.AperFunction*%
%TO.P,R4,1*%
%TO.N,GND*%
%TA.AperFunction,SMDPad,CuDef*%
G36*
G01*
X60175000Y-90056250D02*
X60175000Y-89543750D01*
G75*
G02*
X60393750Y-89325000I218750J0D01*
G01*
X60831250Y-89325000D01*
G75*
G02*
X61050000Y-89543750I0J-218750D01*
G01*
X61050000Y-90056250D01*
G75*
G02*
X60831250Y-90275000I-218750J0D01*
G01*
X60393750Y-90275000D01*
G75*
G02*
X60175000Y-90056250I0J218750D01*
G01*
G37*
%TD.AperFunction*%
%TD*%
%TO.P,R3,2*%
%TO.N,/A12*%
%TA.AperFunction,SMDPad,CuDef*%
G36*
G01*
X61750000Y-92556250D02*
X61750000Y-92043750D01*
G75*
G02*
X61968750Y-91825000I218750J0D01*
G01*
X62406250Y-91825000D01*
G75*
G02*
X62625000Y-92043750I0J-218750D01*
G01*
X62625000Y-92556250D01*
G75*
G02*
X62406250Y-92775000I-218750J0D01*
G01*
X61968750Y-92775000D01*
G75*
G02*
X61750000Y-92556250I0J218750D01*
G01*
G37*
%TD.AperFunction*%
%TO.P,R3,1*%
%TO.N,GND*%
%TA.AperFunction,SMDPad,CuDef*%
G36*
G01*
X60175000Y-92556250D02*
X60175000Y-92043750D01*
G75*
G02*
X60393750Y-91825000I218750J0D01*
G01*
X60831250Y-91825000D01*
G75*
G02*
X61050000Y-92043750I0J-218750D01*
G01*
X61050000Y-92556250D01*
G75*
G02*
X60831250Y-92775000I-218750J0D01*
G01*
X60393750Y-92775000D01*
G75*
G02*
X60175000Y-92556250I0J218750D01*
G01*
G37*
%TD.AperFunction*%
%TD*%
%TO.P,R2,2*%
%TO.N,/A11*%
%TA.AperFunction,SMDPad,CuDef*%
G36*
G01*
X61750000Y-95056250D02*
X61750000Y-94543750D01*
G75*
G02*
X61968750Y-94325000I218750J0D01*
G01*
X62406250Y-94325000D01*
G75*
G02*
X62625000Y-94543750I0J-218750D01*
G01*
X62625000Y-95056250D01*
G75*
G02*
X62406250Y-95275000I-218750J0D01*
G01*
X61968750Y-95275000D01*
G75*
G02*
X61750000Y-95056250I0J218750D01*
G01*
G37*
%TD.AperFunction*%
%TO.P,R2,1*%
%TO.N,GND*%
%TA.AperFunction,SMDPad,CuDef*%
G36*
G01*
X60175000Y-95056250D02*
X60175000Y-94543750D01*
G75*
G02*
X60393750Y-94325000I218750J0D01*
G01*
X60831250Y-94325000D01*
G75*
G02*
X61050000Y-94543750I0J-218750D01*
G01*
X61050000Y-95056250D01*
G75*
G02*
X60831250Y-95275000I-218750J0D01*
G01*
X60393750Y-95275000D01*
G75*
G02*
X60175000Y-95056250I0J218750D01*
G01*
G37*
%TD.AperFunction*%
%TD*%
%TO.P,R1,2*%
%TO.N,/A10*%
%TA.AperFunction,SMDPad,CuDef*%
G36*
G01*
X61795000Y-97556250D02*
X61795000Y-97043750D01*
G75*
G02*
X62013750Y-96825000I218750J0D01*
G01*
X62451250Y-96825000D01*
G75*
G02*
X62670000Y-97043750I0J-218750D01*
G01*
X62670000Y-97556250D01*
G75*
G02*
X62451250Y-97775000I-218750J0D01*
G01*
X62013750Y-97775000D01*
G75*
G02*
X61795000Y-97556250I0J218750D01*
G01*
G37*
%TD.AperFunction*%
%TO.P,R1,1*%
%TO.N,GND*%
%TA.AperFunction,SMDPad,CuDef*%
G36*
G01*
X60175000Y-97556250D02*
X60175000Y-97043750D01*
G75*
G02*
X60393750Y-96825000I218750J0D01*
G01*
X60831250Y-96825000D01*
G75*
G02*
X61050000Y-97043750I0J-218750D01*
G01*
X61050000Y-97556250D01*
G75*
G02*
X60831250Y-97775000I-218750J0D01*
G01*
X60393750Y-97775000D01*
G75*
G02*
X60175000Y-97556250I0J218750D01*
G01*
G37*
%TD.AperFunction*%
%TD*%
D15*
%TO.P,Q24,10*%
%TO.N,N/C*%
X122185000Y-51505000D03*
%TO.P,Q24,9*%
X122185000Y-55935000D03*
D16*
%TO.P,Q24,8*%
X119209000Y-55935000D03*
%TO.P,Q24,7*%
X119209000Y-51505000D03*
D17*
%TO.P,Q24,6*%
%TO.N,/D47*%
X121000000Y-52605000D03*
%TO.P,Q24,5*%
%TO.N,/D46*%
X121000000Y-54835000D03*
D18*
%TO.P,Q24,4*%
%TO.N,PWM47*%
X124795000Y-51815000D03*
%TO.P,Q24,3*%
%TO.N,GND*%
X124795000Y-53085000D03*
%TO.P,Q24,2*%
%TO.N,PWM46*%
X124795000Y-54355000D03*
%TO.P,Q24,1*%
%TO.N,GND*%
X124795000Y-55625000D03*
%TD*%
D15*
%TO.P,Q23,10*%
%TO.N,N/C*%
X132050000Y-51505000D03*
%TO.P,Q23,9*%
X132050000Y-55935000D03*
D16*
%TO.P,Q23,8*%
X129074000Y-55935000D03*
%TO.P,Q23,7*%
X129074000Y-51505000D03*
D17*
%TO.P,Q23,6*%
%TO.N,/D45*%
X130865000Y-52605000D03*
%TO.P,Q23,5*%
%TO.N,/D44*%
X130865000Y-54835000D03*
D18*
%TO.P,Q23,4*%
%TO.N,PWM45*%
X134660000Y-51815000D03*
%TO.P,Q23,3*%
%TO.N,GND*%
X134660000Y-53085000D03*
%TO.P,Q23,2*%
%TO.N,PWM44*%
X134660000Y-54355000D03*
%TO.P,Q23,1*%
%TO.N,GND*%
X134660000Y-55625000D03*
%TD*%
D15*
%TO.P,Q22,10*%
%TO.N,N/C*%
X132050000Y-65465000D03*
%TO.P,Q22,9*%
X132050000Y-69895000D03*
D16*
%TO.P,Q22,8*%
X129074000Y-69895000D03*
%TO.P,Q22,7*%
X129074000Y-65465000D03*
D17*
%TO.P,Q22,6*%
%TO.N,/D43*%
X130865000Y-66565000D03*
%TO.P,Q22,5*%
%TO.N,/D42*%
X130865000Y-68795000D03*
D18*
%TO.P,Q22,4*%
%TO.N,PWM43*%
X134660000Y-65775000D03*
%TO.P,Q22,3*%
%TO.N,GND*%
X134660000Y-67045000D03*
%TO.P,Q22,2*%
%TO.N,PWM42*%
X134660000Y-68315000D03*
%TO.P,Q22,1*%
%TO.N,GND*%
X134660000Y-69585000D03*
%TD*%
D15*
%TO.P,Q21,10*%
%TO.N,N/C*%
X122185000Y-65465000D03*
%TO.P,Q21,9*%
X122185000Y-69895000D03*
D16*
%TO.P,Q21,8*%
X119209000Y-69895000D03*
%TO.P,Q21,7*%
X119209000Y-65465000D03*
D17*
%TO.P,Q21,6*%
%TO.N,/D41*%
X121000000Y-66565000D03*
%TO.P,Q21,5*%
%TO.N,/D40*%
X121000000Y-68795000D03*
D18*
%TO.P,Q21,4*%
%TO.N,PWM41*%
X124795000Y-65775000D03*
%TO.P,Q21,3*%
%TO.N,GND*%
X124795000Y-67045000D03*
%TO.P,Q21,2*%
%TO.N,PWM40*%
X124795000Y-68315000D03*
%TO.P,Q21,1*%
%TO.N,GND*%
X124795000Y-69585000D03*
%TD*%
D15*
%TO.P,Q20,10*%
%TO.N,N/C*%
X122185000Y-73105000D03*
%TO.P,Q20,9*%
X122185000Y-77535000D03*
D16*
%TO.P,Q20,8*%
X119209000Y-77535000D03*
%TO.P,Q20,7*%
X119209000Y-73105000D03*
D17*
%TO.P,Q20,6*%
%TO.N,/D39*%
X121000000Y-74205000D03*
%TO.P,Q20,5*%
%TO.N,/D38*%
X121000000Y-76435000D03*
D18*
%TO.P,Q20,4*%
%TO.N,PWM39*%
X124795000Y-73415000D03*
%TO.P,Q20,3*%
%TO.N,GND*%
X124795000Y-74685000D03*
%TO.P,Q20,2*%
%TO.N,PWM38*%
X124795000Y-75955000D03*
%TO.P,Q20,1*%
%TO.N,GND*%
X124795000Y-77225000D03*
%TD*%
D15*
%TO.P,Q19,10*%
%TO.N,N/C*%
X132050000Y-73105000D03*
%TO.P,Q19,9*%
X132050000Y-77535000D03*
D16*
%TO.P,Q19,8*%
X129074000Y-77535000D03*
%TO.P,Q19,7*%
X129074000Y-73105000D03*
D17*
%TO.P,Q19,6*%
%TO.N,/D37*%
X130865000Y-74205000D03*
%TO.P,Q19,5*%
%TO.N,/D36*%
X130865000Y-76435000D03*
D18*
%TO.P,Q19,4*%
%TO.N,PWM37*%
X134660000Y-73415000D03*
%TO.P,Q19,3*%
%TO.N,GND*%
X134660000Y-74685000D03*
%TO.P,Q19,2*%
%TO.N,PWM36*%
X134660000Y-75955000D03*
%TO.P,Q19,1*%
%TO.N,GND*%
X134660000Y-77225000D03*
%TD*%
D15*
%TO.P,Q18,10*%
%TO.N,N/C*%
X132050000Y-87065000D03*
%TO.P,Q18,9*%
X132050000Y-91495000D03*
D16*
%TO.P,Q18,8*%
X129074000Y-91495000D03*
%TO.P,Q18,7*%
X129074000Y-87065000D03*
D17*
%TO.P,Q18,6*%
%TO.N,/D35*%
X130865000Y-88165000D03*
%TO.P,Q18,5*%
%TO.N,/D34*%
X130865000Y-90395000D03*
D18*
%TO.P,Q18,4*%
%TO.N,PWM35*%
X134660000Y-87375000D03*
%TO.P,Q18,3*%
%TO.N,GND*%
X134660000Y-88645000D03*
%TO.P,Q18,2*%
%TO.N,PWM34*%
X134660000Y-89915000D03*
%TO.P,Q18,1*%
%TO.N,GND*%
X134660000Y-91185000D03*
%TD*%
D15*
%TO.P,Q17,10*%
%TO.N,N/C*%
X122185000Y-87065000D03*
%TO.P,Q17,9*%
X122185000Y-91495000D03*
D16*
%TO.P,Q17,8*%
X119209000Y-91495000D03*
%TO.P,Q17,7*%
X119209000Y-87065000D03*
D17*
%TO.P,Q17,6*%
%TO.N,/D33*%
X121000000Y-88165000D03*
%TO.P,Q17,5*%
%TO.N,/D32*%
X121000000Y-90395000D03*
D18*
%TO.P,Q17,4*%
%TO.N,PWM33*%
X124795000Y-87375000D03*
%TO.P,Q17,3*%
%TO.N,GND*%
X124795000Y-88645000D03*
%TO.P,Q17,2*%
%TO.N,PWM32*%
X124795000Y-89915000D03*
%TO.P,Q17,1*%
%TO.N,GND*%
X124795000Y-91185000D03*
%TD*%
D15*
%TO.P,Q16,10*%
%TO.N,N/C*%
X82185000Y-51505000D03*
%TO.P,Q16,9*%
X82185000Y-55935000D03*
D16*
%TO.P,Q16,8*%
X79209000Y-55935000D03*
%TO.P,Q16,7*%
X79209000Y-51505000D03*
D17*
%TO.P,Q16,6*%
%TO.N,/D31*%
X81000000Y-52605000D03*
%TO.P,Q16,5*%
%TO.N,/D30*%
X81000000Y-54835000D03*
D18*
%TO.P,Q16,4*%
%TO.N,PWM31*%
X84795000Y-51815000D03*
%TO.P,Q16,3*%
%TO.N,GND*%
X84795000Y-53085000D03*
%TO.P,Q16,2*%
%TO.N,PWM30*%
X84795000Y-54355000D03*
%TO.P,Q16,1*%
%TO.N,GND*%
X84795000Y-55625000D03*
%TD*%
D15*
%TO.P,Q15,10*%
%TO.N,N/C*%
X92050000Y-51505000D03*
%TO.P,Q15,9*%
X92050000Y-55935000D03*
D16*
%TO.P,Q15,8*%
X89074000Y-55935000D03*
%TO.P,Q15,7*%
X89074000Y-51505000D03*
D17*
%TO.P,Q15,6*%
%TO.N,/D29*%
X90865000Y-52605000D03*
%TO.P,Q15,5*%
%TO.N,/D28*%
X90865000Y-54835000D03*
D18*
%TO.P,Q15,4*%
%TO.N,PWM29*%
X94660000Y-51815000D03*
%TO.P,Q15,3*%
%TO.N,GND*%
X94660000Y-53085000D03*
%TO.P,Q15,2*%
%TO.N,PWM28*%
X94660000Y-54355000D03*
%TO.P,Q15,1*%
%TO.N,GND*%
X94660000Y-55625000D03*
%TD*%
D15*
%TO.P,Q14,10*%
%TO.N,N/C*%
X92050000Y-65465000D03*
%TO.P,Q14,9*%
X92050000Y-69895000D03*
D16*
%TO.P,Q14,8*%
X89074000Y-69895000D03*
%TO.P,Q14,7*%
X89074000Y-65465000D03*
D17*
%TO.P,Q14,6*%
%TO.N,/D27*%
X90865000Y-66565000D03*
%TO.P,Q14,5*%
%TO.N,/D26*%
X90865000Y-68795000D03*
D18*
%TO.P,Q14,4*%
%TO.N,PWM27*%
X94660000Y-65775000D03*
%TO.P,Q14,3*%
%TO.N,GND*%
X94660000Y-67045000D03*
%TO.P,Q14,2*%
%TO.N,PWM26*%
X94660000Y-68315000D03*
%TO.P,Q14,1*%
%TO.N,GND*%
X94660000Y-69585000D03*
%TD*%
D15*
%TO.P,Q13,10*%
%TO.N,N/C*%
X82185000Y-65465000D03*
%TO.P,Q13,9*%
X82185000Y-69895000D03*
D16*
%TO.P,Q13,8*%
X79209000Y-69895000D03*
%TO.P,Q13,7*%
X79209000Y-65465000D03*
D17*
%TO.P,Q13,6*%
%TO.N,/D25*%
X81000000Y-66565000D03*
%TO.P,Q13,5*%
%TO.N,/D24*%
X81000000Y-68795000D03*
D18*
%TO.P,Q13,4*%
%TO.N,PWM25*%
X84795000Y-65775000D03*
%TO.P,Q13,3*%
%TO.N,GND*%
X84795000Y-67045000D03*
%TO.P,Q13,2*%
%TO.N,PWM24*%
X84795000Y-68315000D03*
%TO.P,Q13,1*%
%TO.N,GND*%
X84795000Y-69585000D03*
%TD*%
D15*
%TO.P,Q12,10*%
%TO.N,N/C*%
X82185000Y-73105000D03*
%TO.P,Q12,9*%
X82185000Y-77535000D03*
D16*
%TO.P,Q12,8*%
X79209000Y-77535000D03*
%TO.P,Q12,7*%
X79209000Y-73105000D03*
D17*
%TO.P,Q12,6*%
%TO.N,/D23*%
X81000000Y-74205000D03*
%TO.P,Q12,5*%
%TO.N,/D22*%
X81000000Y-76435000D03*
D18*
%TO.P,Q12,4*%
%TO.N,PWM23*%
X84795000Y-73415000D03*
%TO.P,Q12,3*%
%TO.N,GND*%
X84795000Y-74685000D03*
%TO.P,Q12,2*%
%TO.N,PWM22*%
X84795000Y-75955000D03*
%TO.P,Q12,1*%
%TO.N,GND*%
X84795000Y-77225000D03*
%TD*%
D15*
%TO.P,Q11,10*%
%TO.N,N/C*%
X92050000Y-73105000D03*
%TO.P,Q11,9*%
X92050000Y-77535000D03*
D16*
%TO.P,Q11,8*%
X89074000Y-77535000D03*
%TO.P,Q11,7*%
X89074000Y-73105000D03*
D17*
%TO.P,Q11,6*%
%TO.N,/D21*%
X90865000Y-74205000D03*
%TO.P,Q11,5*%
%TO.N,/D20*%
X90865000Y-76435000D03*
D18*
%TO.P,Q11,4*%
%TO.N,PWM21*%
X94660000Y-73415000D03*
%TO.P,Q11,3*%
%TO.N,GND*%
X94660000Y-74685000D03*
%TO.P,Q11,2*%
%TO.N,PWM20*%
X94660000Y-75955000D03*
%TO.P,Q11,1*%
%TO.N,GND*%
X94660000Y-77225000D03*
%TD*%
D15*
%TO.P,Q10,10*%
%TO.N,N/C*%
X92050000Y-87065000D03*
%TO.P,Q10,9*%
X92050000Y-91495000D03*
D16*
%TO.P,Q10,8*%
X89074000Y-91495000D03*
%TO.P,Q10,7*%
X89074000Y-87065000D03*
D17*
%TO.P,Q10,6*%
%TO.N,/D19*%
X90865000Y-88165000D03*
%TO.P,Q10,5*%
%TO.N,/D18*%
X90865000Y-90395000D03*
D18*
%TO.P,Q10,4*%
%TO.N,PWM19*%
X94660000Y-87375000D03*
%TO.P,Q10,3*%
%TO.N,GND*%
X94660000Y-88645000D03*
%TO.P,Q10,2*%
%TO.N,PWM18*%
X94660000Y-89915000D03*
%TO.P,Q10,1*%
%TO.N,GND*%
X94660000Y-91185000D03*
%TD*%
D15*
%TO.P,Q9,10*%
%TO.N,N/C*%
X82185000Y-87065000D03*
%TO.P,Q9,9*%
X82185000Y-91495000D03*
D16*
%TO.P,Q9,8*%
X79209000Y-91495000D03*
%TO.P,Q9,7*%
X79209000Y-87065000D03*
D17*
%TO.P,Q9,6*%
%TO.N,/D17*%
X81000000Y-88165000D03*
%TO.P,Q9,5*%
%TO.N,/D16*%
X81000000Y-90395000D03*
D18*
%TO.P,Q9,4*%
%TO.N,PWM17*%
X84795000Y-87375000D03*
%TO.P,Q9,3*%
%TO.N,GND*%
X84795000Y-88645000D03*
%TO.P,Q9,2*%
%TO.N,PWM16*%
X84795000Y-89915000D03*
%TO.P,Q9,1*%
%TO.N,GND*%
X84795000Y-91185000D03*
%TD*%
D15*
%TO.P,Q8,10*%
%TO.N,N/C*%
X42185000Y-51505000D03*
%TO.P,Q8,9*%
X42185000Y-55935000D03*
D16*
%TO.P,Q8,8*%
X39209000Y-55935000D03*
%TO.P,Q8,7*%
X39209000Y-51505000D03*
D17*
%TO.P,Q8,6*%
%TO.N,/D15*%
X41000000Y-52605000D03*
%TO.P,Q8,5*%
%TO.N,/D14*%
X41000000Y-54835000D03*
D18*
%TO.P,Q8,4*%
%TO.N,PWM15*%
X44795000Y-51815000D03*
%TO.P,Q8,3*%
%TO.N,GND*%
X44795000Y-53085000D03*
%TO.P,Q8,2*%
%TO.N,PWM14*%
X44795000Y-54355000D03*
%TO.P,Q8,1*%
%TO.N,GND*%
X44795000Y-55625000D03*
%TD*%
D15*
%TO.P,Q7,10*%
%TO.N,N/C*%
X52050000Y-51505000D03*
%TO.P,Q7,9*%
X52050000Y-55935000D03*
D16*
%TO.P,Q7,8*%
X49074000Y-55935000D03*
%TO.P,Q7,7*%
X49074000Y-51505000D03*
D17*
%TO.P,Q7,6*%
%TO.N,/D13*%
X50865000Y-52605000D03*
%TO.P,Q7,5*%
%TO.N,/D12*%
X50865000Y-54835000D03*
D18*
%TO.P,Q7,4*%
%TO.N,PWM13*%
X54660000Y-51815000D03*
%TO.P,Q7,3*%
%TO.N,GND*%
X54660000Y-53085000D03*
%TO.P,Q7,2*%
%TO.N,PWM12*%
X54660000Y-54355000D03*
%TO.P,Q7,1*%
%TO.N,GND*%
X54660000Y-55625000D03*
%TD*%
D15*
%TO.P,Q6,10*%
%TO.N,N/C*%
X52050000Y-65465000D03*
%TO.P,Q6,9*%
X52050000Y-69895000D03*
D16*
%TO.P,Q6,8*%
X49074000Y-69895000D03*
%TO.P,Q6,7*%
X49074000Y-65465000D03*
D17*
%TO.P,Q6,6*%
%TO.N,/D11*%
X50865000Y-66565000D03*
%TO.P,Q6,5*%
%TO.N,/D10*%
X50865000Y-68795000D03*
D18*
%TO.P,Q6,4*%
%TO.N,PWM11*%
X54660000Y-65775000D03*
%TO.P,Q6,3*%
%TO.N,GND*%
X54660000Y-67045000D03*
%TO.P,Q6,2*%
%TO.N,PWM10*%
X54660000Y-68315000D03*
%TO.P,Q6,1*%
%TO.N,GND*%
X54660000Y-69585000D03*
%TD*%
D15*
%TO.P,Q5,10*%
%TO.N,N/C*%
X42185000Y-65465000D03*
%TO.P,Q5,9*%
X42185000Y-69895000D03*
D16*
%TO.P,Q5,8*%
X39209000Y-69895000D03*
%TO.P,Q5,7*%
X39209000Y-65465000D03*
D17*
%TO.P,Q5,6*%
%TO.N,/D9*%
X41000000Y-66565000D03*
%TO.P,Q5,5*%
%TO.N,/D8*%
X41000000Y-68795000D03*
D18*
%TO.P,Q5,4*%
%TO.N,PWM9*%
X44795000Y-65775000D03*
%TO.P,Q5,3*%
%TO.N,GND*%
X44795000Y-67045000D03*
%TO.P,Q5,2*%
%TO.N,PWM8*%
X44795000Y-68315000D03*
%TO.P,Q5,1*%
%TO.N,GND*%
X44795000Y-69585000D03*
%TD*%
D15*
%TO.P,Q4,10*%
%TO.N,N/C*%
X42185000Y-73105000D03*
%TO.P,Q4,9*%
X42185000Y-77535000D03*
D16*
%TO.P,Q4,8*%
X39209000Y-77535000D03*
%TO.P,Q4,7*%
X39209000Y-73105000D03*
D17*
%TO.P,Q4,6*%
%TO.N,/D7*%
X41000000Y-74205000D03*
%TO.P,Q4,5*%
%TO.N,/D6*%
X41000000Y-76435000D03*
D18*
%TO.P,Q4,4*%
%TO.N,PWM7*%
X44795000Y-73415000D03*
%TO.P,Q4,3*%
%TO.N,GND*%
X44795000Y-74685000D03*
%TO.P,Q4,2*%
%TO.N,PWM6*%
X44795000Y-75955000D03*
%TO.P,Q4,1*%
%TO.N,GND*%
X44795000Y-77225000D03*
%TD*%
D15*
%TO.P,Q3,10*%
%TO.N,N/C*%
X52050000Y-73105000D03*
%TO.P,Q3,9*%
X52050000Y-77535000D03*
D16*
%TO.P,Q3,8*%
X49074000Y-77535000D03*
%TO.P,Q3,7*%
X49074000Y-73105000D03*
D17*
%TO.P,Q3,6*%
%TO.N,/D5*%
X50865000Y-74205000D03*
%TO.P,Q3,5*%
%TO.N,/D4*%
X50865000Y-76435000D03*
D18*
%TO.P,Q3,4*%
%TO.N,PWM5*%
X54660000Y-73415000D03*
%TO.P,Q3,3*%
%TO.N,GND*%
X54660000Y-74685000D03*
%TO.P,Q3,2*%
%TO.N,PWM4*%
X54660000Y-75955000D03*
%TO.P,Q3,1*%
%TO.N,GND*%
X54660000Y-77225000D03*
%TD*%
D15*
%TO.P,Q2,10*%
%TO.N,N/C*%
X52050000Y-87065000D03*
%TO.P,Q2,9*%
X52050000Y-91495000D03*
D16*
%TO.P,Q2,8*%
X49074000Y-91495000D03*
%TO.P,Q2,7*%
X49074000Y-87065000D03*
D17*
%TO.P,Q2,6*%
%TO.N,/D3*%
X50865000Y-88165000D03*
%TO.P,Q2,5*%
%TO.N,/D2*%
X50865000Y-90395000D03*
D18*
%TO.P,Q2,4*%
%TO.N,PWM3*%
X54660000Y-87375000D03*
%TO.P,Q2,3*%
%TO.N,GND*%
X54660000Y-88645000D03*
%TO.P,Q2,2*%
%TO.N,PWM2*%
X54660000Y-89915000D03*
%TO.P,Q2,1*%
%TO.N,GND*%
X54660000Y-91185000D03*
%TD*%
D15*
%TO.P,Q1,10*%
%TO.N,N/C*%
X42185000Y-87065000D03*
%TO.P,Q1,9*%
X42185000Y-91495000D03*
D16*
%TO.P,Q1,8*%
X39209000Y-91495000D03*
%TO.P,Q1,7*%
X39209000Y-87065000D03*
D17*
%TO.P,Q1,6*%
%TO.N,/D1*%
X41000000Y-88165000D03*
%TO.P,Q1,5*%
%TO.N,/D0*%
X41000000Y-90395000D03*
D18*
%TO.P,Q1,4*%
%TO.N,PWM1*%
X44795000Y-87375000D03*
%TO.P,Q1,3*%
%TO.N,GND*%
X44795000Y-88645000D03*
%TO.P,Q1,2*%
%TO.N,PWM0*%
X44795000Y-89915000D03*
%TO.P,Q1,1*%
%TO.N,GND*%
X44795000Y-91185000D03*
%TD*%
D19*
%TO.P,J5,24*%
%TO.N,GND*%
X162500000Y-47800000D03*
%TO.P,J5,23*%
%TO.N,Net-(J5-Pad23)*%
X162500000Y-52000000D03*
%TO.P,J5,22*%
%TO.N,Net-(J5-Pad22)*%
X162500000Y-56200000D03*
%TO.P,J5,21*%
%TO.N,Net-(J5-Pad21)*%
X162500000Y-60400000D03*
%TO.P,J5,20*%
%TO.N,Net-(J5-Pad20)*%
X162500000Y-64600000D03*
%TO.P,J5,19*%
%TO.N,GND*%
X162500000Y-68800000D03*
%TO.P,J5,18*%
X162500000Y-73000000D03*
%TO.P,J5,17*%
X162500000Y-77200000D03*
%TO.P,J5,16*%
%TO.N,Net-(J5-Pad16)*%
X162500000Y-81400000D03*
%TO.P,J5,15*%
%TO.N,GND*%
X162500000Y-85600000D03*
%TO.P,J5,14*%
%TO.N,Net-(J5-Pad14)*%
X162500000Y-89800000D03*
%TO.P,J5,13*%
%TO.N,Net-(J5-Pad13)*%
X162500000Y-94000000D03*
%TO.P,J5,12*%
%TO.N,Net-(J5-Pad12)*%
X157000000Y-47800000D03*
%TO.P,J5,11*%
%TO.N,Net-(J5-Pad11)*%
X157000000Y-52000000D03*
%TO.P,J5,10*%
%TO.N,+12V*%
X157000000Y-56200000D03*
%TO.P,J5,9*%
%TO.N,Net-(J5-Pad9)*%
X157000000Y-60400000D03*
%TO.P,J5,8*%
%TO.N,Net-(J5-Pad8)*%
X157000000Y-64600000D03*
%TO.P,J5,7*%
%TO.N,Net-(J5-Pad7)*%
X157000000Y-68800000D03*
%TO.P,J5,6*%
%TO.N,Net-(J5-Pad6)*%
X157000000Y-73000000D03*
%TO.P,J5,5*%
%TO.N,GND*%
X157000000Y-77200000D03*
%TO.P,J5,4*%
%TO.N,+5V*%
X157000000Y-81400000D03*
%TO.P,J5,3*%
%TO.N,GND*%
X157000000Y-85600000D03*
%TO.P,J5,2*%
%TO.N,Net-(J5-Pad2)*%
X157000000Y-89800000D03*
%TO.P,J5,1*%
%TO.N,Net-(J5-Pad1)*%
%TA.AperFunction,ComponentPad*%
G36*
G01*
X158399999Y-95350000D02*
X155600001Y-95350000D01*
G75*
G02*
X155350000Y-95099999I0J250001D01*
G01*
X155350000Y-92900001D01*
G75*
G02*
X155600001Y-92650000I250001J0D01*
G01*
X158399999Y-92650000D01*
G75*
G02*
X158650000Y-92900001I0J-250001D01*
G01*
X158650000Y-95099999D01*
G75*
G02*
X158399999Y-95350000I-250001J0D01*
G01*
G37*
%TD.AperFunction*%
%TD*%
D20*
%TO.N,GND*%
X50000000Y-82000000D03*
X50000000Y-61000000D03*
X52000000Y-61000000D03*
X54000000Y-61000000D03*
X56000000Y-61000000D03*
D21*
%TO.N,~OE*%
X78000000Y-47500000D03*
%TO.N,GND*%
X60500000Y-53000000D03*
X66225000Y-76000000D03*
X43700000Y-65775000D03*
X43700000Y-67045000D03*
X43700000Y-68315000D03*
X43700000Y-69585000D03*
X53550000Y-69585000D03*
X53550000Y-68315000D03*
X53550000Y-67045000D03*
X53550000Y-65775000D03*
X43700000Y-87375000D03*
X43700000Y-89915000D03*
X53550000Y-89915000D03*
X53550000Y-87375000D03*
X43700000Y-75955000D03*
X43700000Y-73415000D03*
X53550000Y-73415000D03*
X53550000Y-75955000D03*
X43700000Y-74685000D03*
X43700000Y-77225000D03*
X43700000Y-88645000D03*
X43700000Y-91185000D03*
X53550000Y-91185000D03*
X53550000Y-88645000D03*
X53550000Y-77225000D03*
X53550000Y-74685000D03*
X43700000Y-55625000D03*
X43700000Y-54355000D03*
X43700000Y-53085000D03*
X43700000Y-51815000D03*
X53550000Y-51815000D03*
X53550000Y-53085000D03*
X53550000Y-54355000D03*
X53550000Y-55625000D03*
X83700000Y-91185000D03*
X83700000Y-89915000D03*
X83700000Y-88645000D03*
X83700000Y-87375000D03*
X83700000Y-77225000D03*
X83700000Y-75955000D03*
X83700000Y-74685000D03*
X83700000Y-73415000D03*
X83700000Y-69585000D03*
X83700000Y-68315000D03*
X83700000Y-67045000D03*
X83700000Y-65775000D03*
X83700000Y-55625000D03*
X83700000Y-54355000D03*
X83700000Y-53085000D03*
X83700000Y-51815000D03*
X93550000Y-91185000D03*
X93550000Y-89915000D03*
X93550000Y-88645000D03*
X93550000Y-87375000D03*
X133550000Y-77225000D03*
X93550000Y-75955000D03*
X93550000Y-74685000D03*
X93550000Y-73415000D03*
X93550000Y-69585000D03*
X93550000Y-68315000D03*
X93550000Y-67045000D03*
X93550000Y-65775000D03*
X93550000Y-55625000D03*
X93550000Y-54355000D03*
X93550000Y-53085000D03*
X93550000Y-51815000D03*
X123700000Y-51815000D03*
X123700000Y-53085000D03*
X123700000Y-54355000D03*
X123700000Y-55625000D03*
X123700000Y-65775000D03*
X123700000Y-67045000D03*
X123700000Y-68315000D03*
X123700000Y-69585000D03*
X123700000Y-73415000D03*
X123700000Y-74685000D03*
X123700000Y-75955000D03*
X123700000Y-77225000D03*
X123700000Y-87375000D03*
X123700000Y-88645000D03*
X123700000Y-89915000D03*
X123700000Y-91185000D03*
X133550000Y-51815000D03*
X133550000Y-53085000D03*
X133550000Y-54355000D03*
X133550000Y-55625000D03*
X133550000Y-65775000D03*
X133550000Y-67045000D03*
X133550000Y-68315000D03*
X133550000Y-69585000D03*
X133550000Y-73415000D03*
X133550000Y-74685000D03*
X133550000Y-75955000D03*
X93550000Y-77225000D03*
X133550000Y-87375000D03*
X133550000Y-88645000D03*
X133550000Y-89915000D03*
X133550000Y-91185000D03*
X142187500Y-86050000D03*
X142187500Y-88550000D03*
X142187500Y-91050000D03*
X142187500Y-93550000D03*
X142187500Y-96050000D03*
X102187500Y-86050000D03*
X102187500Y-88550000D03*
X102187500Y-91050000D03*
X102187500Y-93550000D03*
X102187500Y-96050000D03*
X62187500Y-86050000D03*
X62187500Y-88550000D03*
X62187500Y-91050000D03*
X62187500Y-93550000D03*
X62187500Y-96050000D03*
X106225000Y-76000000D03*
X146225000Y-76000000D03*
X100500000Y-53000000D03*
X139390000Y-61900000D03*
D20*
X48000000Y-61000000D03*
X48000000Y-82000000D03*
X52000000Y-82000000D03*
X54000000Y-82000000D03*
X56000000Y-82000000D03*
X88000000Y-61000000D03*
X90000000Y-61000000D03*
X92000000Y-61000000D03*
X94000000Y-61000000D03*
X96000000Y-61000000D03*
X88000000Y-82000000D03*
X90000000Y-82000000D03*
X92000000Y-82000000D03*
X94000000Y-82000000D03*
X96000000Y-82000000D03*
X128000000Y-61000000D03*
X130000000Y-61000000D03*
X132000000Y-61000000D03*
X134000000Y-61000000D03*
X136000000Y-61000000D03*
X128000000Y-82000000D03*
X130000000Y-82000000D03*
X132000000Y-82000000D03*
X134000000Y-82000000D03*
X136000000Y-82000000D03*
X52000000Y-59000000D03*
X52000000Y-63000000D03*
X52000000Y-80000000D03*
X52000000Y-84000000D03*
X92000000Y-80000000D03*
X92000000Y-84000000D03*
X92000000Y-59000000D03*
X92000000Y-63000000D03*
X132000000Y-59000000D03*
X132000000Y-63000000D03*
X132000000Y-80000000D03*
X132000000Y-84000000D03*
X130000000Y-59000000D03*
X134000000Y-59000000D03*
X134000000Y-63000000D03*
X130000000Y-63000000D03*
X130000000Y-80000000D03*
X134000000Y-80000000D03*
X134000000Y-84000000D03*
X130000000Y-84000000D03*
X90000000Y-80000000D03*
X90000000Y-84000000D03*
X94000000Y-80000000D03*
X94000000Y-84000000D03*
X94000000Y-59000000D03*
X90000000Y-59000000D03*
X90000000Y-63000000D03*
X94000000Y-63000000D03*
X54000000Y-59000000D03*
X50000000Y-59000000D03*
X50000000Y-63000000D03*
X54000000Y-63000000D03*
X50000000Y-80000000D03*
X54000000Y-80000000D03*
X54000000Y-84000000D03*
X50000000Y-84000000D03*
X60500000Y-48500000D03*
%TO.N,+5V*%
X65000000Y-83000000D03*
X56200000Y-69585000D03*
X96200000Y-69585000D03*
X136200000Y-69585000D03*
X105000000Y-83000000D03*
X145000000Y-83000000D03*
%TO.N,+12V*%
X143510000Y-39450000D03*
%TO.N,/D0*%
X37700000Y-92000000D03*
%TO.N,/D1*%
X37700000Y-86500000D03*
%TO.N,/D2*%
X47700000Y-92000000D03*
%TO.N,/D3*%
X47700000Y-83517500D03*
%TO.N,/D4*%
X47700000Y-80390000D03*
%TO.N,/D5*%
X47700000Y-74205000D03*
%TO.N,/D6*%
X37700000Y-76435000D03*
%TO.N,/D7*%
X37700000Y-74205000D03*
%TO.N,/D8*%
X37700000Y-68900000D03*
%TO.N,/D9*%
X37700000Y-66400000D03*
%TO.N,/D10*%
X47700000Y-69000000D03*
%TO.N,/D11*%
X47700000Y-65340978D03*
%TO.N,/D12*%
X47700000Y-56460000D03*
%TO.N,/D13*%
X47700000Y-51120000D03*
%TO.N,/D14*%
X37700000Y-56170000D03*
%TO.N,/D15*%
X37700000Y-51310000D03*
%TO.N,/D16*%
X77700000Y-92000000D03*
%TO.N,/D17*%
X77700000Y-86500000D03*
%TO.N,/D18*%
X87700000Y-92000000D03*
%TO.N,/D19*%
X87700000Y-83517500D03*
%TO.N,/D20*%
X87700000Y-80390000D03*
%TO.N,/D21*%
X87700000Y-74205000D03*
%TO.N,/D22*%
X77700000Y-76435000D03*
%TO.N,/D23*%
X77700000Y-74205000D03*
%TO.N,/D24*%
X77700000Y-68900000D03*
%TO.N,/D25*%
X77700000Y-66400000D03*
%TO.N,/D26*%
X87700000Y-69000000D03*
%TO.N,/D27*%
X87700000Y-65340978D03*
%TO.N,/D28*%
X87700000Y-56460000D03*
%TO.N,/D29*%
X87700000Y-51120000D03*
%TO.N,/D30*%
X77700000Y-56170000D03*
%TO.N,/D31*%
X77700000Y-51310000D03*
%TO.N,/D32*%
X117700000Y-92000000D03*
%TO.N,/D33*%
X117700000Y-86500000D03*
%TO.N,/D34*%
X127700000Y-92000000D03*
%TO.N,/D35*%
X127700000Y-83517500D03*
%TO.N,/D36*%
X127700000Y-80390000D03*
%TO.N,/D37*%
X127700000Y-74205000D03*
%TO.N,/D38*%
X117700000Y-76435000D03*
%TO.N,/D39*%
X117700000Y-74205000D03*
%TO.N,/D40*%
X117700000Y-68900000D03*
%TO.N,/D41*%
X117700000Y-66400000D03*
%TO.N,/D42*%
X127700000Y-69000000D03*
%TO.N,/D43*%
X127700000Y-65340978D03*
%TO.N,/D44*%
X127700000Y-56460000D03*
%TO.N,/D45*%
X127700000Y-51120000D03*
%TO.N,/D46*%
X117700000Y-56170000D03*
%TO.N,/D47*%
X117700000Y-51310000D03*
D21*
%TO.N,SDA*%
X57500000Y-35000000D03*
X74040000Y-35000000D03*
X67140000Y-35000000D03*
D20*
%TO.N,/A15*%
X68000000Y-78500000D03*
%TO.N,/A25*%
X108000000Y-78500000D03*
%TO.N,/A35*%
X148000000Y-78500000D03*
%TO.N,PWM1*%
X49000000Y-93000000D03*
X63625000Y-80000000D03*
%TO.N,PWM0*%
X49000000Y-95000000D03*
X63625000Y-81500000D03*
%TO.N,PWM3*%
X56200000Y-87375000D03*
X63625000Y-77000000D03*
%TO.N,PWM2*%
X56200000Y-89915000D03*
X63625000Y-78500000D03*
%TO.N,PWM11*%
X66225000Y-65500000D03*
X56200000Y-65775000D03*
%TO.N,PWM10*%
X66225000Y-67000000D03*
X56200000Y-68315000D03*
%TO.N,PWM13*%
X64275000Y-62500000D03*
X56200000Y-51815000D03*
%TO.N,PWM12*%
X64275000Y-64000000D03*
X56200000Y-54355000D03*
%TO.N,PWM15*%
X49000000Y-48500000D03*
X64275000Y-59500000D03*
%TO.N,PWM14*%
X49000000Y-50000000D03*
X64275000Y-61000000D03*
%TO.N,PWM17*%
X103625000Y-80000000D03*
X89000000Y-93000000D03*
%TO.N,PWM16*%
X103625000Y-81500000D03*
X89000000Y-95000000D03*
%TO.N,PWM19*%
X103625000Y-77000000D03*
X96200000Y-87375000D03*
%TO.N,PWM18*%
X103625000Y-78500000D03*
X96200000Y-89915000D03*
%TO.N,PWM27*%
X106225000Y-65500000D03*
X96200000Y-65775000D03*
%TO.N,PWM26*%
X106225000Y-67000000D03*
X96200000Y-68315000D03*
%TO.N,PWM29*%
X96200000Y-51815000D03*
X104275000Y-62500000D03*
%TO.N,PWM28*%
X96200000Y-54355000D03*
X104275000Y-64000000D03*
%TO.N,PWM31*%
X89000000Y-48500000D03*
X104275000Y-59500000D03*
%TO.N,PWM30*%
X104275000Y-61000000D03*
X89000000Y-50000000D03*
%TO.N,PWM33*%
X143625000Y-80000000D03*
X129000000Y-93000000D03*
%TO.N,PWM32*%
X129000000Y-95000000D03*
X143625000Y-81500000D03*
%TO.N,PWM35*%
X136200000Y-87375000D03*
X143625000Y-77000000D03*
%TO.N,PWM34*%
X143625000Y-78500000D03*
X136200000Y-89915000D03*
%TO.N,PWM43*%
X146225000Y-65500000D03*
X136200000Y-65775000D03*
%TO.N,PWM42*%
X146225000Y-67000000D03*
X136200000Y-68315000D03*
%TO.N,PWM45*%
X144275000Y-62500000D03*
X136200000Y-51815000D03*
%TO.N,PWM44*%
X144275000Y-64000000D03*
X136200000Y-54355000D03*
%TO.N,PWM47*%
X144275000Y-59500000D03*
X129000000Y-48500000D03*
%TO.N,PWM46*%
X129000000Y-50000000D03*
X144275000Y-61000000D03*
D21*
%TO.N,~OE*%
X62000000Y-34000000D03*
X62000000Y-54000000D03*
X142000000Y-56000000D03*
X62000000Y-56000000D03*
X142000000Y-54000000D03*
X102000000Y-56000000D03*
X102000000Y-47500000D03*
X102000000Y-54000000D03*
X80489998Y-35780000D03*
%TD*%
D22*
%TO.N,GND*%
X141862500Y-96050000D02*
X142187500Y-96050000D01*
X140612500Y-94800000D02*
X141862500Y-96050000D01*
X141862500Y-93550000D02*
X142187500Y-93550000D01*
X140612500Y-92300000D02*
X141862500Y-93550000D01*
X141862500Y-91050000D02*
X142187500Y-91050000D01*
X140612500Y-89800000D02*
X141862500Y-91050000D01*
X141862500Y-88550000D02*
X142187500Y-88550000D01*
X140612500Y-87300000D02*
X141862500Y-88550000D01*
X141862500Y-86050000D02*
X142187500Y-86050000D01*
X140612500Y-84800000D02*
X141862500Y-86050000D01*
X101862500Y-86050000D02*
X102187500Y-86050000D01*
X100612500Y-84800000D02*
X101862500Y-86050000D01*
X101862500Y-88550000D02*
X102187500Y-88550000D01*
X100612500Y-87300000D02*
X101862500Y-88550000D01*
X101862500Y-91050000D02*
X102187500Y-91050000D01*
X100612500Y-89800000D02*
X101862500Y-91050000D01*
X101862500Y-93550000D02*
X102187500Y-93550000D01*
X100612500Y-92300000D02*
X101862500Y-93550000D01*
X101862500Y-96050000D02*
X102187500Y-96050000D01*
X100612500Y-94800000D02*
X101862500Y-96050000D01*
X61862500Y-96050000D02*
X62187500Y-96050000D01*
X60612500Y-94800000D02*
X61862500Y-96050000D01*
X61862500Y-93550000D02*
X62187500Y-93550000D01*
X60612500Y-92300000D02*
X61862500Y-93550000D01*
X61862500Y-91050000D02*
X62187500Y-91050000D01*
X60612500Y-89800000D02*
X61862500Y-91050000D01*
X61862500Y-88550000D02*
X62187500Y-88550000D01*
X60612500Y-87300000D02*
X61862500Y-88550000D01*
X61862500Y-86050000D02*
X62187500Y-86050000D01*
X60612500Y-84800000D02*
X61862500Y-86050000D01*
X146225000Y-74362500D02*
X146225000Y-76000000D01*
X106225000Y-74362500D02*
X106225000Y-76000000D01*
X66225000Y-74362500D02*
X66225000Y-76000000D01*
D23*
X59725000Y-68637500D02*
X59725000Y-68545000D01*
D22*
X99725000Y-68637500D02*
X99725000Y-53275000D01*
X59725000Y-68637500D02*
X59725000Y-53275000D01*
X60225000Y-53275000D02*
X60500000Y-53000000D01*
X59725000Y-53275000D02*
X60225000Y-53275000D01*
X100225000Y-53275000D02*
X100500000Y-53000000D01*
X99725000Y-53275000D02*
X100225000Y-53275000D01*
X139725000Y-62235000D02*
X139390000Y-61900000D01*
X139725000Y-68637500D02*
X139725000Y-62235000D01*
D24*
%TO.N,+5V*%
X68100000Y-84800000D02*
X68100000Y-97300000D01*
X108100000Y-84800000D02*
X108100000Y-97300000D01*
X148100000Y-84800000D02*
X148100000Y-95560002D01*
X148100000Y-95560002D02*
X148100000Y-97300000D01*
D22*
X137147500Y-68637500D02*
X136200000Y-69585000D01*
X137775000Y-68637500D02*
X137147500Y-68637500D01*
D23*
X108100000Y-84800000D02*
X108100000Y-84129998D01*
X146970002Y-83000000D02*
X145000000Y-83000000D01*
X148100000Y-84129998D02*
X146970002Y-83000000D01*
X148100000Y-84800000D02*
X148100000Y-84129998D01*
X148100000Y-97970002D02*
X148100000Y-97300000D01*
D25*
X108100000Y-100000000D02*
X108100000Y-97300000D01*
D23*
X65274512Y-83274512D02*
X65000000Y-83000000D01*
X68100000Y-84800000D02*
X68100000Y-84129998D01*
X68100000Y-84129998D02*
X67244514Y-83274512D01*
X67244514Y-83274512D02*
X65274512Y-83274512D01*
D22*
X57775000Y-68637500D02*
X57147500Y-68637500D01*
X57147500Y-68637500D02*
X56200000Y-69585000D01*
X97147500Y-68637500D02*
X96200000Y-69585000D01*
X97775000Y-68637500D02*
X97147500Y-68637500D01*
D23*
X108100000Y-84129998D02*
X106970002Y-83000000D01*
X106970002Y-83000000D02*
X105000000Y-83000000D01*
D25*
X69310000Y-100000000D02*
X108100000Y-100000000D01*
X68100000Y-97300000D02*
X68100000Y-98790000D01*
X68100000Y-98790000D02*
X69310000Y-100000000D01*
X148100000Y-100000000D02*
X148100000Y-97970002D01*
X108100000Y-100000000D02*
X148100000Y-100000000D01*
X157000000Y-81400000D02*
X153600000Y-81400000D01*
D22*
X53710000Y-37330000D02*
X53710000Y-35000000D01*
X57775000Y-68637500D02*
X57775000Y-42395000D01*
X57775000Y-42395000D02*
X53710000Y-38330000D01*
X53712500Y-33000000D02*
X53712500Y-34997500D01*
D24*
X150000000Y-77800000D02*
X153600000Y-81400000D01*
D22*
X53710000Y-38330000D02*
X53710000Y-37330000D01*
D25*
X152000000Y-83000000D02*
X153600000Y-81400000D01*
X152000000Y-97580000D02*
X152000000Y-83000000D01*
X148100000Y-100000000D02*
X149580000Y-100000000D01*
X149580000Y-100000000D02*
X152000000Y-97580000D01*
D24*
X150000000Y-47787500D02*
X150000000Y-77800000D01*
D22*
%TO.N,+12V*%
X143510000Y-45297500D02*
X143510000Y-39450000D01*
X146000000Y-47787500D02*
X143510000Y-45297500D01*
D24*
%TO.N,/D0*%
X34155000Y-90395000D02*
X34000000Y-90550000D01*
X41000000Y-90395000D02*
X38505000Y-90395000D01*
X38505000Y-90395000D02*
X38350000Y-90550000D01*
X37700000Y-90560000D02*
X37710000Y-90550000D01*
X37700000Y-92000000D02*
X37700000Y-90560000D01*
X38350000Y-90550000D02*
X37710000Y-90550000D01*
X37710000Y-90550000D02*
X34000000Y-90550000D01*
%TO.N,/D1*%
X34155000Y-88165000D02*
X34000000Y-88010000D01*
X37700000Y-88160000D02*
X37705000Y-88165000D01*
X41000000Y-88165000D02*
X37705000Y-88165000D01*
X37700000Y-86500000D02*
X37700000Y-88160000D01*
X37705000Y-88165000D02*
X34155000Y-88165000D01*
%TO.N,/D2*%
X50865000Y-90395000D02*
X49190002Y-90395000D01*
X44265002Y-85470000D02*
X34000000Y-85470000D01*
X47700000Y-92000000D02*
X47700000Y-88980000D01*
X49190002Y-90395000D02*
X47737501Y-88942499D01*
X47700000Y-88980000D02*
X47737501Y-88942499D01*
X47737501Y-88942499D02*
X44265002Y-85470000D01*
%TO.N,/D3*%
X50865000Y-86800000D02*
X48702500Y-84637500D01*
X50865000Y-88165000D02*
X50865000Y-86800000D01*
X46995000Y-82930000D02*
X34000000Y-82930000D01*
X48637500Y-84572500D02*
X47582500Y-83517500D01*
X48702500Y-84637500D02*
X48637500Y-84572500D01*
X47582500Y-83517500D02*
X46995000Y-82930000D01*
%TO.N,/D4*%
X50865000Y-77225000D02*
X47700000Y-80390000D01*
X50865000Y-76435000D02*
X50865000Y-77225000D01*
X34000000Y-80390000D02*
X47700000Y-80390000D01*
%TO.N,/D5*%
X50865000Y-74205000D02*
X47700000Y-74205000D01*
X47700000Y-75695002D02*
X47700000Y-74205000D01*
X44695003Y-78699999D02*
X47700000Y-75695002D01*
X34849999Y-78699999D02*
X44695003Y-78699999D01*
X34000000Y-77850000D02*
X34849999Y-78699999D01*
%TO.N,/D6*%
X41000000Y-76435000D02*
X37700000Y-76435000D01*
X36575000Y-75310000D02*
X37700000Y-76435000D01*
X34000000Y-75310000D02*
X36575000Y-75310000D01*
%TO.N,/D7*%
X41000000Y-74205000D02*
X37700000Y-74205000D01*
X36265000Y-72770000D02*
X37700000Y-74205000D01*
X34000000Y-72770000D02*
X36265000Y-72770000D01*
%TO.N,/D8*%
X37805000Y-68795000D02*
X37700000Y-68900000D01*
X41000000Y-68795000D02*
X37805000Y-68795000D01*
X36370000Y-70230000D02*
X37700000Y-68900000D01*
X34000000Y-70230000D02*
X36370000Y-70230000D01*
%TO.N,/D9*%
X37865000Y-66565000D02*
X37700000Y-66400000D01*
X41000000Y-66565000D02*
X37865000Y-66565000D01*
X36410000Y-67690000D02*
X37700000Y-66400000D01*
X34000000Y-67690000D02*
X36410000Y-67690000D01*
%TO.N,/D10*%
X47905000Y-68795000D02*
X47700000Y-69000000D01*
X50865000Y-68795000D02*
X47905000Y-68795000D01*
X44695003Y-64300001D02*
X47700000Y-67304998D01*
X34849999Y-64300001D02*
X44695003Y-64300001D01*
X47700000Y-67304998D02*
X47700000Y-69000000D01*
X34000000Y-65150000D02*
X34849999Y-64300001D01*
%TO.N,/D11*%
X44969022Y-62610000D02*
X47700000Y-65340978D01*
X34000000Y-62610000D02*
X44969022Y-62610000D01*
X48924022Y-66565000D02*
X47700000Y-65340978D01*
X50865000Y-66565000D02*
X48924022Y-66565000D01*
%TO.N,/D12*%
X47700000Y-56058998D02*
X47700000Y-56460000D01*
X48923998Y-54835000D02*
X47700000Y-56058998D01*
X50865000Y-54835000D02*
X48923998Y-54835000D01*
X44090000Y-60070000D02*
X47700000Y-56460000D01*
X34000000Y-60070000D02*
X44090000Y-60070000D01*
%TO.N,/D13*%
X50865000Y-52605000D02*
X49190002Y-52605000D01*
X44265002Y-57530000D02*
X34000000Y-57530000D01*
X47782501Y-54012501D02*
X44265002Y-57530000D01*
X49190002Y-52605000D02*
X47782501Y-54012501D01*
X47700000Y-53930000D02*
X47700000Y-51120000D01*
X47782501Y-54012501D02*
X47700000Y-53930000D01*
%TO.N,/D14*%
X34155000Y-54835000D02*
X34000000Y-54990000D01*
X37725000Y-54835000D02*
X34155000Y-54835000D01*
X41000000Y-54835000D02*
X37725000Y-54835000D01*
X37700000Y-54860000D02*
X37700000Y-56170000D01*
X37725000Y-54835000D02*
X37700000Y-54860000D01*
%TO.N,/D15*%
X34155000Y-52605000D02*
X34000000Y-52450000D01*
X37695000Y-51315000D02*
X37700000Y-51310000D01*
X37695000Y-52605000D02*
X37695000Y-51315000D01*
X37695000Y-52605000D02*
X34155000Y-52605000D01*
X41000000Y-52605000D02*
X37695000Y-52605000D01*
%TO.N,/D16*%
X74155000Y-90395000D02*
X74000000Y-90550000D01*
X77695000Y-91995000D02*
X77700000Y-92000000D01*
X77695000Y-90395000D02*
X77695000Y-91995000D01*
X77695000Y-90395000D02*
X74155000Y-90395000D01*
X81000000Y-90395000D02*
X77695000Y-90395000D01*
%TO.N,/D17*%
X74155000Y-88165000D02*
X74000000Y-88010000D01*
X77715000Y-86515000D02*
X77700000Y-86500000D01*
X77715000Y-88165000D02*
X77715000Y-86515000D01*
X77715000Y-88165000D02*
X74155000Y-88165000D01*
X81000000Y-88165000D02*
X77715000Y-88165000D01*
%TO.N,/D18*%
X90865000Y-90395000D02*
X89190002Y-90395000D01*
X84265002Y-85470000D02*
X74000000Y-85470000D01*
X87707501Y-91992499D02*
X87700000Y-92000000D01*
X87707501Y-88912499D02*
X87707501Y-91992499D01*
X87707501Y-88912499D02*
X84265002Y-85470000D01*
X89190002Y-90395000D02*
X87707501Y-88912499D01*
%TO.N,/D19*%
X87700000Y-83635000D02*
X87700000Y-83517500D01*
X90865000Y-86800000D02*
X87700000Y-83635000D01*
X90865000Y-88165000D02*
X90865000Y-86800000D01*
X74000000Y-82930000D02*
X87112500Y-82930000D01*
X87112500Y-82930000D02*
X87700000Y-83517500D01*
%TO.N,/D20*%
X74000000Y-80390000D02*
X87700000Y-80390000D01*
X87850000Y-80390000D02*
X87700000Y-80390000D01*
X90865000Y-76435000D02*
X90865000Y-77375000D01*
X90865000Y-77375000D02*
X87850000Y-80390000D01*
%TO.N,/D21*%
X90865000Y-74205000D02*
X87700000Y-74205000D01*
X74849999Y-78699999D02*
X84695003Y-78699999D01*
X74000000Y-77850000D02*
X74849999Y-78699999D01*
X84695003Y-78699999D02*
X87700000Y-75695002D01*
X87700000Y-75695002D02*
X87700000Y-74205000D01*
%TO.N,/D22*%
X76575000Y-75310000D02*
X77700000Y-76435000D01*
X74000000Y-75310000D02*
X76575000Y-75310000D01*
X81000000Y-76435000D02*
X77700000Y-76435000D01*
%TO.N,/D23*%
X76265000Y-72770000D02*
X77700000Y-74205000D01*
X74000000Y-72770000D02*
X76265000Y-72770000D01*
X81000000Y-74205000D02*
X77700000Y-74205000D01*
%TO.N,/D24*%
X77805000Y-68795000D02*
X77700000Y-68900000D01*
X81000000Y-68795000D02*
X77805000Y-68795000D01*
X76370000Y-70230000D02*
X77700000Y-68900000D01*
X74000000Y-70230000D02*
X76370000Y-70230000D01*
%TO.N,/D25*%
X76410000Y-67690000D02*
X77700000Y-66400000D01*
X74000000Y-67690000D02*
X76410000Y-67690000D01*
X77865000Y-66565000D02*
X77700000Y-66400000D01*
X81000000Y-66565000D02*
X77865000Y-66565000D01*
%TO.N,/D26*%
X87700000Y-67304998D02*
X87700000Y-69000000D01*
X84695003Y-64300001D02*
X87700000Y-67304998D01*
X74849999Y-64300001D02*
X84695003Y-64300001D01*
X74000000Y-65150000D02*
X74849999Y-64300001D01*
X87905000Y-68795000D02*
X87700000Y-69000000D01*
X90865000Y-68795000D02*
X87905000Y-68795000D01*
%TO.N,/D27*%
X88924022Y-66565000D02*
X87700000Y-65340978D01*
X90865000Y-66565000D02*
X88924022Y-66565000D01*
X84969022Y-62610000D02*
X87700000Y-65340978D01*
X74000000Y-62610000D02*
X84969022Y-62610000D01*
%TO.N,/D28*%
X84090000Y-60070000D02*
X87700000Y-56460000D01*
X74000000Y-60070000D02*
X84090000Y-60070000D01*
X87700000Y-56058998D02*
X87700000Y-56460000D01*
X88923998Y-54835000D02*
X87700000Y-56058998D01*
X90865000Y-54835000D02*
X88923998Y-54835000D01*
%TO.N,/D29*%
X90865000Y-52605000D02*
X89190002Y-52605000D01*
X84265002Y-57530000D02*
X74000000Y-57530000D01*
X87777501Y-54017501D02*
X84265002Y-57530000D01*
X89190002Y-52605000D02*
X87777501Y-54017501D01*
X87700000Y-53940000D02*
X87700000Y-51120000D01*
X87777501Y-54017501D02*
X87700000Y-53940000D01*
%TO.N,/D30*%
X74155000Y-54835000D02*
X74000000Y-54990000D01*
X77785000Y-54835000D02*
X74155000Y-54835000D01*
X81000000Y-54835000D02*
X77785000Y-54835000D01*
X77700000Y-54920000D02*
X77700000Y-56170000D01*
X77785000Y-54835000D02*
X77700000Y-54920000D01*
%TO.N,/D31*%
X74155000Y-52605000D02*
X74000000Y-52450000D01*
X77725000Y-52605000D02*
X74155000Y-52605000D01*
X81000000Y-52605000D02*
X77725000Y-52605000D01*
X77700000Y-52580000D02*
X77700000Y-51310000D01*
X77725000Y-52605000D02*
X77700000Y-52580000D01*
%TO.N,/D32*%
X114155000Y-90395000D02*
X114000000Y-90550000D01*
X117855000Y-90395000D02*
X114155000Y-90395000D01*
X121000000Y-90395000D02*
X117855000Y-90395000D01*
X117700000Y-90550000D02*
X117700000Y-92000000D01*
X117855000Y-90395000D02*
X117700000Y-90550000D01*
%TO.N,/D33*%
X114155000Y-88165000D02*
X114000000Y-88010000D01*
X117795000Y-88165000D02*
X114155000Y-88165000D01*
X121000000Y-88165000D02*
X117795000Y-88165000D01*
X117700000Y-88070000D02*
X117700000Y-86500000D01*
X117795000Y-88165000D02*
X117700000Y-88070000D01*
%TO.N,/D34*%
X130865000Y-90395000D02*
X129190002Y-90395000D01*
X124265002Y-85470000D02*
X114000000Y-85470000D01*
X129190002Y-90395000D02*
X127862501Y-89067499D01*
X127862501Y-89067499D02*
X124265002Y-85470000D01*
X127537501Y-88742499D02*
X127862501Y-89067499D01*
X127700000Y-92000000D02*
X127700000Y-88904998D01*
X127700000Y-88904998D02*
X127537501Y-88742499D01*
%TO.N,/D35*%
X130865000Y-86800000D02*
X126995000Y-82930000D01*
X130865000Y-88165000D02*
X130865000Y-86800000D01*
X126995000Y-82930000D02*
X114000000Y-82930000D01*
%TO.N,/D36*%
X130865000Y-77225000D02*
X127700000Y-80390000D01*
X130865000Y-76435000D02*
X130865000Y-77225000D01*
X114000000Y-80390000D02*
X127700000Y-80390000D01*
%TO.N,/D37*%
X130865000Y-74205000D02*
X127700000Y-74205000D01*
X127700000Y-75695002D02*
X127700000Y-74205000D01*
X124695003Y-78699999D02*
X127700000Y-75695002D01*
X114849999Y-78699999D02*
X124695003Y-78699999D01*
X114000000Y-77850000D02*
X114849999Y-78699999D01*
%TO.N,/D38*%
X121000000Y-76435000D02*
X115125000Y-76435000D01*
X115125000Y-76435000D02*
X114000000Y-75310000D01*
%TO.N,/D39*%
X121000000Y-74205000D02*
X115435000Y-74205000D01*
X115435000Y-74205000D02*
X114000000Y-72770000D01*
%TO.N,/D40*%
X117805000Y-68795000D02*
X117700000Y-68900000D01*
X121000000Y-68795000D02*
X117805000Y-68795000D01*
X116370000Y-70230000D02*
X117700000Y-68900000D01*
X114000000Y-70230000D02*
X116370000Y-70230000D01*
%TO.N,/D41*%
X116410000Y-67690000D02*
X117700000Y-66400000D01*
X114000000Y-67690000D02*
X116410000Y-67690000D01*
X117865000Y-66565000D02*
X117700000Y-66400000D01*
X121000000Y-66565000D02*
X117865000Y-66565000D01*
%TO.N,/D42*%
X127905000Y-68795000D02*
X127700000Y-69000000D01*
X130865000Y-68795000D02*
X127905000Y-68795000D01*
X124695003Y-64300001D02*
X127700000Y-67304998D01*
X127700000Y-67304998D02*
X127700000Y-69000000D01*
X114849999Y-64300001D02*
X124695003Y-64300001D01*
X114000000Y-65150000D02*
X114849999Y-64300001D01*
%TO.N,/D43*%
X128924022Y-66565000D02*
X127700000Y-65340978D01*
X130865000Y-66565000D02*
X128924022Y-66565000D01*
X124969022Y-62610000D02*
X127700000Y-65340978D01*
X114000000Y-62610000D02*
X124969022Y-62610000D01*
%TO.N,/D44*%
X127700000Y-56058998D02*
X127700000Y-56460000D01*
X128923998Y-54835000D02*
X127700000Y-56058998D01*
X130865000Y-54835000D02*
X128923998Y-54835000D01*
X124090000Y-60070000D02*
X127700000Y-56460000D01*
X114000000Y-60070000D02*
X124090000Y-60070000D01*
%TO.N,/D45*%
X130865000Y-52605000D02*
X129190002Y-52605000D01*
X124265002Y-57530000D02*
X114000000Y-57530000D01*
X127742501Y-54052501D02*
X124265002Y-57530000D01*
X129190002Y-52605000D02*
X127742501Y-54052501D01*
X127700000Y-54010000D02*
X127700000Y-51120000D01*
X127742501Y-54052501D02*
X127700000Y-54010000D01*
%TO.N,/D46*%
X114155000Y-54835000D02*
X114000000Y-54990000D01*
X117635000Y-54835000D02*
X114155000Y-54835000D01*
X121000000Y-54835000D02*
X117635000Y-54835000D01*
X117700000Y-54900000D02*
X117635000Y-54835000D01*
X117700000Y-56170000D02*
X117700000Y-54900000D01*
%TO.N,/D47*%
X114155000Y-52605000D02*
X114000000Y-52450000D01*
X117715000Y-52605000D02*
X114155000Y-52605000D01*
X121000000Y-52605000D02*
X117715000Y-52605000D01*
X117700000Y-52590000D02*
X117700000Y-51310000D01*
X117715000Y-52605000D02*
X117700000Y-52590000D01*
D22*
%TO.N,SCL*%
X59075000Y-60814998D02*
X59060000Y-60799998D01*
X59080000Y-33990000D02*
X59075000Y-33995000D01*
X59075000Y-67637500D02*
X59075000Y-33995000D01*
X59075000Y-33995000D02*
X59075000Y-33005000D01*
X59075000Y-33005000D02*
X59080000Y-33000000D01*
X59080000Y-33000000D02*
X55290000Y-33000000D01*
X59090001Y-30319999D02*
X59090001Y-28280001D01*
X59075000Y-33005000D02*
X59075000Y-30335000D01*
X59075000Y-30335000D02*
X59090001Y-30319999D01*
X59090001Y-28280001D02*
X57890000Y-27080000D01*
X59075000Y-68637500D02*
X59075000Y-67637500D01*
X139075000Y-67157880D02*
X139075000Y-68637500D01*
X138300010Y-66382890D02*
X139075000Y-67157880D01*
X138300010Y-49842890D02*
X138300010Y-66382890D01*
X74860000Y-33000000D02*
X83430000Y-41570000D01*
X59080000Y-33000000D02*
X74860000Y-33000000D01*
X130030000Y-41570000D02*
X138280000Y-49820000D01*
X83430000Y-41570000D02*
X130030000Y-41570000D01*
X138280000Y-49822880D02*
X138300010Y-49842890D01*
X138280000Y-49820000D02*
X138280000Y-49822880D01*
X68800000Y-34000000D02*
X68800000Y-33010000D01*
X99075000Y-46225000D02*
X96660000Y-43810000D01*
X99075000Y-68637500D02*
X99075000Y-46225000D01*
X78600000Y-43800000D02*
X68800000Y-34000000D01*
X96660000Y-43810000D02*
X78600000Y-43810000D01*
X78600000Y-43810000D02*
X78600000Y-43800000D01*
%TO.N,SDA*%
X74040000Y-35000000D02*
X74040000Y-35000000D01*
X67140000Y-35000000D02*
X67140000Y-35000000D01*
X55287500Y-35000000D02*
X57500000Y-35000000D01*
X98425000Y-47325000D02*
X95860000Y-44760000D01*
X98425000Y-68637500D02*
X98425000Y-47325000D01*
X68620000Y-37470000D02*
X68610000Y-37470000D01*
X95860000Y-44760000D02*
X75910000Y-44760000D01*
X75910000Y-44760000D02*
X68620000Y-37470000D01*
X58425000Y-35925000D02*
X57500000Y-35000000D01*
X58425000Y-68637500D02*
X58425000Y-35925000D01*
X67140000Y-35990000D02*
X67140000Y-35000000D01*
X68620000Y-37470000D02*
X67140000Y-35990000D01*
X138325010Y-68537510D02*
X138425000Y-68637500D01*
X138325010Y-67115010D02*
X138325010Y-68537510D01*
X74040000Y-36040000D02*
X80690000Y-42690000D01*
X74040000Y-35000000D02*
X74040000Y-36040000D01*
X137800000Y-50050000D02*
X137800000Y-66590000D01*
X137800000Y-66590000D02*
X138325010Y-67115010D01*
X80690000Y-42690000D02*
X130440000Y-42690000D01*
X130440000Y-42690000D02*
X137800000Y-50050000D01*
%TO.N,/A10*%
X62232500Y-97300000D02*
X66800000Y-97300000D01*
X61003425Y-96063425D02*
X62240000Y-97300000D01*
X57775000Y-74362500D02*
X57775000Y-95335000D01*
X58503425Y-96063425D02*
X61003425Y-96063425D01*
X57775000Y-95335000D02*
X58503425Y-96063425D01*
%TO.N,/A11*%
X62187500Y-94800000D02*
X66800000Y-94800000D01*
X60960000Y-93570000D02*
X62190000Y-94800000D01*
X58425000Y-83586790D02*
X58324960Y-83686830D01*
X58425000Y-74362500D02*
X58425000Y-83586790D01*
X58930000Y-93570000D02*
X60960000Y-93570000D01*
X58324960Y-83686830D02*
X58324960Y-92964960D01*
X58324960Y-92964960D02*
X58930000Y-93570000D01*
%TO.N,/A12*%
X62187500Y-92300000D02*
X66800000Y-92300000D01*
X60910000Y-91020000D02*
X62190000Y-92300000D01*
X59075000Y-83643910D02*
X58824970Y-83893940D01*
X59075000Y-74362500D02*
X59075000Y-83643910D01*
X58824970Y-83893940D02*
X58824970Y-90264970D01*
X59580000Y-91020000D02*
X60910000Y-91020000D01*
X58824970Y-90264970D02*
X59580000Y-91020000D01*
%TO.N,/A13*%
X62187500Y-89800000D02*
X66800000Y-89800000D01*
X60933425Y-88543425D02*
X62190000Y-89800000D01*
X59725000Y-83701030D02*
X59324980Y-84101050D01*
X59725000Y-74362500D02*
X59725000Y-83701030D01*
X59324980Y-84101050D02*
X59324980Y-87924980D01*
X59324980Y-87924980D02*
X59943425Y-88543425D01*
X59943425Y-88543425D02*
X60933425Y-88543425D01*
%TO.N,/A14*%
X62187500Y-87290000D02*
X66800000Y-87290000D01*
X60920000Y-86020000D02*
X62190000Y-87290000D01*
X60375000Y-83758150D02*
X59824990Y-84308160D01*
X60375000Y-74362500D02*
X60375000Y-83758150D01*
X60185010Y-86020000D02*
X60920000Y-86020000D01*
X59824990Y-84308160D02*
X59824990Y-85659980D01*
X59824990Y-85659980D02*
X60185010Y-86020000D01*
%TO.N,/A15*%
X62187500Y-84800000D02*
X66800000Y-84800000D01*
X60474990Y-54840000D02*
X68000000Y-54840000D01*
X68000000Y-54840000D02*
X68000000Y-78500000D01*
X60474990Y-68625010D02*
X60474990Y-54840000D01*
X60375000Y-68637500D02*
X60462500Y-68637500D01*
X60462500Y-68637500D02*
X60474990Y-68625010D01*
X67990000Y-78500000D02*
X68000000Y-78500000D01*
X68000000Y-78512500D02*
X68000000Y-78500000D01*
X62187500Y-84325000D02*
X68000000Y-78512500D01*
X62187500Y-84800000D02*
X62187500Y-84325000D01*
%TO.N,/A20*%
X101040000Y-96150000D02*
X102190000Y-97300000D01*
X97775000Y-74362500D02*
X97775000Y-95375000D01*
X98550000Y-96150000D02*
X101040000Y-96150000D01*
X97775000Y-95375000D02*
X98550000Y-96150000D01*
X102187500Y-97300000D02*
X106800000Y-97300000D01*
%TO.N,/A21*%
X100970000Y-93580000D02*
X102190000Y-94800000D01*
X98425000Y-83586790D02*
X98324960Y-83686830D01*
X98425000Y-74362500D02*
X98425000Y-83586790D01*
X98324960Y-92904960D02*
X99000000Y-93580000D01*
X98324960Y-83686830D02*
X98324960Y-92904960D01*
X99000000Y-93580000D02*
X100970000Y-93580000D01*
X102187500Y-94800000D02*
X106800000Y-94800000D01*
%TO.N,/A22*%
X100990000Y-91100000D02*
X102190000Y-92300000D01*
X99075000Y-83643910D02*
X98824970Y-83893940D01*
X99075000Y-74362500D02*
X99075000Y-83643910D01*
X98824970Y-83893940D02*
X98824970Y-90274970D01*
X98824970Y-90274970D02*
X99650000Y-91100000D01*
X99650000Y-91100000D02*
X100990000Y-91100000D01*
X102187500Y-92300000D02*
X106800000Y-92300000D01*
%TO.N,/A23*%
X100980000Y-88590000D02*
X102190000Y-89800000D01*
X99725000Y-83701030D02*
X99324980Y-84101050D01*
X99725000Y-74362500D02*
X99725000Y-83701030D01*
X99324980Y-87954980D02*
X99960000Y-88590000D01*
X99324980Y-84101050D02*
X99324980Y-87954980D01*
X99960000Y-88590000D02*
X100980000Y-88590000D01*
X102187500Y-89800000D02*
X106800000Y-89800000D01*
%TO.N,/A24*%
X100980000Y-86090000D02*
X102190000Y-87300000D01*
X100375000Y-74362500D02*
X100375000Y-83758150D01*
X100375000Y-83758150D02*
X99824990Y-84308160D01*
X99824990Y-84308160D02*
X99824990Y-85854990D01*
X100060000Y-86090000D02*
X100980000Y-86090000D01*
X99824990Y-85854990D02*
X100060000Y-86090000D01*
X102187500Y-87300000D02*
X106800000Y-87300000D01*
%TO.N,/A25*%
X102187500Y-84800000D02*
X106800000Y-84800000D01*
X108000000Y-78512500D02*
X108000000Y-78500000D01*
X102187500Y-84325000D02*
X108000000Y-78512500D01*
X102187500Y-84800000D02*
X102187500Y-84325000D01*
X108000000Y-54880000D02*
X108000000Y-78500000D01*
X100375000Y-68637500D02*
X100375000Y-54880000D01*
X100375000Y-54880000D02*
X108000000Y-54880000D01*
%TO.N,/A30*%
X142160000Y-97300000D02*
X146800000Y-97300000D01*
X140860000Y-96000000D02*
X142160000Y-97300000D01*
X138740000Y-96000000D02*
X140860000Y-96000000D01*
X137775000Y-74362500D02*
X137775000Y-95035000D01*
X137775000Y-95035000D02*
X138740000Y-96000000D01*
%TO.N,/A31*%
X140970000Y-93580000D02*
X142190000Y-94800000D01*
X138425000Y-83586790D02*
X138324960Y-83686830D01*
X138425000Y-74362500D02*
X138425000Y-83586790D01*
X142190000Y-94800000D02*
X146800000Y-94800000D01*
X138324960Y-83686830D02*
X138324960Y-92884960D01*
X138324960Y-92884960D02*
X139020000Y-93580000D01*
X139020000Y-93580000D02*
X140970000Y-93580000D01*
%TO.N,/A32*%
X142187500Y-92300000D02*
X146800000Y-92300000D01*
X140985000Y-91095000D02*
X142190000Y-92300000D01*
X139075000Y-83643910D02*
X138824970Y-83893940D01*
X139075000Y-74362500D02*
X139075000Y-83643910D01*
X138824970Y-83893940D02*
X138824970Y-90454970D01*
X138824970Y-90454970D02*
X139465000Y-91095000D01*
X139465000Y-91095000D02*
X140985000Y-91095000D01*
%TO.N,/A33*%
X142190000Y-89800000D02*
X146800000Y-89800000D01*
X140935000Y-88545000D02*
X142190000Y-89800000D01*
X139725000Y-83701030D02*
X139324980Y-84101050D01*
X139725000Y-74362500D02*
X139725000Y-83701030D01*
X139324980Y-87774980D02*
X140095000Y-88545000D01*
X139324980Y-84101050D02*
X139324980Y-87774980D01*
X140095000Y-88545000D02*
X140935000Y-88545000D01*
%TO.N,/A34*%
X141030000Y-86100000D02*
X142230000Y-87300000D01*
X140375000Y-83758150D02*
X139824990Y-84308160D01*
X142230000Y-87300000D02*
X146800000Y-87300000D01*
X140310000Y-86100000D02*
X141030000Y-86100000D01*
X140375000Y-74362500D02*
X140375000Y-83758150D01*
X139824990Y-85614990D02*
X140310000Y-86100000D01*
X139824990Y-84308160D02*
X139824990Y-85614990D01*
%TO.N,/A35*%
X142187500Y-84800000D02*
X146800000Y-84800000D01*
X148000000Y-78512500D02*
X148000000Y-78500000D01*
X142187500Y-84325000D02*
X148000000Y-78512500D01*
X142187500Y-84800000D02*
X142187500Y-84325000D01*
X148000000Y-54930000D02*
X148000000Y-78500000D01*
X140474990Y-68630010D02*
X140474990Y-54930000D01*
X140474990Y-54930000D02*
X148000000Y-54930000D01*
X140375000Y-68637500D02*
X140467500Y-68637500D01*
X140467500Y-68637500D02*
X140474990Y-68630010D01*
%TO.N,PWM1*%
X47441998Y-93000000D02*
X49000000Y-93000000D01*
X46849999Y-92408001D02*
X47441998Y-93000000D01*
X46849999Y-89274999D02*
X46849999Y-92408001D01*
X44950000Y-87375000D02*
X46849999Y-89274999D01*
X44795000Y-87375000D02*
X44950000Y-87375000D01*
X61675000Y-78050000D02*
X63625000Y-80000000D01*
X61675000Y-74362500D02*
X61675000Y-78050000D01*
%TO.N,PWM0*%
X48734878Y-95000000D02*
X49000000Y-95000000D01*
X45505001Y-91770123D02*
X48734878Y-95000000D01*
X45505001Y-90625001D02*
X45505001Y-91770123D01*
X44795000Y-89915000D02*
X45505001Y-90625001D01*
X61025000Y-78900000D02*
X63625000Y-81500000D01*
X61025000Y-74362500D02*
X61025000Y-78900000D01*
%TO.N,PWM3*%
X62975000Y-76350000D02*
X63625000Y-77000000D01*
X62975000Y-74362500D02*
X62975000Y-76350000D01*
X54660000Y-87375000D02*
X56200000Y-87375000D01*
%TO.N,PWM2*%
X54660000Y-89915000D02*
X56200000Y-89915000D01*
X62325000Y-77200000D02*
X63625000Y-78500000D01*
X62325000Y-74362500D02*
X62325000Y-77200000D01*
%TO.N,PWM5*%
X63468514Y-72774980D02*
X55295020Y-72774980D01*
X64275000Y-74362500D02*
X64275000Y-73581466D01*
X64275000Y-73581466D02*
X63468514Y-72774980D01*
X55295020Y-72774980D02*
X54660000Y-73410000D01*
%TO.N,PWM4*%
X63261404Y-73274990D02*
X57335010Y-73274990D01*
X63625000Y-74362500D02*
X63625000Y-73638586D01*
X63625000Y-73638586D02*
X63261404Y-73274990D01*
X57335010Y-73274990D02*
X54660000Y-75950000D01*
%TO.N,PWM7*%
X63954960Y-71774960D02*
X65575000Y-73395000D01*
X45930040Y-71774960D02*
X63954960Y-71774960D01*
X44795000Y-73415000D02*
X44795000Y-72910000D01*
X65575000Y-73395000D02*
X65575000Y-74362500D01*
X44795000Y-72910000D02*
X45930040Y-71774960D01*
%TO.N,PWM6*%
X64925000Y-74362500D02*
X64925000Y-73524346D01*
X64925000Y-73524346D02*
X63675624Y-72274970D01*
X48400032Y-72274970D02*
X44800000Y-75875002D01*
X63675624Y-72274970D02*
X48400032Y-72274970D01*
X44800000Y-75875002D02*
X44800000Y-75950000D01*
%TO.N,PWM9*%
X45505001Y-66485001D02*
X44800000Y-65780000D01*
X45505001Y-68115001D02*
X45505001Y-66485001D01*
X47920000Y-70530000D02*
X45505001Y-68115001D01*
X51507498Y-70530000D02*
X47920000Y-70530000D01*
X51514999Y-70537501D02*
X51507498Y-70530000D01*
X65575000Y-69475654D02*
X64520654Y-70530000D01*
X64520654Y-70530000D02*
X52592502Y-70530000D01*
X65575000Y-68637500D02*
X65575000Y-69475654D01*
X52592502Y-70530000D02*
X52585001Y-70537501D01*
X52585001Y-70537501D02*
X51514999Y-70537501D01*
%TO.N,PWM8*%
X64717774Y-71040000D02*
X47520000Y-71040000D01*
X47520000Y-71040000D02*
X44800000Y-68320000D01*
X66225000Y-68637500D02*
X66225000Y-69532774D01*
X66225000Y-69532774D02*
X64717774Y-71040000D01*
%TO.N,PWM11*%
X66225000Y-65741998D02*
X66225000Y-65500000D01*
X64275000Y-67691998D02*
X66225000Y-65741998D01*
X64275000Y-68637500D02*
X64275000Y-67691998D01*
X54660000Y-65775000D02*
X56200000Y-65775000D01*
%TO.N,PWM10*%
X65838586Y-67000000D02*
X66225000Y-67000000D01*
X64925000Y-67913586D02*
X65838586Y-67000000D01*
X64925000Y-68637500D02*
X64925000Y-67913586D01*
X54660000Y-68315000D02*
X56200000Y-68315000D01*
%TO.N,PWM13*%
X62975000Y-63800000D02*
X64275000Y-62500000D01*
X62975000Y-68637500D02*
X62975000Y-63800000D01*
X54660000Y-51815000D02*
X56200000Y-51815000D01*
%TO.N,PWM12*%
X63625000Y-64650000D02*
X64275000Y-64000000D01*
X63625000Y-68637500D02*
X63625000Y-64650000D01*
X54660000Y-54355000D02*
X56200000Y-54355000D01*
%TO.N,PWM15*%
X44795000Y-51815000D02*
X44795000Y-51205000D01*
X61675000Y-68637500D02*
X61675000Y-62204622D01*
X61675000Y-62100000D02*
X61675000Y-62204622D01*
X64275000Y-59500000D02*
X61675000Y-62100000D01*
X47500000Y-48500000D02*
X49000000Y-48500000D01*
X44795000Y-51205000D02*
X47500000Y-48500000D01*
%TO.N,PWM14*%
X62325000Y-62950000D02*
X64275000Y-61000000D01*
X62325000Y-68637500D02*
X62325000Y-62950000D01*
X44795000Y-54355000D02*
X45640000Y-53510000D01*
X45640000Y-53510000D02*
X45640000Y-51921998D01*
X47561998Y-50000000D02*
X49000000Y-50000000D01*
X45640000Y-51921998D02*
X47561998Y-50000000D01*
%TO.N,PWM17*%
X101675000Y-78050000D02*
X103625000Y-80000000D01*
X101675000Y-74362500D02*
X101675000Y-78050000D01*
X87441998Y-93000000D02*
X89000000Y-93000000D01*
X86849999Y-89429999D02*
X86849999Y-92408001D01*
X86849999Y-92408001D02*
X87441998Y-93000000D01*
X84795000Y-87375000D02*
X86849999Y-89429999D01*
%TO.N,PWM16*%
X101025000Y-78900000D02*
X103625000Y-81500000D01*
X101025000Y-74362500D02*
X101025000Y-78900000D01*
X85505001Y-92212107D02*
X88292894Y-95000000D01*
X88292894Y-95000000D02*
X89000000Y-95000000D01*
X85505001Y-90625001D02*
X85505001Y-92212107D01*
X84795000Y-89915000D02*
X85505001Y-90625001D01*
%TO.N,PWM19*%
X102975000Y-76350000D02*
X103625000Y-77000000D01*
X102975000Y-74362500D02*
X102975000Y-76350000D01*
X94660000Y-87375000D02*
X96200000Y-87375000D01*
%TO.N,PWM18*%
X102325000Y-77200000D02*
X103625000Y-78500000D01*
X102325000Y-74362500D02*
X102325000Y-77200000D01*
X94660000Y-89915000D02*
X96200000Y-89915000D01*
%TO.N,PWM21*%
X103482100Y-72774980D02*
X95295020Y-72774980D01*
X104275000Y-74362500D02*
X104275000Y-73567880D01*
X104275000Y-73567880D02*
X103482100Y-72774980D01*
X95295020Y-72774980D02*
X94660000Y-73410000D01*
%TO.N,PWM20*%
X103274990Y-73274990D02*
X97335010Y-73274990D01*
X103625000Y-74362500D02*
X103625000Y-73625000D01*
X103625000Y-73625000D02*
X103274990Y-73274990D01*
X97335010Y-73274990D02*
X94660000Y-75950000D01*
%TO.N,PWM23*%
X103896320Y-71774960D02*
X86435040Y-71774960D01*
X105575000Y-74362500D02*
X105575000Y-73453640D01*
X105575000Y-73453640D02*
X103896320Y-71774960D01*
X86435040Y-71774960D02*
X84800000Y-73410000D01*
%TO.N,PWM22*%
X103689210Y-72274970D02*
X88372028Y-72274970D01*
X104925000Y-74362500D02*
X104925000Y-73510760D01*
X88372028Y-72274970D02*
X84800000Y-75846998D01*
X104925000Y-73510760D02*
X103689210Y-72274970D01*
X84800000Y-75846998D02*
X84800000Y-75950000D01*
%TO.N,PWM25*%
X85505001Y-68063003D02*
X85505001Y-66485001D01*
X87979499Y-70537501D02*
X85505001Y-68063003D01*
X104398913Y-70537501D02*
X87979499Y-70537501D01*
X105575000Y-68637500D02*
X105575000Y-69361414D01*
X105575000Y-69361414D02*
X104398913Y-70537501D01*
X85505001Y-66485001D02*
X84800000Y-65780000D01*
%TO.N,PWM24*%
X104606023Y-71037511D02*
X87517511Y-71037511D01*
X106225000Y-68637500D02*
X106225000Y-69418534D01*
X106225000Y-69418534D02*
X104606023Y-71037511D01*
X87517511Y-71037511D02*
X84800000Y-68320000D01*
%TO.N,PWM27*%
X104374990Y-67350010D02*
X106225000Y-65500000D01*
X104374990Y-68195010D02*
X104374990Y-67350010D01*
X104275000Y-68295000D02*
X104374990Y-68195010D01*
X104275000Y-68637500D02*
X104275000Y-68295000D01*
X94660000Y-65775000D02*
X96200000Y-65775000D01*
%TO.N,PWM26*%
X105838586Y-67000000D02*
X106225000Y-67000000D01*
X104925000Y-67913586D02*
X105838586Y-67000000D01*
X104925000Y-68637500D02*
X104925000Y-67913586D01*
X94660000Y-68315000D02*
X96200000Y-68315000D01*
%TO.N,PWM29*%
X102975000Y-63800000D02*
X104275000Y-62500000D01*
X102975000Y-68637500D02*
X102975000Y-63800000D01*
X94660000Y-51815000D02*
X96200000Y-51815000D01*
%TO.N,PWM28*%
X103625000Y-64650000D02*
X104275000Y-64000000D01*
X103625000Y-68637500D02*
X103625000Y-64650000D01*
X94660000Y-54355000D02*
X96200000Y-54355000D01*
%TO.N,PWM31*%
X101675000Y-62100000D02*
X104275000Y-59500000D01*
X101675000Y-68637500D02*
X101675000Y-62100000D01*
X84795000Y-51815000D02*
X84795000Y-51205000D01*
X87500000Y-48500000D02*
X89000000Y-48500000D01*
X84795000Y-51205000D02*
X87500000Y-48500000D01*
%TO.N,PWM30*%
X102325000Y-62950000D02*
X104275000Y-61000000D01*
X102325000Y-68637500D02*
X102325000Y-62950000D01*
X84795000Y-54355000D02*
X85650000Y-53500000D01*
X85650000Y-53500000D02*
X85650000Y-51911998D01*
X87561998Y-50000000D02*
X89000000Y-50000000D01*
X85650000Y-51911998D02*
X87561998Y-50000000D01*
%TO.N,PWM33*%
X141675000Y-78050000D02*
X143625000Y-80000000D01*
X141675000Y-74362500D02*
X141675000Y-78050000D01*
X126849999Y-92408001D02*
X127441998Y-93000000D01*
X127441998Y-93000000D02*
X129000000Y-93000000D01*
X126849999Y-89429999D02*
X126849999Y-92408001D01*
X124795000Y-87375000D02*
X126849999Y-89429999D01*
%TO.N,PWM32*%
X141025000Y-78900000D02*
X143625000Y-81500000D01*
X141025000Y-74362500D02*
X141025000Y-78900000D01*
X128292894Y-95000000D02*
X129000000Y-95000000D01*
X126349989Y-91469989D02*
X126349989Y-93057095D01*
X126349989Y-93057095D02*
X128292894Y-95000000D01*
X124795000Y-89915000D02*
X126349989Y-91469989D01*
%TO.N,PWM35*%
X142975000Y-76350000D02*
X143625000Y-77000000D01*
X142975000Y-74362500D02*
X142975000Y-76350000D01*
X134660000Y-87375000D02*
X136200000Y-87375000D01*
%TO.N,PWM34*%
X142325000Y-77200000D02*
X143625000Y-78500000D01*
X142325000Y-74362500D02*
X142325000Y-77200000D01*
X134660000Y-89915000D02*
X136200000Y-89915000D01*
%TO.N,PWM37*%
X144175010Y-73467890D02*
X143482100Y-72774980D01*
X143482100Y-72774980D02*
X135295020Y-72774980D01*
X144275000Y-74362500D02*
X144222500Y-74362500D01*
X144175010Y-74315010D02*
X144175010Y-73467890D01*
X144222500Y-74362500D02*
X144175010Y-74315010D01*
X135295020Y-72774980D02*
X134660000Y-73410000D01*
%TO.N,PWM36*%
X143274990Y-73274990D02*
X137335010Y-73274990D01*
X143625000Y-74362500D02*
X143625000Y-73625000D01*
X143625000Y-73625000D02*
X143274990Y-73274990D01*
X137335010Y-73274990D02*
X134660000Y-75950000D01*
%TO.N,PWM39*%
X143896320Y-71774960D02*
X126435040Y-71774960D01*
X145575000Y-74362500D02*
X145575000Y-73453640D01*
X145575000Y-73453640D02*
X143896320Y-71774960D01*
X126435040Y-71774960D02*
X124800000Y-73410000D01*
%TO.N,PWM38*%
X128372028Y-72274970D02*
X124800000Y-75846998D01*
X143689210Y-72274970D02*
X128372028Y-72274970D01*
X144925000Y-74362500D02*
X144925000Y-73510760D01*
X144925000Y-73510760D02*
X143689210Y-72274970D01*
X124800000Y-75846998D02*
X124800000Y-75950000D01*
%TO.N,PWM41*%
X127979499Y-70537501D02*
X125540000Y-68098002D01*
X145575000Y-68637500D02*
X145575000Y-69361414D01*
X125540000Y-68098002D02*
X125540000Y-66520000D01*
X144398913Y-70537501D02*
X127979499Y-70537501D01*
X145575000Y-69361414D02*
X144398913Y-70537501D01*
X125540000Y-66520000D02*
X124800000Y-65780000D01*
%TO.N,PWM40*%
X144606023Y-71037511D02*
X127517511Y-71037511D01*
X146225000Y-68637500D02*
X146225000Y-69418534D01*
X146225000Y-69418534D02*
X144606023Y-71037511D01*
X127517511Y-71037511D02*
X124800000Y-68320000D01*
%TO.N,PWM43*%
X144374990Y-67350010D02*
X146225000Y-65500000D01*
X144374990Y-68105010D02*
X144374990Y-67350010D01*
X144275000Y-68205000D02*
X144374990Y-68105010D01*
X144275000Y-68637500D02*
X144275000Y-68205000D01*
X134660000Y-65775000D02*
X136200000Y-65775000D01*
%TO.N,PWM42*%
X145838586Y-67000000D02*
X146225000Y-67000000D01*
X144925000Y-67913586D02*
X145838586Y-67000000D01*
X144925000Y-68637500D02*
X144925000Y-67913586D01*
X134660000Y-68315000D02*
X136200000Y-68315000D01*
%TO.N,PWM45*%
X142975000Y-63800000D02*
X144275000Y-62500000D01*
X142975000Y-68637500D02*
X142975000Y-63800000D01*
X134660000Y-51815000D02*
X136200000Y-51815000D01*
%TO.N,PWM44*%
X143625000Y-64650000D02*
X144275000Y-64000000D01*
X143625000Y-68637500D02*
X143625000Y-64650000D01*
X134660000Y-54355000D02*
X136200000Y-54355000D01*
%TO.N,PWM47*%
X124795000Y-51815000D02*
X124795000Y-51205000D01*
X141675000Y-62100000D02*
X144275000Y-59500000D01*
X141675000Y-68637500D02*
X141675000Y-62100000D01*
X127500000Y-48500000D02*
X129000000Y-48500000D01*
X124795000Y-51205000D02*
X127500000Y-48500000D01*
%TO.N,PWM46*%
X125505001Y-53644999D02*
X125505001Y-52056997D01*
X124795000Y-54355000D02*
X125505001Y-53644999D01*
X142325000Y-62950000D02*
X144275000Y-61000000D01*
X142325000Y-68637500D02*
X142325000Y-62950000D01*
X127561998Y-50000000D02*
X129000000Y-50000000D01*
X125505001Y-52056997D02*
X127561998Y-50000000D01*
%TO.N,~OE*%
X61025000Y-56975000D02*
X62000000Y-56000000D01*
X61025000Y-68637500D02*
X61025000Y-56975000D01*
X141025000Y-56975000D02*
X142000000Y-56000000D01*
X141025000Y-68637500D02*
X141025000Y-56975000D01*
X62000000Y-54000000D02*
X62000000Y-52889998D01*
X62000000Y-45000000D02*
X62000000Y-34000000D01*
X101025000Y-56975000D02*
X102000000Y-56000000D01*
X101025000Y-68637500D02*
X101025000Y-56975000D01*
X62000000Y-45000000D02*
X62000000Y-46000000D01*
X84049998Y-39340000D02*
X80489998Y-35780000D01*
X128507120Y-39340000D02*
X84049998Y-39340000D01*
X142000000Y-54000000D02*
X142000000Y-52832880D01*
X142000000Y-52832880D02*
X128507120Y-39340000D01*
X62000000Y-47630000D02*
X62000000Y-46000000D01*
X62000000Y-52889998D02*
X62000000Y-47630000D01*
X62130000Y-47500000D02*
X62000000Y-47630000D01*
X78000000Y-47500000D02*
X62130000Y-47500000D01*
X102000000Y-47500000D02*
X102000000Y-54000000D01*
D24*
%TO.N,Net-(D49-Pad2)*%
X146000000Y-46212500D02*
X146000000Y-43790000D01*
%TO.N,Net-(D50-Pad2)*%
X150000000Y-46212500D02*
X150000000Y-43790000D01*
%TD*%
M02*
