%TF.GenerationSoftware,KiCad,Pcbnew,(5.1.6)-1*%
%TF.CreationDate,2020-07-03T16:53:40+09:00*%
%TF.ProjectId,PWM-PCA9685,50574d2d-5043-4413-9936-38352e6b6963,rev?*%
%TF.SameCoordinates,Original*%
%TF.FileFunction,Profile,NP*%
%FSLAX46Y46*%
G04 Gerber Fmt 4.6, Leading zero omitted, Abs format (unit mm)*
G04 Created by KiCad (PCBNEW (5.1.6)-1) date 2020-07-03 16:53:40*
%MOMM*%
%LPD*%
G01*
G04 APERTURE LIST*
%TA.AperFunction,Profile*%
%ADD10C,0.050000*%
%TD*%
G04 APERTURE END LIST*
D10*
X168000760Y-30079468D02*
G75*
G02*
X169460001Y-26540001I4999240J9468D01*
G01*
X167000001Y-17000001D02*
G75*
G02*
X172999999Y-22999999I2999999J-2999999D01*
G01*
X172999999Y-112000001D02*
G75*
G02*
X167000001Y-117999999I-2999999J-2999999D01*
G01*
X151853290Y-32150977D02*
G75*
G02*
X137710001Y-37999999I-14133290J14150977D01*
G01*
X169464466Y-108465534D02*
G75*
G02*
X168000000Y-104930000I3535534J3535534D01*
G01*
X143730297Y-103003020D02*
G75*
G02*
X157869999Y-108870001I-10297J-19996980D01*
G01*
X173000000Y-23000000D02*
X169460001Y-26540001D01*
X167000000Y-17000000D02*
X151853290Y-32150978D01*
X167000000Y-118000000D02*
X157869999Y-108870001D01*
X173000000Y-112000000D02*
X169464466Y-108465534D01*
X24000000Y-38000000D02*
G75*
G02*
X28000000Y-42000000I0J-4000000D01*
G01*
X20000000Y-38000000D02*
G75*
G02*
X16000000Y-34000000I0J4000000D01*
G01*
X24000000Y-38000000D02*
X20000000Y-38000000D01*
X86000000Y-38000000D02*
G75*
G02*
X82000000Y-34000000I0J4000000D01*
G01*
X82000000Y-20000000D02*
X82000000Y-34000000D01*
X78000000Y-16000000D02*
G75*
G02*
X82000000Y-20000000I0J-4000000D01*
G01*
X20000000Y-16000000D02*
X78000000Y-16000000D01*
X16000000Y-20000000D02*
G75*
G02*
X20000000Y-16000000I4000000J0D01*
G01*
X16000000Y-34000000D02*
X16000000Y-20000000D01*
X22999999Y-117999999D02*
G75*
G02*
X17000001Y-112000001I-2999999J2999999D01*
G01*
X27996980Y-92720000D02*
G75*
G02*
X22140000Y-106860000I-19996980J0D01*
G01*
X32130794Y-108864936D02*
G75*
G02*
X46270000Y-103000000I14149206J-14135064D01*
G01*
X23000000Y-118000000D02*
X32130795Y-108864935D01*
X17000000Y-112000000D02*
X22139999Y-106859999D01*
X137710001Y-37999999D02*
X86000000Y-38000000D01*
X168000000Y-104930000D02*
X168000760Y-30079468D01*
X46270000Y-103000000D02*
X143730297Y-103003019D01*
X28000000Y-42000000D02*
X27996980Y-92720000D01*
X171500000Y-20000000D02*
G75*
G03*
X171500000Y-20000000I-1500000J0D01*
G01*
X171500000Y-115000000D02*
G75*
G03*
X171500000Y-115000000I-1500000J0D01*
G01*
X79500000Y-28350000D02*
G75*
G03*
X79500000Y-28350000I-1500000J0D01*
G01*
X21500000Y-20000000D02*
G75*
G03*
X21500000Y-20000000I-1500000J0D01*
G01*
X21500000Y-28350000D02*
G75*
G03*
X21500000Y-28350000I-1500000J0D01*
G01*
X21500000Y-115000000D02*
G75*
G03*
X21500000Y-115000000I-1500000J0D01*
G01*
M02*
